<svg id="apple_1_" data-name="apple (1)" xmlns="http://www.w3.org/2000/svg" width="26.247" height="32" viewBox="0 0 26.247 32">
  <path id="Path_30" data-name="Path 30" d="M54.724,142.586c-4.763-.027-8.7-9.749-8.7-14.7,0-8.088,6.067-9.858,8.405-9.858a9.672,9.672,0,0,1,3.171.78,7.089,7.089,0,0,0,1.811.519,5.635,5.635,0,0,0,1.3-.421,10.412,10.412,0,0,1,3.916-.947h.009a8.026,8.026,0,0,1,6.716,3.392l.49.736-.7.532a5.932,5.932,0,0,0-2.845,4.892,5.521,5.521,0,0,0,3.081,5.1c.441.266.9.539.9,1.138,0,.391-3.12,8.785-7.651,8.785a6.153,6.153,0,0,1-2.584-.627,5.239,5.239,0,0,0-2.3-.554,5.916,5.916,0,0,0-1.821.493,8.92,8.92,0,0,1-3.159.737Z" transform="translate(-46.022 -110.586)" fill="#fffffe"/>
  <path id="Path_31" data-name="Path 31" d="M261.166,0c.118,4.255-2.925,7.207-5.964,7.021C254.7,3.626,258.241,0,261.166,0Z" transform="translate(-242.084)" fill="#fffffe"/>
</svg>
