<?xml version="1.0" encoding="utf-8"?>
<!-- Generator: Adobe Illustrator 23.0.3, SVG Export Plug-In . SVG Version: 6.00 Build 0)  -->
<svg version="1.1" id="Layer_1" xmlns="http://www.w3.org/2000/svg" xmlns:xlink="http://www.w3.org/1999/xlink" x="0px" y="0px"
	 viewBox="0 0 100 100" style="enable-background:new 0 0 100 100;" xml:space="preserve">
<style type="text/css">
	.st0{fill:#E6E6FE;}
	.st1{fill:#546DE5;}
</style>
<g id="calendar" transform="translate(-482 -2575)">
	<g id="Group_288" transform="translate(481.759 2575)">
		<g id="Rectangle_727">
			<path class="st0" d="M50.2,0L50.2,0c27.6,0,50,22.4,50,50l0,0c0,27.6-22.4,50-50,50l0,0c-27.6,0-50-22.4-50-50l0,0
				C0.2,22.4,22.6,0,50.2,0z"/>
		</g>
	</g>
	<g id="Event" transform="translate(-10019 1576)">
		<g id="calendar_1_" transform="translate(10529 1026)">
			<g id="Path_166">
				<path class="st1" d="M22.5,39.5c6,0,10.8-4.8,10.8-10.8s-4.8-10.8-10.8-10.8s-10.8,4.8-10.8,10.8l0,0
					C11.7,34.7,16.5,39.5,22.5,39.5z M22.5,20.7c4.5,0,8.1,3.6,8.1,8.1s-3.6,8.1-8.1,8.1s-8.1-3.6-8.1-8.1l0,0
					C14.4,24.3,18,20.7,22.5,20.7z"/>
				<path class="st1" d="M22.5,40L22.5,40c-6.2,0-11.3-5.1-11.3-11.3s5.1-11.3,11.3-11.3s11.3,5.1,11.3,11.3
					C33.8,35,28.7,40,22.5,40z M22.5,18.5c-5.7,0-10.3,4.6-10.3,10.3s4.6,10.3,10.3,10.3s10.3-4.6,10.3-10.3S28.1,18.5,22.5,18.5z
					 M22.5,37.3c-4.7,0-8.6-3.8-8.6-8.6c0-4.7,3.8-8.6,8.6-8.6l0,0c4.7,0,8.6,3.8,8.6,8.6C31,33.5,27.2,37.3,22.5,37.3z M22.5,21.2
					c-4.2,0-7.6,3.4-7.6,7.6s3.4,7.6,7.6,7.6s7.6-3.4,7.6-7.6S26.6,21.2,22.5,21.2L22.5,21.2z"/>
			</g>
			<g id="Path_167">
				<path class="st1" d="M40.5,2.9H38V1.4C38,0.6,37.4,0,36.6,0c-0.8,0-1.4,0.6-1.4,1.4l0,0v1.5h-2.7V1.4c0-0.8-0.6-1.4-1.4-1.4
					C30.6,0,30,0.6,30,1.4v1.5H15V1.4C15,0.6,14.4,0,13.6,0c-0.8,0-1.4,0.6-1.4,1.4v1.5H9.6V1.4C9.6,0.6,9,0,8.2,0
					C7.5,0,6.9,0.6,6.9,1.4v1.5H4.4C2,2.9,0,4.9,0,7.3v34.3C0,44,2,46,4.4,46h36.2c2.4,0,4.4-2,4.4-4.4V7.3
					C44.9,4.9,43,2.9,40.5,2.9z M42.2,41.6c0,0.9-0.8,1.7-1.7,1.7H4.4c-0.9,0-1.7-0.8-1.7-1.7V14.2h39.5V41.6z M2.7,7.3
					c0-0.9,0.8-1.7,1.7-1.7h2.5v1.5c0,0.8,0.6,1.4,1.4,1.4s1.4-0.6,1.4-1.4V5.6h2.7v1.5c0,0.8,0.6,1.4,1.4,1.4
					c0.8,0,1.4-0.6,1.4-1.4V5.6h15v1.5c0,0.8,0.6,1.4,1.4,1.4S33,7.9,33,7.1V5.6h2.7v1.5c0,0.8,0.6,1.4,1.4,1.4
					c0.8,0,1.4-0.6,1.4-1.4V5.6H41c0.9,0,1.7,0.8,1.7,1.7v4.2h-40V7.3z"/>
				<path class="st1" d="M40.6,46.5H4.4c-2.7,0-4.9-2.2-4.9-4.9V7.3c0-2.7,2.2-4.9,4.9-4.9h2v-1c0-1,0.8-1.9,1.9-1.9
					s1.9,0.8,1.9,1.9v1h1.7v-1c0-1,0.8-1.9,1.9-1.9s1.9,0.8,1.9,1.9v1h14v-1c0-1,0.8-1.9,1.9-1.9c1,0,1.9,0.8,1.9,1.9v1h1.7v-1
					c0-0.5,0.2-1,0.5-1.3c0.4-0.4,0.8-0.5,1.3-0.5l0,0c1,0,1.9,0.8,1.9,1.9v1h2c2.7,0,4.9,2.2,4.9,4.9v34.3
					C45.4,44.3,43.2,46.5,40.6,46.5z M4.4,3.4c-2.1,0-3.9,1.8-3.9,3.9v34.3c0,2.1,1.8,3.9,3.9,3.9h36.2c2.1,0,3.9-1.8,3.9-3.9V7.3
					c0-2.1-1.8-3.9-3.9-3.9h-3v-2c0-0.5-0.4-0.9-0.9-0.9l0,0c-0.2,0-0.4,0.1-0.6,0.3s-0.3,0.4-0.3,0.6v2h-3.7v-2
					c0-0.5-0.4-0.9-0.9-0.9s-0.9,0.4-0.9,0.9v2h-16v-2c0-0.5-0.4-0.9-0.9-0.9s-0.9,0.4-0.9,0.9v2H9.1v-2c0-0.5-0.4-0.9-0.9-0.9
					S7.4,0.9,7.4,1.4v2H4.4z M40.6,43.8H4.4c-1.2,0-2.2-1-2.2-2.2V13.7h40.5v27.9C42.7,42.8,41.7,43.8,40.6,43.8z M3.2,14.7v26.9
					c0,0.6,0.5,1.2,1.2,1.2h36.2c0.6,0,1.2-0.5,1.2-1.2V14.7H3.2z M42.7,12H2.2V7.3c0-1.2,1-2.2,2.2-2.2h3v2C7.4,7.6,7.8,8,8.2,8
					s0.9-0.4,0.9-0.9v-2h3.7v2c0,0.5,0.4,0.9,0.9,0.9s0.9-0.4,0.9-0.9v-2h16v2C30.6,7.6,31,8,31.5,8s0.9-0.4,0.9-0.9v-2h3.7v2
					C36.1,7.6,36.5,8,37,8s0.9-0.4,0.9-0.9v-2h3c1.2,0,2.2,1,2.2,2.2V12H42.7z M3.2,11h38.5V7.3c0-0.6-0.5-1.2-1.2-1.2h-2v1
					c0,1-0.8,1.9-1.9,1.9s-1.9-0.8-1.9-1.9v-1H33v1c0,1-0.8,1.9-1.9,1.9c-1,0-1.9-0.8-1.9-1.9v-1h-14v1c0,1-0.8,1.9-1.9,1.9
					s-1.9-0.8-1.9-1.9v-1H9.7v1c0,1-0.8,1.9-1.9,1.9S6.4,8.2,6.4,7.1v-1h-2c-0.6,0-1.2,0.5-1.2,1.2V11z"/>
			</g>
		</g>
		<g id="pin" transform="translate(10547.839 1049.554)">
			<g id="Path_168">
				<path class="st1" d="M6.7,1.8C6.1,0.7,5,0,3.7,0C3.6,0,3.6,0,3.5,0c-1.3,0-2.4,0.7-3,1.8c-0.7,1.1-0.7,2.5,0,3.6l2.6,4.8l0,0
					c0.2,0.3,0.6,0.4,0.9,0.2c0.1-0.1,0.2-0.1,0.2-0.2l0,0l2.6-4.8C7.4,4.3,7.4,2.9,6.7,1.8z M3.6,4.8c-0.8,0-1.5-0.7-1.5-1.5
					s0.7-1.5,1.5-1.5s1.5,0.7,1.5,1.5S4.4,4.8,3.6,4.8z"/>
			</g>
		</g>
	</g>
</g>
</svg>
