<svg id="instagram_2_" data-name="instagram (2)" xmlns="http://www.w3.org/2000/svg" width="24" height="24" viewBox="0 0 24 24">
  <path id="Path_2746" data-name="Path 2746" d="M211.594,209.3a2.3,2.3,0,1,1-2.3-2.3A2.3,2.3,0,0,1,211.594,209.3Zm0,0" transform="translate(-197.297 -197.297)" fill="#e6e6fe"/>
  <path id="Path_2747" data-name="Path 2747" d="M146.505,137.074a2.282,2.282,0,0,0-1.308-1.308,3.812,3.812,0,0,0-1.279-.237c-.727-.033-.945-.04-2.784-.04s-2.058.007-2.784.04a3.815,3.815,0,0,0-1.279.237,2.283,2.283,0,0,0-1.308,1.308,3.814,3.814,0,0,0-.237,1.28c-.033.727-.04.944-.04,2.784s.007,2.058.04,2.784a3.812,3.812,0,0,0,.237,1.279,2.282,2.282,0,0,0,1.308,1.308,3.808,3.808,0,0,0,1.28.237c.727.033.944.04,2.784.04s2.058-.007,2.784-.04a3.808,3.808,0,0,0,1.28-.237,2.282,2.282,0,0,0,1.308-1.308,3.816,3.816,0,0,0,.237-1.279c.033-.727.04-.945.04-2.784s-.007-2.058-.04-2.784A3.808,3.808,0,0,0,146.505,137.074Zm-5.372,7.6a3.538,3.538,0,1,1,3.538-3.538A3.538,3.538,0,0,1,141.134,144.676Zm3.678-6.39a.827.827,0,1,1,.827-.827A.827.827,0,0,1,144.812,138.286Zm0,0" transform="translate(-129.134 -129.138)" fill="#e6e6fe"/>
  <path id="Path_2748" data-name="Path 2748" d="M12,0A12,12,0,1,0,24,12,12,12,0,0,0,12,0Zm6.849,14.841a5.056,5.056,0,0,1-.32,1.673,3.523,3.523,0,0,1-2.015,2.015,5.059,5.059,0,0,1-1.672.32c-.735.034-.97.042-2.841.042s-2.106-.008-2.841-.042a5.059,5.059,0,0,1-1.672-.32,3.523,3.523,0,0,1-2.015-2.015,5.054,5.054,0,0,1-.32-1.672c-.034-.735-.042-.97-.042-2.841s.008-2.106.042-2.841a5.056,5.056,0,0,1,.32-1.673A3.526,3.526,0,0,1,7.486,5.471a5.06,5.06,0,0,1,1.673-.32c.735-.034.97-.042,2.841-.042s2.106.008,2.841.042a5.061,5.061,0,0,1,1.673.32,3.524,3.524,0,0,1,2.015,2.015,5.055,5.055,0,0,1,.32,1.673c.034.735.041.97.041,2.841S18.883,14.106,18.849,14.841Zm0,0" fill="#e6e6fe"/>
</svg>
