<svg id="more-blue" xmlns="http://www.w3.org/2000/svg" width="100" height="100" viewBox="0 0 100 100">
  <rect id="Rectangle_728" data-name="Rectangle 728" width="100" height="100" rx="50" fill="#e6e6fe"/>
  <g id="_27" data-name="27" transform="translate(30 30)">
    <path id="Path_2778" data-name="Path 2778" d="M1.5,1.5H15.786V15.786H1.5Z" transform="translate(-0.071 -0.071)" fill="#185aeb"/>
    <path id="Path_2779" data-name="Path 2779" d="M9.5,1.5H23.786V15.786H9.5Z" transform="translate(14.786 -0.071)" fill="#185aeb"/>
    <path id="Path_2780" data-name="Path 2780" d="M1.5,9.5H15.786V23.786H1.5Z" transform="translate(-0.071 14.786)" fill="#185aeb"/>
    <path id="Path_2781" data-name="Path 2781" d="M9.5,9.5H23.786V23.786H9.5Z" transform="translate(14.786 14.786)" fill="#185aeb"/>
    <g id="Group_287" data-name="Group 287">
      <path id="Path_2782" data-name="Path 2782" d="M16.714,18.143H2.429A1.429,1.429,0,0,1,1,16.714V2.429A1.429,1.429,0,0,1,2.429,1H16.714a1.429,1.429,0,0,1,1.429,1.429V16.714A1.429,1.429,0,0,1,16.714,18.143ZM3.857,15.286H15.286V3.857H3.857Z" transform="translate(-1 -1)" fill="#185aeb"/>
      <path id="Path_2783" data-name="Path 2783" d="M24.714,18.143H10.429A1.429,1.429,0,0,1,9,16.714V2.429A1.429,1.429,0,0,1,10.429,1H24.714a1.429,1.429,0,0,1,1.429,1.429V16.714A1.429,1.429,0,0,1,24.714,18.143ZM11.857,15.286H23.286V3.857H11.857Z" transform="translate(13.857 -1)" fill="#185aeb"/>
      <path id="Path_2784" data-name="Path 2784" d="M16.714,26.143H2.429A1.429,1.429,0,0,1,1,24.714V10.429A1.429,1.429,0,0,1,2.429,9H16.714a1.429,1.429,0,0,1,1.429,1.429V24.714A1.429,1.429,0,0,1,16.714,26.143ZM3.857,23.286H15.286V11.857H3.857Z" transform="translate(-1 13.857)" fill="#185aeb"/>
      <path id="Path_2785" data-name="Path 2785" d="M24.714,26.143H10.429A1.429,1.429,0,0,1,9,24.714V10.429A1.429,1.429,0,0,1,10.429,9H24.714a1.429,1.429,0,0,1,1.429,1.429V24.714A1.429,1.429,0,0,1,24.714,26.143ZM11.857,23.286H23.286V11.857H11.857Z" transform="translate(13.857 13.857)" fill="#185aeb"/>
    </g>
  </g>
</svg>
