<?xml version="1.0" encoding="utf-8"?>
<!-- Generator: Adobe Illustrator 23.0.3, SVG Export Plug-In . SVG Version: 6.00 Build 0)  -->
<svg version="1.1" id="Layer_1" xmlns="http://www.w3.org/2000/svg" xmlns:xlink="http://www.w3.org/1999/xlink" x="0px" y="0px"
	 viewBox="0 0 100 100" style="enable-background:new 0 0 100 100;" xml:space="preserve">
<style type="text/css">
	.st0{fill:#FFF1E2;}
	.st1{fill:#FFB770;}
</style>
<g id="peer-connection" transform="translate(-785 -2575)">
	<g id="Rectangle_726">
		<path class="st0" d="M835,2575L835,2575c27.6,0,50,22.4,50,50l0,0c0,27.6-22.4,50-50,50l0,0c-27.6,0-50-22.4-50-50l0,0
			C785,2597.4,807.4,2575,835,2575z"/>
	</g>
	<g id="connection" transform="translate(810 2563)">
		<g id="Path_2804">
			<path class="st1" d="M36.3,55.6c-4.8,0-9.3,2.6-11.8,6.7l-11.9-5.2c0.1-0.7,0.1-1.5,0-2.2l12.2-5.3c1.9,2.3,5.3,2.7,7.6,0.8
				c2.3-1.9,2.7-5.3,0.8-7.6c-1.9-2.3-5.3-2.7-7.6-0.8c-1.5,1.2-2.2,3-1.9,4.9l-12.2,5.3C9.3,49.5,5.4,49,2.6,51
				c-2.8,2.1-3.4,6.1-1.3,8.9s6.1,3.4,8.9,1.3c0.5-0.4,0.9-0.8,1.3-1.3l11.9,5.1C21,72.2,24.9,80,32.1,82.3
				c7.2,2.4,14.9-1.6,17.3-8.7s-1.6-14.9-8.7-17.3C39.2,55.9,37.8,55.6,36.3,55.6L36.3,55.6z M29,43.9c1.3,0,2.4,1.1,2.4,2.4
				c0,1.3-1.1,2.4-2.4,2.4c-1.3,0-2.4-1.1-2.4-2.4C26.6,45,27.7,43.9,29,43.9z M6.3,59.6c-1.9,0-3.4-1.5-3.4-3.4s1.5-3.4,3.4-3.4
				s3.4,1.5,3.4,3.4l0,0C9.8,58,8.2,59.6,6.3,59.6z M31,78.6L31,78.6c0-3,2.4-5.4,5.4-5.4c3,0,5.4,2.4,5.4,5.4l0,0v0
				C38.4,80.5,34.3,80.5,31,78.6L31,78.6z M33.9,67.9c0-1.3,1.1-2.4,2.4-2.4c1.3,0,2.4,1.1,2.4,2.4c0,1.3-1.1,2.4-2.4,2.4
				C35,70.3,33.9,69.2,33.9,67.9L33.9,67.9z M44.3,76.5c-0.6-2.2-2-4-4-5.1c1.9-2.2,1.7-5.6-0.5-7.6c-2.2-1.9-5.6-1.7-7.6,0.5
				c-1.7,2-1.7,5,0,7c-2,1.1-3.4,2.9-4,5.1c-3.9-4.4-3.6-11.2,0.9-15.2s11.2-3.6,15.2,0.9C48,66.2,48,72.4,44.3,76.5L44.3,76.5z"/>
			<path class="st1" d="M36.3,83.3c-1.5,0-2.9-0.2-4.4-0.7c-7.2-2.4-11.2-10.1-9-17.4l-11.5-5c-0.4,0.5-0.8,0.9-1.2,1.2
				c-1.4,1.1-3.2,1.5-4.9,1.2c-1.7-0.3-3.3-1.2-4.3-2.6c-1.1-1.4-1.5-3.2-1.2-4.9c0.3-1.7,1.2-3.3,2.6-4.3c2.9-2.1,6.9-1.6,9.1,1.2
				l11.9-5.1C23.2,45,24,43.2,25.5,42c2.4-2,6-1.6,7.9,0.8c1,1.2,1.4,2.6,1.2,4.1c-0.2,1.5-0.9,2.8-2.1,3.8c-1.2,1-2.6,1.4-4.1,1.2
				c-1.4-0.1-2.7-0.8-3.7-1.9l-11.9,5.1c0.1,0.6,0.1,1.3,0,1.9l11.6,5c2.5-4.1,7-6.7,11.9-6.7l0.6,0l0,0c1.3,0.1,2.5,0.3,3.8,0.7
				c3.5,1.2,6.4,3.6,8.1,6.9c1.7,3.3,2,7.1,0.8,10.6s-3.6,6.4-6.9,8.1C40.6,82.7,38.5,83.3,36.3,83.3z M11.4,59.6l12.3,5.3l-0.1,0.2
				c-2.3,7,1.5,14.6,8.6,16.9c3.4,1.1,7,0.8,10.2-0.8c3.2-1.6,5.6-4.4,6.7-7.8s0.8-7-0.8-10.2c-1.6-3.2-4.4-5.6-7.8-6.7
				c-1.4-0.4-2.8-0.7-4.2-0.7h-0.2c-4.7,0.1-9,2.6-11.4,6.6l-0.1,0.2l-12.3-5.3l0-0.2c0.1-0.7,0.1-1.4,0-2.1l0-0.2l12.6-5.4l0.1,0.1
				c0.9,1.1,2.1,1.7,3.5,1.9c1.4,0.1,2.7-0.3,3.8-1.1s1.7-2.1,1.9-3.5c0.1-1.4-0.3-2.7-1.1-3.8c-1.8-2.2-5-2.5-7.2-0.7
				c-1.4,1.1-2.1,2.9-1.9,4.7l0,0.2l-12.6,5.4l-0.1-0.2c-2-2.7-5.8-3.3-8.5-1.3c-1.3,1-2.2,2.4-2.4,4c-0.2,1.6,0.2,3.2,1.1,4.5
				c1,1.3,2.4,2.2,4,2.4C7.1,62.4,8.7,62,10,61c0.5-0.4,0.9-0.8,1.3-1.3L11.4,59.6z M36.3,80.3c-1.9,0-3.8-0.5-5.5-1.5l-0.1-0.1
				v-0.2c0-3.1,2.5-5.6,5.6-5.6s5.6,2.5,5.6,5.6v0.1l-0.1,0.1C40.1,79.8,38.2,80.3,36.3,80.3z M31.2,78.5c3.2,1.8,7.1,1.8,10.2,0
				c-0.1-2.8-2.3-5-5.1-5C33.5,73.5,31.3,75.7,31.2,78.5z M44.2,77l-0.1-0.4c-0.6-2.1-2-3.9-3.8-4.9L40,71.4l0.2-0.2
				c0.9-1,1.3-2.4,1.2-3.7c-0.1-1.4-0.7-2.6-1.8-3.5c-1-0.9-2.3-1.3-3.7-1.2c-1.4,0.1-2.6,0.7-3.5,1.8c-1.7,1.9-1.7,4.8,0,6.7
				l0.2,0.2l-0.3,0.2c-1.9,1.1-3.3,2.9-3.8,4.9L28.4,77l-0.3-0.3c-4-4.5-3.6-11.5,0.9-15.5c2.2-2,5-2.9,7.9-2.8
				c2.9,0.2,5.6,1.5,7.6,3.7c3.7,4.2,3.7,10.5,0,14.6L44.2,77z M36.3,58.8c-2.6,0-5,0.9-7,2.7c-4.2,3.7-4.7,10.1-1.1,14.5
				c0.6-1.9,2-3.6,3.7-4.7c-1.6-2.1-1.6-5.1,0.2-7.1c1-1.1,2.3-1.8,3.8-1.9c1.5-0.1,2.9,0.4,4.1,1.4c1.1,1,1.8,2.3,1.9,3.8
				c0.1,1.4-0.3,2.8-1.2,3.9c1.7,1.1,3.1,2.7,3.7,4.7c3.2-4,3.2-9.7-0.3-13.6c-1.9-2.1-4.4-3.3-7.2-3.5
				C36.7,58.8,36.5,58.8,36.3,58.8z M36.3,70.5c-1.5,0-2.7-1.2-2.7-2.7c0-1.5,1.2-2.7,2.7-2.7c0,0,0,0,0,0c1.5,0,2.7,1.2,2.7,2.7
				C39,69.3,37.8,70.5,36.3,70.5z M34.1,67.9c0,1.2,1,2.2,2.2,2.2c1.2,0,2.2-1,2.2-2.2c0-1.2-1-2.2-2.2-2.2c0,0,0,0,0,0
				C35.1,65.7,34.1,66.6,34.1,67.9L34.1,67.9z M6.3,59.8L6.3,59.8c-2,0-3.7-1.6-3.7-3.7s1.6-3.7,3.7-3.7s3.7,1.6,3.7,3.7
				C10,58.2,8.4,59.8,6.3,59.8z M6.3,53c-1.7,0-3.2,1.4-3.2,3.2c0,1.7,1.4,3.2,3.2,3.2c1.7,0,3.2-1.4,3.2-3.2
				C9.5,54.4,8.1,53,6.3,53z M29,49.1c-1.5,0-2.7-1.2-2.7-2.7c0-1.5,1.2-2.7,2.7-2.7l0,0c1.5,0,2.7,1.2,2.7,2.7S30.5,49.1,29,49.1z
				 M29,44.2c-1.2,0-2.2,1-2.2,2.2c0,1.2,1,2.2,2.2,2.2s2.2-1,2.2-2.2S30.2,44.2,29,44.2L29,44.2z"/>
		</g>
	</g>
</g>
</svg>
