<?xml version="1.0" encoding="utf-8"?>
<!-- Generator: Adobe Illustrator 23.0.3, SVG Export Plug-In . SVG Version: 6.00 Build 0)  -->
<svg version="1.1" id="Layer_1" xmlns="http://www.w3.org/2000/svg" xmlns:xlink="http://www.w3.org/1999/xlink" x="0px" y="0px"
	 viewBox="0 0 100 115.1" style="enable-background:new 0 0 100 115.1;" xml:space="preserve">
<style type="text/css">
	.st0{fill:#FFFFFF;}
	.st1{fill:#C9C8CD;}
	.st2{fill:#E6E6E6;}
	.st3{fill:#D2D2D2;}
	.st4{fill:#F1F1F1;}
	.st5{fill:#FBFBFC;}
	.st6{enable-background:new    ;}
</style>
<g id="no-document" transform="translate(-7963 -1801.822)">
	<g id="document" transform="translate(7990.054 1801.822)">
		<g id="Rectangle_80" transform="translate(2.313 2.313)">
			<g id="Rectangle_85">
				<rect x="0" y="0" class="st0" width="41.1" height="41.6"/>
			</g>
		</g>
		<g id="list" transform="translate(0)">
			<g id="Group_147">
				<g id="Group_146">
					<g id="Path_80">
						<g id="Path_125">
							<path class="st1" d="M41.2,0H4.9C2.2,0,0,2.2,0,4.9l0,0v36.2c0,2.7,2.2,4.9,4.9,4.9h36.2c2.7,0,4.9-2.2,4.9-4.9l0,0V4.9
								C46.1,2.2,43.9,0,41.2,0z M42.8,41.2c0,0.9-0.7,1.6-1.6,1.6H4.9c-0.9,0-1.6-0.7-1.6-1.6V4.9C3.3,4,4,3.3,4.9,3.3h36.2
								c0.9,0,1.6,0.7,1.6,1.6l0,0V41.2z"/>
						</g>
					</g>
				</g>
			</g>
			<g id="Group_149" transform="translate(8.233 9.88)">
				<g id="Group_148">
					<g id="Path_81">
						<g id="Path_126">
							<path class="st1" d="M6.6,0H1.6C0.7,0,0,0.7,0,1.6s0.7,1.6,1.7,1.6h4.9c0.9,0,1.6-0.7,1.6-1.6S7.5,0,6.6,0z"/>
						</g>
					</g>
				</g>
			</g>
			<g id="Group_151" transform="translate(19.761 9.88)">
				<g id="Group_150">
					<g id="Path_82">
						<g id="Path_127">
							<path class="st1" d="M16.5,0H1.6C0.7,0,0,0.7,0,1.6s0.7,1.6,1.7,1.6h14.8c0.9,0,1.6-0.7,1.6-1.6S17.4,0,16.5,0L16.5,0z"/>
						</g>
					</g>
				</g>
			</g>
			<g id="Group_153" transform="translate(8.233 21.408)">
				<g id="Group_152">
					<g id="Path_83">
						<g id="Path_128">
							<path class="st1" d="M6.6,0H1.6C0.7,0,0,0.7,0,1.6s0.7,1.6,1.7,1.6h4.9c0.9,0,1.6-0.7,1.6-1.6S7.5,0,6.6,0z"/>
						</g>
					</g>
				</g>
			</g>
			<g id="Group_155" transform="translate(19.761 21.408)">
				<g id="Group_154">
					<g id="Path_84">
						<g id="Path_129">
							<path class="st1" d="M16.5,0H1.6C0.7,0,0,0.7,0,1.6s0.7,1.6,1.7,1.6h14.8c0.9,0,1.6-0.7,1.6-1.6S17.4,0,16.5,0L16.5,0z"/>
						</g>
					</g>
				</g>
			</g>
			<g id="Group_157" transform="translate(8.233 32.936)">
				<g id="Group_156">
					<g id="Path_85">
						<g id="Path_130">
							<path class="st1" d="M6.6,0H1.6C0.7,0,0,0.7,0,1.6s0.7,1.6,1.7,1.6h4.9c0.9,0,1.6-0.7,1.6-1.6S7.5,0,6.6,0z"/>
						</g>
					</g>
				</g>
			</g>
			<g id="Group_159" transform="translate(19.761 32.936)">
				<g id="Group_158">
					<g id="Path_86">
						<g id="Path_131">
							<path class="st1" d="M16.5,0H1.6C0.7,0,0,0.7,0,1.6s0.7,1.6,1.7,1.6h14.8c0.9,0,1.6-0.7,1.6-1.6S17.4,0,16.5,0L16.5,0z"/>
						</g>
					</g>
				</g>
			</g>
		</g>
	</g>
	<g id="Group_2951" transform="translate(7963 1858.612)">
		<g id="_113---Mailbox" transform="translate(0 0)">
			<g id="Shape">
				<path class="st2" d="M50,56.7h41.7c3.7,0,6.7-3,6.7-6.7V34c0-1.5-0.5-2.9-1.4-4.1L77,4.2c-1.3-1.6-3.2-2.6-5.3-2.6H28.3
					c-2.1,0-4,1-5.3,2.6L3.1,29.9C2.2,31,1.7,32.5,1.7,34v16c0,3.7,3,6.7,6.7,6.7H50z"/>
			</g>
			<g id="Shape-2">
				<path class="st3" d="M96.9,29.9L77,4.2c-1.3-1.6-3.2-2.6-5.3-2.6h-5c2.1,0,4,1,5.3,2.6l19.9,25.6c0.9,1.2,1.4,2.6,1.4,4.1v16
					c0,3.7-3,6.7-6.7,6.7h5c3.7,0,6.7-3,6.7-6.7V34C98.3,32.5,97.8,31,96.9,29.9z"/>
			</g>
			<g id="Shape-3">
				<path class="st4" d="M91.7,35l-20-26.7H28.3L8.3,35h21.3c1.3,0,2.4,0.7,3,1.8l3.2,6.3c0.6,1.1,1.7,1.8,3,1.8h22.5
					c1.3,0,2.4-0.7,3-1.8l3.2-6.3c0.6-1.1,1.7-1.8,3-1.8H91.7z"/>
			</g>
			<g id="Shape-4">
				<path class="st5" d="M8.3,56.7h5c-3.7,0-6.7-3-6.7-6.7V34c0-1.5,0.5-2.9,1.4-4.1L28,4.2c1.3-1.6,3.2-2.6,5.3-2.6h-5
					c-2.1,0-4,1-5.3,2.6L3.1,29.9C2.2,31,1.7,32.5,1.7,34v16C1.7,53.7,4.7,56.7,8.3,56.7z"/>
			</g>
			<g id="Rectangle-path">
				<path class="st5" d="M13.5,13.7l8.2-10.5l2.6,2l-8.2,10.5L13.5,13.7z"/>
			</g>
			<g id="Group_2949">
				<g id="Shape-5">
					<path class="st1" d="M20.2,10.5c0.6-0.7,0.4-1.8-0.3-2.3c-0.7-0.6-1.8-0.4-2.3,0.3c-0.6,0.7-0.4,1.8,0.3,2.3c0,0,0,0,0,0
						C18.6,11.4,19.7,11.2,20.2,10.5z"/>
				</g>
				<g id="Shape-6">
					<path class="st1" d="M78.3,3.2c-1.6-2-4-3.2-6.6-3.2H28.3c-2.6,0-5,1.2-6.6,3.2c-0.6,0.7-0.5,1.8,0.2,2.3
						c0.7,0.6,1.8,0.5,2.3-0.2c0,0,0,0,0.1-0.1c1-1.2,2.4-1.9,3.9-1.9h43.5c1.5,0,3,0.7,3.9,1.9l19.9,25.6c0.7,0.9,1.1,2,1.1,3.1v16
						c0,2.8-2.2,5-5,5H8.3c-2.8,0-5-2.2-5-5V34c0-1.1,0.4-2.2,1.1-3.1l11.7-15.1c0.5-0.7,0.4-1.8-0.4-2.3c-0.7-0.5-1.7-0.4-2.3,0.3
						L1.8,28.8C0.6,30.3,0,32.1,0,34v16c0,4.6,3.7,8.3,8.3,8.3h83.3c4.6,0,8.3-3.7,8.3-8.3V34c0-1.9-0.6-3.7-1.8-5.1L78.3,3.2z"/>
				</g>
				<g id="Shape-7">
					<path class="st1" d="M29.3,7c-0.7-0.6-1.8-0.4-2.3,0.3L7,34c-0.6,0.7-0.4,1.8,0.3,2.3c0.3,0.2,0.6,0.3,1,0.3h21.3
						c0.6,0,1.2,0.4,1.5,0.9l3.2,6.3c0.8,1.7,2.6,2.8,4.5,2.8h22.5c1.9,0,3.6-1.1,4.5-2.8l3.2-6.3c0.3-0.6,0.9-0.9,1.5-0.9h7.9
						c0.9,0,1.7-0.7,1.7-1.6c0-0.9-0.7-1.7-1.6-1.7c0,0-0.1,0-0.1,0h-7.9c-1.9,0-3.6,1.1-4.5,2.8l-3.2,6.3c-0.3,0.6-0.9,0.9-1.5,0.9
						H38.7c-0.6,0-1.2-0.4-1.5-0.9l-3.2-6.3c-0.8-1.7-2.6-2.8-4.5-2.8H11.7l18-24C30.2,8.6,30.1,7.6,29.3,7L29.3,7z"/>
				</g>
				<g id="Shape-8">
					<path class="st1" d="M70.8,10l19.5,26c0.5,0.7,1.6,0.9,2.3,0.4c0.7-0.5,0.9-1.6,0.4-2.3c0,0,0,0,0,0L73,7.3
						c-0.3-0.4-0.8-0.7-1.3-0.7H38.3c-0.9,0-1.7,0.7-1.7,1.6c0,0.9,0.7,1.7,1.6,1.7c0,0,0.1,0,0.1,0H70.8z"/>
				</g>
			</g>
		</g>
		<g class="st6">
			<path class="st1" d="M48.5,28c-0.2-0.2-0.2-0.4-0.2-0.7c0-0.8,0.1-1.5,0.4-2c0.3-0.6,0.7-1.2,1.3-1.8c0.4-0.5,0.8-1,1-1.3
				c0.2-0.4,0.3-0.7,0.3-1.2c0-0.5-0.2-0.9-0.5-1.2c-0.4-0.3-0.8-0.4-1.5-0.4c-0.5,0-1,0.1-1.5,0.3s-1,0.6-1.7,1
				c-0.4,0.2-0.7,0.3-0.9,0.3c-0.2,0-0.5-0.1-0.6-0.3c-0.2-0.2-0.3-0.5-0.3-0.8c0-0.4,0.2-0.8,0.5-1c0.6-0.5,1.3-0.9,2.2-1.2
				c0.8-0.3,1.7-0.5,2.5-0.5c0.9,0,1.7,0.2,2.4,0.5c0.7,0.3,1.2,0.7,1.6,1.3c0.4,0.5,0.6,1.2,0.6,1.9c0,0.8-0.2,1.4-0.5,2
				c-0.4,0.6-0.9,1.2-1.6,1.9c-0.6,0.6-1.1,1.1-1.4,1.6s-0.5,0.9-0.6,1.4c0,0.2-0.1,0.4-0.3,0.5c-0.2,0.1-0.3,0.2-0.6,0.2
				C48.9,28.3,48.7,28.2,48.5,28z M48,32.5c-0.3-0.3-0.5-0.7-0.5-1.2c0-0.5,0.2-0.9,0.5-1.2c0.3-0.3,0.7-0.5,1.2-0.5
				s0.9,0.2,1.2,0.5c0.3,0.3,0.5,0.7,0.5,1.2c0,0.5-0.2,0.9-0.5,1.2c-0.3,0.3-0.7,0.5-1.2,0.5C48.7,32.9,48.3,32.8,48,32.5z"/>
		</g>
	</g>
</g>
</svg>
