<?xml version="1.0" encoding="utf-8"?>
<!-- Generator: Adobe Illustrator 23.0.3, SVG Export Plug-In . SVG Version: 6.00 Build 0)  -->
<svg version="1.1" id="Layer_1" xmlns="http://www.w3.org/2000/svg" xmlns:xlink="http://www.w3.org/1999/xlink" x="0px" y="0px"
	 viewBox="0 0 100 114.6" style="enable-background:new 0 0 100 114.6;" xml:space="preserve">
<style type="text/css">
	.st0{fill:#FFFFFF;}
	.st1{fill:#C9C8CD;}
	.st2{fill:#E6E6E6;}
	.st3{fill:#D2D2D2;}
	.st4{fill:#F1F1F1;}
	.st5{fill:#FBFBFC;}
	.st6{enable-background:new    ;}
</style>
<g id="no-notes" transform="translate(-8305 -1794.11)">
	<g id="Notes" transform="translate(8333.818 1794.11)">
		<g id="Path_40" transform="translate(5.975 0)">
			<g id="Path_96">
				<path class="st0" d="M30.7,40.1H4.6c-1.8,0-3.3-1.5-3.3-3.3c0,0,0,0,0,0l0,0V4.6c0-1.8,1.5-3.3,3.3-3.3l0,0h26.1
					c1.8,0,3.3,1.5,3.3,3.3l0,0v32.2C34,38.7,32.5,40.1,30.7,40.1z"/>
			</g>
			<g id="Path_97">
				<path class="st1" d="M30.7,41.5H4.6c-2.6,0-4.6-2.1-4.6-4.6V4.6C0,2.1,2.1,0,4.6,0h26.1c2.6,0,4.6,2.1,4.6,4.6v32.2
					C35.4,39.4,33.3,41.5,30.7,41.5z M4.6,2.7c-1,0-1.9,0.9-1.9,1.9c0,0,0,0,0,0v32.2c0,1,0.9,1.9,1.9,1.9l0,0h26.1
					c1,0,1.9-0.9,1.9-1.9c0,0,0,0,0,0V4.6c0-1-0.9-1.9-1.9-1.9l0,0L4.6,2.7z"/>
			</g>
		</g>
		<g id="Path_41" transform="translate(0 4.633)">
			<g id="Path_98">
				<path class="st0" d="M30.7,40.1H14c-7,0-12.6-5.7-12.6-12.6V4.6c0-1.8,1.5-3.3,3.3-3.3h26.1c1.8,0,3.3,1.5,3.3,3.3c0,0,0,0,0,0
					v32.2C34,38.7,32.5,40.1,30.7,40.1L30.7,40.1L30.7,40.1z"/>
			</g>
			<g id="Path_99">
				<path class="st1" d="M30.7,41.5H14c-7.7,0-14-6.3-14-14V4.6C0,2.1,2.1,0,4.6,0h26.1c2.6,0,4.6,2.1,4.6,4.6v32.2
					C35.4,39.4,33.3,41.5,30.7,41.5z M4.6,2.7c-1,0-1.9,0.9-1.9,1.9c0,0,0,0,0,0v22.9c0,6.2,5,11.3,11.3,11.3h16.7
					c1,0,1.9-0.9,1.9-1.9c0,0,0,0,0,0V4.6c0-1-0.9-1.9-1.9-1.9l0,0L4.6,2.7z"/>
			</g>
		</g>
		<g id="Group_140" transform="translate(6.764 13.642)">
			<g id="Line_19">
				<g id="Path_109">
					<path class="st1" d="M20.4,2.7H1.4C0.6,2.7,0,2.1,0,1.4S0.6,0,1.4,0h19.1c0.8,0,1.4,0.6,1.4,1.4S21.2,2.7,20.4,2.7z"/>
				</g>
			</g>
			<g id="Path_87" transform="translate(0 7.475)">
				<g id="Path_110">
					<path class="st1" d="M20.4,2.7H1.4C0.6,2.7,0,2.1,0,1.4S0.6,0,1.4,0h19.1c0.8,0,1.4,0.6,1.4,1.4S21.2,2.7,20.4,2.7z"/>
				</g>
			</g>
			<g id="Path_88" transform="translate(0 14.95)">
				<g id="Path_111">
					<path class="st1" d="M20.4,2.7H1.4C0.6,2.7,0,2.1,0,1.4S0.6,0,1.4,0h19.1c0.8,0,1.4,0.6,1.4,1.4S21.2,2.7,20.4,2.7z"/>
				</g>
			</g>
		</g>
		<g id="Line_26" transform="translate(19.034 35.61)">
			<g id="Path_124">
				<path class="st1" d="M7.4,2.7h-6C0.6,2.7,0,2.1,0,1.4S0.6,0,1.4,0h6c0.8,0,1.4,0.6,1.4,1.4S8.1,2.7,7.4,2.7L7.4,2.7z"/>
			</g>
		</g>
	</g>
	<g id="Group_2952" transform="translate(8305 1850.346)">
		<g id="_113---Mailbox" transform="translate(0 0)">
			<g id="Shape">
				<path class="st2" d="M50,56.7h41.7c3.7,0,6.7-3,6.7-6.7V34c0-1.5-0.5-2.9-1.4-4.1L77,4.2c-1.3-1.6-3.2-2.6-5.3-2.6H28.3
					c-2.1,0-4,1-5.3,2.6L3.1,29.9C2.2,31,1.7,32.5,1.7,34v16c0,3.7,3,6.7,6.7,6.7H50z"/>
			</g>
			<g id="Shape-2">
				<path class="st3" d="M96.9,29.9L77,4.2c-1.3-1.6-3.2-2.6-5.3-2.6h-5c2.1,0,4,1,5.3,2.6l19.9,25.6c0.9,1.2,1.4,2.6,1.4,4.1v16
					c0,3.7-3,6.7-6.7,6.7h5c3.7,0,6.7-3,6.7-6.7V34C98.3,32.5,97.8,31,96.9,29.9z"/>
			</g>
			<g id="Shape-3">
				<path class="st4" d="M91.7,35l-20-26.7H28.3L8.3,35h21.3c1.3,0,2.4,0.7,3,1.8l3.2,6.3c0.6,1.1,1.7,1.8,3,1.8h22.5
					c1.3,0,2.4-0.7,3-1.8l3.2-6.3c0.6-1.1,1.7-1.8,3-1.8H91.7z"/>
			</g>
			<g id="Shape-4">
				<path class="st5" d="M8.3,56.7h5c-3.7,0-6.7-3-6.7-6.7V34c0-1.5,0.5-2.9,1.4-4.1L28,4.2c1.3-1.6,3.2-2.6,5.3-2.6h-5
					c-2.1,0-4,1-5.3,2.6L3.1,29.9C2.2,31,1.7,32.5,1.7,34v16C1.7,53.7,4.7,56.7,8.3,56.7z"/>
			</g>
			<g id="Rectangle-path">
				<path class="st5" d="M13.5,13.7l8.2-10.5l2.6,2l-8.2,10.5L13.5,13.7z"/>
			</g>
			<g id="Group_2949">
				<g id="Shape-5">
					<path class="st1" d="M20.2,10.5c0.6-0.7,0.4-1.8-0.3-2.3c-0.7-0.6-1.8-0.4-2.3,0.3c-0.6,0.7-0.4,1.8,0.3,2.3c0,0,0,0,0,0
						C18.6,11.4,19.7,11.2,20.2,10.5z"/>
				</g>
				<g id="Shape-6">
					<path class="st1" d="M78.3,3.2c-1.6-2-4-3.2-6.6-3.2H28.3c-2.6,0-5,1.2-6.6,3.2c-0.6,0.7-0.5,1.8,0.2,2.3
						c0.7,0.6,1.8,0.5,2.3-0.2c0,0,0,0,0.1-0.1c1-1.2,2.4-1.9,3.9-1.9h43.5c1.5,0,3,0.7,3.9,1.9l19.9,25.6c0.7,0.9,1.1,2,1.1,3.1v16
						c0,2.8-2.2,5-5,5H8.3c-2.8,0-5-2.2-5-5V34c0-1.1,0.4-2.2,1.1-3.1l11.7-15.1c0.5-0.7,0.4-1.8-0.4-2.3c-0.7-0.5-1.7-0.4-2.3,0.3
						L1.8,28.8C0.6,30.3,0,32.1,0,34v16c0,4.6,3.7,8.3,8.3,8.3h83.3c4.6,0,8.3-3.7,8.3-8.3V34c0-1.9-0.6-3.7-1.8-5.1L78.3,3.2z"/>
				</g>
				<g id="Shape-7">
					<path class="st1" d="M29.3,7c-0.7-0.6-1.8-0.4-2.3,0.3L7,34c-0.6,0.7-0.4,1.8,0.3,2.3c0.3,0.2,0.6,0.3,1,0.3h21.3
						c0.6,0,1.2,0.4,1.5,0.9l3.2,6.3c0.8,1.7,2.6,2.8,4.5,2.8h22.5c1.9,0,3.6-1.1,4.5-2.8l3.2-6.3c0.3-0.6,0.9-0.9,1.5-0.9h7.9
						c0.9,0,1.7-0.7,1.7-1.6c0-0.9-0.7-1.7-1.6-1.7c0,0-0.1,0-0.1,0h-7.9c-1.9,0-3.6,1.1-4.5,2.8l-3.2,6.3c-0.3,0.6-0.9,0.9-1.5,0.9
						H38.7c-0.6,0-1.2-0.4-1.5-0.9l-3.2-6.3c-0.8-1.7-2.6-2.8-4.5-2.8H11.7l18-24C30.2,8.6,30.1,7.6,29.3,7L29.3,7z"/>
				</g>
				<g id="Shape-8">
					<path class="st1" d="M70.8,10l19.5,26c0.6,0.7,1.6,0.9,2.3,0.3c0.7-0.6,0.9-1.6,0.3-2.3L73,7.3c-0.3-0.4-0.8-0.7-1.3-0.7H38.3
						c-0.9,0-1.7,0.7-1.7,1.6c0,0.9,0.7,1.7,1.6,1.7c0,0,0.1,0,0.1,0H70.8z"/>
				</g>
			</g>
		</g>
		<g class="st6">
			<path class="st1" d="M48.5,28c-0.2-0.2-0.2-0.4-0.2-0.7c0-0.8,0.1-1.5,0.4-2c0.3-0.6,0.7-1.2,1.3-1.8c0.4-0.5,0.8-1,1-1.3
				c0.2-0.4,0.3-0.7,0.3-1.2c0-0.5-0.2-0.9-0.5-1.2c-0.4-0.3-0.8-0.4-1.5-0.4c-0.5,0-1,0.1-1.5,0.3s-1,0.6-1.7,1
				c-0.4,0.2-0.7,0.3-0.9,0.3c-0.2,0-0.5-0.1-0.6-0.3c-0.2-0.2-0.3-0.5-0.3-0.8c0-0.4,0.2-0.8,0.5-1c0.6-0.5,1.3-0.9,2.2-1.2
				c0.8-0.3,1.7-0.5,2.5-0.5c0.9,0,1.7,0.2,2.4,0.5c0.7,0.3,1.2,0.7,1.6,1.3c0.4,0.5,0.6,1.2,0.6,1.9c0,0.8-0.2,1.4-0.5,2
				c-0.4,0.6-0.9,1.2-1.6,1.9c-0.6,0.6-1.1,1.1-1.4,1.6s-0.5,0.9-0.6,1.4c0,0.2-0.1,0.4-0.3,0.5c-0.2,0.1-0.3,0.2-0.6,0.2
				C48.9,28.3,48.7,28.2,48.5,28z M48,32.5c-0.3-0.3-0.5-0.7-0.5-1.2c0-0.5,0.2-0.9,0.5-1.2c0.3-0.3,0.7-0.5,1.2-0.5
				s0.9,0.2,1.2,0.5c0.3,0.3,0.5,0.7,0.5,1.2c0,0.5-0.2,0.9-0.5,1.2c-0.3,0.3-0.7,0.5-1.2,0.5C48.7,32.9,48.3,32.8,48,32.5z"/>
		</g>
	</g>
</g>
</svg>
