<?xml version="1.0" encoding="utf-8"?>
<!-- Generator: Adobe Illustrator 23.0.3, SVG Export Plug-In . SVG Version: 6.00 Build 0)  -->
<svg version="1.1" id="Layer_1" xmlns="http://www.w3.org/2000/svg" xmlns:xlink="http://www.w3.org/1999/xlink" x="0px" y="0px"
	 viewBox="0 0 100 108.8" style="enable-background:new 0 0 100 108.8;" xml:space="preserve">
<style type="text/css">
	.st0{fill:#FFFFFF;}
	.st1{fill:#C9C8CD;}
	.st2{fill:#E6E6E6;}
	.st3{fill:#D2D2D2;}
	.st4{fill:#F1F1F1;}
	.st5{fill:#FBFBFC;}
	.st6{enable-background:new    ;}
</style>
<g id="no-qna" transform="translate(-8225 -1803.135)">
	<g id="Q_A" transform="translate(8249.288 1803.135)">
		<g id="Path_79" transform="translate(19.282 12.547)">
			<g id="Path_100">
				<path class="st0" d="M11.5,0h16l2.1,1.9v17.3l-2.1,2.1h-2.3l-4.4,4.4l-4.4-4.4H2.6L0,19v-8.9l8.7,0.2l2.8-2.8L11.5,0z"/>
			</g>
		</g>
		<g id="Path_78" transform="translate(1.283 1.443)">
			<g id="Path_101">
				<path class="st0" d="M0,2.8v15.9l2.6,2.6h3.5L9.8,25l3.6-3.6h13.4l2.6-2.6V2.1L27.4,0H2.1L0,2.8z"/>
			</g>
		</g>
		<g id="Group_139">
			<g id="Group_115" transform="translate(34.416 11.511)">
				<g id="Group_114">
					<g id="Path_49">
						<g id="Path_102">
							<path class="st1" d="M1.7,0.3c-0.4-0.4-1-0.4-1.4,0c-0.4,0.4-0.4,1,0,1.4s1,0.4,1.4,0C1.8,1.5,1.9,1.2,1.9,1
								C1.9,0.7,1.8,0.5,1.7,0.3z"/>
						</g>
					</g>
				</g>
			</g>
			<g id="Group_117" transform="translate(18.091 11.284)">
				<g id="Group_116">
					<g id="Path_50">
						<g id="Path_103">
							<path class="st1" d="M27.1,0.2h-6.2c-0.5,0-1,0.4-1,1c0,0.5,0.4,1,1,1h6.2c1.6,0,2.9,1.3,2.9,2.9v14c0,1.6-1.3,2.9-2.9,2.9
								h-1.4c-0.3,0-0.5,0.1-0.7,0.3l-3.2,3.2l-3.2-3.2c-0.2-0.2-0.4-0.3-0.7-0.3H5.1c-1.6,0-2.9-1.3-2.9-2.9v-3.5c0-0.5-0.4-1-1-1
								s-1,0.4-1,1v3.5c0,2.7,2.2,4.9,4.9,4.9h12.4l3.6,3.6c0.4,0.4,1,0.4,1.4,0l3.6-3.6h1c2.7,0,4.9-2.2,4.9-4.9v-14
								C31.9,2.4,29.8,0.2,27.1,0.2z"/>
						</g>
						<g id="Path_104">
							<path class="st1" d="M21.8,28.1c-0.3,0-0.6-0.1-0.8-0.4l-3.5-3.5H5.1c-2.8,0-5.1-2.3-5.1-5.1v-3.5c0-0.7,0.5-1.2,1.2-1.2
								c0.7,0,1.2,0.5,1.2,1.2v3.5c0,1.5,1.2,2.7,2.7,2.7h12.8c0.3,0,0.6,0.1,0.8,0.4l3,3l3-3c0.2-0.2,0.5-0.4,0.8-0.4h1.4
								c1.5,0,2.7-1.2,2.7-2.7v-14c0-1.5-1.2-2.7-2.7-2.7h-6.2c-0.7,0-1.2-0.5-1.2-1.2c0-0.7,0.5-1.2,1.2-1.2c0,0,0,0,0,0h6.2
								c2.8,0,5.1,2.3,5.1,5.1v14c0,2.8-2.3,5.1-5.1,5.1h-0.9l-3.5,3.5C22.4,28,22.1,28.1,21.8,28.1z M1.2,14.9
								c-0.4,0-0.7,0.3-0.7,0.7v3.5c0,2.6,2.1,4.6,4.6,4.6h12.5l3.7,3.7c0.3,0.3,0.8,0.3,1.1,0l3.7-3.7h1.1c2.6,0,4.6-2.1,4.6-4.6
								v-14c0-2.6-2.1-4.6-4.6-4.6h-6.2c-0.4,0-0.8,0.3-0.8,0.7c0,0.4,0.3,0.8,0.7,0.8c0,0,0,0,0.1,0h6.2c1.7,0,3.1,1.4,3.1,3.1v14
								c0,1.7-1.4,3.1-3.1,3.1h-1.4c-0.2,0-0.4,0.1-0.5,0.2l-3.4,3.4l-3.4-3.4c-0.1-0.1-0.3-0.2-0.5-0.2H5.1c-1.7,0-3.1-1.4-3.1-3.1
								v-3.5C1.9,15.2,1.6,14.9,1.2,14.9C1.2,14.9,1.2,14.9,1.2,14.9L1.2,14.9z"/>
						</g>
					</g>
				</g>
			</g>
			<g id="Group_119">
				<g id="Group_118">
					<g id="Path_51">
						<g id="Path_105">
							<path class="st1" d="M27.1,0.2h-22c-2.7,0-4.9,2.2-4.9,4.9v14c0,2.7,2.2,4.9,4.9,4.9h2l3.6,3.6c0.4,0.4,1,0.4,1.4,0l0,0
								l3.6-3.6h11.4c2.7,0,4.9-2.2,4.9-4.9v-14C31.9,2.4,29.8,0.2,27.1,0.2z M30,19.1c0,1.6-1.3,2.9-2.9,2.9H15.3
								c-0.3,0-0.5,0.1-0.7,0.3l-3.2,3.2l-3.2-3.2C8.1,22.1,7.8,22,7.5,22H5.1c-1.6,0-2.9-1.3-2.9-2.9v-14c0-1.6,1.3-2.9,2.9-2.9h22
								c1.6,0,2.9,1.3,2.9,2.9V19.1z"/>
						</g>
						<g id="Path_106">
							<path class="st1" d="M11.4,28.1c-0.3,0-0.6-0.1-0.8-0.4L7,24.2H5.1c-2.8,0-5.1-2.3-5.1-5.1v-14C0,2.3,2.3,0,5.1,0h22
								c2.8,0,5.1,2.3,5.1,5.1v14c0,2.8-2.3,5.1-5.1,5.1H15.8l-3.5,3.5C12.1,28,11.7,28.1,11.4,28.1z M5.1,0.5
								c-2.6,0-4.6,2.1-4.6,4.6v14c0,2.6,2.1,4.6,4.6,4.6h2.1l3.7,3.7c0.3,0.3,0.8,0.3,1.1,0l3.7-3.7h11.4c2.6,0,4.6-2.1,4.6-4.6
								v-14c0-2.6-2.1-4.6-4.6-4.6L5.1,0.5z M11.4,25.8l-3.4-3.4c-0.1-0.1-0.3-0.2-0.5-0.2H5.1c-1.7,0-3.1-1.4-3.1-3.1v-14
								c0-1.7,1.4-3.1,3.1-3.1h22c1.7,0,3.1,1.4,3.1,3.1v14c0,1.7-1.4,3.1-3.1,3.1H15.3c-0.2,0-0.4,0.1-0.5,0.2L11.4,25.8z
								 M5.1,21.8h2.4c0.3,0,0.6,0.1,0.8,0.4l3,3l3-3c0.2-0.2,0.5-0.4,0.8-0.4h11.8c1.5,0,2.7-1.2,2.7-2.7v-14
								c0-1.5-1.2-2.7-2.7-2.7h-22c-1.5,0-2.7,1.2-2.7,2.7v14C2.4,20.6,3.6,21.8,5.1,21.8L5.1,21.8z"/>
						</g>
					</g>
				</g>
			</g>
			<g id="Group_121" transform="translate(30.965 18.318)">
				<g id="Group_120">
					<g id="Path_52">
						<g id="Path_107">
							<path class="st1" d="M8.8,8.8L5.3,0.6C5.1,0.1,4.5-0.1,4,0.1C3.8,0.2,3.6,0.4,3.5,0.6L0.1,8.8C-0.1,9.3,0.1,9.8,0.6,10
								c0.5,0.2,1,0,1.2-0.5l0.5-1.2h4.1L7,9.5C7.2,10,7.8,10.2,8.3,10C8.7,9.8,9,9.2,8.8,8.8L8.8,8.8z M3.2,6.4l1.2-2.9l1.2,2.9
								H3.2z"/>
						</g>
					</g>
				</g>
			</g>
			<g id="Group_123" transform="translate(11.169 6.841)">
				<g id="Group_122">
					<g id="Path_53">
						<g id="Path_108">
							<path class="st1" d="M9.4,8.7L8.5,8C8.8,7.4,8.9,6.7,8.9,6V4.5C8.9,2,6.9,0,4.4,0.1C2,0.1,0,2.1,0,4.5V6c0,2.5,2,4.5,4.5,4.5
								c1,0,2-0.4,2.8-1l1,0.7c0.4,0.3,1,0.3,1.4-0.2S9.9,9,9.4,8.7C9.5,8.7,9.4,8.7,9.4,8.7L9.4,8.7z M7,6c0,0.3,0,0.5-0.1,0.8
								L5.9,6c-0.4-0.3-1-0.2-1.4,0.2c-0.3,0.4-0.2,1,0.2,1.3l0.9,0.7C4.4,8.9,2.9,8.4,2.2,7.2C2,6.8,1.9,6.4,1.9,6V4.5l0,0
								c0-1.4,1.1-2.5,2.5-2.5C5.9,2,7,3.1,7,4.5L7,6z"/>
						</g>
					</g>
				</g>
			</g>
		</g>
	</g>
	<g id="Group_2952" transform="translate(8225 1853.56)">
		<g id="_113---Mailbox" transform="translate(0 0)">
			<g id="Shape">
				<path class="st2" d="M50,56.7h41.7c3.7,0,6.7-3,6.7-6.7V34c0-1.5-0.5-2.9-1.4-4.1L77,4.2c-1.3-1.6-3.2-2.6-5.3-2.6H28.3
					c-2.1,0-4,1-5.3,2.6L3.1,29.9C2.2,31,1.7,32.5,1.7,34v16c0,3.7,3,6.7,6.7,6.7H50z"/>
			</g>
			<g id="Shape-2">
				<path class="st3" d="M96.9,29.9L77,4.2c-1.3-1.6-3.2-2.6-5.3-2.6h-5c2.1,0,4,1,5.3,2.6l19.9,25.6c0.9,1.2,1.4,2.6,1.4,4.1v16
					c0,3.7-3,6.7-6.7,6.7h5c3.7,0,6.7-3,6.7-6.7V34C98.3,32.5,97.8,31,96.9,29.9z"/>
			</g>
			<g id="Shape-3">
				<path class="st4" d="M91.7,35l-20-26.7H28.3L8.3,35h21.3c1.3,0,2.4,0.7,3,1.8l3.2,6.3c0.6,1.1,1.7,1.8,3,1.8h22.5
					c1.3,0,2.4-0.7,3-1.8l3.2-6.3c0.6-1.1,1.7-1.8,3-1.8H91.7z"/>
			</g>
			<g id="Shape-4">
				<path class="st5" d="M8.3,56.7h5c-3.7,0-6.7-3-6.7-6.7V34c0-1.5,0.5-2.9,1.4-4.1L28,4.2c1.3-1.6,3.2-2.6,5.3-2.6h-5
					c-2.1,0-4,1-5.3,2.6L3.1,29.9C2.2,31,1.7,32.5,1.7,34v16C1.7,53.7,4.7,56.7,8.3,56.7z"/>
			</g>
			<g id="Rectangle-path">
				<path class="st5" d="M13.5,13.7l8.2-10.5l2.6,2l-8.2,10.5L13.5,13.7z"/>
			</g>
			<g id="Group_2949" transform="translate(0 0)">
				<g id="Shape-5">
					<path class="st1" d="M20.2,10.5c0.6-0.7,0.4-1.8-0.3-2.3c-0.7-0.6-1.8-0.4-2.3,0.3c-0.6,0.7-0.4,1.8,0.3,2.3c0,0,0,0,0,0
						C18.6,11.4,19.7,11.2,20.2,10.5z"/>
				</g>
				<g id="Shape-6">
					<path class="st1" d="M78.3,3.2c-1.6-2-4-3.2-6.6-3.2H28.3c-2.6,0-5,1.2-6.6,3.2c-0.6,0.7-0.5,1.8,0.2,2.3
						c0.7,0.6,1.8,0.5,2.3-0.2c0,0,0,0,0.1-0.1c1-1.2,2.4-1.9,3.9-1.9h43.5c1.5,0,3,0.7,3.9,1.9l19.9,25.6c0.7,0.9,1.1,2,1.1,3.1v16
						c0,2.8-2.2,5-5,5H8.3c-2.8,0-5-2.2-5-5V34c0-1.1,0.4-2.2,1.1-3.1l11.7-15.1c0.5-0.7,0.4-1.8-0.4-2.3c-0.7-0.5-1.7-0.4-2.3,0.3
						L1.8,28.8C0.6,30.3,0,32.1,0,34v16c0,4.6,3.7,8.3,8.3,8.3h83.3c4.6,0,8.3-3.7,8.3-8.3V34c0-1.9-0.6-3.7-1.8-5.1L78.3,3.2z"/>
				</g>
				<g id="Shape-7">
					<path class="st1" d="M29.3,7c-0.7-0.6-1.8-0.4-2.3,0.3L7,34c-0.6,0.7-0.4,1.8,0.3,2.3c0.3,0.2,0.6,0.3,1,0.3h21.3
						c0.6,0,1.2,0.4,1.5,0.9l3.2,6.3c0.8,1.7,2.6,2.8,4.5,2.8h22.5c1.9,0,3.6-1.1,4.5-2.8l3.2-6.3c0.3-0.6,0.9-0.9,1.5-0.9h7.9
						c0.9,0,1.7-0.7,1.7-1.6c0-0.9-0.7-1.7-1.6-1.7c0,0-0.1,0-0.1,0h-7.9c-1.9,0-3.6,1.1-4.5,2.8l-3.2,6.3c-0.3,0.6-0.9,0.9-1.5,0.9
						H38.7c-0.6,0-1.2-0.4-1.5-0.9l-3.2-6.3c-0.8-1.7-2.6-2.8-4.5-2.8H11.7l18-24C30.2,8.6,30.1,7.6,29.3,7L29.3,7z"/>
				</g>
				<g id="Shape-8">
					<path class="st1" d="M70.8,10l19.5,26c0.6,0.7,1.6,0.9,2.3,0.3c0.7-0.6,0.9-1.6,0.3-2.3L73,7.3c-0.3-0.4-0.8-0.7-1.3-0.7H38.3
						c-0.9,0-1.7,0.7-1.7,1.6c0,0.9,0.7,1.7,1.6,1.7c0,0,0.1,0,0.1,0H70.8z"/>
				</g>
			</g>
		</g>
		<g class="st6">
			<path class="st1" d="M48.5,28c-0.2-0.2-0.2-0.4-0.2-0.7c0-0.8,0.1-1.5,0.4-2c0.3-0.6,0.7-1.2,1.3-1.8c0.4-0.5,0.8-1,1-1.3
				c0.2-0.4,0.3-0.7,0.3-1.2c0-0.5-0.2-0.9-0.5-1.2c-0.4-0.3-0.8-0.4-1.5-0.4c-0.5,0-1,0.1-1.5,0.3s-1,0.6-1.7,1
				c-0.4,0.2-0.7,0.3-0.9,0.3c-0.2,0-0.5-0.1-0.6-0.3c-0.2-0.2-0.3-0.5-0.3-0.8c0-0.4,0.2-0.8,0.5-1c0.6-0.5,1.3-0.9,2.2-1.2
				c0.8-0.3,1.7-0.5,2.5-0.5c0.9,0,1.7,0.2,2.4,0.5c0.7,0.3,1.2,0.7,1.6,1.3c0.4,0.5,0.6,1.2,0.6,1.9c0,0.8-0.2,1.4-0.5,2
				c-0.4,0.6-0.9,1.2-1.6,1.9c-0.6,0.6-1.1,1.1-1.4,1.6s-0.5,0.9-0.6,1.4c0,0.2-0.1,0.4-0.3,0.5c-0.2,0.1-0.3,0.2-0.6,0.2
				C48.9,28.3,48.7,28.2,48.5,28z M48,32.5c-0.3-0.3-0.5-0.7-0.5-1.2c0-0.5,0.2-0.9,0.5-1.2c0.3-0.3,0.7-0.5,1.2-0.5
				s0.9,0.2,1.2,0.5c0.3,0.3,0.5,0.7,0.5,1.2c0,0.5-0.2,0.9-0.5,1.2c-0.3,0.3-0.7,0.5-1.2,0.5C48.7,32.9,48.3,32.8,48,32.5z"/>
		</g>
	</g>
</g>
</svg>
