<?xml version="1.0" encoding="utf-8"?>
<!-- Generator: Adobe Illustrator 23.0.3, SVG Export Plug-In . SVG Version: 6.00 Build 0)  -->
<svg version="1.1" id="Layer_1" xmlns="http://www.w3.org/2000/svg" xmlns:xlink="http://www.w3.org/1999/xlink" x="0px" y="0px"
	 viewBox="0 0 100 115.1" style="enable-background:new 0 0 100 115.1;" xml:space="preserve">
<style type="text/css">
	.st0{fill:#FFFFFF;}
	.st1{fill:#C9C8CD;}
	.st2{fill:none;}
	.st3{fill:#E6E6E6;}
	.st4{fill:#D2D2D2;}
	.st5{fill:#F1F1F1;}
	.st6{fill:#FBFBFC;}
	.st7{enable-background:new    ;}
</style>
<g id="no-study-set" transform="translate(-7877 -1801.823)">
	<g id="Study_Sets" transform="translate(7907.741 1801.823)">
		<g id="Group_141" transform="translate(0 0.318)">
			<g id="Path_77" transform="translate(0 0)">
				<g id="Path_112">
					<path class="st0" d="M3.8,0H11c2.1,0,3.8,1.7,3.8,3.8l0,0v37.8c0,2.1-1.7,3.8-3.8,3.8H3.8c-2.1,0-3.8-1.7-3.8-3.8V3.8
						C0,1.7,1.7,0,3.8,0z"/>
				</g>
			</g>
			<g id="Ellipse_26" transform="translate(4.931 6.027)">
				<g id="Ellipse_27">
					<ellipse class="st1" cx="2.2" cy="2.2" rx="2.2" ry="2.2"/>
				</g>
			</g>
			<g id="Line_23" transform="translate(2.466 34.517)">
				<g id="Rectangle_81">
					<rect x="0" y="0" class="st1" width="9.9" height="2.7"/>
				</g>
			</g>
			<g id="Path_76" transform="translate(0 0)">
				<g id="Group_163">
					<g id="Path_113">
						<path class="st2" d="M3.8,0H11c2.1,0,3.8,1.7,3.8,3.8l0,0v37.8c0,2.1-1.7,3.8-3.8,3.8H3.8c-2.1,0-3.8-1.7-3.8-3.8V3.8
							C0,1.7,1.7,0,3.8,0z"/>
					</g>
				</g>
				<g id="Group_164">
					<g id="Path_114">
						<path class="st1" d="M3.8,2.7c-0.6,0-1.1,0.5-1.1,1.1l0,0v37.8c0,0.6,0.5,1.1,1.1,1.1l0,0H11c0.6,0,1.1-0.5,1.1-1.1l0,0V3.8
							c0-0.6-0.5-1.1-1.1-1.1l0,0H3.8 M3.8,0H11c2.1,0,3.8,1.7,3.8,3.8v37.8c0,2.1-1.7,3.8-3.8,3.8H3.8c-2.1,0-3.8-1.7-3.8-3.8V3.8
							C0,1.7,1.7,0,3.8,0z"/>
					</g>
				</g>
			</g>
		</g>
		<g id="Group_142" transform="translate(15.562)">
			<g id="Path_77-2">
				<g id="Path_115">
					<path class="st0" d="M3,1.7l6.9-1.6C12-0.4,14,0.9,14.5,3c0,0,0,0,0,0l0,0L23,39.8c0.5,2.1-0.8,4.1-2.9,4.6c0,0,0,0,0,0
						L13.2,46c-2.1,0.5-4.1-0.8-4.6-2.9c0,0,0,0,0,0L0.1,6.3C-0.4,4.2,0.9,2.2,3,1.7C3,1.7,3,1.7,3,1.7z"/>
				</g>
			</g>
			<g id="Ellipse_26-2" transform="translate(5.834 6.778)">
				<g id="Ellipse_28">
					<ellipse class="st1" cx="2.2" cy="2.2" rx="2.2" ry="2.2"/>
				</g>
			</g>
			<g id="Line_23-2" transform="translate(9.404 33.423)">
				<g id="Rectangle_82">
					<rect x="0.2" y="1.1" transform="matrix(0.9744 -0.225 0.225 0.9744 -0.4189 1.213)" class="st1" width="9.9" height="2.7"/>
				</g>
			</g>
			<g id="Path_76-2">
				<g id="Group_165">
					<g id="Path_116">
						<path class="st2" d="M3,1.7l6.9-1.6C12-0.4,14,0.9,14.5,3c0,0,0,0,0,0l0,0L23,39.8c0.5,2.1-0.8,4.1-2.9,4.6c0,0,0,0,0,0
							L13.2,46c-2.1,0.5-4.1-0.8-4.6-2.9c0,0,0,0,0,0L0.1,6.3C-0.4,4.2,0.9,2.2,3,1.7C3,1.7,3,1.7,3,1.7z"/>
					</g>
				</g>
				<g id="Group_166">
					<g id="Path_117">
						<path class="st1" d="M3.6,4.4C3,4.5,2.6,5.1,2.8,5.7l8.5,36.8c0.1,0.6,0.7,1,1.3,0.8l6.9-1.6c0.6-0.1,1-0.7,0.8-1.3L11.8,3.6
							c-0.1-0.6-0.7-1-1.3-0.8L3.6,4.4 M3,1.7l6.9-1.6C12-0.4,14,0.9,14.5,3c0,0,0,0,0,0L23,39.8c0.5,2.1-0.8,4.1-2.9,4.6
							c0,0,0,0,0,0L13.2,46c-2.1,0.5-4.1-0.8-4.6-2.9c0,0,0,0,0,0L0.1,6.3C-0.4,4.2,0.9,2.2,3,1.7L3,1.7z"/>
					</g>
				</g>
			</g>
		</g>
	</g>
	<g id="Group_2950" transform="translate(7877 1858.612)">
		<g id="_113---Mailbox" transform="translate(0 0)">
			<g id="Shape">
				<path class="st3" d="M50,56.7h41.7c3.7,0,6.7-3,6.7-6.7V34c0-1.5-0.5-2.9-1.4-4.1L77,4.2c-1.3-1.6-3.2-2.6-5.3-2.6H28.3
					c-2.1,0-4,1-5.3,2.6L3.1,29.9C2.2,31,1.7,32.5,1.7,34v16c0,3.7,3,6.7,6.7,6.7H50z"/>
			</g>
			<g id="Shape-2">
				<path class="st4" d="M96.9,29.9L77,4.2c-1.3-1.6-3.2-2.6-5.3-2.6h-5c2.1,0,4,1,5.3,2.6l19.9,25.6c0.9,1.2,1.4,2.6,1.4,4.1v16
					c0,3.7-3,6.7-6.7,6.7h5c3.7,0,6.7-3,6.7-6.7V34C98.3,32.5,97.8,31,96.9,29.9z"/>
			</g>
			<g id="Shape-3">
				<path class="st5" d="M91.7,35l-20-26.7H28.3L8.3,35h21.3c1.3,0,2.4,0.7,3,1.8l3.2,6.3c0.6,1.1,1.7,1.8,3,1.8h22.5
					c1.3,0,2.4-0.7,3-1.8l3.2-6.3c0.6-1.1,1.7-1.8,3-1.8H91.7z"/>
			</g>
			<g id="Shape-4">
				<path class="st6" d="M8.3,56.7h5c-3.7,0-6.7-3-6.7-6.7V34c0-1.5,0.5-2.9,1.4-4.1L28,4.2c1.3-1.6,3.2-2.6,5.3-2.6h-5
					c-2.1,0-4,1-5.3,2.6L3.1,29.9C2.2,31,1.7,32.5,1.7,34v16C1.7,53.7,4.7,56.7,8.3,56.7z"/>
			</g>
			<g id="Rectangle-path">
				<path class="st6" d="M13.5,13.7l8.2-10.5l2.6,2l-8.2,10.5L13.5,13.7z"/>
			</g>
			<g id="Group_2949">
				<g id="Shape-5">
					<path class="st1" d="M20.2,10.5c0.6-0.7,0.4-1.8-0.3-2.3c-0.7-0.6-1.8-0.4-2.3,0.3c-0.6,0.7-0.4,1.8,0.3,2.3c0,0,0,0,0,0
						C18.6,11.4,19.7,11.2,20.2,10.5z"/>
				</g>
				<g id="Shape-6">
					<path class="st1" d="M78.3,3.2c-1.6-2-4-3.2-6.6-3.2H28.3c-2.6,0-5,1.2-6.6,3.2c-0.6,0.7-0.5,1.8,0.2,2.3
						c0.7,0.6,1.8,0.5,2.3-0.2c0,0,0,0,0.1-0.1c1-1.2,2.4-1.9,3.9-1.9h43.5c1.5,0,3,0.7,3.9,1.9l19.9,25.6c0.7,0.9,1.1,2,1.1,3.1v16
						c0,2.8-2.2,5-5,5H8.3c-2.8,0-5-2.2-5-5V34c0-1.1,0.4-2.2,1.1-3.1l11.7-15.1c0.5-0.7,0.4-1.8-0.4-2.3c-0.7-0.5-1.7-0.4-2.3,0.3
						L1.8,28.8C0.6,30.3,0,32.1,0,34v16c0,4.6,3.7,8.3,8.3,8.3h83.3c4.6,0,8.3-3.7,8.3-8.3V34c0-1.9-0.6-3.7-1.8-5.1L78.3,3.2z"/>
				</g>
				<g id="Shape-7">
					<path class="st1" d="M29.3,7c-0.7-0.6-1.8-0.4-2.3,0.3L7,34c-0.6,0.7-0.4,1.8,0.3,2.3c0.3,0.2,0.6,0.3,1,0.3h21.3
						c0.6,0,1.2,0.4,1.5,0.9l3.2,6.3c0.8,1.7,2.6,2.8,4.5,2.8h22.5c1.9,0,3.6-1.1,4.5-2.8l3.2-6.3c0.3-0.6,0.9-0.9,1.5-0.9h7.9
						c0.9,0,1.7-0.7,1.7-1.6c0-0.9-0.7-1.7-1.6-1.7c0,0-0.1,0-0.1,0h-7.9c-1.9,0-3.6,1.1-4.5,2.8l-3.2,6.3c-0.3,0.6-0.9,0.9-1.5,0.9
						H38.7c-0.6,0-1.2-0.4-1.5-0.9l-3.2-6.3c-0.8-1.7-2.6-2.8-4.5-2.8H11.7l18-24C30.2,8.6,30.1,7.6,29.3,7L29.3,7z"/>
				</g>
				<g id="Shape-8">
					<path class="st1" d="M70.8,10l19.5,26c0.5,0.7,1.6,0.9,2.3,0.4c0.7-0.5,0.9-1.6,0.4-2.3c0,0,0,0,0,0L73,7.3
						c-0.3-0.4-0.8-0.7-1.3-0.7H38.3c-0.9,0-1.7,0.7-1.7,1.6c0,0.9,0.7,1.7,1.6,1.7c0,0,0.1,0,0.1,0H70.8z"/>
				</g>
			</g>
		</g>
		<g class="st7">
			<path class="st1" d="M48.5,28c-0.2-0.2-0.2-0.4-0.2-0.7c0-0.8,0.1-1.5,0.4-2c0.3-0.6,0.7-1.2,1.3-1.8c0.4-0.5,0.8-1,1-1.3
				c0.2-0.4,0.3-0.7,0.3-1.2c0-0.5-0.2-0.9-0.5-1.2c-0.4-0.3-0.8-0.4-1.5-0.4c-0.5,0-1,0.1-1.5,0.3s-1,0.6-1.7,1
				c-0.4,0.2-0.7,0.3-0.9,0.3c-0.2,0-0.5-0.1-0.6-0.3c-0.2-0.2-0.3-0.5-0.3-0.8c0-0.4,0.2-0.8,0.5-1c0.6-0.5,1.3-0.9,2.2-1.2
				c0.8-0.3,1.7-0.5,2.5-0.5c0.9,0,1.7,0.2,2.4,0.5c0.7,0.3,1.2,0.7,1.6,1.3c0.4,0.5,0.6,1.2,0.6,1.9c0,0.8-0.2,1.4-0.5,2
				c-0.4,0.6-0.9,1.2-1.6,1.9c-0.6,0.6-1.1,1.1-1.4,1.6s-0.5,0.9-0.6,1.4c0,0.2-0.1,0.4-0.3,0.5c-0.2,0.1-0.3,0.2-0.6,0.2
				C48.9,28.3,48.7,28.2,48.5,28z M48,32.5c-0.3-0.3-0.5-0.7-0.5-1.2c0-0.5,0.2-0.9,0.5-1.2c0.3-0.3,0.7-0.5,1.2-0.5
				s0.9,0.2,1.2,0.5c0.3,0.3,0.5,0.7,0.5,1.2c0,0.5-0.2,0.9-0.5,1.2c-0.3,0.3-0.7,0.5-1.2,0.5C48.7,32.9,48.3,32.8,48,32.5z"/>
		</g>
	</g>
</g>
</svg>
