<svg id="playstore" xmlns="http://www.w3.org/2000/svg" width="31.346" height="35.2" viewBox="0 0 31.346 35.2">
  <path id="Path_26" data-name="Path 26" d="M1.149,18.855A3.219,3.219,0,0,0,.5,20.809v28.7a3.226,3.226,0,0,0,.564,1.835L16.68,35.055Zm0,0" transform="translate(-0.5 -17.559)" fill="#00c8ff"/>
  <path id="Path_27" data-name="Path 27" d="M50.357,16l5.066-5.284L37.616.439a3.208,3.208,0,0,0-2.487-.32Zm0,0" transform="translate(-32.748 0)" fill="#00f076"/>
  <path id="Path_28" data-name="Path 28" d="M48.274,276.18,32.891,292.225a3.2,3.2,0,0,0,1.018.168,3.237,3.237,0,0,0,1.623-.44L53.468,281.6Zm0,0" transform="translate(-30.664 -257.193)" fill="#fb3746"/>
  <path id="Path_29" data-name="Path 29" d="M288.12,174.4l-5.207-3.006-5.477,5.713,5.6,5.846,5.079-2.932a3.245,3.245,0,0,0,0-5.621Zm0,0" transform="translate(-258.398 -159.611)" fill="#ffcd00"/>
</svg>
