<svg xmlns="http://www.w3.org/2000/svg" viewBox="0 0 43.69 32">
								<defs>
									<linearGradient id="Gradient-1" x1=".1162068" x2="5.5746055" y1="26.7855835" y2="21.3271847" gradientUnits="userSpaceOnUse">
										<stop offset="0" stop-color="#1ae2bc"></stop>
										<stop offset=".2500862" stop-color="#1adec0"></stop>
										<stop offset=".5003659" stop-color="#19d2cc"></stop>
										<stop offset=".7502075" stop-color="#19bfe0"></stop>
										<stop offset="1" stop-color="#18a3fc"></stop>
									</linearGradient>
									<linearGradient id="Gradient-2" x1="38.0227661" x2="43.4706383" y1="12.0002193" y2="17.4480934" gradientUnits="userSpaceOnUse">
										<stop offset="0" stop-color="#f24c78"></stop>
										<stop offset=".0502992" stop-color="#f35378"></stop>
										<stop offset=".3300291" stop-color="#f87877"></stop>
										<stop offset=".5903254" stop-color="#fb9376"></stop>
										<stop offset=".8215525" stop-color="#fda375"></stop>
										<stop offset="1" stop-color="#fea975"></stop>
									</linearGradient>
									<linearGradient id="Gradient-3" x1="0" x2="37.7988319" y1="17.1994781" y2="17.1994781" gradientUnits="userSpaceOnUse">
										<stop offset="0" stop-color="#42f1cc"></stop>
										<stop offset=".0832457" stop-color="#30d0e1"></stop>
										<stop offset=".1926671" stop-color="#159eff"></stop>
										<stop offset=".3235199" stop-color="#425ffe"></stop>
										<stop offset=".4293851" stop-color="#4440db"></stop>
										<stop offset=".5305977" stop-color="#3632b3"></stop>
										<stop offset=".5843888" stop-color="#2d2b95"></stop>
										<stop offset=".65" stop-color="#242375"></stop>
										<stop offset=".7805882" stop-color="#2e175c"></stop>
										<stop offset=".9" stop-color="#37145c"></stop>
										<stop offset=".9351292" stop-color="#41175b"></stop>
										<stop offset="1" stop-color="#4f1c59"></stop>
									</linearGradient>
									<linearGradient id="Gradient-4" x1="16.2746601" x2="43.6916924" y1="7.8086429" y2="7.8086429" gradientUnits="userSpaceOnUse">
										<stop offset="0" stop-color="#7333a3"></stop>
										<stop offset=".25" stop-color="#b4208b"></stop>
										<stop offset=".5" stop-color="#ee2e7d"></stop>
										<stop offset=".579803" stop-color="#f14579"></stop>
										<stop offset=".75" stop-color="#f87372"></stop>
										<stop offset=".8891253" stop-color="#fc9674"></stop>
										<stop offset="1" stop-color="#ffae75"></stop>
									</linearGradient>
									<linearGradient id="Gradient-5" x1="5.8033156" x2="22.4205818" y1="27.3743019" y2="27.3743019" gradientUnits="userSpaceOnUse">
										<stop offset="0" stop-color="#1993bf"></stop>
										<stop offset=".0594379" stop-color="#1c76aa"></stop>
										<stop offset=".1374016" stop-color="#205895"></stop>
										<stop offset=".2194426" stop-color="#234084"></stop>
										<stop offset=".3063478" stop-color="#242f77"></stop>
										<stop offset=".4013133" stop-color="#262570"></stop>
										<stop offset=".5195531" stop-color="#26226e"></stop>
										<stop offset="1" stop-color="#2a234f"></stop>
									</linearGradient>
								</defs>
								<title>studypeers</title>
								<g id="Mark">
									<path fill="url(#Gradient-1)" d="M1.5562831 18.405426v9.8202343l2.5899323 1.4699974.0043235-9.7925396z"></path>
									<path fill="url(#Gradient-2)" d="M39.453968 10.5690184v9.8038892l2.5856057-1.4937496V9.0755424z"></path>
									<path fill="url(#Gradient-3)" d="M32.1692467 17.0857029c-1.3517799.7733688-3.0124893.7710476-4.3621044-.0060978l-12.723919-7.3224335c-.846221-.4869881-1.8877211-.4865875-2.7335663.0010519L.2739652 16.719986c-.365234.2107372-.3653002.7378521-.0001191.9486809l12.0749931 6.9712276c.8462439.4885616 1.8887024.489172 2.7355194.0016041l8.2535849-4.7521305 2.0155659 1.1652489.9853535.5700626c2.2555218 1.3049011 5.0354786 1.3090191 7.294857.0108032l1.0375748-.59618 3.1275368-1.810297-.009243-5.3507776-5.6203418 3.2074747z"></path>
									<path fill="url(#Gradient-4)" d="M28.6170769.3666457L16.5485764 7.3317189c-.3651581.2107439-.3652382.7377572-.0001431.9486117l12.0684032 6.9698944c.8474731.4894428 1.8917255.4894123 2.7391701-.0000811l12.0619431-6.9671135c.364994-.210824.364994-.7376714 0-.9484959L31.3555279.3671418c-.8471871-.4893451-1.8910866-.4895342-2.738451-.0004961z"></path>
									<path fill="url(#Gradient-5)" d="M22.4205818 22.7486038l-6.4205513 3.7115173c-1.4128876.8197079-3.156126.8218288-4.5710058.0055637l-5.6257091-3.2455616.0103588 5.3410664 3.2668357 1.8886375.9892797.5713425c2.2436085 1.2957592 5.0058241 1.3056583 7.2586632.0260162l1.027153-.5834351 4.0513592-2.3494816.0136166-5.3656653z"></path>
								</g>
							</svg>