<svg xmlns="http://www.w3.org/2000/svg" width="79.249" height="100" viewBox="0 0 79.249 100">
  <g id="celebrate" transform="translate(-52.709)">
    <path id="Path_2850" data-name="Path 2850" d="M131.143,89.635l1.924-4.778a4.17,4.17,0,0,0-1.8-5.224,4.242,4.242,0,0,0-5.758,1.542l-1.415,2.761a4.491,4.491,0,0,0-2-2.62v0a4.076,4.076,0,0,0-5.569,1.491L94.06,121.69a21.843,21.843,0,0,0-1.212-15.941,7.555,7.555,0,0,0-7.432-4.194,3.152,3.152,0,0,0-2.865,3.617l1.27,8.292a35.787,35.787,0,0,1,.068,10.371c-.386,2.769-.833,5.915-1.086,7.489a22.46,22.46,0,0,0,2.879,15.167c1.291,2.132,45.461-32.974,45.461-56.855Z" transform="translate(-23.936 -63.516)" fill="#ffd0c7"/>
    <path id="Path_2851" data-name="Path 2851" d="M95.244,199.131a55.213,55.213,0,0,0,23.8-19.662L130.5,162.617a4.374,4.374,0,0,0-.506-5.541,4.438,4.438,0,0,0-4.591-1l7.063-9.679a4.284,4.284,0,0,0-.431-5.555,4.346,4.346,0,0,0-4.585-.965l3.319-4.414a3.8,3.8,0,0,0-.336-4.966,4.132,4.132,0,0,0-5.589.183l-3.788,4.371a4.163,4.163,0,0,0-.2-5.554,4.111,4.111,0,0,0-5.765,0L83.338,161.251a21.843,21.843,0,0,0,2.953-15.712,7.555,7.555,0,0,0-6.094-5.974,3.152,3.152,0,0,0-3.7,2.753l-.918,8.338a35.793,35.793,0,0,1-2.616,10.035c-1.089,2.575-2.335,5.5-2.986,6.953a22.461,22.461,0,0,0-1.142,15.395,9.869,9.869,0,0,1-.65,7.187L62.721,201.09H90.7Z" transform="translate(-8.041 -103.058)" fill="#ffdcd5"/>
    <path id="Path_2852" data-name="Path 2852" d="M92.155,9.481a1.969,1.969,0,0,1-1.969-1.969V1.969a1.969,1.969,0,0,1,3.937,0V7.512A1.968,1.968,0,0,1,92.155,9.481Zm-5.707-.42-3.92-3.92a1.968,1.968,0,0,0-2.784,2.784l3.92,3.92a1.968,1.968,0,1,0,2.784-2.784Zm33.044,2.784a1.969,1.969,0,0,0,2.784,0l3.92-3.92a1.968,1.968,0,0,0-2.784-2.784l-3.92,3.92A1.969,1.969,0,0,0,119.492,11.844ZM84.084,17.52a1.969,1.969,0,0,0-1.968-1.969H76.792a1.969,1.969,0,0,0,0,3.937h5.324A1.969,1.969,0,0,0,84.084,17.52ZM115.777,7.512V1.969a1.969,1.969,0,0,0-3.937,0V7.512a1.969,1.969,0,0,0,3.937,0Zm16.18,10.008a1.969,1.969,0,0,0-1.968-1.969h-6.141a1.969,1.969,0,0,0,0,3.937h6.141A1.969,1.969,0,0,0,131.957,17.52Zm-6.011,27.073-4.817,6.6a6.312,6.312,0,0,1,2.951,9.482L113.356,76.453c-9.866,15.155-22.857,20.466-29.29,23.2a4.328,4.328,0,0,1-1.694.345H54.68a1.969,1.969,0,0,1-1.759-2.853l5.461-10.863a7.845,7.845,0,0,0,.831-3.821A24.618,24.618,0,0,1,56.925,67.5c.205-1.275.578-3.85,1.08-7.446a33.856,33.856,0,0,0-.065-9.8L56.67,41.953a5.175,5.175,0,0,1,4.65-5.876,10.065,10.065,0,0,1,5.66,1.3,5.133,5.133,0,0,1,5.528-2.8,9.872,9.872,0,0,1,6.441,4.388l1.541-2.667A1.968,1.968,0,0,1,83.9,38.26l-3.415,5.912a23.82,23.82,0,0,1-.179,6.228L86.2,44.51c1.161-2.4,8.265-17.049,11.786-24.134a2.321,2.321,0,0,0-1.864-1.157,2.24,2.24,0,0,0-1.829,1.055l-1.53,2.645a1.968,1.968,0,0,1-3.409-1.969l1.53-2.645a6.188,6.188,0,0,1,5.23-3.024A6.337,6.337,0,0,1,99.9,16.626a6.183,6.183,0,0,1,11.062,5.451l-.494,1.226a5.763,5.763,0,0,1,4.751,3.145,6.047,6.047,0,0,1,8.292-.651c2.4,1.756,2.633,5.547.571,8.087l-.832,1.107a6.254,6.254,0,0,1,2.7,2.043,6.342,6.342,0,0,1,0,7.558ZM94.708,36l10.714-10.714,1.884-4.677c1.21-2.484-2.819-4.447-4.029-1.963C102.759,19.706,98.507,28.2,94.708,36Zm-34.146,5.36,1.269,8.293a37.781,37.781,0,0,1,.226,9.69,35.385,35.385,0,0,0,3.521-11.957l.623-5.654A5.747,5.747,0,0,0,61.64,40a1.19,1.19,0,0,0-1.078,1.356Zm60.028-2.831L100.847,64.8a2.109,2.109,0,0,1-2.756.391,2.028,2.028,0,0,1-.391-2.756l23.231-30.912a1.867,1.867,0,0,0,.121-2.639,2.011,2.011,0,0,0-2.847.13l-23.66,27.3a1.968,1.968,0,0,1-2.975-2.578L111.527,30.7a2.109,2.109,0,0,0-3.085-2.872L76.689,59.585a1.968,1.968,0,0,1-2.752.032,2.009,2.009,0,0,1-.187-2.662,19.718,19.718,0,0,0,2.565-14.108,5.615,5.615,0,0,0-4.512-4.4,1.2,1.2,0,0,0-1.393,1.031l-.919,8.339A37.789,37.789,0,0,1,66.731,58.4c-1.448,3.424-2.458,5.776-3,6.99a20.45,20.45,0,0,0-1.048,14.04,11.8,11.8,0,0,1-.782,8.62l-4.027,8.011H82.253c13.388-5.175,21.465-12.2,27.856-21.838l10.728-15.781a2.388,2.388,0,0,0-2.292-3.708L105.283,72.909a2.1,2.1,0,0,1-2.751.43,2.016,2.016,0,0,1-.43-2.751l20.731-28.41a2.331,2.331,0,0,0-2.244-3.652ZM86.624,27.638a1.969,1.969,0,1,0,1.968,1.969A1.968,1.968,0,0,0,86.624,27.638Z" transform="translate(0)" fill="#2a1f5a"/>
  </g>
</svg>
