<svg id="correct" xmlns="http://www.w3.org/2000/svg" width="18" height="18" viewBox="0 0 18 18">
  <g id="Group_3046" data-name="Group 3046" transform="translate(4.274 2.262)">
    <g id="Group_3045" data-name="Group 3045">
      <path id="Path_6654" data-name="Path 6654" d="M134.779,64.527a.678.678,0,0,0-.959,0l-8.138,8.117-2.936-3.189a.678.678,0,1,0-1,.919l3.415,3.708a.678.678,0,0,0,.485.219h.014a.679.679,0,0,0,.479-.2l8.638-8.616A.678.678,0,0,0,134.779,64.527Z" transform="translate(-121.568 -64.327)" fill="#1ae2bc"/>
    </g>
  </g>
  <g id="Group_3048" data-name="Group 3048">
    <g id="Group_3047" data-name="Group 3047">
      <path id="Path_6655" data-name="Path 6655" d="M17.322,8.322A.678.678,0,0,0,16.643,9,7.643,7.643,0,1,1,9,1.357.678.678,0,1,0,9,0a9,9,0,1,0,9,9A.678.678,0,0,0,17.322,8.322Z" fill="#1ae2bc"/>
    </g>
  </g>
</svg>
