<svg id="course-name" xmlns="http://www.w3.org/2000/svg" width="16" height="13.118" viewBox="0 0 16 13.118">
  <path id="Path_6672" data-name="Path 6672" d="M238.285,11.426V0l-.436.037a16.767,16.767,0,0,0-5.082,1.239L232,1.594V12.975l.559-.232a17.442,17.442,0,0,1,5.257-1.278Zm0,0" transform="translate(-223.714)" fill="#1ae2bc"/>
  <path id="Path_6673" data-name="Path 6673" d="M271.189,47.3h-.857v10a.286.286,0,0,1-.262.286l-.732.06q-.317.026-.632.065c-.068.008-.136.019-.2.029-.141.019-.283.038-.423.06-.082.013-.164.028-.245.043-.126.022-.252.044-.378.069-.086.017-.172.036-.259.055-.12.025-.239.051-.358.08l-.267.066c-.116.029-.231.059-.346.092-.089.025-.179.05-.268.077-.114.034-.227.068-.34.1l-.265.086q-.17.057-.338.118l-.259.1-.117.046h6.549Zm0,0" transform="translate(-255.189 -45.608)" fill="#1ae2bc"/>
  <path id="Path_6674" data-name="Path 6674" d="M40.436.037,40,0V11.427l.507.043a17.325,17.325,0,0,1,5.252,1.286l.527.219V1.594l-.767-.318A16.766,16.766,0,0,0,40.436.037Zm0,0" transform="translate(-38.571)" fill="#1ae2bc"/>
  <path id="Path_6675" data-name="Path 6675" d="M0,47.3V58.725H6.553l-.106-.042L6.2,58.593c-.116-.042-.232-.083-.349-.122L5.6,58.387q-.174-.057-.349-.107l-.257-.074c-.117-.033-.235-.063-.353-.094-.086-.022-.171-.044-.259-.065-.12-.029-.24-.055-.36-.081-.086-.019-.171-.037-.257-.055-.125-.025-.25-.047-.375-.068L3.141,57.8c-.138-.022-.277-.04-.415-.059-.07-.009-.14-.021-.209-.028q-.314-.038-.629-.065l-.769-.065A.286.286,0,0,1,.857,57.3v-10Zm0,0" transform="translate(0 -45.608)" fill="#1ae2bc"/>
</svg>
