<svg id="follow-grey" xmlns="http://www.w3.org/2000/svg" width="17.995" height="20" viewBox="0 0 17.995 20">
  <g id="_053---Follow-Podcast" data-name="053---Follow-Podcast" transform="translate(0 0)">
    <path id="Shape" d="M18.331,9.662a8.666,8.666,0,0,1-7.106,8.523l-1.56,2.143L8.1,18.185A8.666,8.666,0,1,1,18.331,9.662Z" transform="translate(-0.665 -0.663)" fill="#e9e9e9"/>
    <circle id="Oval" cx="3" cy="3" r="3" transform="translate(7.336 3.333)" fill="#fff"/>
    <path id="Shape-2" data-name="Shape" d="M30,10a3.1,3.1,0,0,0-.5.043,3,3,0,0,1,0,5.913A3.1,3.1,0,0,0,30,16a3,3,0,0,0,0-6Z" transform="translate(-19.667 -6.667)" fill="#e8edfc"/>
    <path id="Shape-3" data-name="Shape" d="M26.189,30.667a5.666,5.666,0,0,1-9.619,0C17.18,29.363,18.5,28,21.38,28S25.579,29.36,26.189,30.667Z" transform="translate(-11.047 -18.667)" fill="#fff"/>
    <path id="Shape-4" data-name="Shape" d="M8.125,18.189l1.56,2.143.5-.687-1.06-1.457a8.666,8.666,0,0,1,1.06-17.172C10.018,1,9.851,1,9.685,1a8.666,8.666,0,0,0-1.56,17.189Z" transform="translate(-0.685 -0.667)" fill="#fff"/>
    <path id="Shape-5" data-name="Shape" d="M.423,18.82l.633.2a9.353,9.353,0,0,0-.39,2.523H0A9.943,9.943,0,0,1,.423,18.82Z" transform="translate(0 -12.547)" fill="#fff"/>
    <g id="Group_3438" data-name="Group 3438">
      <path id="Shape-6" data-name="Shape" d="M.683,22.667a.333.333,0,1,1,.333-.333A.333.333,0,0,1,.683,22.667Z" transform="translate(-0.233 -14.667)" fill="#aaa"/>
      <path id="Shape-7" data-name="Shape" d="M0,9a9,9,0,0,0,7.246,8.826l1.483,2.037a.333.333,0,0,0,.54,0l1.483-2.037A9,9,0,0,0,9,0,9.689,9.689,0,0,0,6.206.447a8.863,8.863,0,0,0-2.513,1.3,9.026,9.026,0,0,0-3.27,4.53A.333.333,0,0,0,.667,6.7a.333.333,0,0,0,.4-.22,8.376,8.376,0,0,1,3.016-4.2A8.289,8.289,0,0,1,6.42,1.08,9.079,9.079,0,0,1,9,.667,8.333,8.333,0,0,1,10.5,17.2a.333.333,0,0,0-.21.13L9,19.1,7.71,17.332a.333.333,0,0,0-.21-.13A8.333,8.333,0,0,1,.667,9,.333.333,0,1,0,0,9Z" transform="translate(0 0)" fill="#aaa"/>
      <path id="Shape-8" data-name="Shape" d="M15.589,17.853a.333.333,0,0,0,.02.333,6,6,0,0,0,10.186,0,.333.333,0,0,0,.02-.333,4.75,4.75,0,0,0-3.4-2.667,3.333,3.333,0,1,0-3.43,0,4.756,4.756,0,0,0-3.4,2.667Zm2.447-5.523A2.667,2.667,0,1,1,20.7,15,2.667,2.667,0,0,1,18.036,12.33ZM20.7,15.663c2.15,0,3.636.777,4.426,2.307a5.333,5.333,0,0,1-8.853,0C17.066,16.44,18.552,15.663,20.7,15.663Z" transform="translate(-10.37 -5.997)" fill="#aaa"/>
      <path id="Shape-9" data-name="Shape" d="M7,21a.333.333,0,0,0-.333.333v1.333H5.333a.333.333,0,1,0,0,.667H6.667v1.333a.333.333,0,1,0,.667,0V23.333H8.666a.333.333,0,0,0,0-.667H7.333V21.333A.333.333,0,0,0,7,21Z" transform="translate(-3.333 -14)" fill="#aaa"/>
    </g>
  </g>
</svg>
