<svg xmlns="http://www.w3.org/2000/svg" width="17.683" height="15" viewBox="0 0 17.683 15">
  <g id="group" transform="translate(0 -38.84)">
    <g id="Group_2887" data-name="Group 2887" transform="translate(13.763 46.938)">
      <g id="Group_2886" data-name="Group 2886">
        <path id="Path_2917" data-name="Path 2917" d="M399.861,273.32h-1.367a3.557,3.557,0,0,1,.216,1.223v5.168a1.524,1.524,0,0,1-.088.511h2.261a1.533,1.533,0,0,0,1.532-1.532v-2.818A2.555,2.555,0,0,0,399.861,273.32Z" transform="translate(-398.494 -273.32)" fill="#546de5"/>
      </g>
    </g>
    <g id="Group_2889" data-name="Group 2889" transform="translate(0 46.938)">
      <g id="Group_2888" data-name="Group 2888" transform="translate(0 0)">
        <path id="Path_2918" data-name="Path 2918" d="M3.7,274.544a3.557,3.557,0,0,1,.216-1.223H2.553A2.556,2.556,0,0,0,0,275.874v2.818a1.533,1.533,0,0,0,1.532,1.532H3.792a1.525,1.525,0,0,1-.088-.511Z" transform="translate(0 -273.321)" fill="#546de5"/>
      </g>
    </g>
    <g id="Group_2891" data-name="Group 2891" transform="translate(4.726 45.608)">
      <g id="Group_2890" data-name="Group 2890" transform="translate(0 0)">
        <path id="Path_2919" data-name="Path 2919" d="M142.508,234.815h-3.126a2.556,2.556,0,0,0-2.553,2.553v5.168a.511.511,0,0,0,.511.511h7.211a.511.511,0,0,0,.511-.511v-5.168A2.556,2.556,0,0,0,142.508,234.815Z" transform="translate(-136.829 -234.815)" fill="#546de5"/>
      </g>
    </g>
    <g id="Group_2893" data-name="Group 2893" transform="translate(5.772 38.84)">
      <g id="Group_2892" data-name="Group 2892" transform="translate(0 0)">
        <path id="Path_2920" data-name="Path 2920" d="M170.184,38.84a3.069,3.069,0,1,0,3.07,3.07A3.073,3.073,0,0,0,170.184,38.84Z" transform="translate(-167.114 -38.84)" fill="#546de5"/>
      </g>
    </g>
    <g id="Group_2895" data-name="Group 2895" transform="translate(1.155 41.701)">
      <g id="Group_2894" data-name="Group 2894" transform="translate(0 0)">
        <path id="Path_2921" data-name="Path 2921" d="M35.739,121.689a2.295,2.295,0,1,0,2.3,2.3A2.3,2.3,0,0,0,35.739,121.689Z" transform="translate(-33.443 -121.689)" fill="#546de5"/>
      </g>
    </g>
    <g id="Group_2897" data-name="Group 2897" transform="translate(11.936 41.701)">
      <g id="Group_2896" data-name="Group 2896" transform="translate(0 0)">
        <path id="Path_2922" data-name="Path 2922" d="M347.9,121.689a2.3,2.3,0,1,0,2.3,2.3A2.3,2.3,0,0,0,347.9,121.689Z" transform="translate(-345.607 -121.689)" fill="#546de5"/>
      </g>
    </g>
  </g>
</svg>
