<svg id="hidden" xmlns="http://www.w3.org/2000/svg" width="18" height="17.999" viewBox="0 0 18 17.999">
  <g id="Group_3152" data-name="Group 3152" transform="translate(0 0)">
    <g id="Group_3151" data-name="Group 3151">
      <path id="Path_6683" data-name="Path 6683" d="M17.795,16.807,14.089,13.1l-.017-.017-9.14-9.14-.019-.019L1.2.214a.7.7,0,0,0-.994.994L3.35,4.351A13.9,13.9,0,0,0,.463,7.463a2.808,2.808,0,0,0,0,3.089,13.689,13.689,0,0,0,3.161,3.322,8.991,8.991,0,0,0,5.392,1.953,8.536,8.536,0,0,0,4.472-1.338L16.8,17.8a.7.7,0,1,0,.994-.994ZM6.732,7.733,7.7,8.7a1.371,1.371,0,0,0,1.643,1.643l.933.933A2.6,2.6,0,0,1,6.732,7.733Zm2.284,6.688c-3.414,0-6.244-2.918-7.378-4.642a1.4,1.4,0,0,1,0-1.543A12.388,12.388,0,0,1,4.352,5.353L5.713,6.714A4.009,4.009,0,0,0,11.294,12.3l1.166,1.166A7.017,7.017,0,0,1,9.016,14.421Z" transform="translate(0 -0.008)" fill="#aaa"/>
    </g>
  </g>
  <g id="Group_3154" data-name="Group 3154" transform="translate(6.395 2.18)">
    <g id="Group_3153" data-name="Group 3153">
      <path id="Path_6684" data-name="Path 6684" d="M193.059,67.307l-.011-.018a13.594,13.594,0,0,0-3.141-3.327A8.945,8.945,0,0,0,184.52,62a7.845,7.845,0,0,0-2.106.294.7.7,0,1,0,.378,1.355,6.438,6.438,0,0,1,1.729-.242c3.4,0,6.2,2.9,7.336,4.625l.011.018a1.405,1.405,0,0,1,0,1.544,11.846,11.846,0,0,1-1.276,1.588.7.7,0,1,0,1.019.969,13,13,0,0,0,1.432-1.784,2.811,2.811,0,0,0,.018-3.062Z" transform="translate(-181.899 -62.004)" fill="#aaa"/>
    </g>
  </g>
  <g id="Group_3156" data-name="Group 3156" transform="translate(9.038 5.075)">
    <g id="Group_3155" data-name="Group 3155">
      <path id="Path_6685" data-name="Path 6685" d="M260.949,147.431a4.021,4.021,0,0,0-3.017-3.044.7.7,0,1,0-.314,1.371,2.608,2.608,0,0,1,1.957,1.975.7.7,0,0,0,1.374-.3Z" transform="translate(-257.072 -144.369)" fill="#aaa"/>
    </g>
  </g>
</svg>
