<svg xmlns="http://www.w3.org/2000/svg" width="100.002" height="100" viewBox="0 0 100.002 100">
  <g id="insight" transform="translate(0 -0.005)">
    <g id="Group_557" data-name="Group 557" transform="translate(1.955 1.958)">
      <path id="Path_2882" data-name="Path 2882" d="M149.823,45.16A27.344,27.344,0,1,1,177.167,72.5,27.344,27.344,0,0,1,149.823,45.16Zm-7.812,0A35.009,35.009,0,0,0,149.7,67.1a35.366,35.366,0,0,0,5.524,5.524A35.157,35.157,0,1,0,142.011,45.16Z" transform="translate(-116.23 -10.004)" fill="#e6e6e6" fill-rule="evenodd"/>
      <circle id="Ellipse_216" data-name="Ellipse 216" cx="27.344" cy="27.344" r="27.344" transform="translate(33.594 7.812)" fill="#1ae2bc"/>
      <path id="Path_2883" data-name="Path 2883" d="M163.507,307.882a35.366,35.366,0,0,1-5.524-5.524l-5.678,5.678,5.524,5.524Z" transform="translate(-124.513 -245.258)" fill="gray" fill-rule="evenodd"/>
      <path id="Path_2884" data-name="Path 2884" d="M43.326,332.257,37.8,326.733a3.918,3.918,0,0,0-5.524,0L11.15,347.861a3.918,3.918,0,0,0,0,5.524l5.524,5.524a3.918,3.918,0,0,0,5.524,0l21.128-21.128A3.918,3.918,0,0,0,43.326,332.257Z" transform="translate(-10.01 -263.955)" fill="#546de5" fill-rule="evenodd"/>
      <path id="Path_2885" data-name="Path 2885" d="M225.435,153.377c3.765,5.314,10.8,8.89,18.862,8.89a8.89,8.89,0,1,1,0-17.78C236.237,144.487,229.2,148.063,225.435,153.377Z" transform="translate(-183.36 -118.221)" fill="#fff" fill-rule="evenodd"/>
      <circle id="Ellipse_217" data-name="Ellipse 217" cx="8.89" cy="8.89" r="8.89" transform="translate(52.047 26.266)" fill="#c9c8cd"/>
      <path id="Path_2886" data-name="Path 2886" d="M330.9,153.376a8.89,8.89,0,0,1-8.89,8.89c8.06,0,15.1-3.576,18.862-8.89-3.765-5.314-10.8-8.89-18.862-8.89A8.89,8.89,0,0,1,330.9,153.376Z" transform="translate(-261.074 -118.22)" fill="#fff" fill-rule="evenodd"/>
    </g>
    <g id="Group_558" data-name="Group 558" transform="translate(0 0.005)">
      <path id="Path_2887" data-name="Path 2887" d="M62.892,0A37,37,0,0,0,43.136,5.7,1.953,1.953,0,0,0,45.219,9,33.2,33.2,0,1,1,34.781,19.441a1.953,1.953,0,1,0-3.3-2.083,37.072,37.072,0,0,0,1.373,41.513l-3.34,3.34a5.869,5.869,0,0,0-6.668,1.143L1.713,84.483a5.866,5.866,0,0,0,0,8.286l5.524,5.524a5.871,5.871,0,0,0,8.286,0L36.652,77.165A5.885,5.885,0,0,0,37.8,70.5l3.339-3.339A37.1,37.1,0,1,0,62.892,0Zm-29,74.4L12.762,95.531a1.964,1.964,0,0,1-2.762,0L4.475,90.007a1.955,1.955,0,0,1,0-2.762L25.6,66.116a1.955,1.955,0,0,1,2.762,0l5.524,5.524a1.965,1.965,0,0,1,0,2.762ZM35.271,67.5l-2.762-2.762,2.812-2.812a37.451,37.451,0,0,0,2.762,2.762Z" transform="translate(0 -0.005)" fill="#2a1f5a"/>
      <path id="Path_2888" data-name="Path 2888" d="M224.434,84.027a1.953,1.953,0,0,0,2.648-.787,29.284,29.284,0,1,0-11.835,11.835,1.953,1.953,0,0,0-1.861-3.434,25.376,25.376,0,1,1,10.262-10.262A1.953,1.953,0,0,0,224.434,84.027Z" transform="translate(-138.415 -32.193)" fill="#2a1f5a"/>
      <path id="Path_2889" data-name="Path 2889" d="M186.685,56.628a1.953,1.953,0,1,0-1.314-3.4h0a1.953,1.953,0,0,0,1.315,3.4Z" transform="translate(-148.651 -42.426)" fill="#2a1f5a"/>
      <path id="Path_2890" data-name="Path 2890" d="M412.959,282.9a1.953,1.953,0,1,0-1.251-3.454h0a1.953,1.953,0,0,0,1.252,3.453Z" transform="translate(-330.73 -224.507)" fill="#2a1f5a"/>
      <path id="Path_2891" data-name="Path 2891" d="M256.707,146.459a1.953,1.953,0,0,0,0-2.258c-4.245-5.992-12.084-9.714-20.456-9.714S220.04,138.208,215.8,144.2a1.953,1.953,0,0,0,0,2.258c4.245,5.992,12.084,9.714,20.456,9.714S252.462,152.451,256.707,146.459Zm-13.519-1.129a6.937,6.937,0,1,1-6.937-6.937A6.945,6.945,0,0,1,243.188,145.329Zm-23.326,0a19.013,19.013,0,0,1,6.729-4.917,10.8,10.8,0,0,0,0,9.834A19.012,19.012,0,0,1,219.862,145.33Zm26.049,4.917a10.8,10.8,0,0,0,0-9.834,19.014,19.014,0,0,1,6.729,4.917A19.013,19.013,0,0,1,245.911,150.246Z" transform="translate(-173.358 -108.22)" fill="#2a1f5a"/>
      <path id="Path_2892" data-name="Path 2892" d="M313.96,183.911h0a1.953,1.953,0,1,0-1.955-1.953A1.953,1.953,0,0,0,313.962,183.911Z" transform="translate(-251.068 -144.849)" fill="#2a1f5a"/>
    </g>
  </g>
</svg>
