<svg xmlns="http://www.w3.org/2000/svg" width="18.867" height="21" viewBox="0 0 18.867 21">
  <g id="like-grey" transform="translate(-26)">
    <path id="Path_2897" data-name="Path 2897" d="M167.074,124.449a1.23,1.23,0,1,1,0,2.461h-.533l-.008.032a1.23,1.23,0,0,1-.279,2.429h-.82a1.23,1.23,0,0,1,0,2.461h-4.411a15.845,15.845,0,0,1-5.023-.82v-8.2c.043-.034,6.563-1.225,6.563-5.168v-.41a1.23,1.23,0,0,1,2.461,0,9.711,9.711,0,0,1-.82,4.76h3.691a1.23,1.23,0,0,1,0,2.461Z" transform="translate(-124.668 -111.242)" fill="#e9e9e9"/>
    <path id="Path_2898" data-name="Path 2898" d="M40.922,262.82v8.2a.82.82,0,0,1-.82.82H36V262h4.1A.82.82,0,0,1,40.922,262.82Z" transform="translate(-9.59 -251.254)" fill="#e9e9e9"/>
    <path id="Path_2899" data-name="Path 2899" d="M336.82,2.3V.41a.41.41,0,1,0-.82,0V2.3a.41.41,0,1,0,.82,0Z" transform="translate(-297.285)" fill="#aaa"/>
    <path id="Path_2900" data-name="Path 2900" d="M106.41,312a.41.41,0,1,0,.41.41A.41.41,0,0,0,106.41,312Z" transform="translate(-76.719 -299.203)" fill="#aaa"/>
    <path id="Path_2901" data-name="Path 2901" d="M43.227,111.988H40.165a10.3,10.3,0,0,0,.629-3.916,4.67,4.67,0,0,0-.029-.472,1.64,1.64,0,0,0-3.28.039v.41c0,2.594-3.331,4.052-5.845,4.677a1.232,1.232,0,0,0-1.128-.739h-4.1a.41.41,0,0,0-.41.41v9.844a.41.41,0,0,0,.41.41h4.1a1.232,1.232,0,0,0,1.124-.73l.58.15a13.3,13.3,0,0,0,4.139.58h4.411a1.64,1.64,0,0,0,1.363-2.553,1.645,1.645,0,0,0,.823-2.462,1.64,1.64,0,0,0,.817-2.46,1.641,1.641,0,0,0-.543-3.189Zm-12.3,9.434a.411.411,0,0,1-.41.41H26.82v-9.023h3.691a.411.411,0,0,1,.41.41Zm12.3-6.973H41.176a.41.41,0,1,0,0,.82h1.23a.82.82,0,0,1,0,1.641H40.355a.41.41,0,1,0,0,.82h1.23a.82.82,0,1,1,0,1.641H39.535a.41.41,0,1,0,0,.82h1.23a.82.82,0,1,1,0,1.641H36.355a12.513,12.513,0,0,1-3.932-.553l-.68-.176v-7.555c2.968-.707,6.563-2.433,6.563-5.5v-.41a.82.82,0,0,1,1.641,0h0a9.628,9.628,0,0,1-.67,4.348H37.895a.41.41,0,0,0,0,.82h5.332a.82.82,0,1,1,0,1.641Z" transform="translate(0 -101.652)" fill="#aaa"/>
    <path id="Path_2902" data-name="Path 2902" d="M106.41,352a.41.41,0,0,0-.41.41v3.281a.41.41,0,1,0,.82,0V352.41A.41.41,0,0,0,106.41,352Z" transform="translate(-76.719 -337.563)" fill="#aaa"/>
    <path id="Path_2903" data-name="Path 2903" d="M216,126.41a.41.41,0,0,0,.41.41h1.641a.41.41,0,1,0,0-.82H216.41A.41.41,0,0,0,216,126.41Z" transform="translate(-182.207 -120.832)" fill="#aaa"/>
    <path id="Path_2904" data-name="Path 2904" d="M416,126.41a.41.41,0,0,0,.41.41h1.641a.41.41,0,1,0,0-.82H416.41A.41.41,0,0,0,416,126.41Z" transform="translate(-374.004 -120.832)" fill="#aaa"/>
    <path id="Path_2905" data-name="Path 2905" d="M393.85,41.271l-1.16,1.16a.41.41,0,0,0,.58.58l1.16-1.16a.41.41,0,0,0-.58-.58Z" transform="translate(-351.535 -39.463)" fill="#aaa"/>
    <path id="Path_2906" data-name="Path 2906" d="M253.01,43.011a.41.41,0,0,0,0-.58l-1.16-1.16a.41.41,0,0,0-.58.58l1.16,1.16A.41.41,0,0,0,253.01,43.011Z" transform="translate(-215.916 -39.463)" fill="#aaa"/>
  </g>
</svg>
