<svg xmlns="http://www.w3.org/2000/svg" width="89.844" height="100" viewBox="0 0 89.844 100">
  <g id="like" transform="translate(-26)">
    <path id="Path_2897" data-name="Path 2897" d="M208.734,156.234a5.859,5.859,0,0,1,0,11.719H206.2l-.037.154a5.859,5.859,0,0,1-1.33,11.564h-3.906a5.859,5.859,0,0,1,0,11.719h-21c-10.7,0-13.541-1.312-23.918-3.906V148.422c.207-.162,31.25-5.836,31.25-24.609v-1.953a5.859,5.859,0,0,1,11.719-.01c.039,0,1.262,12.33-3.906,22.666h17.578a5.859,5.859,0,0,1,0,11.719Z" transform="translate(-104.609 -93.344)" fill="#ffdcd5"/>
    <path id="Path_2898" data-name="Path 2898" d="M59.438,265.906v39.063a3.905,3.905,0,0,1-3.906,3.906H36V262H55.531A3.905,3.905,0,0,1,59.438,265.906Z" transform="translate(-8.047 -210.828)" fill="#546de5"/>
    <path id="Path_2899" data-name="Path 2899" d="M339.906,10.938V1.953a1.953,1.953,0,0,0-3.906,0v8.984a1.953,1.953,0,0,0,3.906,0Z" transform="translate(-249.453)" fill="#2a1f5a"/>
    <path id="Path_2900" data-name="Path 2900" d="M107.953,312a1.953,1.953,0,1,0,1.953,1.953A1.954,1.954,0,0,0,107.953,312Z" transform="translate(-64.375 -251.063)" fill="#2a1f5a"/>
    <path id="Path_2901" data-name="Path 2901" d="M108.031,134.516H93.451a49.048,49.048,0,0,0,2.995-18.645,22.243,22.243,0,0,0-.138-2.246,7.811,7.811,0,0,0-15.62.188v1.953c0,12.353-15.862,19.293-27.833,22.269a5.867,5.867,0,0,0-5.37-3.519H27.953A1.953,1.953,0,0,0,26,136.469v46.875a1.953,1.953,0,0,0,1.953,1.953H47.484a5.867,5.867,0,0,0,5.352-3.478q1.487.381,2.761.716c6.819,1.781,10.576,2.762,19.712,2.762h21a7.808,7.808,0,0,0,6.49-12.156,7.836,7.836,0,0,0,3.921-11.723,7.81,7.81,0,0,0,3.892-11.714,7.814,7.814,0,0,0-2.584-15.188ZM49.438,179.438a1.955,1.955,0,0,1-1.953,1.953H29.906V138.422H47.484a1.955,1.955,0,0,1,1.953,1.953Zm58.594-33.2H98.266a1.953,1.953,0,0,0,0,3.906h5.859a3.906,3.906,0,0,1,0,7.813H94.359a1.953,1.953,0,0,0,0,3.906h5.859a3.906,3.906,0,0,1,0,7.813H90.453a1.953,1.953,0,0,0,0,3.906h5.859a3.906,3.906,0,0,1,0,7.813h-21c-8.634,0-12.006-.881-18.725-2.635q-1.476-.386-3.24-.839V141.942c14.134-3.367,31.25-11.585,31.25-26.177v-1.953a3.906,3.906,0,0,1,7.813-.006v.006c0,.849,1.059,11.266-3.189,20.7H82.641a1.953,1.953,0,0,0,0,3.906h25.391a3.906,3.906,0,0,1,0,7.813Z" transform="translate(0 -85.297)" fill="#2a1f5a"/>
    <path id="Path_2902" data-name="Path 2902" d="M107.953,352A1.953,1.953,0,0,0,106,353.953v15.625a1.953,1.953,0,0,0,3.906,0V353.953A1.953,1.953,0,0,0,107.953,352Z" transform="translate(-64.375 -283.25)" fill="#2a1f5a"/>
    <path id="Path_2903" data-name="Path 2903" d="M216,127.953a1.953,1.953,0,0,0,1.953,1.953h7.813a1.953,1.953,0,0,0,0-3.906h-7.812A1.953,1.953,0,0,0,216,127.953Z" transform="translate(-152.891 -101.391)" fill="#2a1f5a"/>
    <path id="Path_2904" data-name="Path 2904" d="M416,127.953a1.953,1.953,0,0,0,1.953,1.953h7.813a1.953,1.953,0,0,0,0-3.906h-7.812A1.953,1.953,0,0,0,416,127.953Z" transform="translate(-313.828 -101.391)" fill="#2a1f5a"/>
    <path id="Path_2905" data-name="Path 2905" d="M398.666,41.723l-5.523,5.523a1.953,1.953,0,1,0,2.762,2.762l5.523-5.523a1.953,1.953,0,1,0-2.762-2.762Z" transform="translate(-294.975 -33.114)" fill="#2a1f5a"/>
    <path id="Path_2906" data-name="Path 2906" d="M260.008,50.008a1.953,1.953,0,0,0,0-2.762l-5.523-5.523a1.953,1.953,0,0,0-2.762,2.762l5.523,5.523A1.954,1.954,0,0,0,260.008,50.008Z" transform="translate(-181.176 -33.114)" fill="#2a1f5a"/>
  </g>
</svg>
