<svg id="Q_A" data-name="Q&amp;A" xmlns="http://www.w3.org/2000/svg" width="30.64" height="24" viewBox="0 0 30.64 24">
  <g id="Path_79" data-name="Path 79" transform="translate(11.756 7.65)">
    <path id="Path_100" data-name="Path 100" d="M1221.39,453.586h9.752l1.277,1.173v10.523l-1.277,1.277h-1.4l-2.667,2.667-2.667-2.667h-8.415l-1.589-1.411V459.72l5.3.134,1.69-1.69Z" transform="translate(-1214.402 -453.586)" fill="#fff"/>
  </g>
  <g id="Path_78" data-name="Path 78" transform="translate(0.782 0.88)">
    <path id="Path_101" data-name="Path 101" d="M1148,414.344v9.706l1.605,1.6h2.14l2.218,2.218,2.218-2.218h8.175l1.6-1.6V413.886l-1.262-1.262h-15.4Z" transform="translate(-1148.001 -412.624)" fill="#fff"/>
  </g>
  <g id="Group_139" data-name="Group 139">
    <g id="Group_115" data-name="Group 115" transform="translate(20.984 7.018)">
      <g id="Group_114" data-name="Group 114">
        <g id="Path_49" data-name="Path 49">
          <path id="Path_102" data-name="Path 102" d="M1271.245,449.938a.593.593,0,1,0,.174.419A.593.593,0,0,0,1271.245,449.938Z" transform="translate(-1270.233 -449.765)" fill="#185aeb"/>
        </g>
      </g>
    </g>
    <g id="Group_117" data-name="Group 117" transform="translate(11.03 6.88)">
      <g id="Group_116" data-name="Group 116">
        <g id="Path_50" data-name="Path 50">
          <path id="Path_103" data-name="Path 103" d="M1227.21,449.762h-3.78a.593.593,0,1,0,0,1.186h3.78a1.782,1.782,0,0,1,1.779,1.779v8.541a1.781,1.781,0,0,1-1.779,1.779h-.83a.594.594,0,0,0-.419.174l-1.953,1.953-1.953-1.953a.594.594,0,0,0-.42-.174h-7.829a1.781,1.781,0,0,1-1.779-1.779v-2.135a.593.593,0,0,0-1.187,0v2.135a2.969,2.969,0,0,0,2.965,2.965h7.583l2.2,2.2a.593.593,0,0,0,.839,0l2.2-2.2h.585a2.969,2.969,0,0,0,2.965-2.965v-8.54A2.969,2.969,0,0,0,1227.21,449.762Z" transform="translate(-1210.703 -449.624)" fill="#185aeb"/>
          <path id="Path_104" data-name="Path 104" d="M1223.311,466.047a.727.727,0,0,1-.517-.214l-2.158-2.158h-7.526a3.112,3.112,0,0,1-3.1-3.1v-2.135a.731.731,0,1,1,1.462,0v2.135a1.646,1.646,0,0,0,1.641,1.641h7.828a.736.736,0,0,1,.517.214l1.855,1.855,1.855-1.855a.726.726,0,0,1,.517-.214h.83a1.646,1.646,0,0,0,1.641-1.641v-8.541a1.646,1.646,0,0,0-1.642-1.641h-3.78a.731.731,0,1,1,0-1.463h3.78a3.112,3.112,0,0,1,3.1,3.1v8.54a3.111,3.111,0,0,1-3.1,3.1h-.528l-2.158,2.158A.726.726,0,0,1,1223.311,466.047Zm-12.573-8.066a.456.456,0,0,0-.455.455v2.135a2.835,2.835,0,0,0,2.828,2.827h7.64l2.239,2.239a.466.466,0,0,0,.644,0l2.239-2.239h.642a2.835,2.835,0,0,0,2.827-2.827v-8.54a2.835,2.835,0,0,0-2.827-2.828h-3.78a.455.455,0,1,0,0,.91h3.78a1.923,1.923,0,0,1,1.917,1.917v8.541a1.922,1.922,0,0,1-1.917,1.917h-.831a.453.453,0,0,0-.322.133l-2.05,2.05-2.05-2.05a.459.459,0,0,0-.322-.133h-7.829a1.922,1.922,0,0,1-1.917-1.917v-2.135A.456.456,0,0,0,1210.738,457.982Z" transform="translate(-1210.007 -448.927)" fill="#185aeb"/>
        </g>
      </g>
    </g>
    <g id="Group_119" data-name="Group 119">
      <g id="Group_118" data-name="Group 118">
        <g id="Path_51" data-name="Path 51">
          <path id="Path_105" data-name="Path 105" d="M1160.473,408.136h-13.4a2.969,2.969,0,0,0-2.965,2.965v8.542a2.969,2.969,0,0,0,2.965,2.964h1.245l2.2,2.2a.593.593,0,0,0,.839,0h0l2.2-2.2h6.922a2.969,2.969,0,0,0,2.965-2.964V411.1A2.969,2.969,0,0,0,1160.473,408.136Zm1.779,11.507a1.781,1.781,0,0,1-1.779,1.779h-7.168a.594.594,0,0,0-.419.174l-1.953,1.953-1.952-1.954a.593.593,0,0,0-.419-.174h-1.49a1.782,1.782,0,0,1-1.782-1.778V411.1a1.781,1.781,0,0,1,1.779-1.779h13.4a1.782,1.782,0,0,1,1.779,1.779Z" transform="translate(-1143.966 -407.998)" fill="#185aeb"/>
          <path id="Path_106" data-name="Path 106" d="M1150.236,424.42a.728.728,0,0,1-.517-.214l-2.158-2.158h-1.189a3.112,3.112,0,0,1-3.1-3.1V410.4a3.112,3.112,0,0,1,3.1-3.1h13.4a3.112,3.112,0,0,1,3.1,3.1v8.542a3.112,3.112,0,0,1-3.1,3.1h-6.865l-2.158,2.158A.729.729,0,0,1,1150.236,424.42Zm-3.864-16.843a2.836,2.836,0,0,0-2.827,2.827v8.541a2.835,2.835,0,0,0,2.828,2.826h1.3l2.239,2.239a.456.456,0,0,0,.644,0l2.239-2.239h6.979a2.836,2.836,0,0,0,2.827-2.827V410.4a2.835,2.835,0,0,0-2.828-2.827Zm3.864,15.47L1148.187,421a.454.454,0,0,0-.322-.133h-1.49a1.922,1.922,0,0,1-1.919-1.916V410.4a1.922,1.922,0,0,1,1.917-1.917h13.4a1.922,1.922,0,0,1,1.917,1.917v8.541a1.922,1.922,0,0,1-1.917,1.917h-7.168a.453.453,0,0,0-.322.134Zm-3.861-2.461h1.49a.726.726,0,0,1,.517.214l1.854,1.856,1.855-1.855a.728.728,0,0,1,.517-.214h7.168a1.646,1.646,0,0,0,1.641-1.641V410.4a1.646,1.646,0,0,0-1.641-1.641h-13.4a1.646,1.646,0,0,0-1.641,1.641v8.541a1.645,1.645,0,0,0,1.643,1.64Z" transform="translate(-1143.269 -407.301)" fill="#185aeb"/>
        </g>
      </g>
    </g>
    <g id="Group_121" data-name="Group 121" transform="translate(18.88 11.169)">
      <g id="Group_120" data-name="Group 120">
        <g id="Path_52" data-name="Path 52">
          <path id="Path_107" data-name="Path 107" d="M1262.849,480.224l-2.1-4.982a.593.593,0,0,0-1.093,0l-2.1,4.982a.593.593,0,0,0,1.093.461l.3-.7h2.519l.3.7a.593.593,0,1,0,1.093-.461Zm-3.409-1.429.759-1.8.759,1.8Z" transform="translate(-1257.503 -474.879)" fill="#1ae2bc"/>
        </g>
      </g>
    </g>
    <g id="Group_123" data-name="Group 123" transform="translate(6.81 4.171)">
      <g id="Group_122" data-name="Group 122">
        <g id="Path_53" data-name="Path 53">
          <path id="Path_108" data-name="Path 108" d="M1190.222,437.812l-.563-.414a2.715,2.715,0,0,0,.271-1.184v-.949a2.728,2.728,0,0,0-5.457,0v.949a2.726,2.726,0,0,0,4.45,2.115l.6.439a.593.593,0,1,0,.7-.955Zm-1.478-1.6a1.54,1.54,0,0,1-.07.458l-.627-.461a.593.593,0,0,0-.7.955l.566.417a1.54,1.54,0,0,1-2.25-1.369v-.949h0a1.542,1.542,0,0,1,3.084,0Z" transform="translate(-1184.473 -432.537)" fill="#ea2e7e"/>
        </g>
      </g>
    </g>
  </g>
</svg>
