<svg id="remaining" xmlns="http://www.w3.org/2000/svg" width="14.64" height="18" viewBox="0 0 14.64 18">
  <g id="Group_3199" data-name="Group 3199">
    <g id="Group_3198" data-name="Group 3198">
      <path id="Path_6703" data-name="Path 6703" d="M270.032,298.668h-13.42c-.337,0-.61.2-.61.45v.9c0,.249.273.45.61.45h13.42c.337,0,.61-.2.61-.45v-.9C270.642,298.869,270.369,298.668,270.032,298.668Z" transform="translate(-256.002 -287.868)" fill="#546de5"/>
      <path id="Path_6704" data-name="Path 6704" d="M270.032,170.668h-13.42c-.337,0-.61.2-.61.45v.9c0,.249.273.45.61.45h13.42c.337,0,.61-.2.61-.45v-.9C270.642,170.869,270.369,170.668,270.032,170.668Z" transform="translate(-256.002 -165.268)" fill="#546de5"/>
      <path id="Path_6705" data-name="Path 6705" d="M270.032,42.668h-13.42c-.337,0-.61.2-.61.45v.9c0,.249.273.45.61.45h13.42c.337,0,.61-.2.61-.45v-.9C270.642,42.869,270.369,42.668,270.032,42.668Z" transform="translate(-256.002 -42.668)" fill="#546de5"/>
      <path id="Path_6706" data-name="Path 6706" d="M270.032,426.668h-13.42c-.337,0-.61.2-.61.45v.9c0,.249.273.45.61.45h13.42c.337,0,.61-.2.61-.45v-.9C270.642,426.869,270.369,426.668,270.032,426.668Z" transform="translate(-256.002 -410.468)" fill="#546de5"/>
    </g>
  </g>
</svg>
