<?xml version="1.0" encoding="utf-8"?>
<!-- Generator: Adobe Illustrator 23.0.3, SVG Export Plug-In . SVG Version: 6.00 Build 0)  -->
<svg version="1.1" id="Layer_1" xmlns="http://www.w3.org/2000/svg" xmlns:xlink="http://www.w3.org/1999/xlink" x="0px" y="0px"
	 viewBox="0 0 100 100" style="enable-background:new 0 0 100 100;" xml:space="preserve">
<style type="text/css">
	.st0{fill:#D8F5F6;}
	.st1{fill:#1AE2BC;}
</style>
<g id="events" transform="translate(-179 -2575)">
	<g id="Rectangle_725">
		<path class="st0" d="M229,2575L229,2575c27.6,0,50,22.4,50,50l0,0c0,27.6-22.4,50-50,50l0,0c-27.6,0-50-22.4-50-50l0,0
			C179,2597.4,201.4,2575,229,2575z"/>
	</g>
	<g id="Schedule" transform="translate(164.3 2555.707)">
		<g id="Path_173">
			<path class="st1" d="M83.1,50.9h-5.5v-3.8c0-0.7-0.6-1.2-1.2-1.2c-0.7,0-1.2,0.6-1.2,1.2v3.8h-21v-3.8c0-0.7-0.6-1.2-1.2-1.2
				c-0.7,0-1.2,0.6-1.2,1.2v3.8c-3.8,0-9.8-1-10,4.6v31.8c0,2.5,2.1,4.6,4.6,4.6l0,0h36.8c2.5,0,4.6-2.1,4.6-4.6V55.5
				C87.7,53,85.6,50.9,83.1,50.9L83.1,50.9z M85.2,87.3c0,1.2-0.9,2.1-2.1,2.1l0,0H46.3c-1.2,0-2.1-0.9-2.1-2.1V65.1h41V87.3z
				 M85.2,62.6h-41c0.4-9-2.4-9.5,7.6-9.2v3.8c0,0.7,0.6,1.2,1.2,1.2c0.7,0,1.2-0.6,1.2-1.2v-3.8h21v3.8c0,0.7,0.6,1.2,1.2,1.2
				c0.7,0,1.2-0.6,1.2-1.2v-3.8C87.6,53.1,84.8,53.7,85.2,62.6L85.2,62.6z"/>
			<path class="st1" d="M83.1,92.4H46.3c-2.8,0-5.1-2.3-5.1-5.1V55.5c0.2-5.3,5.2-5.2,8.8-5.1c0.4,0,0.8,0,1.2,0v-3.3
				c0-1,0.8-1.7,1.7-1.7l0,0c0.5,0,0.9,0.2,1.2,0.5s0.5,0.8,0.5,1.2v3.3h20v-3.3c0-1,0.8-1.7,1.7-1.7l0,0c0.5,0,0.9,0.2,1.2,0.5
				c0.3,0.3,0.5,0.8,0.5,1.2v3.3h5c2.8,0,5.1,2.3,5.1,5.1v31.8C88.2,90.1,85.9,92.4,83.1,92.4z M48.6,51.4c-3.7,0-6.3,0.6-6.4,4.1
				v31.8c0,2.3,1.8,4.1,4.1,4.1h36.8c2.2,0,4.1-1.8,4.1-4.1V55.5c0-2.2-1.8-4.1-4.1-4.1v-0.5v0.5h-6v-4.3c0-0.2-0.1-0.4-0.2-0.5
				s-0.3-0.2-0.5-0.2l0,0c-0.4,0-0.7,0.3-0.7,0.7v4.3h-22v-4.3c0-0.2-0.1-0.4-0.2-0.5c-0.1-0.1-0.3-0.2-0.5-0.2l0,0
				c-0.4,0-0.7,0.3-0.7,0.7v4.3h-0.5c-0.5,0-1.1,0-1.7,0C49.5,51.4,49.1,51.4,48.6,51.4z M83.1,89.9H46.3c-1.4,0-2.6-1.2-2.6-2.6
				V64.6h42v22.7C85.7,88.8,84.5,89.9,83.1,89.9z M44.7,65.6v21.7c0,0.9,0.7,1.6,1.6,1.6h36.8c0.9,0,1.6-0.7,1.6-1.6V65.6
				C84.7,65.6,44.7,65.6,44.7,65.6z M84.7,63.3v-0.2h-41v-0.5c0.1-2,0-3.5,0-4.7c-0.1-2-0.1-3.3,0.7-4.1c1-1,2.9-1,7.4-0.9h0.5v4.3
				c0,0.4,0.3,0.7,0.7,0.7l0,0c0.4,0,0.7-0.3,0.7-0.7v-4.3h22v4.3c0,0.2,0.1,0.4,0.2,0.5s0.3,0.2,0.5,0.2l0,0c0.4,0,0.7-0.3,0.7-0.7
				v-4.3h0.5c4.5-0.1,6.5-0.1,7.4,0.9c0.8,0.8,0.7,2,0.7,4.1c-0.1,1.2-0.1,2.8,0,4.8h-0.4l0.1,0.5L84.7,63.3z M44.7,62.1h40
				c-0.1-1.8,0-3.2,0-4.3c0.1-1.8,0.1-2.9-0.4-3.3c-0.7-0.7-2.8-0.7-6.2-0.6v3.3c0,1-0.8,1.7-1.7,1.7l0,0c-0.5,0-0.9-0.2-1.2-0.5
				c-0.3-0.3-0.5-0.8-0.5-1.2v-3.3h-20v3.3c0,1-0.8,1.7-1.7,1.7l0,0c-1,0-1.7-0.8-1.7-1.7v-3.3c-3.4-0.1-5.5-0.1-6.2,0.6
				c-0.5,0.5-0.4,1.6-0.4,3.3C44.7,59,44.8,60.4,44.7,62.1z"/>
		</g>
		<g id="Group_522" transform="translate(41.7 45.9)">
			<g id="Path_174">
				<path class="st1" d="M41.4,5H36V1.2C36,0.6,35.4,0,34.7,0s-1.2,0.6-1.2,1.2V5h-21V1.2C12.5,0.6,12,0,11.3,0S10,0.6,10,1.2V5
					C6.2,5,0.2,4,0,9.6v31.8C0,43.9,2.1,46,4.6,46l0,0h36.8c2.5,0,4.6-2.1,4.6-4.6V9.6C46,7.1,43.9,5,41.4,5L41.4,5z M43.5,41.4
					c0,1.2-0.9,2.1-2.1,2.1l0,0H4.6c-1.2,0-2.1-0.9-2.1-2.1V19.2h41V41.4z M43.5,16.7h-41c0.4-9-2.4-9.5,7.6-9.2v3.8
					c0,0.7,0.6,1.2,1.2,1.2c0.7,0,1.2-0.6,1.2-1.2V7.5h21v3.8c0,0.7,0.6,1.2,1.2,1.2c0.7,0,1.2-0.6,1.2-1.2V7.5
					C45.9,7.2,43.1,7.8,43.5,16.7L43.5,16.7z"/>
				<path class="st1" d="M41.4,46.5H4.6c-2.8,0-5.1-2.3-5.1-5.1V9.6c0.2-5.3,5.2-5.2,8.8-5.1c0.4,0,0.8,0,1.2,0V1.2
					c0-1,0.8-1.7,1.7-1.7l0,0c0.5,0,0.9,0.2,1.2,0.5C12.8,0.3,13,0.8,13,1.2v3.3h20V1.2c0-1,0.8-1.7,1.7-1.7l0,0
					c0.5,0,0.9,0.2,1.2,0.5s0.5,0.8,0.5,1.2v3.3h5c2.8,0,5.1,2.3,5.1,5.1v31.8C46.5,44.2,44.2,46.5,41.4,46.5z M6.9,5.5
					C3.2,5.5,0.6,6,0.5,9.6v31.8c0,2.3,1.8,4.1,4.1,4.1h36.8c2.2,0,4.1-1.8,4.1-4.1V9.6c0-2.2-1.8-4.1-4.1-4.1V5v0.5h-6V1.2
					c0-0.2-0.1-0.4-0.2-0.5c-0.1-0.1-0.3-0.2-0.5-0.2l0,0c-0.4,0-0.7,0.3-0.7,0.7v4.3H12V1.2c0-0.2-0.1-0.4-0.2-0.5
					c-0.1-0.1-0.3-0.2-0.5-0.2l0,0c-0.4,0-0.7,0.3-0.7,0.7v4.3h-0.5c-0.5,0-1.1,0-1.7,0C7.8,5.5,7.4,5.5,6.9,5.5z M41.4,44H4.6
					C3.2,44,2,42.8,2,41.4V18.7h42v22.7C44,42.9,42.8,44,41.4,44z M3,19.7v21.7C3,42.3,3.7,43,4.6,43h36.8c0.9,0,1.6-0.7,1.6-1.6
					V19.7H3z M43,17.4v-0.2H2v-0.5c0.1-2,0-3.5,0-4.7c-0.1-2-0.1-3.3,0.7-4.1c1-1,2.9-1,7.4-0.9h0.5v4.3c0,0.4,0.3,0.7,0.7,0.7l0,0
					c0.4,0,0.7-0.3,0.7-0.7V7h22v4.3c0,0.2,0.1,0.4,0.2,0.5c0.1,0.1,0.3,0.2,0.5,0.2l0,0c0.4,0,0.7-0.3,0.7-0.7V7H36
					c4.5-0.1,6.5-0.1,7.4,0.9c0.8,0.8,0.7,2,0.7,4.1c-0.1,1.2-0.1,2.8,0,4.8h-0.4l0.1,0.5L43,17.4z M3,16.2h40c-0.1-1.8,0-3.2,0-4.3
					c0.1-1.8,0.1-2.9-0.4-3.3C42,7.9,39.9,7.9,36.5,8v3.3c0,1-0.8,1.7-1.7,1.7l0,0c-0.5,0-0.9-0.2-1.2-0.5s-0.5-0.8-0.5-1.2V8H13
					v3.3c0,1-0.8,1.7-1.7,1.7l0,0c-1,0-1.7-0.8-1.7-1.7V8C6.1,7.9,4,7.9,3.3,8.6C2.9,9.1,2.9,10.2,3,11.9C3,13.1,3.1,14.5,3,16.2z"
					/>
			</g>
		</g>
		<g id="Group_526" transform="translate(49.639 68.871)">
			<g id="Path_175">
				<path class="st1" d="M5,3.4H1.7C0.8,3.4,0,2.6,0.1,1.7c0-0.9,0.7-1.6,1.6-1.6H5c0.9,0,1.7,0.8,1.6,1.7C6.6,2.6,5.9,3.4,5,3.4z"
					/>
				<path class="st1" d="M5,3.9H1.7c-0.6,0-1.1-0.3-1.5-0.7s-0.6-1-0.6-1.5c0-1.2,1-2.1,2.1-2.1H5c0.6,0,1.1,0.3,1.5,0.7
					s0.6,1,0.6,1.5C7.1,2.9,6.2,3.9,5,3.9L5,3.9z M5,0.5H1.7C1.1,0.5,0.6,1,0.6,1.6c0,0.3,0.1,0.6,0.3,0.8s0.5,0.4,0.8,0.4H5
					c0.6,0,1.1-0.5,1.1-1.1c0-0.3-0.1-0.6-0.3-0.8C5.6,0.7,5.3,0.5,5,0.5z"/>
			</g>
			<g id="Path_176">
				<path class="st1" d="M16.7,3.4h-3.3c-0.9,0-1.7-0.8-1.6-1.7c0-0.9,0.7-1.6,1.6-1.6h3.3c0.9,0,1.7,0.8,1.6,1.7
					C18.3,2.6,17.6,3.4,16.7,3.4z"/>
				<path class="st1" d="M16.7,3.9h-3.3c-0.6,0-1.1-0.3-1.5-0.7s-0.6-1-0.6-1.5c0-1.2,1-2.1,2.1-2.1h3.4c0.6,0,1.1,0.3,1.5,0.7
					s0.6,1,0.6,1.5C18.8,2.9,17.9,3.9,16.7,3.9L16.7,3.9z M16.7,0.5h-3.3c-0.6,0-1.1,0.5-1.1,1.1c0,0.3,0.1,0.6,0.3,0.8
					s0.5,0.4,0.8,0.4h3.3c0.6,0,1.1-0.5,1.1-1.1c0-0.3-0.1-0.6-0.3-0.8S17,0.5,16.7,0.5z"/>
			</g>
			<g id="Path_177">
				<path class="st1" d="M28.5,3.4c-1.4-0.2-5,0.7-5-1.7s3.6-1.5,5-1.7c0.9,0,1.7,0.7,1.7,1.7S29.4,3.4,28.5,3.4z"/>
				<path class="st1" d="M26.1,3.9c-1,0-2-0.1-2.6-0.7c-0.4-0.4-0.6-0.9-0.6-1.5s0.2-1.1,0.6-1.5c0.9-0.8,2.4-0.8,3.7-0.7
					c0.5,0,0.9,0,1.2,0l0,0c1.2,0,2.2,1,2.2,2.2s-1,2.2-2.2,2.2h-0.1c-0.3,0-0.7,0-1.2,0C26.9,3.9,26.5,3.9,26.1,3.9z M26.2,0.5
					c-0.8,0-1.6,0.1-2,0.4c-0.2,0.2-0.3,0.4-0.3,0.8c0,0.3,0.1,0.6,0.3,0.8c0.5,0.5,1.9,0.5,3,0.4c0.5,0,1,0,1.3,0
					c0.6,0,1.1-0.5,1.1-1.2c0-0.6-0.5-1.2-1.2-1.2c-0.3,0-0.8,0-1.3,0C26.9,0.5,26.5,0.5,26.2,0.5z"/>
			</g>
			<g id="Path_178">
				<path class="st1" d="M5,10.1c-1.4-0.2-5,0.7-5-1.7s3.6-1.5,5-1.7c0.9,0,1.7,0.8,1.7,1.7C6.7,9.3,5.9,10.1,5,10.1z"/>
				<path class="st1" d="M2.7,10.6c-1,0-2-0.1-2.6-0.7C-0.3,9.5-0.5,9-0.5,8.4c0-0.6,0.2-1.1,0.6-1.5C1,6.1,2.5,6.1,3.8,6.2
					c0.5,0,0.9,0,1.2,0c1.2,0,2.2,1,2.2,2.2s-1,2.2-2.2,2.2H4.9c-0.3,0-0.7,0-1.2,0C3.4,10.6,3.1,10.6,2.7,10.6z M2.7,7.2
					c-0.8,0-1.6,0.1-2,0.4C0.6,7.8,0.5,8.1,0.5,8.4c0,0.3,0.1,0.6,0.3,0.8c0.5,0.5,1.9,0.5,3,0.4c0.5,0,1,0,1.3,0
					c0.6,0,1.1-0.5,1.1-1.2c0-0.6-0.5-1.2-1.2-1.2c-0.3,0-0.8,0-1.3,0C3.4,7.2,3.1,7.2,2.7,7.2z"/>
			</g>
			<g id="Path_179">
				<path class="st1" d="M16.7,10.1h-3.3c-0.9,0-1.7-0.8-1.6-1.7c0-0.9,0.7-1.6,1.6-1.6h3.3c0.9,0,1.7,0.8,1.6,1.7
					C18.3,9.3,17.6,10.1,16.7,10.1z"/>
				<path class="st1" d="M16.7,10.6h-3.3c-0.6,0-1.1-0.3-1.5-0.7s-0.6-1-0.6-1.5c0-1.2,1-2.1,2.1-2.1h3.4c0.6,0,1.1,0.3,1.5,0.7
					c0.4,0.4,0.6,1,0.6,1.5C18.8,9.6,17.9,10.5,16.7,10.6L16.7,10.6z M16.7,7.2h-3.3c-0.6,0-1.1,0.5-1.1,1.1s0.5,1.2,1.1,1.2h3.3
					c0.6,0,1.1-0.5,1.1-1.1C17.9,7.8,17.4,7.3,16.7,7.2z"/>
			</g>
			<g id="Path_180">
				<path class="st1" d="M28.5,10.1c-1.4-0.2-5,0.7-5-1.7s3.6-1.5,5-1.7c0.9,0,1.7,0.8,1.7,1.7C30.1,9.3,29.4,10.1,28.5,10.1z"/>
				<path class="st1" d="M26.1,10.6c-1,0-2-0.1-2.6-0.7c-0.4-0.4-0.6-0.9-0.6-1.5c0-0.6,0.2-1.1,0.6-1.5c0.9-0.8,2.4-0.8,3.7-0.7
					c0.5,0,0.9,0,1.2,0c1.3,0,2.2,1,2.2,2.2s-1,2.2-2.2,2.2h-0.1c-0.3,0-0.7,0-1.2,0C26.9,10.6,26.5,10.6,26.1,10.6z M26.2,7.2
					c-0.8,0-1.6,0.1-2,0.4C24,7.8,23.9,8,23.9,8.4c0,0.3,0.1,0.6,0.3,0.8c0.5,0.5,1.9,0.5,3,0.4c0.5,0,1,0,1.3,0
					c0.6,0,1.1-0.5,1.1-1.2c0-0.3-0.1-0.6-0.3-0.8s-0.5-0.3-0.8-0.3s-0.8,0-1.3,0C26.9,7.2,26.5,7.2,26.2,7.2z"/>
			</g>
			<g id="Group_523" transform="translate(0 13.39)">
				<g id="Path_181">
					<path class="st1" d="M5,3.4C3.6,3.2,0,4.1,0,1.7S3.6,0.2,5,0c0.9,0,1.7,0.8,1.7,1.7S5.9,3.4,5,3.4z"/>
					<path class="st1" d="M2.7,3.9c-1,0-2-0.1-2.6-0.7c-0.4-0.4-0.6-0.9-0.6-1.5s0.2-1.1,0.6-1.5C1-0.6,2.5-0.6,3.8-0.5
						c0.5,0,0.9,0,1.2,0c1.2,0,2.2,1,2.2,2.2S6.2,3.9,5,3.9l0,0c-0.3,0-0.7,0-1.2,0C3.4,3.9,3.1,3.9,2.7,3.9z M2.7,0.5
						c-0.8,0-1.6,0.1-2,0.4C0.6,1.1,0.5,1.4,0.5,1.7s0.1,0.6,0.3,0.8C1.3,3,2.7,3,3.8,2.9c0.5,0,1,0,1.3,0c0.6,0,1.1-0.5,1.1-1.2
						c0-0.6-0.5-1.2-1.2-1.2c-0.3,0-0.8,0-1.3,0C3.4,0.5,3.1,0.5,2.7,0.5z"/>
				</g>
			</g>
			<g id="Group_524" transform="translate(11.762 13.431)">
				<g id="Path_182">
					<path class="st1" d="M5,3.3H1.6C0.7,3.3,0,2.6,0,1.6C0,0.7,0.7,0,1.6,0H5c0.9,0,1.7,0.8,1.6,1.7C6.6,2.6,5.9,3.3,5,3.3z"/>
					<path class="st1" d="M5,3.8H1.6C1,3.8,0.5,3.6,0.1,3.2s-0.6-1-0.6-1.5c0-1.2,1-2.1,2.1-2.1H5c0.6,0,1.1,0.3,1.5,0.7
						s0.6,1,0.6,1.5C7.1,2.9,6.1,3.8,5,3.8L5,3.8z M5,0.5H1.6C1,0.5,0.5,1,0.5,1.6S1,2.8,1.6,2.8H5c0.6,0,1.1-0.5,1.1-1.1
						S5.6,0.5,5,0.5z"/>
				</g>
			</g>
			<g id="Group_525" transform="translate(23.427 13.39)">
				<g id="Path_183">
					<path class="st1" d="M5,3.4C3.6,3.2,0,4.1,0,1.7S3.6,0.2,5,0c0.9,0,1.7,0.8,1.7,1.7S5.9,3.4,5,3.4z"/>
					<path class="st1" d="M2.7,3.9c-1,0-2-0.1-2.6-0.7c-0.4-0.4-0.6-0.9-0.6-1.5s0.2-1.1,0.6-1.5C1-0.6,2.5-0.6,3.8-0.5
						c0.5,0,0.9,0,1.2,0c1.3,0,2.2,1,2.2,2.2S6.2,3.9,5,3.9l0,0c-0.3,0-0.7,0-1.2,0C3.4,3.9,3.1,3.9,2.7,3.9z M2.7,0.5
						c-0.8,0-1.6,0.1-2,0.4C0.6,1.1,0.5,1.4,0.5,1.7s0.1,0.6,0.3,0.8C1.3,3,2.7,3,3.8,2.9c0.5,0,1,0,1.3,0c0.6,0,1.1-0.5,1.1-1.2
						c0-0.6-0.5-1.2-1.2-1.2c-0.3,0-0.8,0-1.3,0C3.4,0.5,3.1,0.5,2.7,0.5z"/>
				</g>
			</g>
		</g>
	</g>
</g>
</svg>
