<svg xmlns="http://www.w3.org/2000/svg" width="100" height="100" viewBox="0 0 100 100">
  <g id="flashcards" transform="translate(0.333)">
    <rect id="Rectangle_725" data-name="Rectangle 725" width="100" height="100" rx="50" transform="translate(-0.333)" fill="transparent"/>
    <g id="thunder" transform="translate(35.667 27)">
      <path id="Path_2768" data-name="Path 2768" d="M107.682,45.759l17.743-30.551a.961.961,0,0,0-.961-1.435l-11.8,1.6,2.82-14.8a.481.481,0,0,0-.855-.38L97.182,23.22a.961.961,0,0,0,.867,1.536l13.012-1.37L106.8,45.427A.481.481,0,0,0,107.682,45.759Z" transform="translate(-96.985 0)" fill="#546de5"/>
      <path id="Path_2769" data-name="Path 2769" d="M102.638,21.6a.4.4,0,0,1-.369-.607L115.312.127a.474.474,0,0,0-.685.081L97.182,23.236a.961.961,0,0,0,.867,1.536l13.012-1.37L106.8,45.442a.467.467,0,0,0,.377.556l7.31-23.13a1.6,1.6,0,0,0-1.655-2.08Z" transform="translate(-96.985 -0.016)" fill="#546de5"/>
    </g>
  </g>
</svg>
