<svg xmlns="http://www.w3.org/2000/svg" width="100" height="100" viewBox="0 0 100 100">
  <g id="rate-professor" transform="translate(-776 -2575)">
    <path id="Path_2788" data-name="Path 2788" d="M50,0A50,50,0,1,1,0,50,50,50,0,0,1,50,0Z" transform="translate(776 2575)" fill="#ffd5e9"/>
    <g id="feedback" transform="translate(773.277 2601)">
      <g id="Group_541" data-name="Group 541" transform="translate(31.723 19.649)">
        <path id="Path_2814" data-name="Path 2814" d="M69.073,206.8a7.005,7.005,0,0,0-8.988-10.115,8.247,8.247,0,0,0-15.253,0,7.005,7.005,0,0,0-8.979,10.125,9.477,9.477,0,0,0-4.129,7.765v3.918a1.436,1.436,0,0,0,1.436,1.436h38.6A1.436,1.436,0,0,0,73.2,218.5l.019-3.925A9.477,9.477,0,0,0,69.073,206.8ZM52.458,194.444a5.379,5.379,0,1,1-5.378,5.379,5.384,5.384,0,0,1,5.378-5.379ZM40.5,213.776v3.276h-5.9V214.57a6.577,6.577,0,0,1,3.355-5.7,6.964,6.964,0,0,0,3.27,1.078A10.606,10.606,0,0,0,40.5,213.776Zm1.2-6.686a4.14,4.14,0,1,1,2.509-7.427,8.179,8.179,0,0,0,1.474,4.863,11.289,11.289,0,0,0-2.808,2.531C42.4,207.079,41.881,207.09,41.7,207.09Zm19.848,9.955H43.371v-3.269a8.159,8.159,0,0,1,4.414-7.16,8.306,8.306,0,0,0,9.354-.007,8.152,8.152,0,0,1,4.428,7.159Zm.368-10.164a11.306,11.306,0,0,0-2.473-2.226c-.042-.092-.081-.185-.116-.28a8.173,8.173,0,0,0,1.373-4.711,4.136,4.136,0,0,1,6.652,3.286A4.158,4.158,0,0,1,61.919,206.881Zm8.412,10.171H64.423l.016-3.276a10.6,10.6,0,0,0-.721-3.834,6.966,6.966,0,0,0,3.26-1.081,6.569,6.569,0,0,1,3.366,5.7Z" transform="translate(-31.723 -191.572)" fill="#ea2e7e"/>
      </g>
      <g id="Group_547" data-name="Group 547" transform="translate(33.595 0)">
        <g id="Group_542" data-name="Group 542" transform="translate(0 0)">
          <path id="Path_2816" data-name="Path 2816" d="M80.3,21.233a9.647,9.647,0,0,1-6.1-5.868H53.473a3.488,3.488,0,0,1-3.483-3.477l-.013-8.4A3.5,3.5,0,0,1,53.46,0H84.241a3.486,3.486,0,0,1,3.482,3.483v7.842a4.044,4.044,0,0,1-4.039,4.039h-1.54a13.084,13.084,0,0,0-.021,4.241A1.473,1.473,0,0,1,80.3,21.233ZM53.46,2.873c-.422.063-.549.19-.611.612l.013,8.4a.612.612,0,0,0,.611.61H75.247a1.436,1.436,0,0,1,1.392,1.084,7.319,7.319,0,0,0,2.447,3.86A11.3,11.3,0,0,1,79.74,13.4a1.436,1.436,0,0,1,1.336-.91h2.608a1.169,1.169,0,0,0,1.168-1.168V3.484a.611.611,0,0,0-.611-.611H53.46Z" transform="translate(-49.976 0)" fill="#ea2e7e"/>
        </g>
        <g id="Group_546" data-name="Group 546" transform="translate(4.743 4.06)">
          <g id="Group_543" data-name="Group 543" transform="translate(10.324)">
            <path id="Path_2817" data-name="Path 2817" d="M199.513,41.965l1.174-2.379,1.174,2.379,2.625.382-1.9,1.852.449,2.615-2.348-1.235-2.348,1.235.44-2.607-1.9-1.852Z" transform="translate(-196.88 -39.586)" fill="#ea2e7e"/>
          </g>
          <g id="Group_544" data-name="Group 544" transform="translate(20.656)">
            <path id="Path_2818" data-name="Path 2818" d="M300.242,41.965l1.174-2.379,1.174,2.379,2.625.382-1.9,1.852.448,2.615-2.348-1.235-2.348,1.235.448-2.615-1.9-1.852Z" transform="translate(-297.617 -39.586)" fill="#ea2e7e"/>
          </g>
          <g id="Group_545" data-name="Group 545" transform="translate(0 0.008)">
            <path id="Path_2819" data-name="Path 2819" d="M98.848,42.045l1.174-2.379,1.174,2.379,2.625.382-1.9,1.852.449,2.615-2.348-1.235-2.348,1.235.448-2.615-1.9-1.852Z" transform="translate(-96.223 -39.666)" fill="#ea2e7e"/>
          </g>
        </g>
      </g>
    </g>
  </g>
</svg>
