<?xml version="1.0" encoding="utf-8"?>
<!-- Generator: Adobe Illustrator 23.0.3, SVG Export Plug-In . SVG Version: 6.00 Build 0)  -->
<svg version="1.1" id="Layer_1" xmlns="http://www.w3.org/2000/svg" xmlns:xlink="http://www.w3.org/1999/xlink" x="0px" y="0px"
	 viewBox="0 0 100 100" style="enable-background:new 0 0 100 100;" xml:space="preserve">
<style type="text/css">
	.st0{fill:#E9E9E9;}
	.st1{fill:#3C2C81;}
</style>
<g id="social-media" transform="translate(-1088 -2575)">
	<g id="Rectangle_728">
		<path class="st0" d="M1138,2575L1138,2575c27.6,0,50,22.4,50,50l0,0c0,27.6-22.4,50-50,50l0,0c-27.6,0-50-22.4-50-50l0,0
			C1088,2597.4,1110.4,2575,1138,2575z"/>
	</g>
	<g id="comment" transform="translate(1113 2572)">
		<g id="Path_2805">
			<path class="st1" d="M36.7,31H13.3C6,31,0,36.9,0,44.2V53c0,6.7,5.1,12.4,11.8,13.1v7.4c0,0.8,0.7,1.5,1.5,1.5
				c0.4,0,0.8-0.2,1-0.4l8.4-8.4h14C44,66.2,50,60.3,50,53v-8.8C50,36.9,44,31,36.7,31z M47.1,53c0,5.7-4.7,10.3-10.4,10.3H22.1
				c-0.4,0-0.8,0.2-1,0.4l-6.3,6.3v-5.3c0-0.8-0.7-1.5-1.5-1.5l0,0C7.6,63.2,3,58.7,2.9,53v-8.8c0-5.7,4.7-10.3,10.4-10.3h23.4
				c5.7,0,10.3,4.6,10.4,10.3V53z"/>
			<path class="st1" d="M13.3,75.2c-0.9,0-1.7-0.8-1.7-1.7v-7.2C4.8,65.5-0.2,59.8-0.3,53v-8.8c0-7.4,6.1-13.4,13.5-13.4
				c0,0,0,0,0,0h23.4h0c0,0,0,0,0,0c7.4,0,13.5,6,13.5,13.4V53c0,7.4-6.1,13.4-13.5,13.4c0,0,0,0,0,0H22.8l-8.3,8.3
				C14.2,75,13.7,75.2,13.3,75.2z M13.2,31.3c-7.1,0-13,5.8-13,12.9V53c0,6.6,5,12.1,11.6,12.9l0.2,0v7.6c0,0.7,0.5,1.2,1.2,1.2
				c0.3,0,0.6-0.1,0.9-0.4l8.4-8.4h14.1c0,0,0,0,0,0c7.1,0,13-5.8,13-12.9v-8.8c0-7.1-5.9-12.9-13-12.9c0,0,0,0,0,0H13.2
				C13.3,31.3,13.3,31.3,13.2,31.3z M14.5,70.5v-5.9c0-0.7-0.6-1.2-1.3-1.2C7.4,63.5,2.7,58.8,2.7,53v-8.8c0-5.8,4.8-10.5,10.6-10.5
				c0,0,0,0,0,0h23.4c0,0,0,0,0,0c5.8,0,10.5,4.7,10.6,10.5V53c0,5.8-4.8,10.5-10.6,10.5c0,0,0,0,0,0H22.1c-0.3,0-0.6,0.1-0.9,0.4
				L14.5,70.5z M13.3,63c0.9,0,1.7,0.8,1.7,1.7v4.6l5.9-5.9c0.3-0.3,0.8-0.5,1.2-0.5h14.6c0,0,0,0,0,0c5.5,0,10-4.5,10.1-10v-8.8
				c0-5.5-4.5-10-10.1-10c0,0,0,0,0,0H13.3c0,0,0,0,0,0c-5.5,0-10,4.5-10.1,10V53C3.2,58.5,7.7,63,13.3,63C13.3,63,13.3,63,13.3,63z
				"/>
		</g>
		<g id="Path_2806">
			<path class="st1" d="M17.7,39.8c-4.9,0-8.8,3.9-8.8,8.8c0,1.8,0.6,3.6,1.6,5.1l-1.2,1.2c-0.6,0.6-0.6,1.5,0,2.1
				c0.3,0.3,0.6,0.4,1,0.4h7.3c4.9,0,8.8-3.9,8.8-8.8S22.5,39.8,17.7,39.8z M17.7,54.4h-3.9c0.3-0.6,0.2-1.3-0.3-1.7
				c-2.3-2.3-2.3-6,0-8.3c2.3-2.3,6-2.3,8.3,0c2.3,2.3,2.3,6,0,8.3C20.7,53.8,19.2,54.4,17.7,54.4z"/>
			<path class="st1" d="M17.7,57.6h-7.3c-0.5,0-0.9-0.2-1.2-0.5c-0.3-0.3-0.5-0.8-0.5-1.2s0.2-0.9,0.5-1.2l1-1
				c-1-1.5-1.5-3.2-1.5-5.1c0-2.4,0.9-4.7,2.6-6.4c1.7-1.7,4-2.6,6.4-2.7l0,0c5,0,9,4.1,9,9S22.7,57.6,17.7,57.6z M17.7,40
				c-2.3,0-4.4,0.9-6,2.5s-2.5,3.8-2.5,6c0,1.8,0.5,3.5,1.6,4.9l0.1,0.2L9.5,55c-0.2,0.2-0.4,0.5-0.4,0.9c0,0.3,0.1,0.6,0.4,0.9
				c0.2,0.2,0.5,0.4,0.9,0.4h7.3c4.7,0,8.5-3.8,8.5-8.5S22.4,40,17.7,40L17.7,40z M17.7,54.7h-4.3l0.2-0.4c0.2-0.5,0.2-1-0.2-1.4
				c-2.4-2.4-2.4-6.3,0-8.6s6.3-2.4,8.6,0s2.4,6.3,0,8.6C20.8,54.1,19.3,54.7,17.7,54.7z M14.2,54.2h3.5c1.5,0,2.9-0.6,4-1.6
				c2.2-2.2,2.2-5.7,0-7.9c-2.2-2.2-5.7-2.2-7.9,0c-2.2,2.2-2.2,5.7,0,7.9C14.1,53,14.3,53.6,14.2,54.2z"/>
		</g>
		<g id="Path_2807">
			<path class="st1" d="M39.6,51.5h-1.5v-7.3c0-0.8-0.7-1.5-1.5-1.5c-0.4,0-0.8,0.2-1,0.4l-2.9,2.9c-0.6,0.6-0.6,1.5,0,2.1
				c0.6,0.6,1.5,0.6,2.1,0l0,0l0.4-0.4v3.8h-1.5c-0.8,0-1.5,0.7-1.5,1.5c0,0.8,0.7,1.5,1.5,1.5h5.9c0.8,0,1.5-0.7,1.5-1.5
				C41.1,52.2,40.5,51.5,39.6,51.5L39.6,51.5z"/>
			<path class="st1" d="M39.7,54.7h-5.9c-0.9,0-1.7-0.8-1.7-1.7c0-0.5,0.2-0.9,0.5-1.2c0.3-0.3,0.8-0.5,1.2-0.5H35v-2.9l0,0
				c-0.6,0.6-1.8,0.6-2.4,0c-0.7-0.7-0.7-1.8,0-2.4l2.9-2.9c0.3-0.3,0.8-0.5,1.2-0.5c0,0,0,0,0,0c0.5,0,0.9,0.2,1.2,0.5
				c0.3,0.3,0.5,0.8,0.5,1.2v7.1h1.2c0.9,0,1.7,0.8,1.7,1.7C41.4,53.9,40.6,54.7,39.7,54.7z M33.8,51.8c-0.7,0-1.2,0.5-1.2,1.2
				c0,0.7,0.5,1.2,1.2,1.2h5.9c0.7,0,1.2-0.5,1.2-1.2c0-0.7-0.5-1.2-1.2-1.2v0h-1.7v-7.6c0-0.3-0.1-0.6-0.4-0.9
				C37.3,43.1,37,43,36.7,43h0c-0.3,0-0.6,0.1-0.9,0.4l-2.9,2.9c-0.5,0.5-0.5,1.2,0,1.7c0.5,0.5,1.2,0.5,1.7,0l0.9-0.9v4.6H33.8z"/>
		</g>
	</g>
</g>
</svg>
