<?xml version="1.0" encoding="utf-8"?>
<!-- Generator: Adobe Illustrator 23.0.3, SVG Export Plug-In . SVG Version: 6.00 Build 0)  -->
<svg version="1.1" id="Layer_1" xmlns="http://www.w3.org/2000/svg" xmlns:xlink="http://www.w3.org/1999/xlink" x="0px" y="0px"
	 viewBox="0 0 19 19" style="enable-background:new 0 0 19 19;" xml:space="preserve">
<style type="text/css">
	.st0{fill:#E9E9E9;}
	.st1{fill:#AAAAAA;}
</style>
<g id="answer" transform="translate(0.5 0.5)">
	<g id="Path_6552">
		<path class="st0" d="M9,5l1.3,3.3H7.7L9,5z M13.1,14.7c-0.3,1.1,0.4,2.2,1.5,2.5c0.2,0,0.3,0.1,0.5,0.1c0.2,0,0.4,0.2,0.4,0.4
			S15.4,18,15.1,18c-2.4,0-4.8-0.9-6.7-2.5C3.7,15.3,0,11.9,0,7.8C0,3.5,4,0,9,0s9,3.5,9,7.8C17.9,10.8,16,13.5,13.1,14.7L13.1,14.7
			z M11.8,10.1L9.5,4C9.4,3.7,9.1,3.6,8.8,3.7C8.7,3.8,8.6,3.9,8.5,4l-2.3,6.1c-0.1,0.2,0,0.4,0.2,0.5c0.2,0.1,0.4,0,0.5-0.2
			l0.5-1.2h3.1l0.5,1.2c0.1,0.2,0.3,0.3,0.5,0.3C11.8,10.5,11.9,10.3,11.8,10.1C11.8,10.1,11.8,10.1,11.8,10.1L11.8,10.1z"/>
		<path class="st1" d="M15.1,18.5c-2.5,0-4.9-0.9-6.9-2.5c-4.9-0.3-8.8-3.9-8.8-8.2c0-4.6,4.3-8.3,9.5-8.3s9.5,3.7,9.5,8.3
			c-0.1,3.2-2,6-4.9,7.2c-0.1,0.7,0.4,1.4,1.2,1.6c0.1,0,0.2,0,0.4,0c0.5,0,0.9,0.4,0.9,0.9S15.6,18.5,15.1,18.5z M9,0.5
			c-4.7,0-8.5,3.3-8.5,7.3c0,3.8,3.5,7,8,7.3l0.2,0l0.1,0.1c1.5,1.3,3.3,2.1,5.3,2.3c-1.1-0.5-1.7-1.7-1.4-2.9l0.1-0.3l0.2-0.1
			c2.7-1,4.4-3.6,4.5-6.4C17.5,3.8,13.7,0.5,9,0.5z M11.4,11.1c-0.4,0-0.7-0.2-0.9-0.6l-0.3-0.9H7.8l-0.4,0.9
			c-0.2,0.5-0.7,0.7-1.2,0.5c-0.5-0.2-0.7-0.7-0.5-1.2l2.3-6c0.1-0.3,0.3-0.5,0.6-0.6c0.3-0.1,0.5-0.1,0.8,0S9.9,3.6,10,3.8l2.3,6.1
			c0.1,0.2,0.1,0.4,0,0.7c-0.1,0.2-0.3,0.4-0.5,0.5C11.6,11.1,11.5,11.1,11.4,11.1z M8.5,7.8h1.1L9,6.4L8.5,7.8z"/>
	</g>
</g>
</svg>
