<svg width="24" height="24" xmlns="http://www.w3.org/2000/svg" id="maybe-creation-medium" data-supported-dps="24x24">
  <g fill="none" fill-rule="evenodd">
    <path d="M0 0h24v24H0z"/>
    <g transform="translate(3 3)">
      <circle fill="#DEB8DC" cx="9" cy="9" r="9"/>
      <path d="M6.99 9.78h1.5" stroke="#523951" stroke-linecap="round" stroke-linejoin="round"/>
      <circle fill="#523951" cx="5.05" cy="5.78" r="1"/>
      <circle fill="#523951" cx="11.92" cy="6.29" r="1"/>
      <path d="M11.23 3.55a2.24 2.24 0 011.59 0 2.2 2.2 0 011.27.93M3 1A2.16 2.16 0 014.44.36 2.2 2.2 0 016 .71" stroke="#523951" stroke-linecap="round" stroke-linejoin="round"/>
      <path d="M8 .06A8.26 8.26 0 019 0a9 9 0 11-6.63 2.92" stroke="#523951" stroke-linecap="round" stroke-linejoin="round"/>
      <path d="M4.14 13.56l6-1a1 1 0 011.15.83 1 1 0 01-.82 1.14L8 14.94a.82.82 0 01.93.7.85.85 0 01-.64 1c.237.12.4.347.44.61a.87.87 0 01-.55.95.83.83 0 01.19.58.92.92 0 01-.79.81l-.29.06c-.84.17-1.42.28-2.3.38a14.51 14.51 0 01-2.63-.21 1.73 1.73 0 01-1.28-1.13C.51 17.5.19 15.25.9 14.61c.71-.64.58-.5.92-1.26.34-.76.68-1.66 1-2.42.32-.76.37-1.09.87-1.28a1 1 0 011.23.58 4.33 4.33 0 01-.07 1.6c-.13 1.06-.14 1.29 0 1.64" fill="#DEB8DC"/>
      <path d="M10.14 12.56a1 1 0 011.15.83 1 1 0 01-.82 1.14L8 14.94a.82.82 0 01.93.7.85.85 0 01-.64 1c.237.12.4.347.44.61a.87.87 0 01-.55.95.83.83 0 01.19.58.92.92 0 01-.79.81l-.29.06c-.84.17-1.42.28-2.3.38a14.51 14.51 0 01-2.63-.21 1.73 1.73 0 01-1.28-1.13C.51 17.5.19 15.25.9 14.61c.71-.64.58-.5.92-1.26.34-.76.68-1.66 1-2.42.32-.76.37-1.09.87-1.28a1 1 0 011.23.58 4.33 4.33 0 01-.07 1.6c-.13 1.06-.14 1.29 0 1.64l5.29-.91z" stroke="#523951" stroke-linecap="round" stroke-linejoin="round"/>
    </g>
  </g>
</svg>
