<svg xmlns="http://www.w3.org/2000/svg" width="15.545" height="18" viewBox="0 0 15.545 18">
  <g id="file" transform="translate(-32)">
    <g id="Group_3009" data-name="Group 3009" transform="translate(32)">
      <g id="Group_3008" data-name="Group 3008" transform="translate(0)">
        <path id="Path_6603" data-name="Path 6603" d="M43.455,0H33.636A1.636,1.636,0,0,0,32,1.636V13.091h1.636V1.636h9.818Z" transform="translate(-32)" fill="#ea2e7e"/>
        <path id="Path_6604" data-name="Path 6604" d="M127.969,85.333h-9a1.636,1.636,0,0,0-1.636,1.636V98.424a1.636,1.636,0,0,0,1.636,1.636h9a1.636,1.636,0,0,0,1.636-1.636V86.969A1.636,1.636,0,0,0,127.969,85.333Zm0,13.091h-9V86.969h9Z" transform="translate(-114.06 -82.06)" fill="#ea2e7e"/>
      </g>
    </g>
  </g>
</svg>
