<?xml version="1.0" encoding="utf-8"?>
<!-- Generator: Adobe Illustrator 23.0.3, SVG Export Plug-In . SVG Version: 6.00 Build 0)  -->
<svg version="1.1" id="Layer_1" xmlns="http://www.w3.org/2000/svg" xmlns:xlink="http://www.w3.org/1999/xlink" x="0px" y="0px"
	 viewBox="0 0 44 44" style="enable-background:new 0 0 44 44;" xml:space="preserve">
<style type="text/css">
	.st0{fill:#FFFFFF;}
	.st1{fill:#E9E9E9;}
	.st2{fill:#546DE5;}
</style>
<g id="grid-box-blue" transform="translate(-1056 -597)">
	<g id="Rectangle_746" transform="translate(1056 597)">
		<g>
			<path class="st0" d="M8,0h28c4.4,0,8,3.6,8,8v28c0,4.4-3.6,8-8,8H8c-4.4,0-8-3.6-8-8V8C0,3.6,3.6,0,8,0z"/>
		</g>
		<g>
			<path class="st1" d="M36,44H8c-4.4,0-8-3.6-8-8V8c0-4.4,3.6-8,8-8h28c4.4,0,8,3.6,8,8v28C44,40.4,40.4,44,36,44z M8,1
				C4.1,1,1,4.1,1,8v28c0,3.9,3.1,7,7,7h28c3.9,0,7-3.1,7-7V8c0-3.9-3.1-7-7-7H8z"/>
		</g>
	</g>
	<g id="visualization" transform="translate(1069 610)">
		<g id="Group_3315">
			<g id="Group_3314">
				<g id="Path_6685">
					<path class="st2" d="M6.6,0H1.5C0.7,0,0,0.7,0,1.5v5.1c0,0.8,0.7,1.5,1.5,1.5h5.1c0.8,0,1.5-0.7,1.5-1.5V1.5
						C8.1,0.7,7.4,0,6.6,0z"/>
				</g>
				<g id="Path_6686">
					<path class="st2" d="M16.5,0h-5.1c-0.8,0-1.5,0.7-1.5,1.5v5.1c0,0.8,0.7,1.5,1.5,1.5h5.1c0.8,0,1.5-0.7,1.5-1.5V1.5
						C18,0.7,17.3,0,16.5,0C16.5,0,16.5,0,16.5,0z"/>
				</g>
				<g id="Path_6687">
					<path class="st2" d="M6.6,9.9H1.5C0.7,9.9,0,10.6,0,11.4v5.1C0,17.3,0.7,18,1.5,18c0,0,0,0,0,0h5.1c0.8,0,1.5-0.7,1.5-1.5v-5.1
						C8.1,10.6,7.4,9.9,6.6,9.9z"/>
				</g>
				<g id="Path_6688">
					<path class="st2" d="M16.5,9.9h-5.1c-0.8,0-1.5,0.7-1.5,1.5v5.1c0,0.8,0.7,1.5,1.5,1.5h5.1c0.8,0,1.5-0.7,1.5-1.5v-5.1
						C18,10.6,17.3,9.9,16.5,9.9z"/>
				</g>
			</g>
		</g>
	</g>
</g>
</svg>
