<svg id="incorrect" xmlns="http://www.w3.org/2000/svg" width="18" height="18" viewBox="0 0 18 18">
  <g id="Group_3042" data-name="Group 3042">
    <g id="Group_3041" data-name="Group 3041">
      <path id="Path_6652" data-name="Path 6652" d="M17.25,8.25A.75.75,0,0,0,16.5,9a7.5,7.5,0,1,1-2.178-5.285.75.75,0,1,0,1.064-1.057A9,9,0,1,0,18,9,.75.75,0,0,0,17.25,8.25Z" fill="#ea2e7e"/>
    </g>
  </g>
  <g id="Group_3044" data-name="Group 3044" transform="translate(6 6)">
    <g id="Group_3043" data-name="Group 3043">
      <path id="Path_6653" data-name="Path 6653" d="M132.062,131l1.72-1.72a.75.75,0,0,0-1.06-1.06l-1.72,1.72-1.72-1.72a.75.75,0,0,0-1.06,1.06l1.72,1.72-1.72,1.72a.75.75,0,1,0,1.06,1.06l1.72-1.72,1.72,1.72a.75.75,0,0,0,1.06-1.06Z" transform="translate(-128.002 -128.002)" fill="#ea2e7e"/>
    </g>
  </g>
</svg>
