<svg width="24" height="24" xmlns="http://www.w3.org/2000/svg" id="like-creation-medium" data-supported-dps="24x24">
  <g fill="none" fill-rule="evenodd">
    <path d="M0 0h24v24H0z"/>
    <path d="M12.69 9.5H5.06a1.8 1.8 0 00-1.56 2A1.62 1.62 0 005.15 13h.29a1.38 1.38 0 00-1.34 1.39 1.43 1.43 0 001.31 1.42A1.42 1.42 0 006 18.35a1.44 1.44 0 00-.15 1 1.52 1.52 0 001.51 1.12h4.08a6.54 6.54 0 001.56-.2l2.56-.75h3.38c1.78-.07 2.26-8.26 0-8.26h-1c-.17 0-.27-.34-.71-.82-.65-.71-1.39-1.62-1.91-2.13a12.74 12.74 0 01-3-3.92C11.9 3.42 11.85 3 11 3a1.38 1.38 0 00-1.21 1.45c0 .25.13 1.12.18 1.43a10.62 10.62 0 001.76 3.62" fill="#1485BD"/>
    <path d="M5.06 10a1.41 1.41 0 00-1.56 1.5A1.6 1.6 0 005.15 13h.29a1.38 1.38 0 00-1.34 1.41 1.43 1.43 0 001.31 1.42A1.42 1.42 0 006 18.37a1.44 1.44 0 00-.15 1 1.52 1.52 0 001.52 1.13h4.08a6.54 6.54 0 001.55-.21l2.56-.75h3.38c1.78-.07 2.26-8.26 0-8.26h-1c-.17 0-.27-.34-.71-.82-.65-.71-1.39-1.62-1.91-2.13a12.74 12.74 0 01-3-3.92C11.9 3.44 11.85 3 11 3a1.33 1.33 0 00-1.21 1.47c0 .25.13 1.12.18 1.43a15.65 15.65 0 001.76 4.1H5.06z" stroke="#004B7C" stroke-linecap="round" stroke-linejoin="round"/>
  </g>
</svg>
