<svg xmlns="http://www.w3.org/2000/svg" width="117.363" height="100" viewBox="0 0 117.363 100">
  <g id="love" transform="translate(-10741 10374)">
    <path id="Path_2980" data-name="Path 2980" d="M161.964,151a30.709,30.709,0,0,0-22.634,10A30.709,30.709,0,0,0,116.7,151c-17.208,0-31.157,14.308-31.157,31.958,0,24.723,53.791,58.774,53.791,58.774s53.791-34.051,53.791-58.774C193.122,165.306,179.172,151,161.964,151Z" transform="translate(10660.352 -10520.276)" fill="#ea2e7e"/>
    <g id="Group_636" data-name="Group 636" transform="translate(10741 -10374)">
      <g id="Group_635" data-name="Group 635">
        <path id="Path_2969" data-name="Path 2969" d="M157.545,141a34.524,34.524,0,0,0-23.324,8.983A34.525,34.525,0,0,0,110.9,141C91.4,141,75.54,157.23,75.54,177.181c0,11.554,9.7,25.785,28.842,42.3a264.989,264.989,0,0,0,28.1,21.014,3.251,3.251,0,0,0,3.479,0,264.994,264.994,0,0,0,28.1-21.014c19.138-16.513,28.842-30.744,28.842-42.3C192.9,157.23,177.042,141,157.545,141Zm-23.313,92.874a266,266,0,0,1-25.6-19.317c-17.394-15.008-26.588-27.932-26.588-37.374,0-16.366,12.944-29.68,28.854-29.68a28.228,28.228,0,0,1,20.934,9.255,3.252,3.252,0,0,0,4.78,0,28.225,28.225,0,0,1,20.934-9.255c15.91,0,28.854,13.314,28.854,29.68C186.4,195.884,150.292,223.386,134.233,233.872Z" transform="translate(-75.54 -140.998)" fill="#2a1f5a"/>
      </g>
    </g>
    <g id="Group_639" data-name="Group 639" transform="translate(10806.616 -10360.148)">
      <g id="Group_638" data-name="Group 638">
        <g id="Group_637" data-name="Group 637">
          <path id="Path_2970" data-name="Path 2970" d="M278.23,202.455l-.023.025a3.252,3.252,0,1,0,4.739,4.454l.067-.072a3.252,3.252,0,1,0-4.782-4.407Z" transform="translate(-277.325 -195.615)" fill="#2a1f5a"/>
          <path id="Path_2971" data-name="Path 2971" d="M314.631,183.6a21.029,21.029,0,0,0-3.617.313,3.252,3.252,0,0,0,1.122,6.406,14.511,14.511,0,0,1,2.5-.215c8.269,0,15,7.1,15,15.828a3.252,3.252,0,1,0,6.5,0C336.132,193.614,326.486,183.6,314.631,183.6Z" transform="translate(-298.243 -183.596)" fill="#2a1f5a"/>
        </g>
      </g>
    </g>
  </g>
</svg>
