<svg xmlns="http://www.w3.org/2000/svg" width="20" height="20" viewBox="0 0 20 20">
    <defs>
        <style>
            .prefix__cls-1{fill:#185aeb}
        </style>
    </defs>
    <g id="prefix__speech-bubble-1" transform="translate(-11 -11)">
        <g id="prefix__Group_1137" data-name="Group 1137" transform="translate(11 11)">
            <path id="prefix__Path_1081" d="M13.555 12.665a.826.826 0 00-.89.735v10.078a.826.826 0 00.89.735h7.5a.837.837 0 01.6.253l3.506 3.612v-3.033a.831.831 0 01.839-.833h2.445a.826.826 0 00.89-.735V13.4a.823.823 0 00-.89-.735h-14.89zM25.4 30.714l-4.694-4.837h-7.151A2.485 2.485 0 0111 23.478V13.4a2.485 2.485 0 012.555-2.4h14.89A2.485 2.485 0 0131 13.4v10.078a2.485 2.485 0 01-2.555 2.4h-1.612v4.257a.816.816 0 01-1.433.579z" class="prefix__cls-1" data-name="Path 1081" transform="translate(-11 -11)"/>
            <path id="prefix__Path_1082" d="M126.32 115.065h-9.788a.833.833 0 010-1.665h9.792a.833.833 0 110 1.665z" class="prefix__cls-1" data-name="Path 1082" transform="translate(-111.427 -109.22)"/>
            <path id="prefix__Path_1083" d="M126.32 231.765h-9.788a.833.833 0 010-1.665h9.792a.833.833 0 110 1.665z" class="prefix__cls-1" data-name="Path 1083" transform="translate(-111.427 -221.157)"/>
        </g>
    </g>
</svg>
