<svg xmlns="http://www.w3.org/2000/svg" width="20" height="13.32" viewBox="0 0 20 13.32">
  <g id="onedrive" transform="translate(0 -85.5)">
    <g id="Group_3089" data-name="Group 3089" transform="translate(0 85.5)">
      <g id="Group_3088" data-name="Group 3088">
        <path id="Path_6663" data-name="Path 6663" d="M10.838,85.5a4.7,4.7,0,0,0-.838.075,4.641,4.641,0,0,0-2.527,1.359A3.985,3.985,0,0,0,2.755,90.3a3.3,3.3,0,0,0,.369,6.559,4.1,4.1,0,0,1,2.236-4.68,5.274,5.274,0,0,1,5.216-4.494A5.225,5.225,0,0,1,13.9,88.866q.12-.006.24-.006a4.676,4.676,0,0,1,1.219.162A4.672,4.672,0,0,0,10.838,85.5Z" transform="translate(0 -85.5)" fill="#ffb770"/>
      </g>
    </g>
    <g id="Group_3091" data-name="Group 3091" transform="translate(4.18 88.859)">
      <g id="Group_3090" data-name="Group 3090">
        <path id="Path_6664" data-name="Path 6664" d="M120.436,175.652a3.516,3.516,0,0,0-4.111-2.923,4.1,4.1,0,0,0-7.03,2.872q0,.035,0,.069a2.93,2.93,0,0,0,.634,5.79h9.961a2.93,2.93,0,0,0,.545-5.809Z" transform="translate(-107 -171.5)" fill="#ffb770"/>
      </g>
    </g>
  </g>
</svg>
