<svg xmlns="http://www.w3.org/2000/svg" width="26.439" height="30" viewBox="0 0 26.439 30">
  <g id="pdf" transform="translate(-30.391)">
    <g id="Group_686" data-name="Group 686" transform="translate(30.391 0)">
      <path id="Path_228" data-name="Path 228" d="M76.555,27.321A2.681,2.681,0,0,1,73.871,30H55.419a2.681,2.681,0,0,1-2.684-2.679V2.679A2.681,2.681,0,0,1,55.419,0H66.906a2.015,2.015,0,0,1,1.425.59l7.636,7.637a2.007,2.007,0,0,1,.588,1.419Z" transform="translate(-51.426 0)" fill="#e6e6fe"/>
      <path id="Path_229" data-name="Path 229" d="M57.23,30H55.419a2.681,2.681,0,0,1-2.684-2.679V2.679A2.681,2.681,0,0,1,55.419,0H57.23a2.681,2.681,0,0,0-2.684,2.679V27.321A2.682,2.682,0,0,0,57.23,30Z" transform="translate(-51.426 0)" fill="#185aeb"/>
      <path id="Path_230" data-name="Path 230" d="M288.557,9.646v.98h-7A3.63,3.63,0,0,1,277.932,7V0h.976a2.016,2.016,0,0,1,1.425.59l7.636,7.637A2.007,2.007,0,0,1,288.557,9.646Z" transform="translate(-263.428 0)" fill="#185aeb"/>
      <path id="Path_231" data-name="Path 231" d="M317.472,11.735h-6.819a1.815,1.815,0,0,1-1.814-1.815V3.1a1.994,1.994,0,0,1,.59.408l7.636,7.637A2,2,0,0,1,317.472,11.735Z" transform="translate(-292.523 -2.919)" fill="#e6e6fe"/>
      <path id="Path_232" data-name="Path 232" d="M54.415,224.829H32.805a2.415,2.415,0,0,1-2.414-2.414V213.6a2.414,2.414,0,0,1,2.414-2.414h21.61A2.414,2.414,0,0,1,56.83,213.6v8.813A2.415,2.415,0,0,1,54.415,224.829Z" transform="translate(-30.391 -198.813)" fill="#185aeb"/>
      <path id="Path_233" data-name="Path 233" d="M34.314,224.829H32.805a2.415,2.415,0,0,1-2.414-2.414V213.6a2.415,2.415,0,0,1,2.414-2.414h1.509A2.415,2.415,0,0,0,31.9,213.6v8.813A2.414,2.414,0,0,0,34.314,224.829Z" transform="translate(-30.391 -198.813)" fill="#185aeb"/>
      <g id="Group_685" data-name="Group 685" transform="translate(11.036 15.327)">
        <path id="Path_234" data-name="Path 234" d="M336.32,262.49a.453.453,0,0,0,0-.905h-2.768a.453.453,0,0,0-.453.453v6.83a.453.453,0,1,0,.905,0v-3.027h2.1a.453.453,0,0,0,0-.905H334V262.49Z" transform="translate(-326.398 -261.585)" fill="#fff"/>
        <path id="Path_235" data-name="Path 235" d="M221.089,262.891H219.2a.453.453,0,0,0-.453.454v.006h0v6.562a.449.449,0,0,0,.014.108v0a.453.453,0,0,0,.453.451h0c.057,0,1.4-.005,1.939-.015a2.888,2.888,0,0,0,2.28-1.16,4.31,4.31,0,0,0,.806-2.617C224.238,264.415,222.973,262.891,221.089,262.891Zm.048,6.663c-.337.006-1.018.01-1.474.012,0-.747-.007-2.219-.007-2.891,0-.562,0-2.105,0-2.879h1.438c1.654,0,2.244,1.491,2.244,2.886C223.333,268.35,222.429,269.531,221.136,269.554Z" transform="translate(-218.745 -262.814)" fill="#fff"/>
      </g>
    </g>
    <path id="Path_236" data-name="Path 236" d="M108.615,261.444h-1.932c-.4,0-.416.172-.416.416V268.8a.416.416,0,1,0,.832,0v-2.6c.451,0,1.167-.006,1.516-.006a2.374,2.374,0,1,0,0-4.747Zm0,3.915c-.346,0-1.052,0-1.5.006,0-.464-.006-1.195-.006-1.548,0-.3,0-1.06,0-1.542h1.514a1.542,1.542,0,1,1,0,3.084Z" transform="translate(-71.43 -246.125)" fill="#fff"/>
  </g>
</svg>
