<svg xmlns="http://www.w3.org/2000/svg" width="28.284" height="28.284" viewBox="0 0 28.284 28.284">
  <g id="prev" transform="translate(-0.066 14.142) rotate(-45)">
    <g id="Group_21" data-name="Group 21" transform="translate(0.047 0.047)">
      <path id="Path_167" data-name="Path 167" d="M19.644,14.882,10.855,6.095l3.231-3.231A1.294,1.294,0,0,0,13.118.773L1.171.049A1.033,1.033,0,0,0,.049,1.171L.773,13.118a1.294,1.294,0,0,0,2.091.968L6.1,10.857l8.786,8.787a1.2,1.2,0,0,0,1.689.1l3.175-3.175A1.2,1.2,0,0,0,19.644,14.882Z" transform="translate(-0.047 -0.047)" fill="#c9c8cd"/>
    </g>
  </g>
</svg>
