<svg xmlns="http://www.w3.org/2000/svg" width="15.428" height="18" viewBox="0 0 15.428 18">
  <g id="Profile_grey" data-name="Profile grey" transform="translate(0 -1)">
    <path id="Path_6767" data-name="Path 6767" d="M8.286,9.571a4.286,4.286,0,1,1,4.286-4.286A4.291,4.291,0,0,1,8.286,9.571Zm0-7.286a3,3,0,1,0,3,3A3,3,0,0,0,8.286,2.286Z" transform="translate(-0.571)" fill="#aaa"/>
    <path id="Path_6768" data-name="Path 6768" d="M14.786,20.714H.643A.643.643,0,0,1,0,20.071v-3A4.076,4.076,0,0,1,4.071,13h7.286a4.076,4.076,0,0,1,4.071,4.071v3A.643.643,0,0,1,14.786,20.714Zm-13.5-1.286H14.143V17.071a2.789,2.789,0,0,0-2.786-2.786H4.071a2.789,2.789,0,0,0-2.786,2.786Z" transform="translate(0 -1.714)" fill="#aaa"/>
  </g>
</svg>
