<svg id="_x31__x2C_5" enable-background="new 0 0 24 24" height="512" viewBox="0 0 24 24" width="512" xmlns="http://www.w3.org/2000/svg"><path d="m11.864 16.75h11.272v1.5h-11.272z" transform="matrix(.707 -.707 .707 .707 -7.249 17.5)"/><path d="m17.5 24c-3.584 0-6.5-2.916-6.5-6.5s2.916-6.5 6.5-6.5 6.5 2.916 6.5 6.5-2.916 6.5-6.5 6.5zm0-11.5c-2.757 0-5 2.243-5 5s2.243 5 5 5 5-2.243 5-5-2.243-5-5-5z"/><path d="m8.25 20h-6c-1.24 0-2.25-1.01-2.25-2.25v-8.5c0-1.24 1.01-2.25 2.25-2.25h11.5c.645 0 1.255.275 1.675.757.272.312.241.785-.071 1.058-.31.273-.785.241-1.058-.071-.136-.155-.334-.244-.546-.244h-11.5c-.413 0-.75.337-.75.75v8.5c0 .413.337.75.75.75h6c.414 0 .75.336.75.75s-.336.75-.75.75z"/><path d="m12.25 8.5c-.414 0-.75-.336-.75-.75v-2.75c0-1.93-1.57-3.5-3.5-3.5s-3.5 1.57-3.5 3.5v2.75c0 .414-.336.75-.75.75s-.75-.336-.75-.75v-2.75c0-2.757 2.243-5 5-5s5 2.243 5 5v2.75c0 .414-.336.75-.75.75z"/></svg>