<svg width="24" height="24" fill="none" xmlns="http://www.w3.org/2000/svg" id="support-creation-medium" data-supported-dps="24x24">
  <path d="M7.45 15.412h-.206a.346.346 0 01-.117 0c-.368-.133-2.172-1.06-3.436-1.409-.159-.042-.154-.34-.173-.501-.052-.283.01-.575.173-.814a.662.662 0 01.555-.266c.111 0 .222.018.327.055.25.098.485.233.695.4l.089.069.583.4c.215.151.406.28.541.38l1.363.547c.182.083 1.436 1.231 1.436 1.424 0 .193-1.57-.253-1.751-.248l-.08-.037z" fill="#9983B1"/>
  <path d="M22.19 21.554a36.677 36.677 0 01-5.889-.618h-.104a32.51 32.51 0 01-4.361-.915c-1.274-.387-2.527-.89-3.74-1.373l-.542-.216a97.902 97.902 0 01-2.934-1.201l-.318-.136c-.513-.2-1.012-.438-1.492-.709-.662-.392-.866-.895-.592-1.508v-.045a.958.958 0 01.98-.579h.054c.096-.007.193-.007.289 0 1.054.116 4.112 1.293 4.714 1.509l1.99.07h.049l4.476.156c-.348-.322-1.219-.88-3.357-1.438-.408-.106-.776-.226-.86-.503-.14-.465.013-.97.387-1.277.283-.165.61-.239.935-.21.382 0 .547.12.918.21.229.06.463.335.642.39.465.162 1.09.207 1.578.263.782.123 1.574.083 2.328.328 2.486.683 2.983 1.945 3.277 2.704-.095-.311 0-.08.05-.195l.087.335.204-.056c.071.005.138.005.209 0h.653l.232.144c.197-.007.32-.137.37.055.85 3.132.05 4.564 0 4.634a.318.318 0 01-.239.166l.005.015z" fill="#BBA9D1"/>
  <path fill-rule="evenodd" clip-rule="evenodd" d="M8.07 5.54a2.35 2.35 0 00-1.656-.708 2.353 2.353 0 00-1.672.666l-.042.041a2.381 2.381 0 000 3.373l3.635 3.63 3.64-3.63a2.381 2.381 0 000-3.373 2.38 2.38 0 00-1.684-.703c-.634 0-1.24.254-1.68.703l-.266.267-.276-.267z" fill="#DF704D"/>
  <path clip-rule="evenodd" d="M22.287 16.72c.169.14.82 1.27.698 2.565s-.88 2.485-1.073 2.688c-.193.203-7.16-.791-8.769-1.099-1.609-.307-10.65-4.428-10.951-4.622-.302-.194-.33-1.587.533-1.876.862-.29 4.267 1.586 5.653 1.724 1.387.137 4.838.343 6.005.343 1.167 0-1.302-.962-1.873-1.207-.57-.244-1.79-.499-1.983-1.152-.195-.654.269-1.084.786-1.084.345 0 1.417.251 3.216.753 1.476 0 2.698.228 3.667.683 1.453.682 2.04 1.916 2.2 2.283.16.368 1.723-.14 1.891 0z" stroke="#493D57"/>
  <path d="M3.26 14.084c-.228-.922.223-1.36.772-1.478.548-.12 2.13.845 2.89 1.478.506.421 1.746 1.142 3.721 2.162" stroke="#493D57"/>
  <path clip-rule="evenodd" d="M8.21 5.225a2.481 2.481 0 00-3.479.024 2.487 2.487 0 00-.04 3.482L8.486 12.5l3.796-3.774a2.482 2.482 0 00-1.76-4.226 2.47 2.47 0 00-1.747.735l-.289.271-.276-.281z" stroke="#77280C" stroke-linecap="round" stroke-linejoin="round"/>
</svg>
