<svg class="sp-icon" version="1.1" id="Layer_1" xmlns="http://www.w3.org/2000/svg" xmlns:xlink="http://www.w3.org/1999/xlink" x="0px" y="0px" viewBox="0 0 512 512" style="enable-background:new 0 0 512 512;" xml:space="preserve">
    <path d="M31.4,147.5c11.3,0,20.4-9.1,20.4-20.4V51.9h408.4V127c0,11.3,9.1,20.4,20.4,20.4S501,138.3,501,127V31.4
        c0-11.3-9.1-20.4-20.4-20.4H31.4C20.1,11,11,20.1,11,31.4V127C11,138.3,20.1,147.5,31.4,147.5L31.4,147.5z" fill="#185aeb"></path>
    <path d="M314.8,277v183H205.1V277.8h-67.6l118.9-118.9L374.5,277H314.8z M268.4,112.9c-6.7-6.7-17.4-6.7-24.1,0L67.5,289.7
        c-10.7,10.7-3.1,29.1,12.1,29.1H164V484c0,9.4,7.6,17,17,17h157.8c9.4,0,17-7.6,17-17V318h76.6c15.2,0,22.8-18.4,12.1-29.1
        L268.4,112.9z" fill="#185aeb"></path>
</svg>