<svg xmlns="http://www.w3.org/2000/svg" width="21.905" height="20" viewBox="0 0 21.905 20">
  <path id="camera" d="M2.857,3.857V1h1.9V3.857H7.619v1.9H4.762V8.619h-1.9V5.762H0v-1.9ZM5.714,9.571V6.714H8.571V3.857h6.667l1.743,1.9H20a1.91,1.91,0,0,1,1.9,1.9V19.1A1.91,1.91,0,0,1,20,21H4.762a1.91,1.91,0,0,1-1.9-1.9V9.571Zm6.667,8.571a4.762,4.762,0,1,0-4.762-4.762A4.764,4.764,0,0,0,12.381,18.143ZM9.333,13.381a3.048,3.048,0,1,0,3.048-3.048,3.044,3.044,0,0,0-3.048,3.048Z" transform="translate(0 -1)" fill="#546de5"/>
</svg>
