<svg xmlns="http://www.w3.org/2000/svg" width="25" height="28" viewBox="0 0 18 18">
  <g id="copy-link" transform="translate(0.993 1)">
    <g id="Group_3144" data-name="Group 3144" transform="translate(-0.993 -1)">
      <g id="Group_3143" data-name="Group 3143" transform="translate(0 0)">
        <path id="Path_6678" data-name="Path 6678" d="M6.469,184.449,4.348,186.57a2.25,2.25,0,1,1-3.182-3.181l4.243-4.243a2.249,2.249,0,0,1,3.181,0,.75.75,0,0,0,1.061-1.061,3.749,3.749,0,0,0-5.3,0L.1,182.328a3.75,3.75,0,0,0,5.3,5.3l2.121-2.121a.75.75,0,1,0-1.061-1.061Z" transform="translate(0.993 -170.729)" fill="#1ae2bc"/>
        <path id="Path_6679" data-name="Path 6679" d="M200.125.1a3.75,3.75,0,0,0-5.3,0l-2.545,2.545A.75.75,0,0,0,193.337,3.7l2.545-2.545a2.25,2.25,0,1,1,3.182,3.181L194.4,9.006a2.249,2.249,0,0,1-3.181,0,.75.75,0,0,0-1.061,1.061,3.749,3.749,0,0,0,5.3,0L200.125,5.4A3.749,3.749,0,0,0,200.125.1Z" transform="translate(-183.223 1)" fill="#1ae2bc"/>
      </g>
    </g>
  </g>
</svg>
