<svg xmlns="http://www.w3.org/2000/svg" width="30" height="25" viewBox="0 0 18 14.31">
  <g id="embed" transform="translate(-0.001 -52.478)">
    <g id="Group_3146" data-name="Group 3146" transform="translate(12.488 54.548)">
      <g id="Group_3145" data-name="Group 3145" transform="translate(0 0)">
        <path id="Path_6680" data-name="Path 6680" d="M360.527,115.983l-4.163-4.41a.675.675,0,1,0-.982.927l3.725,3.947-3.725,3.947a.675.675,0,0,0,.982.927l4.163-4.41A.675.675,0,0,0,360.527,115.983Z" transform="translate(-355.199 -111.361)" fill="#ea2e7e"/>
      </g>
    </g>
    <g id="Group_3148" data-name="Group 3148" transform="translate(0.001 54.548)">
      <g id="Group_3147" data-name="Group 3147" transform="translate(0 0)">
        <path id="Path_6681" data-name="Path 6681" d="M5.329,120.391,1.6,116.445,5.329,112.5a.675.675,0,0,0-.982-.927l-4.163,4.41a.675.675,0,0,0,0,.927l4.163,4.41a.675.675,0,0,0,.982-.927Z" transform="translate(-0.001 -111.36)" fill="#ea2e7e"/>
      </g>
    </g>
    <g id="Group_3150" data-name="Group 3150" transform="translate(7.335 52.478)">
      <g id="Group_3149" data-name="Group 3149" transform="translate(0 0)">
        <path id="Path_6682" data-name="Path 6682" d="M211.394,52.485a.676.676,0,0,0-.769.565l-1.98,12.96a.675.675,0,0,0,.565.769.7.7,0,0,0,.1.008.675.675,0,0,0,.666-.573l1.98-12.96A.675.675,0,0,0,211.394,52.485Z" transform="translate(-208.636 -52.478)" fill="#ea2e7e"/>
      </g>
    </g>
  </g>
</svg>
