<svg id="flashcards" xmlns="http://www.w3.org/2000/svg" width="15.529" height="25" viewBox="0 0 15.529 25">
  <path id="Path_2768" data-name="Path 2768" d="M102.8,24.869l9.643-16.6a.522.522,0,0,0-.522-.78l-6.414.872L107.038.311A.261.261,0,0,0,106.573.1L97.092,12.62a.522.522,0,0,0,.471.835l7.072-.744-2.318,11.978A.261.261,0,0,0,102.8,24.869Z" transform="translate(-96.985 0)" fill="#546de5"/>
  <path id="Path_2769" data-name="Path 2769" d="M100.057,11.749a.216.216,0,0,1-.2-.33L106.945.077a.257.257,0,0,0-.372.044L97.092,12.636a.522.522,0,0,0,.471.835l7.072-.744L102.316,24.7a.254.254,0,0,0,.205.3l3.973-12.571a.871.871,0,0,0-.9-1.13Z" transform="translate(-96.985 -0.016)" fill="#546de5"/>
</svg>
