<svg xmlns="http://www.w3.org/2000/svg" width="59.448" height="60" viewBox="0 0 59.448 60">
  <g id="genius-emoji" transform="translate(-2.357)">
    <path id="Path_6711" data-name="Path 6711" d="M247.546,0,246.7,20.852,244.84,0Z" transform="translate(-214.067)" fill="#65b1ef"/>
    <path id="Path_6712" data-name="Path 6712" d="M244.84,348.978l.849-20.85,1.856,20.85Z" transform="translate(-214.067 -289.676)" fill="#5a5f63"/>
    <g id="Group_3212" data-name="Group 3212" transform="translate(2.895 0.422)">
      <path id="Path_6713" data-name="Path 6713" d="M351.654,6.024,331.192,24.966,349.229,3.6Z" transform="translate(-293.195 -3.6)" fill="#65b1ef"/>
      <path id="Path_6714" data-name="Path 6714" d="M6.952,339.069l20.462-18.941L9.376,341.494Z" transform="translate(-6.952 -283.035)" fill="#65b1ef"/>
    </g>
    <path id="Path_6715" data-name="Path 6715" d="M352.332,244.169l-20.852-.851,20.852-1.862Z" transform="translate(-290.554 -213.16)" fill="#5a5f63"/>
    <path id="Path_6716" data-name="Path 6716" d="M3.352,241.456l20.852.851-20.852,1.86Z" transform="translate(-0.879 -213.16)" fill="#8cc63e"/>
    <path id="Path_6717" data-name="Path 6717" d="M342.421,348.3,323.48,327.84l21.366,18.037Z" transform="translate(-283.492 -289.421)" fill="#f29a2e"/>
    <path id="Path_6718" data-name="Path 6718" d="M9.376,3.6,28.318,24.062,6.952,6.024Z" transform="translate(-4.057 -3.178)" fill="#5a5f63"/>
    <path id="Path_6719" data-name="Path 6719" d="M145.184,0l7.695,20.812L142.664,1.044Z" transform="translate(-123.865)" fill="#f29a2e"/>
    <g id="Group_3213" data-name="Group 3213" transform="translate(35.237)">
      <path id="Path_6720" data-name="Path 6720" d="M290.629,349.275l-7.693-20.811,10.215,19.766Z" transform="translate(-282.936 -289.972)" fill="#8cc63e"/>
      <path id="Path_6721" data-name="Path 6721" d="M300.228,1.044,290.952,21.2,297.706,0Z" transform="translate(-290.013)" fill="#8cc63e"/>
    </g>
    <path id="Path_6722" data-name="Path 6722" d="M142.664,345.292l9.276-20.156-6.756,21.2Z" transform="translate(-123.865 -287.034)" fill="#e84d88"/>
    <path id="Path_6723" data-name="Path 6723" d="M352.627,141.832l-20.811,7.695,19.768-10.215Z" transform="translate(-290.851 -122.986)" fill="#f29a2e"/>
    <path id="Path_6724" data-name="Path 6724" d="M3.352,287.277l20.812-7.693L4.4,289.8Z" transform="translate(-0.879 -246.82)" fill="#5a5f63"/>
    <g id="Group_3214" data-name="Group 3214" transform="translate(2.473 16.326)">
      <path id="Path_6725" data-name="Path 6725" d="M348.644,296.86l-20.156-9.276,21.2,6.756Z" transform="translate(-290.386 -270.208)" fill="#e84d88"/>
      <path id="Path_6726" data-name="Path 6726" d="M4.4,139.312l20.156,9.276-21.2-6.756Z" transform="translate(-3.352 -139.312)" fill="#e84d88"/>
    </g>
    <circle id="Ellipse_219" data-name="Ellipse 219" cx="24.126" cy="24.126" r="24.126" transform="translate(7.992 5.526)" fill="#ffd93b"/>
    <path id="Path_6727" data-name="Path 6727" d="M143.774,293.945a18.332,18.332,0,0,1-34.273.039,1.392,1.392,0,0,1,1.826-1.807c9.879,4.133,20.068,4.249,30.639-.058A1.4,1.4,0,0,1,143.774,293.945Z" transform="translate(-94.501 -257.793)" fill="#3e4347"/>
    <path id="Path_6728" data-name="Path 6728" d="M139.026,111.548A24.127,24.127,0,0,1,96.12,126.694a24.127,24.127,0,0,0,33.926-33.926A24.1,24.1,0,0,1,139.026,111.548Z" transform="translate(-82.775 -81.897)" fill="#f4c534"/>
    <path id="Path_6729" data-name="Path 6729" d="M25.922,47.364a.163.163,0,0,0-.047.137l.311,1.817a.148.148,0,0,1-.218.158l-1.635-.859a.144.144,0,0,0-.141,0l-1.635.859a.154.154,0,0,1-.223-.159l.311-1.817a.143.143,0,0,0-.041-.135l-1.322-1.286a.158.158,0,0,1,.088-.266l1.822-.264a.148.148,0,0,0,.118-.083l.817-1.652a.147.147,0,0,1,.27,0l.817,1.652a.145.145,0,0,0,.112.083l1.828.264a.158.158,0,0,1,.088.264Z" transform="translate(-16.669 -38.6)" fill="#e84d88"/>
    <path id="Path_6730" data-name="Path 6730" d="M109.281,461.407a.062.062,0,0,0-.019.056l.128.746a.062.062,0,0,1-.09.066l-.671-.353a.064.064,0,0,0-.058,0l-.671.353a.064.064,0,0,1-.092-.066l.128-.746a.057.057,0,0,0-.017-.056l-.544-.529a.065.065,0,0,1,.036-.109l.748-.109a.059.059,0,0,0,.049-.034l.336-.679a.06.06,0,0,1,.111,0l.336.679a.059.059,0,0,0,.045.034l.75.109a.065.065,0,0,1,.036.109Z" transform="translate(-92.694 -406.016)" fill="#9a795f"/>
    <path id="Path_6731" data-name="Path 6731" d="M98.689,415.183a.062.062,0,0,0-.019.056l.128.746a.062.062,0,0,1-.09.066l-.671-.353a.064.064,0,0,0-.058,0l-.671.353a.064.064,0,0,1-.092-.066l.127-.746a.057.057,0,0,0-.017-.056l-.544-.529a.065.065,0,0,1,.036-.109l.748-.109a.059.059,0,0,0,.049-.034l.336-.679a.06.06,0,0,1,.111,0l.336.679a.059.059,0,0,0,.045.034l.75.109a.065.065,0,0,1,.036.109Z" transform="translate(-83.344 -365.209)" fill="#f29a2e"/>
    <path id="Path_6732" data-name="Path 6732" d="M210.545,475.119a.062.062,0,0,0-.019.056l.128.746a.062.062,0,0,1-.09.066l-.671-.353a.064.064,0,0,0-.058,0l-.671.353a.064.064,0,0,1-.092-.066l.127-.746a.057.057,0,0,0-.017-.056l-.544-.529a.065.065,0,0,1,.036-.109l.748-.109a.059.059,0,0,0,.049-.034l.336-.679a.06.06,0,0,1,.111,0l.336.679a.059.059,0,0,0,.045.034l.75.109a.065.065,0,0,1,.036.109Z" transform="translate(-182.092 -418.121)" fill="#45cbea"/>
    <path id="Path_6733" data-name="Path 6733" d="M403.989,29.606a.164.164,0,0,0-.109.094l-.626,1.734a.15.15,0,0,1-.268.03l-1-1.554a.151.151,0,0,0-.122-.069l-1.845-.062a.155.155,0,0,1-.116-.249l1.17-1.425a.146.146,0,0,0,.032-.139l-.514-1.774a.156.156,0,0,1,.208-.186l1.716.671a.148.148,0,0,0,.142-.013l1.528-1.031a.147.147,0,0,1,.234.133l-.107,1.841a.147.147,0,0,0,.056.128l1.459,1.134a.159.159,0,0,1-.054.274Z" transform="translate(-350.933 -22.603)" fill="#5a5f63"/>
    <path id="Path_6734" data-name="Path 6734" d="M454.633,103.828a.086.086,0,0,0-.032.071l.079,1.013a.081.081,0,0,1-.128.075l-.849-.555a.081.081,0,0,0-.077-.007l-.936.384a.085.085,0,0,1-.114-.1l.262-.981a.081.081,0,0,0-.015-.077l-.658-.776a.086.086,0,0,1,.062-.141l1.009-.049a.077.077,0,0,0,.068-.039l.529-.862a.081.081,0,0,1,.148.015l.364.949a.084.084,0,0,0,.056.051l.986.242a.088.088,0,0,1,.036.15Z" transform="translate(-397.079 -89.819)" fill="#8cc63e"/>
    <path id="Path_6735" data-name="Path 6735" d="M6.45,194.492a.141.141,0,0,0-.051.111l.122,1.567a.126.126,0,0,1-.2.116l-1.316-.863a.126.126,0,0,0-.12-.011l-1.449.6a.131.131,0,0,1-.176-.154l.4-1.517a.122.122,0,0,0-.024-.118l-1.016-1.2a.133.133,0,0,1,.1-.217l1.562-.075a.12.12,0,0,0,.1-.06l.819-1.337a.126.126,0,0,1,.231.021L6,192.821a.127.127,0,0,0,.088.079l1.526.373a.137.137,0,0,1,.054.232Z" transform="translate(-0.212 -168.851)" fill="#5a5f63"/>
    <path id="Path_6736" data-name="Path 6736" d="M4.065,277.969a.06.06,0,0,0-.023.049l.054.7a.056.056,0,0,1-.086.053l-.583-.383a.054.054,0,0,0-.053-.006l-.643.264a.059.059,0,0,1-.079-.068l.18-.673a.054.054,0,0,0-.011-.052l-.452-.533a.059.059,0,0,1,.043-.1l.694-.034a.053.053,0,0,0,.047-.026l.364-.592a.056.056,0,0,1,.1.009l.249.652a.057.057,0,0,0,.039.036l.677.165a.061.061,0,0,1,.024.1Z" transform="translate(0 -244.133)" fill="#f29a2e"/>
    <path id="Path_6737" data-name="Path 6737" d="M23.429,307.489a.061.061,0,0,0-.022.049l.054.7a.056.056,0,0,1-.086.052l-.585-.383a.054.054,0,0,0-.052-.006l-.645.264a.058.058,0,0,1-.079-.067l.18-.673a.054.054,0,0,0-.011-.053l-.452-.533a.059.059,0,0,1,.043-.1l.694-.034a.053.053,0,0,0,.047-.026l.364-.592a.056.056,0,0,1,.1.009l.249.652a.057.057,0,0,0,.039.036l.677.165a.061.061,0,0,1,.024.1Z" transform="translate(-17.091 -270.193)" fill="#e84d88"/>
    <path id="Path_6738" data-name="Path 6738" d="M318.545,494.353a.06.06,0,0,0-.023.049l.054.7a.056.056,0,0,1-.086.052l-.583-.383a.054.054,0,0,0-.052-.006l-.643.264a.059.059,0,0,1-.079-.068l.18-.673a.054.054,0,0,0-.011-.052l-.452-.533a.059.059,0,0,1,.043-.1l.694-.034a.054.054,0,0,0,.047-.026l.364-.593a.056.056,0,0,1,.1.009l.249.652a.057.057,0,0,0,.039.036l.677.165a.061.061,0,0,1,.024.1Z" transform="translate(-277.627 -435.159)" fill="#fc97b2"/>
    <path id="Path_6739" data-name="Path 6739" d="M284.657,466.081a.06.06,0,0,0-.022.049l.054.7a.056.056,0,0,1-.086.053l-.583-.383a.054.054,0,0,0-.052-.006l-.643.264a.059.059,0,0,1-.079-.068l.18-.673a.054.054,0,0,0-.011-.052l-.452-.533a.059.059,0,0,1,.043-.1l.694-.034a.053.053,0,0,0,.047-.026l.364-.592a.055.055,0,0,1,.1.009l.249.652a.057.057,0,0,0,.039.036l.677.165a.061.061,0,0,1,.024.1Z" transform="translate(-247.71 -410.2)" fill="#89664c"/>
    <path id="Path_6740" data-name="Path 6740" d="M386.577,435.345a.06.06,0,0,0-.022.049l.054.7a.056.056,0,0,1-.086.053l-.583-.383a.054.054,0,0,0-.053-.006l-.643.264a.059.059,0,0,1-.079-.068l.18-.673a.054.054,0,0,0-.011-.052l-.452-.533a.059.059,0,0,1,.043-.1l.694-.034a.053.053,0,0,0,.047-.026l.364-.592a.056.056,0,0,1,.1.009l.249.652a.057.057,0,0,0,.039.036l.677.165a.061.061,0,0,1,.024.1Z" transform="translate(-337.686 -383.066)" fill="#8cc63e"/>
    <path id="Path_6741" data-name="Path 6741" d="M443.217,364.065a.061.061,0,0,0-.022.049l.054.7a.056.056,0,0,1-.086.053l-.583-.383a.054.054,0,0,0-.052-.006l-.643.264a.059.059,0,0,1-.079-.068l.18-.673a.054.054,0,0,0-.011-.052l-.452-.533a.059.059,0,0,1,.043-.1l.694-.034a.053.053,0,0,0,.047-.026l.364-.592a.056.056,0,0,1,.1.009l.249.653a.057.057,0,0,0,.039.036l.677.165a.061.061,0,0,1,.024.1Z" transform="translate(-387.689 -320.139)" fill="#65b1ef"/>
    <path id="Path_6742" data-name="Path 6742" d="M417.553,475.633a.06.06,0,0,0-.022.049l.054.7a.056.056,0,0,1-.086.052l-.583-.383a.054.054,0,0,0-.052-.006l-.643.264a.058.058,0,0,1-.079-.067l.18-.673a.054.054,0,0,0-.011-.053l-.452-.533a.059.059,0,0,1,.043-.1l.694-.034a.053.053,0,0,0,.047-.026l.364-.592a.055.055,0,0,1,.1.009l.249.652a.057.057,0,0,0,.039.036l.677.165a.061.061,0,0,1,.024.1Z" transform="translate(-365.032 -418.633)" fill="#e24b4b"/>
    <path id="Path_6743" data-name="Path 6743" d="M493.456,75.748a.053.053,0,0,0-.032.039l-.111.649a.053.053,0,0,1-.092.028l-.446-.486a.051.051,0,0,0-.047-.017l-.649.094a.055.055,0,0,1-.056-.081l.321-.574a.054.054,0,0,0,0-.051l-.291-.592a.057.057,0,0,1,.062-.079l.641.129a.051.051,0,0,0,.049-.013l.471-.457a.052.052,0,0,1,.09.032l.077.654a.051.051,0,0,0,.028.041l.581.309a.057.057,0,0,1,0,.1Z" transform="translate(-432.278 -65.612)" fill="#e84d88"/>
    <path id="Path_6744" data-name="Path 6744" d="M77.464,15.894c1.776-.4,4.577-.313,6.067.756a2.244,2.244,0,0,1,.441,3.272c-1.584,1.978-4.47.3-3.645-1.579.651-1.65,3.077-.941,2.646.606a1.052,1.052,0,0,1-.514.679L82.44,19.6a.984.984,0,0,0,.388-.679,1.1,1.1,0,0,0-2.147-.431c-.658,1.562,1.762,2.85,3.137,1.3a1.9,1.9,0,0,0-.4-2.972c-1.337-.771-4.457-1.012-5.949-.883Z" transform="translate(-66.306 -13.839)" fill="#5a5f63"/>
    <path id="Path_6745" data-name="Path 6745" d="M475.547,198.256a8.473,8.473,0,0,0-.339,1.871,2.493,2.493,0,0,0,.523,1.719c1.168,1.459,3.058-.274,1.948-1.2a.8.8,0,0,0-1.279.42.756.756,0,0,0,.7.853.653.653,0,0,0,.486-.131.685.685,0,0,1-.489.21c-1.067.024-1.335-1.29-.326-1.806a1.061,1.061,0,0,1,1.174.143,1.463,1.463,0,0,1-1.5,2.441,2.248,2.248,0,0,1-1.5-2.67A7.127,7.127,0,0,1,475.547,198.256Z" transform="translate(-417.184 -175.023)" fill="#65b1ef"/>
    <g id="Group_3215" data-name="Group 3215" transform="translate(5.698 0.364)">
      <path id="Path_6746" data-name="Path 6746" d="M282.237,3.338c-.771,1.687.3,3.506,1.954,3.291a1.807,1.807,0,0,0,1.59-1.657,1.152,1.152,0,0,0-1.536-1.206,1.056,1.056,0,0,0-.583,1.656.645.645,0,0,0,1.1-.484c.015-.437.022-.686.022-.686.094.607.242,1.054-.21,1.47a.918.918,0,0,1-1.138-.015,1.5,1.5,0,0,1,.607-2.473A1.771,1.771,0,0,1,286.438,5a2.418,2.418,0,0,1-2.2,2.194A2.392,2.392,0,0,1,282.237,3.338Z" transform="translate(-252.348 -3.108)" fill="#e84d88"/>
      <path id="Path_6747" data-name="Path 6747" d="M31.352,366.444l-.48-1.845a5.333,5.333,0,0,1,1.134-.519,5.47,5.47,0,0,0,3.133-5.248C37.329,362.063,33.274,366.426,31.352,366.444Z" transform="translate(-30.872 -317.146)" fill="#e84d88"/>
    </g>
    <path id="Path_6748" data-name="Path 6748" d="M481.047,297.443a2.327,2.327,0,0,0-.975.919c-.731-.656-.375-1.744-.169-2.794-.437,1.142-1.02,2.224-.038,3.131a3.229,3.229,0,0,0-.356,1.669,3.368,3.368,0,0,1,.563-1.5,1.631,1.631,0,0,0,1.969-.019A.865.865,0,0,0,481.047,297.443Zm.675,1.069a1.18,1.18,0,0,1-1.406.019,2.354,2.354,0,0,1,.881-.713C481.741,297.593,482.154,298.156,481.722,298.512Z" transform="translate(-421.077 -260.931)" fill="#f29a2e"/>
    <path id="Path_6749" data-name="Path 6749" d="M199.256,361.3a18.262,18.262,0,0,0,7.849-1.77,7.547,7.547,0,0,0-.741-2.533,4.05,4.05,0,0,0-5.436-1.663,6.732,6.732,0,0,1-4.1.448,4.115,4.115,0,0,0-5.059,2.964,7.52,7.52,0,0,0-.1.906A18.312,18.312,0,0,0,199.256,361.3Z" transform="translate(-167.13 -313.306)" fill="#e24b4b"/>
    <path id="Path_6750" data-name="Path 6750" d="M134.31,142.681c0,4.628-3.129,8.376-6.992,8.376s-6.99-3.748-6.99-8.376c0-4.612,3.129-8.361,6.99-8.361S134.31,138.068,134.31,142.681Z" transform="translate(-104.146 -118.579)" fill="#f4c534"/>
    <path id="Path_6751" data-name="Path 6751" d="M134.861,176.274c-1.3-1.5-3.9-2.526-6.907-2.526s-5.6,1.024-6.906,2.526c0-3.144,3.077-5.282,6.906-5.282S134.857,173.13,134.861,176.274Z" transform="translate(-104.782 -150.954)" fill="#3e4347"/>
    <path id="Path_6752" data-name="Path 6752" d="M287.11,142.681c0,4.628-3.129,8.376-6.992,8.376s-6.99-3.748-6.99-8.376c0-4.612,3.129-8.361,6.99-8.361S287.11,138.068,287.11,142.681Z" transform="translate(-239.04 -118.579)" fill="#f4c534"/>
    <g id="Group_3216" data-name="Group 3216" transform="translate(14.484 8.596)">
      <path id="Path_6753" data-name="Path 6753" d="M287.661,176.274c-1.3-1.5-3.9-2.526-6.908-2.526s-5.6,1.024-6.906,2.526c0-3.144,3.077-5.282,6.906-5.282S287.659,173.13,287.661,176.274Z" transform="translate(-254.16 -159.55)" fill="#3e4347"/>
      <path id="Path_6754" data-name="Path 6754" d="M308.867,82.231a1.169,1.169,0,0,1-.988-.542,13.636,13.636,0,0,0-9.619-6,1.169,1.169,0,0,1-1.08-1.256,1.186,1.186,0,0,1,1.256-1.08,15.88,15.88,0,0,1,11.417,7.072,1.172,1.172,0,0,1-.986,1.8Z" transform="translate(-274.755 -73.35)" fill="#3e4347"/>
      <path id="Path_6755" data-name="Path 6755" d="M107.014,82.26a1.171,1.171,0,0,1-.984-1.8,15.864,15.864,0,0,1,11.415-7.072,1.2,1.2,0,0,1,1.254,1.076,1.173,1.173,0,0,1-1.074,1.26,13.756,13.756,0,0,0-9.621,6A1.177,1.177,0,0,1,107.014,82.26Z" transform="translate(-105.843 -73.379)" fill="#3e4347"/>
    </g>
    <path id="Path_6756" data-name="Path 6756" d="M129.816,294.4c3.457,6.6,6.838,6.551,14.833,6.551,8.019,0,11.407.036,14.871-6.613A38.574,38.574,0,0,1,129.816,294.4Z" transform="translate(-112.523 -259.844)" fill="#fff"/>
  </g>
</svg>
