<svg id="post-setting" xmlns="http://www.w3.org/2000/svg" width="20" height="20" viewBox="0 0 20 20">
  <g id="Group_3001" data-name="Group 3001" transform="translate(7.656 7.07)">
    <g id="Group_3000" data-name="Group 3000">
      <path id="Path_6600" data-name="Path 6600" d="M198.344,181a2.344,2.344,0,1,0,2.344,2.344A2.346,2.346,0,0,0,198.344,181Z" transform="translate(-196 -181)" fill="#546de5"/>
    </g>
  </g>
  <g id="Group_3003" data-name="Group 3003">
    <g id="Group_3002" data-name="Group 3002">
      <path id="Path_6601" data-name="Path 6601" d="M19.51,8.25,17.954,8a8.124,8.124,0,0,0-.914-2.2l.895-1.254a.586.586,0,0,0-.062-.755L16.215,2.128a.584.584,0,0,0-.755-.062l-1.254.895A8.123,8.123,0,0,0,12,2.046L11.75.49A.586.586,0,0,0,11.172,0H8.828A.586.586,0,0,0,8.25.49L8,2.046a8.124,8.124,0,0,0-2.2.914L4.54,2.066a.584.584,0,0,0-.755.062L2.128,3.785a.586.586,0,0,0-.062.755l.895,1.254A8.123,8.123,0,0,0,2.046,8L.49,8.25A.586.586,0,0,0,0,8.828v2.344a.586.586,0,0,0,.49.578L2.046,12a8.124,8.124,0,0,0,.914,2.2L2.066,15.46a.586.586,0,0,0,.062.755l1.657,1.657a.588.588,0,0,0,.755.062l1.254-.895a8.123,8.123,0,0,0,2.2.914L8.25,19.51a.586.586,0,0,0,.578.49h2.344a.586.586,0,0,0,.578-.49L12,17.954a8.124,8.124,0,0,0,2.2-.914l1.254.895a.588.588,0,0,0,.755-.062l1.657-1.657a.586.586,0,0,0,.062-.755l-.895-1.254a8.123,8.123,0,0,0,.914-2.2l1.557-.253a.586.586,0,0,0,.49-.578V8.828A.586.586,0,0,0,19.51,8.25ZM10,16.445A6.445,6.445,0,1,1,16.445,10,6.453,6.453,0,0,1,10,16.445Z" fill="#546de5"/>
    </g>
  </g>
  <g id="Group_3005" data-name="Group 3005" transform="translate(6.096 11.63)">
    <g id="Group_3004" data-name="Group 3004">
      <path id="Path_6602" data-name="Path 6602" d="M162.666,297.732a3.468,3.468,0,0,1-5.413,0,4.133,4.133,0,0,0-1.2,1.883,5.209,5.209,0,0,0,7.808,0A4.133,4.133,0,0,0,162.666,297.732Z" transform="translate(-156.055 -297.732)" fill="#546de5"/>
    </g>
  </g>
</svg>
