<svg id="unfollow" xmlns="http://www.w3.org/2000/svg" width="25" height="30" viewBox="0 0 18 18">
  <path id="Path_6691" data-name="Path 6691" d="M15.335,2.665A8.96,8.96,0,1,0,18,9a8.977,8.977,0,0,0-2.665-6.335ZM1.055,9A7.979,7.979,0,0,1,9,1.055a7.9,7.9,0,0,1,5.2,2L3.054,14.2a7.9,7.9,0,0,1-2-5.2ZM9,16.945a7.9,7.9,0,0,1-5.2-2L14.946,3.8a7.9,7.9,0,0,1,2,5.2A7.979,7.979,0,0,1,9,16.945Z" fill="#3c2c81"/>
  <path id="Path_6692" data-name="Path 6692" d="M88.466,75.793,75.795,88.464A8.96,8.96,0,1,0,88.466,75.793ZM82.13,90.074a7.9,7.9,0,0,1-5.2-2L88.076,76.928a7.9,7.9,0,0,1,2,5.2A7.979,7.979,0,0,1,82.13,90.074Z" transform="translate(-73.13 -73.128)" fill="#3c2c81"/>
</svg>
