<svg xmlns="http://www.w3.org/2000/svg" width="20.87" height="20" viewBox="0 0 20.87 20">
  <g id="anonymous" transform="translate(0 -10.667)">
    <g id="Group_3101" data-name="Group 3101" transform="translate(0 23.453)">
      <g id="Group_3100" data-name="Group 3100" transform="translate(0 0)">
        <path id="Path_6667" data-name="Path 6667" d="M17.074,325.142l-2.237-.778a.437.437,0,0,0-.463.117,5.36,5.36,0,0,1-3.939,1.857A5.363,5.363,0,0,1,6.5,324.481a.435.435,0,0,0-.463-.117l-2.237.778A5.655,5.655,0,0,0,0,330.481v.638a.435.435,0,0,0,.435.435h20a.435.435,0,0,0,.435-.435v-.638A5.657,5.657,0,0,0,17.074,325.142Z" transform="translate(0 -324.34)" fill="#aaa"/>
      </g>
    </g>
    <g id="Group_3103" data-name="Group 3103" transform="translate(4.348 10.667)">
      <g id="Group_3102" data-name="Group 3102" transform="translate(0 0)">
        <path id="Path_6668" data-name="Path 6668" d="M117.967,16.023c0-.046,0-.092,0-.138a5.217,5.217,0,1,0-10.435,0c0,.037,0,.076,0,.113a2.321,2.321,0,0,0-.872,2.061c0,1.21.534,2.129,1.25,2.172.79,2.619,2.694,4.35,4.837,4.35s4.046-1.73,4.837-4.35c.717-.043,1.25-.963,1.25-2.172A2.271,2.271,0,0,0,117.967,16.023Zm-.457,3.321a.434.434,0,0,0-.65.264c-.609,2.454-2.258,4.1-4.105,4.1s-3.5-1.649-4.105-4.1a.44.44,0,0,0-.271-.288.4.4,0,0,0-.153-.029.486.486,0,0,0-.253.071c-.109,0-.435-.463-.435-1.3a1.636,1.636,0,0,1,.416-1.3l.013,0a.447.447,0,0,0,.351-.125.436.436,0,0,0,.124-.352l-.012-.109a2.621,2.621,0,0,1-.023-.289,4.348,4.348,0,0,1,8.7,0,2.587,2.587,0,0,1-.023.288l-.012.109a.433.433,0,0,0,.124.352.444.444,0,0,0,.351.126l.013,0a1.636,1.636,0,0,1,.416,1.3C117.971,18.9,117.652,19.363,117.51,19.344Z" transform="translate(-106.667 -10.667)" fill="#aaa"/>
      </g>
    </g>
    <g id="Group_3105" data-name="Group 3105" transform="translate(8.696 14.145)">
      <g id="Group_3104" data-name="Group 3104">
        <path id="Path_6669" data-name="Path 6669" d="M215.072,96a1.664,1.664,0,0,0-1.739,1.739.435.435,0,0,0,.87,0,.87.87,0,1,1,1.739,0,1.323,1.323,0,0,1-.662,1.368,1.878,1.878,0,0,0-1.072,1.742.426.426,0,0,0,.426.361c.017,0,.036,0,.054,0a.441.441,0,0,0,.381-.476c0-.018-.029-.457.665-.881a2.168,2.168,0,0,0,1.077-2.11A1.663,1.663,0,0,0,215.072,96Z" transform="translate(-213.333 -96)" fill="#aaa"/>
      </g>
    </g>
    <g id="Group_3107" data-name="Group 3107" transform="translate(9.565 20.232)">
      <g id="Group_3106" data-name="Group 3106">
        <circle id="Ellipse_217" data-name="Ellipse 217" cx="0.435" cy="0.435" r="0.435" fill="#aaa"/>
      </g>
    </g>
  </g>
</svg>
