<svg id="better-emoji" xmlns="http://www.w3.org/2000/svg" width="60" height="60" viewBox="0 0 60 60">
  <circle id="Ellipse_218" data-name="Ellipse 218" cx="30" cy="30" r="30" fill="#ffd93b"/>
  <path id="Path_6707" data-name="Path 6707" d="M122.739,313.908a18.475,18.475,0,0,1-17.621-12.849,1.406,1.406,0,0,1,2.676-.864,15.7,15.7,0,0,0,29.891,0,1.406,1.406,0,0,1,2.676.864A18.475,18.475,0,0,1,122.739,313.908Z" transform="translate(-92.739 -264.155)" fill="#3e4347"/>
  <path id="Path_6708" data-name="Path 6708" d="M110.073,80.073A30,30,0,0,1,56.72,98.908,30,30,0,0,0,98.908,56.72,29.968,29.968,0,0,1,110.073,80.073Z" transform="translate(-50.073 -50.073)" fill="#f4c534"/>
  <g id="Group_3209" data-name="Group 3209" transform="translate(11.297 18.379)">
    <path id="Path_6709" data-name="Path 6709" d="M110.116,163.552a8.932,8.932,0,0,0-13.716.013,6.859,6.859,0,0,1,13.716-.013Z" transform="translate(-96.4 -156.832)" fill="#3e4347"/>
    <path id="Path_6710" data-name="Path 6710" d="M312.292,163.552a8.932,8.932,0,0,0-13.716.013,6.859,6.859,0,0,1,13.716-.013Z" transform="translate(-274.884 -156.832)" fill="#3e4347"/>
  </g>
</svg>
