<svg id="block" xmlns="http://www.w3.org/2000/svg" width="15" height="15" viewBox="0 0 15 15">
  <path id="Path_6691" data-name="Path 6691" d="M12.779,2.22A7.466,7.466,0,1,0,15,7.5a7.481,7.481,0,0,0-2.221-5.28ZM.879,7.5A6.649,6.649,0,0,1,7.5.879a6.583,6.583,0,0,1,4.333,1.666L2.545,11.833A6.583,6.583,0,0,1,.879,7.5ZM7.5,14.121a6.583,6.583,0,0,1-4.333-1.666l9.288-9.288A6.583,6.583,0,0,1,14.121,7.5,6.649,6.649,0,0,1,7.5,14.121Z" fill="#aaa"/>
  <path id="Path_6692" data-name="Path 6692" d="M86.354,75.793,75.795,86.352A7.466,7.466,0,1,0,86.354,75.793Zm-5.279,11.9a6.583,6.583,0,0,1-4.333-1.666l9.288-9.288A6.583,6.583,0,0,1,87.7,81.073,6.649,6.649,0,0,1,81.074,87.694Z" transform="translate(-73.574 -73.573)" fill="#aaa"/>
</svg>
