<svg xmlns="http://www.w3.org/2000/svg" width="18.954" height="18" viewBox="0 0 18.954 18">
  <g id="celebrate" transform="translate(0 -7.727)">
    <path id="Path_6605" data-name="Path 6605" d="M151.488,109.568a1.372,1.372,0,0,1-.237-1.036l.127-.742-.539-.525-.024-.025c-4.125,3.441-4.594,8.957-4.549,11.665a.194.194,0,0,0,.383.036C147.788,113.4,149.94,110.779,151.488,109.568Z" transform="translate(-137.232 -93.368)" fill="#546de5"/>
    <path id="Path_6606" data-name="Path 6606" d="M73.283,84.86l-1.245.279-.476,1.183c-.009.021-.018.042-.028.063,1.943,2.749,2.955,8.36,3.359,11.187a.128.128,0,0,0,.255-.017A35.814,35.814,0,0,0,73.323,84.85Z" transform="translate(-67.117 -72.361)" fill="#546de5"/>
    <path id="Path_6607" data-name="Path 6607" d="M169.442,231.346l-.176-.243a1.38,1.38,0,0,1-.255-.65,5.385,5.385,0,0,0-4.053,3.633.269.269,0,0,0,.481.225,5.937,5.937,0,0,1,3.9-2.674l0-.009Z" transform="translate(-154.763 -208.975)" fill="#546de5"/>
    <path id="Path_6608" data-name="Path 6608" d="M67.575,206.57a1.383,1.383,0,0,1-.488.423l-.266.138-.037.3a1.4,1.4,0,0,1-.058.26,15.458,15.458,0,0,1,2.488,4.327.179.179,0,0,0,.343-.1A12.6,12.6,0,0,0,67.575,206.57Z" transform="translate(-62.606 -186.565)" fill="#546de5"/>
    <path id="Path_6609" data-name="Path 6609" d="M234.659,67.085l-.237,1.382a.146.146,0,0,0,.213.154l1.241-.652,1.241.652a.146.146,0,0,0,.213-.154l-.237-1.382,1-.979a.147.147,0,0,0-.081-.25l-1.388-.2-.621-1.257a.147.147,0,0,0-.263,0l-.621,1.257-1.388.2a.147.147,0,0,0-.081.25Z" transform="translate(-219.186 -53.095)" fill="#546de5"/>
    <path id="Path_6610" data-name="Path 6610" d="M5.9,11.294a.147.147,0,0,0,.062-.255L4.482,9.8l.181-1.916a.147.147,0,0,0-.224-.138L2.808,8.772,1.041,8.008a.146.146,0,0,0-.2.17l.468,1.867L.037,11.489a.147.147,0,0,0,.1.243l1.92.132.98,1.657a.147.147,0,0,0,.126.072h.011A.147.147,0,0,0,3.3,13.5l.719-1.786Z" transform="translate(0 0)" fill="#546de5"/>
    <path id="Path_6611" data-name="Path 6611" d="M253.8,213.845a.147.147,0,0,0-.1-.118l-.9-.293-.27-.91a.146.146,0,0,0-.116-.1l-.025,0a.147.147,0,0,0-.119.06l-.558.768-.949-.024h0a.147.147,0,0,0-.118.233l.558.768-.316.9a.147.147,0,0,0,.184.188l.9-.294.754.577a.146.146,0,0,0,.236-.116v-.949l.782-.538A.147.147,0,0,0,253.8,213.845Z" transform="translate(-235.137 -192.053)" fill="#546de5"/>
    <path id="Path_6612" data-name="Path 6612" d="M17.335,169.492a.147.147,0,0,0-.006-.263l-.86-.4-.156-.936a.146.146,0,0,0-.252-.076l-.648.694-.939-.141-.022,0a.147.147,0,0,0-.128.217l.459.831-.424.849a.147.147,0,0,0,.131.212l.028,0,.932-.18.677.665a.147.147,0,0,0,.248-.086l.117-.942Z" transform="translate(-13.423 -150.16)" fill="#546de5"/>
    <path id="Path_6613" data-name="Path 6613" d="M140.078,57.6l-.114-.277-.293-.063a1.382,1.382,0,0,1-.582-.279,13.027,13.027,0,0,0-.455,6.123.132.132,0,0,0,.263,0,16.118,16.118,0,0,1,1.306-5.265A1.393,1.393,0,0,1,140.078,57.6Z" transform="translate(-129.938 -46.211)" fill="#546de5"/>
    <path id="Path_6614" data-name="Path 6614" d="M160.669,10.137l.1.944-.724.614a.147.147,0,0,0,.064.255l.928.2.361.878a.146.146,0,0,0,.125.091h.01a.147.147,0,0,0,.127-.073l.478-.82.946-.072a.147.147,0,0,0,.1-.244l-.633-.708.224-.922a.147.147,0,0,0-.2-.169l-.868.383-.808-.5a.147.147,0,0,0-.223.139Z" transform="translate(-150.111 -2.11)" fill="#546de5"/>
  </g>
</svg>
