<svg id="click-to-flip" xmlns="http://www.w3.org/2000/svg" width="14.719" height="14" viewBox="0 0 14.719 14">
  <g id="Group_2937" data-name="Group 2937">
    <path id="Path_6624" data-name="Path 6624" d="M71.3,277.5c.338-.336.641-.643.949-.942a.737.737,0,1,1,1.031,1.053c-.509.515-1.023,1.025-1.535,1.537-.211.211-.421.424-.634.633a.73.73,0,0,1-1.088,0q-1.082-1.075-2.158-2.157a.738.738,0,1,1,1.044-1.042c.294.291.585.585.877.877a.254.254,0,0,0,.047.014v-.2q0-4.292,0-8.584a2.57,2.57,0,0,1,1.668-2.462,3.039,3.039,0,0,1,.906-.178c.6-.028,1.206-.015,1.81-.007a.735.735,0,1,1,.018,1.47c-.58,0-1.161,0-1.741,0A1.145,1.145,0,0,0,71.3,268.7q0,4.31,0,8.619Z" transform="translate(-67.622 -266.023)" fill="#546de5"/>
    <path id="Path_6625" data-name="Path 6625" d="M114.35,268.538c-.063.059-.1.095-.143.134-.276.276-.545.561-.829.828a.734.734,0,0,1-1.041-1.032q1.121-1.145,2.267-2.267a.69.69,0,0,1,.971,0q1.146,1.121,2.267,2.267a.734.734,0,0,1-1.047,1.028c-.279-.265-.545-.544-.817-.816-.04-.04-.081-.078-.154-.146v.233q0,4.275,0,8.55a2.575,2.575,0,0,1-1.657,2.487,2.99,2.99,0,0,1-.9.183c-.608.028-1.218.016-1.827.007a.733.733,0,0,1-.678-1.063.711.711,0,0,1,.67-.407c.58,0,1.161,0,1.741,0a1.143,1.143,0,0,0,1.189-1.183q0-4.318,0-8.636C114.357,268.656,114.353,268.613,114.35,268.538Z" transform="translate(-103.32 -266)" fill="#546de5"/>
  </g>
</svg>
