<svg xmlns="http://www.w3.org/2000/svg" width="21" height="18.384" viewBox="0 0 21 18.384">
  <g id="comment-grey" transform="translate(0 -21.4)">
    <path id="Path_2907" data-name="Path 2907" d="M25.529,32.2a2.838,2.838,0,0,0-2.787-2.4H10.836A2.838,2.838,0,0,0,8,32.636v5.525a2.828,2.828,0,0,0,2.469,2.811Z" transform="translate(-7.511 -7.887)" fill="#e9e9e9"/>
    <path id="Path_2909" data-name="Path 2909" d="M57.2,79.8,52.238,83.61V79.8h-1A2.838,2.838,0,0,1,48.4,76.961V71.436A2.838,2.838,0,0,1,51.236,68.6H63.117a2.838,2.838,0,0,1,2.836,2.836v5.525A2.838,2.838,0,0,1,63.117,79.8Z" transform="translate(-45.442 -44.315)" fill="#e9e9e9"/>
    <g id="Group_2843" data-name="Group 2843" transform="translate(0 21.4)">
      <path id="Path_2911" data-name="Path 2911" d="M18.433,23.894a3.345,3.345,0,0,0-3.2-2.494H3.325A3.328,3.328,0,0,0,0,24.725V30.25a3.3,3.3,0,0,0,2.591,3.227A3.358,3.358,0,0,0,5.818,35.97h.489V39.3a.462.462,0,0,0,.269.44.714.714,0,0,0,.22.049.427.427,0,0,0,.293-.1l4.816-3.716h5.769A3.328,3.328,0,0,0,21,32.646V27.121A3.327,3.327,0,0,0,18.433,23.894ZM1,30.25V24.725a2.348,2.348,0,0,1,2.347-2.347H15.231A2.367,2.367,0,0,1,17.382,23.8H5.818a3.328,3.328,0,0,0-3.325,3.325V32.4A2.308,2.308,0,0,1,1,30.25Zm19.02,2.4a2.348,2.348,0,0,1-2.347,2.347H11.759a.427.427,0,0,0-.293.1l-4.156,3.2V35.481a.49.49,0,0,0-.489-.489h-1a2.348,2.348,0,0,1-2.347-2.347V27.121a2.348,2.348,0,0,1,2.347-2.347H17.7a2.348,2.348,0,0,1,2.347,2.347v5.525Z" transform="translate(0 -21.4)" fill="#aaa"/>
      <path id="Path_2912" data-name="Path 2912" d="M111.834,112.6H101.689a.489.489,0,0,0,0,.978H111.81a.49.49,0,0,0,.489-.489A.456.456,0,0,0,111.834,112.6Z" transform="translate(-95.015 -107.026)" fill="#aaa"/>
      <path id="Path_2913" data-name="Path 2913" d="M111.834,148.2H101.689a.489.489,0,1,0,0,.978H111.81a.49.49,0,0,0,.489-.489A.456.456,0,0,0,111.834,148.2Z" transform="translate(-95.015 -140.45)" fill="#aaa"/>
      <path id="Path_2914" data-name="Path 2914" d="M111.834,183.4H101.689a.489.489,0,1,0,0,.978H111.81a.49.49,0,0,0,.489-.489A.456.456,0,0,0,111.834,183.4Z" transform="translate(-95.015 -173.499)" fill="#aaa"/>
    </g>
  </g>
</svg>
