<svg id="default-notification-image" xmlns="http://www.w3.org/2000/svg" width="40" height="40" viewBox="0 0 40 40">
  <circle id="Ellipse_215" data-name="Ellipse 215" cx="20" cy="20" r="20" fill="#f1f1f1"/>
  <g id="Group_3467" data-name="Group 3467" transform="translate(12 12)">
    <g id="Group_3466" data-name="Group 3466">
      <path id="Path_6728" data-name="Path 6728" d="M108.336,105.882a.47.47,0,1,0-.623-.7A7.962,7.962,0,0,0,105,111.155a.471.471,0,0,0,.941,0,7.025,7.025,0,0,1,2.4-5.273Zm9.95-.7a.47.47,0,1,0-.623.7,7.026,7.026,0,0,1,2.4,5.273.471.471,0,0,0,.941,0A7.961,7.961,0,0,0,118.286,105.179Zm-10.933,6.445a.47.47,0,0,0,.471-.469,5.145,5.145,0,0,1,1.809-3.913.47.47,0,1,0-.613-.711,6.08,6.08,0,0,0-2.138,4.625A.47.47,0,0,0,107.353,111.624Zm9.627-5.093a.47.47,0,1,0-.613.711,5.145,5.145,0,0,1,1.809,3.913.471.471,0,0,0,.941,0A6.08,6.08,0,0,0,116.98,106.531ZM113,121a1.414,1.414,0,0,0,1.331-.937h-2.662A1.414,1.414,0,0,0,113,121Zm4.235-6.87v-2.973a4.231,4.231,0,0,0-3.765-4.193v-1.495a.471.471,0,0,0-.941,0v1.495a4.231,4.231,0,0,0-3.765,4.193v2.973a5.882,5.882,0,0,1-1.744,4.2.469.469,0,0,0,.333.8h11.294a.469.469,0,0,0,.333-.8A5.883,5.883,0,0,1,117.235,114.129Z" transform="translate(-105 -104.999)" fill="#aaa"/>
    </g>
  </g>
</svg>
