<?xml version="1.0" encoding="utf-8"?>
<!-- Generator: Adobe Illustrator 23.0.3, SVG Export Plug-In . SVG Version: 6.00 Build 0)  -->
<svg version="1.1" id="Layer_1" xmlns="http://www.w3.org/2000/svg" xmlns:xlink="http://www.w3.org/1999/xlink" x="0px" y="0px"
	 viewBox="0 0 20 11.7" style="enable-background:new 0 0 20 11.7;" xml:space="preserve">
<style type="text/css">
	.st0{fill:#E9E9E9;}
	.st1{fill:#AAAAAA;}
</style>
<g id="not-helpful-grey" transform="translate(-54.318 -237.049)">
	<g id="Group_2824" transform="translate(54.818 237.549)">
		<g id="Path_6554">
			<path class="st0" d="M17.8,0H1.2C0.5,0,0,0.5,0,1.2C0,1.5,0.1,1.8,0.4,2l8.3,8.3c0.4,0.5,1.2,0.5,1.6,0c0,0,0,0,0,0L18.6,2
				c0.5-0.5,0.5-1.2,0-1.7C18.4,0.1,18.1,0,17.8,0z"/>
			<path class="st1" d="M9.5,11.2C9.5,11.2,9.5,11.2,9.5,11.2c-0.5,0-0.9-0.2-1.2-0.5L0,2.4c-0.3-0.3-0.5-0.8-0.5-1.2
				C-0.5,0.7-0.3,0.3,0,0c0.3-0.3,0.7-0.5,1.2-0.5c0,0,0,0,0,0h16.6c0.4,0,0.9,0.2,1.2,0.5c0.7,0.7,0.7,1.7,0,2.4l-8.3,8.3
				C10.3,11,9.9,11.2,9.5,11.2z M1.2,0.5C1,0.5,0.8,0.6,0.7,0.7C0.6,0.8,0.5,1,0.5,1.2s0.1,0.4,0.2,0.5L9,10
				c0.1,0.1,0.3,0.2,0.5,0.2c0.2,0,0.3-0.1,0.5-0.2l8.3-8.3c0.3-0.3,0.3-0.7,0-1c-0.1-0.1-0.3-0.2-0.5-0.2H1.2
				C1.2,0.5,1.2,0.5,1.2,0.5z"/>
		</g>
	</g>
</g>
</svg>
