<svg xmlns="http://www.w3.org/2000/svg" width="18.194" height="18" viewBox="0 0 18.194 18">
  <g id="dropbox" transform="translate(-570 -440)">
    <g id="Group_3056" data-name="Group 3056" transform="translate(570 440)">
      <g id="Group_3055" data-name="Group 3055" transform="translate(0 0)">
        <path id="Path_6652" data-name="Path 6652" d="M4.549,2.73,0,6.066,4.549,9.4,9.1,6.066Z" transform="translate(0 -2.73)" fill="#ea2e7e"/>
      </g>
    </g>
    <g id="Group_3058" data-name="Group 3058" transform="translate(570 446.671)">
      <g id="Group_3057" data-name="Group 3057">
        <path id="Path_6653" data-name="Path 6653" d="M4.549,190.465,0,193.8l4.549,3.336L9.1,193.8Z" transform="translate(0 -190.465)" fill="#ea2e7e"/>
      </g>
    </g>
    <g id="Group_3060" data-name="Group 3060" transform="translate(579.097 446.671)">
      <g id="Group_3059" data-name="Group 3059">
        <path id="Path_6654" data-name="Path 6654" d="M260.548,190.465,256,193.8l4.548,3.336L265.1,193.8Z" transform="translate(-256 -190.465)" fill="#ea2e7e"/>
      </g>
    </g>
    <g id="Group_3062" data-name="Group 3062" transform="translate(579.097 440)">
      <g id="Group_3061" data-name="Group 3061" transform="translate(0 0)">
        <path id="Path_6655" data-name="Path 6655" d="M260.548,2.73,256,6.066,260.548,9.4,265.1,6.066Z" transform="translate(-256 -2.73)" fill="#ea2e7e"/>
      </g>
    </g>
    <g id="Group_3064" data-name="Group 3064" transform="translate(574.549 451.329)">
      <g id="Group_3063" data-name="Group 3063">
        <path id="Path_6656" data-name="Path 6656" d="M132.549,321.535,128,324.871l4.549,3.336,4.549-3.336Z" transform="translate(-128 -321.535)" fill="#ea2e7e"/>
      </g>
    </g>
  </g>
</svg>
