<svg xmlns="http://www.w3.org/2000/svg" width="18" height="18" viewBox="0 0 18 18">
  <g id="emoji" transform="translate(-569 -11854.321)">
    <path id="Path_6560" data-name="Path 6560" d="M68,102.321a9,9,0,1,0,9,9A9.01,9.01,0,0,0,68,102.321ZM68,119a7.682,7.682,0,1,1,7.682-7.682A7.691,7.691,0,0,1,68,119Z" transform="translate(510 11752)" fill="#546de5"/>
    <path id="Path_6561" data-name="Path 6561" d="M177.241,341.8a.659.659,0,0,0-.929.071,3.952,3.952,0,0,1-6,0,.659.659,0,1,0-1,.858,5.27,5.27,0,0,0,8,0A.659.659,0,0,0,177.241,341.8Z" transform="translate(404.689 11523.197)" fill="#546de5"/>
    <path id="Path_6562" data-name="Path 6562" d="M166.225,232.206a.659.659,0,0,0,.659-.659.383.383,0,0,1,.766,0,.659.659,0,1,0,1.318,0,1.7,1.7,0,1,0-3.4,0A.659.659,0,0,0,166.225,232.206Z" transform="translate(408.116 11630.078)" fill="#546de5"/>
    <path id="Path_6563" data-name="Path 6563" d="M286.37,229.847a1.7,1.7,0,0,0-1.7,1.7.659.659,0,1,0,1.318,0,.383.383,0,0,1,.766,0,.659.659,0,0,0,1.318,0A1.7,1.7,0,0,0,286.37,229.847Z" transform="translate(294.246 11630.077)" fill="#546de5"/>
  </g>
</svg>
