<svg xmlns="http://www.w3.org/2000/svg" width="23.448" height="24" viewBox="0 0 23.448 24">
  <g id="Event" transform="translate(-10529 -1026)">
    <path id="Path_170" data-name="Path 170" d="M10544.176,1073.739v18.854l1.123,1.123h19.631l1.533-1.533v-18.042l-1.533-1.533h-19.4Z" transform="translate(-14.464 -44.423)" fill="#fff"/>
    <g id="calendar_1_" data-name="calendar (1)" transform="translate(10529 1026)">
      <path id="Path_166" data-name="Path 166" d="M135.731,211.067a5.626,5.626,0,1,0-5.626-5.626A5.632,5.632,0,0,0,135.731,211.067Zm0-9.834a4.208,4.208,0,1,1-4.208,4.208,4.213,4.213,0,0,1,4.208-4.208Zm0,0" transform="translate(-124.006 -190.45)" fill="#1ae2bc"/>
      <path id="Path_167" data-name="Path 167" d="M21.157,1.509H19.864v-.8a.709.709,0,1,0-1.417,0v.8H17.054v-.8a.709.709,0,0,0-1.417,0v.8H7.812v-.8a.709.709,0,0,0-1.417,0v.8H5v-.8a.709.709,0,0,0-1.417,0v.8H2.292A2.294,2.294,0,0,0,0,3.8V21.708A2.294,2.294,0,0,0,2.292,24H21.157a2.294,2.294,0,0,0,2.292-2.292V3.8a2.294,2.294,0,0,0-2.292-2.292Zm.874,20.2a.875.875,0,0,1-.874.875H2.292a.876.876,0,0,1-.875-.875V7.4H22.031ZM1.417,3.8a.876.876,0,0,1,.875-.875H3.584v.8A.709.709,0,0,0,5,3.727v-.8H6.394v.8a.709.709,0,0,0,1.417,0v-.8h7.825v.8a.709.709,0,0,0,1.417,0v-.8h1.393v.8a.709.709,0,0,0,1.417,0v-.8h1.292a.876.876,0,0,1,.875.875V5.984H1.417Zm0,0" transform="translate(0 0)" fill="#185aeb"/>
    </g>
    <g id="pin" transform="translate(10538.829 1038.289)">
      <path id="Path_168" data-name="Path 168" d="M83.485.941A1.866,1.866,0,0,0,81.9,0h-.085A1.866,1.866,0,0,0,80.23.941a1.914,1.914,0,0,0-.025,1.891l1.363,2.5,0,0a.331.331,0,0,0,.575,0l0,0,1.363-2.5A1.914,1.914,0,0,0,83.485.941ZM81.858,2.49a.773.773,0,1,1,.773-.773A.774.774,0,0,1,81.858,2.49Z" transform="translate(-79.968 0)" fill="#ea2e7e"/>
    </g>
  </g>
</svg>
