<svg xmlns="http://www.w3.org/2000/svg" width="26" height="28" viewBox="0 0 16.092 18">
  <g id="improve-feed" transform="translate(-19.8)">
    <g id="Group_3158" data-name="Group 3158" transform="translate(19.8)">
      <path id="Path_6694" data-name="Path 6694" d="M35.405,0H20.287A.505.505,0,0,0,19.8.506V3.6a.181.181,0,0,0,0,.048s0,.014,0,.019,0,.014,0,.024,0,.014,0,.024,0,.014,0,.019,0,.019.01.024,0,.01,0,.019,0,.014.01.024,0,.01.01.019.01.014.01.019,0,.014.01.019.01.014.014.019.01.014.014.019a.067.067,0,0,1,.014.019s.01,0,.01.01l5.507,6v7.588a.485.485,0,0,0,.275.438.477.477,0,0,0,.2.043.467.467,0,0,0,.313-.116l3.864-3.291a.467.467,0,0,0,.164-.366V9.93l5.5-6.008.01-.01a190.134,190.134,0,0,1,.029-.039.066.066,0,0,1,.014-.019.037.037,0,0,0,.01-.019s.01-.014.014-.019,0-.01.01-.019.01-.014.01-.024,0-.01,0-.019,0-.014.01-.024,0-.014,0-.019,0-.014,0-.024,0-.014,0-.024,0-.014,0-.019,0-.029,0-.048V.5A.5.5,0,0,0,35.405,0ZM29.422,9.424a.461.461,0,0,0-.13.318V14L26.4,16.473V9.742a.461.461,0,0,0-.13-.318L21.38,4.1H34.312Zm5.507-6.292H20.764V.964H34.928Z" transform="translate(-19.8)" fill="#1ae2bc"/>
    </g>
  </g>
</svg>
