<svg xmlns="http://www.w3.org/2000/svg" width="9.484" height="14" viewBox="0 0 9.484 14">
  <g id="professor" transform="translate(-80)">
    <g id="Group_2804" data-name="Group 2804" transform="translate(83.839 6.097)">
      <g id="Group_2803" data-name="Group 2803" transform="translate(0)">
        <path id="Path_6546" data-name="Path 6546" d="M217.355,216a.452.452,0,0,1-.9,0H216a.9.9,0,0,0,1.806,0Z" transform="translate(-216 -216)" fill="#1ae2bc"/>
      </g>
    </g>
    <g id="Group_2806" data-name="Group 2806" transform="translate(80)">
      <g id="Group_2805" data-name="Group 2805" transform="translate(0)">
        <path id="Path_6547" data-name="Path 6547" d="M88.4,8.961,86.1,8.192V7.724a2.506,2.506,0,0,0,.606-.56,3.98,3.98,0,0,0,1.427-3.057v-.72a3.387,3.387,0,1,0-6.774,0v.589a1.8,1.8,0,1,0,1.5,3.277,2.5,2.5,0,0,0,.535.471v.468l-2.306.769A1.579,1.579,0,0,0,80,10.46V14h9.484V10.46A1.579,1.579,0,0,0,88.4,8.961Zm-2.14-.237-.491,1.471-.711-.711.871-.871Zm-.485,2.115H83.706L84.742,9.8ZM83.839,8.261v-.3a2.451,2.451,0,0,0,1.806,0v.3l-.9.9Zm2.935-3.745h-.042a.676.676,0,0,0-.636-.452h-.452a.676.676,0,0,0-.636.452h-.535a.677.677,0,0,0-.636-.452h-.452a.677.677,0,0,0-.636.452H82.71V4.065h.226a2.5,2.5,0,0,0,1.806-.779,2.5,2.5,0,0,0,1.806.779h.226Zm-.452.226a.226.226,0,0,1-.226.226h-.452a.226.226,0,1,1,0-.452H86.1A.226.226,0,0,1,86.323,4.742Zm-2.258,0a.226.226,0,0,1-.226.226h-.452a.226.226,0,1,1,0-.452h.452A.226.226,0,0,1,84.065,4.742ZM81.806,3.387a2.935,2.935,0,0,1,5.871,0v.72a3.528,3.528,0,0,1-.462,1.741c.006-.067.01-.135.01-.2V3.387h-.452v.226h-.226A2.042,2.042,0,0,1,84.923,2.8l-.181-.241-.181.241a2.042,2.042,0,0,1-1.626.813H82.71V3.387h-.452V5.645c0,.069,0,.136.01.2a3.528,3.528,0,0,1-.462-1.741ZM82.032,7a1.352,1.352,0,0,1-.658-2.535A3.971,3.971,0,0,0,82.508,6.91,1.349,1.349,0,0,1,82.032,7Zm.677-1.355V4.968h.042a.676.676,0,0,0,.636.452h.452a.676.676,0,0,0,.636-.452h.535a.677.677,0,0,0,.636.452H86.1a.677.677,0,0,0,.636-.452h.041v.677a2.032,2.032,0,1,1-4.065,0Zm.842,2.968.871.871-.711.711-.491-1.471Zm-3.1,4.935V10.46a1.128,1.128,0,0,1,.772-1.071l1.569-.523.657,1.972H82.258v1.806h-.452V10.387h-.452V13.1h1.806a.677.677,0,0,1,.636.452Zm4.765,0h-.949a1.131,1.131,0,0,0-1.106-.9H82.71V11.29h4.065v1.355h-.452A1.131,1.131,0,0,0,85.216,13.548Zm3.816,0H85.687a.677.677,0,0,1,.636-.452h1.806v-2.71h-.452v2.258h-.452V10.839H86.034l.657-1.972,1.569.523a1.128,1.128,0,0,1,.772,1.071Z" transform="translate(-80)" fill="#1ae2bc"/>
      </g>
    </g>
  </g>
</svg>
