<svg id="Textbook" xmlns="http://www.w3.org/2000/svg" width="19.426" height="24" viewBox="0 0 19.426 24">
  <g id="Rectangle_72" data-name="Rectangle 72" transform="translate(1.426)">
    <g id="Group_167" data-name="Group 167">
      <rect id="Rectangle_83" data-name="Rectangle 83" width="18" height="24" rx="7" fill="#fff"/>
    </g>
    <g id="Group_168" data-name="Group 168" transform="translate(0 0)">
      <path id="Path_118" data-name="Path 118" d="M790.106,423.742H777.249a2.574,2.574,0,0,1-2.571-2.572V402.313a2.574,2.574,0,0,1,2.571-2.571h12.857a2.574,2.574,0,0,1,2.571,2.571V421.17A2.574,2.574,0,0,1,790.106,423.742Zm-12.857-22.571a1.144,1.144,0,0,0-1.143,1.143V421.17a1.144,1.144,0,0,0,1.143,1.143h12.857a1.144,1.144,0,0,0,1.143-1.143V402.313a1.144,1.144,0,0,0-1.143-1.143Z" transform="translate(-774.677 -399.742)" fill="#185aeb"/>
    </g>
  </g>
  <g id="Group_138" data-name="Group 138" transform="translate(0 6.429)">
    <g id="Line_18" data-name="Line 18">
      <path id="Path_119" data-name="Path 119" d="M770.2,438.736h-3.137a.714.714,0,0,1,0-1.429H770.2a.714.714,0,1,1,0,1.429Z" transform="translate(-766.345 -437.307)" fill="#185aeb"/>
    </g>
    <g id="Line_18-2" data-name="Line 18-2" transform="translate(0 4.798)">
      <path id="Path_120" data-name="Path 120" d="M770.2,466.773h-3.137a.714.714,0,1,1,0-1.428H770.2a.714.714,0,1,1,0,1.428Z" transform="translate(-766.345 -465.345)" fill="#185aeb"/>
    </g>
    <g id="Line_18-3" data-name="Line 18-3" transform="translate(0 9.596)">
      <path id="Path_121" data-name="Path 121" d="M770.2,494.811h-3.137a.714.714,0,0,1,0-1.429H770.2a.714.714,0,1,1,0,1.429Z" transform="translate(-766.345 -493.382)" fill="#185aeb"/>
    </g>
  </g>
  <g id="Rectangle_73" data-name="Rectangle 73" transform="translate(6.569 4.571)">
    <rect id="Rectangle_84" data-name="Rectangle 84" width="7.714" height="5.143" rx="2.571" fill="#ea2e7e"/>
  </g>
  <g id="Group_144" data-name="Group 144" transform="translate(5.854 14.653)">
    <g id="Line_24" data-name="Line 24">
      <path id="Path_122" data-name="Path 122" d="M808.984,486.8H801.27a.714.714,0,0,1,0-1.429h7.714a.714.714,0,0,1,0,1.429Z" transform="translate(-800.555 -485.37)" fill="#1ae2bc"/>
    </g>
    <g id="Line_25" data-name="Line 25" transform="translate(1.378 2.765)">
      <path id="Path_123" data-name="Path 123" d="M814.28,502.958H809.32a.714.714,0,1,1,0-1.429h4.959a.714.714,0,0,1,0,1.429Z" transform="translate(-808.606 -501.529)" fill="#1ae2bc"/>
    </g>
  </g>
</svg>
