<?xml version="1.0" encoding="utf-8"?>
<!-- Generator: Adobe Illustrator 23.0.3, SVG Export Plug-In . SVG Version: 6.00 Build 0)  -->
<svg version="1.1" id="Layer_1" xmlns="http://www.w3.org/2000/svg" xmlns:xlink="http://www.w3.org/1999/xlink" x="0px" y="0px"
	 viewBox="0 0 20 11.7" style="enable-background:new 0 0 20 11.7;" xml:space="preserve">
<style type="text/css">
	.st0{fill:#E9E9E9;}
	.st1{fill:#AAAAAA;}
</style>
<g id="helpfu-grey">
	<path class="st0" d="M1.7,11.2h16.6c0.7,0,1.2-0.5,1.2-1.2c0-0.3-0.1-0.6-0.4-0.8l-8.3-8.3c-0.4-0.5-1.2-0.5-1.6,0c0,0,0,0,0,0
		L0.9,9.2c-0.5,0.5-0.5,1.2,0,1.7C1.1,11.1,1.4,11.2,1.7,11.2L1.7,11.2z"/>
	<path class="st1" d="M18.3,11.7C18.3,11.7,18.3,11.7,18.3,11.7H1.7c-0.4,0-0.9-0.2-1.2-0.5C0.2,10.9,0,10.5,0,10
		c0-0.5,0.2-0.9,0.5-1.2l8.3-8.3c0.7-0.7,1.7-0.7,2.4,0l8.3,8.3C19.8,9.1,20,9.6,20,10c0,0.4-0.2,0.9-0.5,1.2
		C19.2,11.5,18.8,11.7,18.3,11.7z M1.7,10.7h16.6c0,0,0,0,0,0c0.2,0,0.4-0.1,0.5-0.2c0.1-0.1,0.2-0.3,0.2-0.5c0-0.2-0.1-0.4-0.2-0.5
		l-8.3-8.3C10.4,1.1,10.2,1,10,1C9.8,1,9.7,1.1,9.5,1.2L1.2,9.5C1.1,9.6,1,9.8,1,10c0,0.2,0.1,0.4,0.2,0.5
		C1.3,10.6,1.5,10.7,1.7,10.7z"/>
</g>
</svg>
