<svg xmlns="http://www.w3.org/2000/svg" width="25" height="25" viewBox="0 0 14.344 18">
  <g id="who-can-see" transform="translate(-52)">
    <g id="Group_3160" data-name="Group 3160" transform="translate(52)">
      <g id="Group_3159" data-name="Group 3159">
        <path id="Path_6695" data-name="Path 6695" d="M64.234,6.609H62.967V3.718a3.8,3.8,0,0,0-7.594,0V6.609H54.109A2.112,2.112,0,0,0,52,8.719v7.172A2.112,2.112,0,0,0,54.109,18H64.234a2.112,2.112,0,0,0,2.109-2.109V8.719A2.112,2.112,0,0,0,64.234,6.609ZM56.78,3.718a2.392,2.392,0,0,1,4.781,0V6.609H56.78Zm8.158,12.172a.7.7,0,0,1-.7.7H54.109a.7.7,0,0,1-.7-.7V8.719a.7.7,0,0,1,.7-.7H64.234a.7.7,0,0,1,.7.7Z" transform="translate(-52)" fill="#ea2e7e"/>
      </g>
    </g>
    <g id="Group_3162" data-name="Group 3162" transform="translate(57.871 10.055)">
      <g id="Group_3161" data-name="Group 3161">
        <path id="Path_6696" data-name="Path 6696" d="M220.3,286a1.3,1.3,0,0,0-.7,2.394v1.543a.7.7,0,0,0,1.406,0V288.4a1.3,1.3,0,0,0-.7-2.4Z" transform="translate(-219 -286)" fill="#ea2e7e"/>
      </g>
    </g>
  </g>
</svg>
