<svg id="youtube" xmlns="http://www.w3.org/2000/svg" width="30" height="30" viewBox="0 0 30 30">
  <path id="Path_3" data-name="Path 3" d="M224.113,213.66l4.879-2.81-4.879-2.81Zm0,0" transform="translate(-210.981 -195.849)" fill="#aaa"/>
  <path id="Path_4" data-name="Path 4" d="M27.837,0H2.164A2.164,2.164,0,0,0,0,2.164V27.836A2.164,2.164,0,0,0,2.164,30H27.837A2.164,2.164,0,0,0,30,27.836V2.164A2.164,2.164,0,0,0,27.837,0ZM24.373,15.015a24.757,24.757,0,0,1-.386,4.509,2.349,2.349,0,0,1-1.652,1.652A57.012,57.012,0,0,1,15,21.563a54.972,54.972,0,0,1-7.335-.4,2.349,2.349,0,0,1-1.652-1.652A24.648,24.648,0,0,1,5.627,15a24.741,24.741,0,0,1,.386-4.509A2.4,2.4,0,0,1,7.666,8.824,57.012,57.012,0,0,1,15,8.438a54.855,54.855,0,0,1,7.335.4,2.349,2.349,0,0,1,1.652,1.652,23.494,23.494,0,0,1,.386,4.524Zm0,0" transform="translate(0)" fill="#aaa"/>
</svg>
