<svg xmlns="http://www.w3.org/2000/svg" width="16.028" height="18" viewBox="0 0 16.028 18">
  <g id="attachment" transform="translate(-28.042 0)">
    <g id="Group_3487" data-name="Group 3487" transform="translate(28.042 0)">
      <path id="Path_6733" data-name="Path 6733" d="M42.759,1.311a4.489,4.489,0,0,0-6.341,0L29.741,7.988a.527.527,0,0,0,.746.746l6.677-6.677a3.512,3.512,0,0,1,4.849,0,3.433,3.433,0,0,1,0,4.849L32.69,16.334a2.16,2.16,0,0,1-2.984,0,2.112,2.112,0,0,1,0-2.984l8.95-9.055a.81.81,0,0,1,1.119,0,.793.793,0,0,1,0,1.119L31.2,14.1a.588.588,0,0,0,0,.746.527.527,0,0,0,.746,0L40.52,6.16a1.848,1.848,0,0,0,0-2.611,1.891,1.891,0,0,0-2.611,0L28.96,12.6a3.186,3.186,0,0,0,0,4.475,3.182,3.182,0,0,0,4.476,0l9.323-9.428A4.488,4.488,0,0,0,42.759,1.311Z" transform="translate(-28.042 0)" fill="#185aeb"/>
    </g>
  </g>
</svg>
