<?xml version="1.0" encoding="utf-8"?>
<!-- Generator: Adobe Illustrator 23.0.3, SVG Export Plug-In . SVG Version: 6.00 Build 0)  -->
<svg version="1.1" id="Layer_1" xmlns="http://www.w3.org/2000/svg" xmlns:xlink="http://www.w3.org/1999/xlink" x="0px" y="0px"
	 viewBox="0 0 100 100" style="enable-background:new 0 0 100 100;" xml:space="preserve">
<style type="text/css">
	.st0{fill:#E6E6FE;}
	.st1{fill:#546DE5;}
</style>
<g id="collaboration" transform="translate(-776 -3881)">
	<g id="Path_2788">
		<path class="st0" d="M826,3881c27.6,0,50,22.4,50,50s-22.4,50-50,50s-50-22.4-50-50S798.4,3881,826,3881z"/>
	</g>
	<g id="together" transform="translate(803 3908)">
		<g id="Group_351" transform="translate(0 0)">
			<g id="Group_350" transform="translate(0 0)">
				<g id="Path_2801">
					<path class="st1" d="M46,34.4L45.1,30c-0.3-1.7-1.2-3.3-2.4-4.6L41.2,24v-5.1c1.3-0.5,1.9-1.9,1.5-3.2c1.3-0.4,2.1-1.8,1.7-3.1
						c0-0.1,0-0.1-0.1-0.2c1.3-0.5,2-1.9,1.6-3.2c-0.3-0.7-0.8-1.3-1.6-1.6c0.5-1.3-0.2-2.8-1.5-3.2c-0.3-0.1-0.6-0.2-0.9-0.2h-5.1
						c0.9-1.1,0.8-2.7-0.3-3.6c-0.6-0.5-1.4-0.7-2.1-0.5L30,0.9c-1.7,0.3-3.3,1.2-4.6,2.4L24,4.8h-5.1c-0.5-1.3-1.9-1.9-3.2-1.5
						c-0.4-1.3-1.8-2.1-3.1-1.7c-0.1,0-0.1,0-0.2,0.1c-0.5-1.3-1.9-2-3.2-1.6C8.4,0.4,7.9,1,7.6,1.7C6.3,1.2,4.8,1.9,4.4,3.2
						C4.3,3.5,4.2,3.8,4.2,4.1v5.1C3.1,8.2,1.5,8.4,0.6,9.5c-0.5,0.6-0.7,1.4-0.5,2.1L0.9,16c0.3,1.7,1.2,3.3,2.4,4.6L4.8,22v5.1
						c-1.3,0.5-1.9,1.9-1.5,3.2c-1.3,0.4-2.1,1.8-1.7,3.1c0,0.1,0,0.1,0.1,0.2c-1.3,0.5-2,1.9-1.6,3.2c0.3,0.7,0.8,1.3,1.6,1.6
						c-0.5,1.3,0.2,2.8,1.5,3.2c0.3,0.1,0.6,0.2,0.9,0.2h5.1c-0.9,1.1-0.8,2.7,0.3,3.6c0.5,0.4,1,0.6,1.6,0.6c0.2,0,0.3,0,0.5,0
						l4.3-0.9c1.7-0.3,3.3-1.2,4.6-2.4l1.5-1.5h5.1c0.5,1.3,1.9,1.9,3.2,1.5c0.4,1.3,1.8,2.1,3.1,1.7c0.1,0,0.1,0,0.2-0.1
						c0.5,1.3,1.9,2,3.2,1.6c0.7-0.3,1.3-0.8,1.6-1.6c1.3,0.5,2.8-0.2,3.2-1.5c0.1-0.3,0.2-0.6,0.2-0.9v-5.1
						c1.1,0.9,2.7,0.8,3.6-0.3C45.9,35.9,46.1,35.1,46,34.4L46,34.4z M19.1,11.8V6.6h5.3c0.2,0,0.5-0.1,0.6-0.3l1.8-1.8
						c1-1,2.3-1.7,3.7-2l4.3-0.9c0.4-0.1,0.8,0.2,0.9,0.6c0.1,0.4-0.2,0.7-0.5,0.9l-1.8,0.4c-0.6,0.1-1,0.8-0.8,1.4
						C32.6,5.6,33,6,33.5,6h8.4c0.4,0,0.7,0.3,0.7,0.7c0,0.4-0.3,0.7-0.6,0.7l-5,0c-0.5,0-0.9,0.4-0.9,0.9c0,0.5,0.4,0.9,0.9,0.9
						l6.4,0c0.4,0,0.7,0.3,0.7,0.7s-0.3,0.7-0.7,0.7H37c-0.5,0-0.9,0.4-0.9,0.9c0,0.5,0.4,0.9,0.9,0.9h5c0.4,0,0.7,0.4,0.6,0.8
						c0,0.4-0.4,0.6-0.7,0.6H37c-0.5,0-0.9,0.4-0.9,0.9c0,0.5,0.4,0.9,0.9,0.9h3.3c0.4,0,0.7,0.4,0.6,0.8c0,0.4-0.4,0.6-0.7,0.6
						h-9.1c-1.9,0-3.7-0.7-5-2.1L25,14c-0.2-0.2-0.4-0.3-0.6-0.3H19L19.1,11.8z M4.6,19.3c-1-1-1.7-2.3-2-3.7l-0.9-4.3
						c-0.1-0.4,0.2-0.8,0.6-0.9c0,0,0,0,0,0c0.4-0.1,0.8,0.2,0.9,0.6l0.4,1.8c0.2,0.6,0.8,1,1.4,0.8C5.6,13.4,6,13,6,12.5V4.1
						c0-0.4,0.3-0.7,0.7-0.7c0.4,0,0.7,0.3,0.7,0.6l0,5c0,0.5,0.4,0.9,0.9,0.9c0.5,0,0.9-0.4,0.9-0.9c0,0,0,0,0,0V4.1
						c0-0.1,0-0.1,0-0.2V2.5c0-0.4,0.3-0.7,0.7-0.7s0.7,0.3,0.7,0.7v1.4c0,0.1,0,0.1,0,0.2l0,4.9c0,0.5,0.4,0.9,0.9,0.9
						c0.5,0,0.9-0.4,0.9-0.9V4c0-0.4,0.4-0.7,0.8-0.6c0.4,0,0.6,0.4,0.6,0.7c0,0,0,4.4,0,4.4V9c0,0.5,0.4,0.9,0.9,0.9
						c0.5,0,0.9-0.4,0.9-0.9l0,0V5.7c0-0.4,0.4-0.7,0.8-0.6c0.4,0,0.6,0.4,0.6,0.7v9.1c0,1.9-0.8,3.7-2.1,5L14,21
						c-0.2,0.2-0.3,0.4-0.3,0.6V27H12v-2.4c0-0.5-0.4-0.9-0.9-0.9c-0.5,0-0.9,0.4-0.9,0.9V27H6.7v-5.3c0-0.2-0.1-0.5-0.3-0.6
						L4.6,19.3z M27,39.3h-5.3c-0.2,0-0.5,0.1-0.6,0.3l-1.8,1.8c-1,1-2.3,1.7-3.7,2l-4.3,0.9c-0.4,0.1-0.8-0.2-0.9-0.6c0,0,0,0,0,0
						c-0.1-0.4,0.2-0.8,0.6-0.9l1.8-0.4c0.6-0.2,1-0.8,0.8-1.4C13.4,40.4,13,40,12.5,40H4.1c-0.4,0-0.7-0.3-0.7-0.7
						c0-0.4,0.3-0.7,0.6-0.7l5,0c0.5,0,0.9-0.4,0.9-0.9c0-0.5-0.4-0.9-0.9-0.9l-6.4,0c-0.4,0-0.7-0.3-0.7-0.7s0.3-0.7,0.7-0.7
						c0,0,0,0,0,0H9c0.5,0,0.9-0.4,0.9-0.9c0-0.5-0.4-0.9-0.9-0.9c0,0,0,0,0,0H4c-0.4,0-0.7-0.4-0.6-0.8c0-0.4,0.4-0.6,0.7-0.6H9
						c0.5,0,0.9-0.4,0.9-0.9c0-0.5-0.4-0.9-0.9-0.9H5.7c-0.4,0-0.7-0.4-0.6-0.8c0-0.4,0.4-0.6,0.7-0.6h9.1c1.9,0,3.7,0.7,5,2.1
						L21,32c0.2,0.2,0.4,0.3,0.6,0.3H27L27,39.3z M27,30.4h-5l-0.9-0.9c-1.5-1.5-3.5-2.4-5.6-2.6v-5l0.9-0.9
						c1.5-1.5,2.4-3.5,2.6-5.6h5l0.9,0.9c1.5,1.5,3.5,2.4,5.6,2.6v5l-0.9,0.9C28.1,26.3,27.1,28.3,27,30.4L27,30.4z M44.1,35.3
						c-0.2,0.4-0.7,0.4-1.1,0.2c-0.2-0.1-0.3-0.3-0.3-0.5l-0.4-1.8c-0.2-0.6-0.8-1-1.4-0.8C40.4,32.6,40,33,40,33.5v8.4
						c0,0.4-0.3,0.7-0.7,0.7c-0.4,0-0.7-0.3-0.7-0.6l0-5c0-0.5-0.4-0.9-0.9-0.9c-0.5,0-0.9,0.4-0.9,0.9c0,0,0,0,0,0l0,6.4
						c0,0.4-0.3,0.7-0.7,0.7c-0.4,0-0.7-0.3-0.7-0.7V37c0-0.5-0.4-0.9-0.9-0.9c-0.5,0-0.9,0.4-0.9,0.9c0,0,0,0,0,0v5
						c0,0.4-0.4,0.7-0.8,0.6c-0.4,0-0.6-0.4-0.6-0.7V37c0-0.5-0.4-0.9-0.9-0.9c-0.5,0-0.9,0.4-0.9,0.9c0,0,0,0,0,0v3.3
						c0,0.4-0.4,0.7-0.8,0.6c-0.4,0-0.6-0.4-0.6-0.7v-9.1c0-1.9,0.7-3.7,2.1-5L32,25c0.2-0.2,0.3-0.4,0.3-0.6V19h3.5v2.7
						c0,0.5,0.4,0.9,0.9,0.9c0.5,0,0.9-0.4,0.9-0.9c0,0,0,0,0,0V19h1.8v5.3c0,0.2,0.1,0.5,0.3,0.6l1.8,1.8c1,1,1.7,2.3,2,3.7
						l0.9,4.3C44.2,34.9,44.2,35.1,44.1,35.3z"/>
					<path class="st1" d="M36,46.3c-1.1,0-2.1-0.6-2.5-1.6c-1.4,0.4-2.8-0.4-3.3-1.7c-1.3,0.3-2.6-0.3-3.2-1.5h-4.8l-1.4,1.4
						c-1.3,1.3-2.9,2.2-4.7,2.5l-4.3,0.9c-0.2,0-0.4,0.1-0.5,0.1c-0.7,0-1.3-0.2-1.8-0.7c-0.6-0.5-0.9-1.2-1-1.9
						c-0.1-0.6,0.1-1.2,0.4-1.6H4.1c-0.3,0-0.6-0.1-1-0.2c-0.7-0.3-1.3-0.8-1.6-1.4c-0.3-0.6-0.3-1.3-0.2-1.9
						c-0.7-0.3-1.2-0.9-1.5-1.6c-0.2-0.7-0.2-1.5,0.1-2.1c0.3-0.6,0.8-1.1,1.4-1.3c-0.4-1.4,0.4-2.8,1.7-3.3
						c-0.3-1.3,0.3-2.6,1.5-3.2v-4.8l-1.4-1.4C1.9,19.4,1,17.8,0.7,16l-0.9-4.3c-0.2-0.8,0.1-1.7,0.6-2.3C1.3,8.3,2.8,8,4,8.7V4.1
						c0-0.3,0.1-0.6,0.2-1c0.5-1.4,2-2.1,3.3-1.7c0.3-0.7,0.9-1.2,1.6-1.5c0.7-0.2,1.5-0.2,2.1,0.1c0.6,0.3,1.1,0.8,1.3,1.4
						c1.4-0.4,2.8,0.4,3.3,1.7c1.3-0.3,2.6,0.3,3.2,1.5h4.8l1.4-1.4C26.6,1.9,28.2,1,30,0.7l4.3-0.9c0.8-0.2,1.7,0.1,2.3,0.6
						c0.6,0.5,0.9,1.2,1,1.9c0.1,0.6-0.1,1.2-0.4,1.6h4.6c0.3,0,0.6,0.1,1,0.2c0.7,0.3,1.3,0.8,1.6,1.4c0.3,0.6,0.3,1.3,0.2,1.9
						c0.7,0.3,1.2,0.9,1.5,1.6c0.2,0.7,0.2,1.5-0.1,2.1c-0.3,0.6-0.8,1.1-1.4,1.3c0.4,1.4-0.4,2.8-1.7,3.3c0.3,1.3-0.3,2.6-1.5,3.2
						v4.8l1.4,1.4c1.3,1.3,2.2,2.9,2.5,4.7l0.9,4.6h0c0.1,0.7-0.2,1.5-0.6,2c-0.5,0.6-1.2,0.9-1.9,1c-0.6,0.1-1.2-0.1-1.6-0.4v4.6
						c0,0.3-0.1,0.7-0.2,1c-0.3,0.7-0.8,1.3-1.4,1.6c-0.6,0.3-1.3,0.3-1.9,0.2c-0.3,0.7-0.9,1.2-1.6,1.5
						C36.6,46.2,36.3,46.3,36,46.3z M33.8,44l0.1,0.2c0.2,0.6,0.6,1,1.2,1.3c0.5,0.3,1.2,0.3,1.7,0.1c0.7-0.2,1.2-0.7,1.4-1.4
						l0.1-0.2l0.2,0.1c0.6,0.2,1.2,0.2,1.7-0.1c0.6-0.3,1-0.7,1.2-1.3c0.1-0.3,0.1-0.5,0.1-0.8v-5.6l0.4,0.3
						c0.5,0.4,1.1,0.6,1.7,0.5c0.6-0.1,1.2-0.4,1.6-0.8c0.4-0.5,0.6-1.2,0.5-1.9l-0.1-0.3h0l-0.8-4c-0.3-1.7-1.2-3.2-2.4-4.5
						l-1.6-1.6v-5.4l0.2-0.1c1.1-0.4,1.7-1.7,1.3-2.9l-0.1-0.3l0.3-0.1c1.2-0.3,1.9-1.6,1.6-2.8c0-0.1,0-0.1-0.1-0.2L44,12.2
						l0.2-0.1c0.6-0.2,1-0.6,1.3-1.2c0.3-0.5,0.3-1.2,0.1-1.7c-0.2-0.7-0.7-1.2-1.4-1.4L44,7.8l0.1-0.2c0.2-0.6,0.2-1.2-0.1-1.7
						c-0.3-0.6-0.7-1-1.3-1.2c-0.3-0.1-0.5-0.1-0.8-0.1h-5.6L36.7,4c0.4-0.5,0.6-1.1,0.5-1.7c-0.1-0.6-0.4-1.2-0.8-1.6
						c-0.5-0.4-1.2-0.6-1.9-0.5l-4.3,0.9c-1.7,0.3-3.2,1.2-4.5,2.4l-1.6,1.6h-5.4l-0.1-0.2c-0.4-1.1-1.7-1.7-2.9-1.3l-0.2,0.1
						l-0.1-0.3c-0.3-1.2-1.6-1.9-2.8-1.6c-0.1,0-0.1,0-0.2,0.1L12.2,2l-0.1-0.2c-0.2-0.6-0.6-1-1.2-1.3c-0.5-0.3-1.2-0.3-1.7-0.1
						C8.6,0.6,8.1,1.1,7.8,1.8L7.8,2L7.5,1.9C6.3,1.5,5,2.1,4.6,3.3C4.5,3.5,4.5,3.8,4.5,4.1v5.6L4,9.3c-1-0.8-2.4-0.7-3.3,0.3
						c-0.4,0.5-0.6,1.2-0.5,1.9l0.9,4.3c0.3,1.7,1.2,3.2,2.4,4.5l1.6,1.6v5.4l-0.2,0.1c-1.1,0.4-1.7,1.7-1.3,2.9l0.1,0.3l-0.3,0.1
						c-1.2,0.3-1.9,1.6-1.6,2.8c0,0.1,0,0.1,0.1,0.2L2,33.8l-0.2,0.1c-0.6,0.2-1,0.6-1.3,1.2c-0.3,0.5-0.3,1.2-0.1,1.7
						c0.2,0.7,0.7,1.2,1.4,1.4L2,38.2l-0.1,0.2C1.7,39,1.8,39.7,2,40.2c0.3,0.6,0.7,1,1.3,1.2c0.3,0.1,0.5,0.1,0.8,0.1h5.6L9.3,42
						c-0.4,0.5-0.6,1.1-0.5,1.7c0.1,0.6,0.4,1.2,0.8,1.6c0.4,0.3,0.9,0.5,1.5,0.5c0.1,0,0.3,0,0.5,0l4.3-0.9
						c1.7-0.3,3.2-1.2,4.5-2.4l1.6-1.6h5.4l0.1,0.2c0.4,1.1,1.7,1.7,2.9,1.3l0.3-0.1l0.1,0.3c0.3,1.2,1.6,1.9,2.8,1.6
						c0.1,0,0.1,0,0.2-0.1L33.8,44z M11.1,44.5c-0.5,0-0.9-0.3-1-0.8c-0.1-0.5,0.2-1.1,0.8-1.2l1.8-0.4c0.5-0.1,0.8-0.6,0.6-1.1
						c-0.1-0.4-0.4-0.7-0.8-0.7H4.1c0,0,0,0,0,0c-0.5,0-1-0.4-1-1c0-0.5,0.4-0.9,0.9-1l5,0c0.4,0,0.7-0.3,0.6-0.7
						C9.6,37.3,9.3,37,9,37l-6.4,0c-0.5,0-1-0.4-1-1s0.4-1,1-1H9c0,0,0,0,0,0c0.2,0,0.3-0.1,0.5-0.2c0.1-0.1,0.2-0.3,0.2-0.5
						c0-0.4-0.3-0.7-0.6-0.7H4c-0.3,0-0.5-0.2-0.7-0.4c-0.2-0.2-0.2-0.5-0.2-0.7c0.1-0.5,0.5-0.9,1-0.9c0,0,0,0,0,0H9
						c0.2,0,0.3-0.1,0.5-0.2s0.2-0.3,0.2-0.5c0-0.4-0.3-0.6-0.6-0.6H5.7c-0.3,0-0.5-0.2-0.7-0.4c-0.2-0.2-0.2-0.5-0.2-0.7
						c0.1-0.5,0.5-0.9,1-0.9c0,0,0,0,0,0h9.1c0,0,0,0,0,0c1.9,0,3.8,0.8,5.2,2.2l1.1,1.1c0.1,0.1,0.3,0.2,0.5,0.2h5.5l0,7.6h-5.6
						c-0.2,0-0.3,0.1-0.5,0.2l-1.8,1.8c-1,1-2.3,1.7-3.8,2l-4.3,0.9C11.2,44.4,11.2,44.5,11.1,44.5z M4.1,39.8h8.4
						c0.6,0,1.2,0.4,1.3,1c0.2,0.7-0.3,1.5-1,1.7L11,42.9c-0.3,0.1-0.4,0.3-0.4,0.6c0.1,0.3,0.3,0.5,0.6,0.4l4.3-0.9
						c1.3-0.3,2.6-0.9,3.5-1.9l1.8-1.8c0.2-0.2,0.5-0.3,0.8-0.3h5.1l0-6.6h-5.1c-0.3,0-0.6-0.1-0.8-0.3L19.7,31c-1.3-1.3-3-2-4.8-2
						c0,0,0,0,0,0H5.8c0,0,0,0,0,0c-0.2,0-0.5,0.2-0.5,0.4c0,0.1,0,0.3,0.1,0.4s0.2,0.2,0.3,0.2L9,30c0.6,0,1.1,0.5,1.1,1.1
						c0,0.3-0.1,0.6-0.3,0.8c-0.2,0.2-0.5,0.3-0.8,0.3H4.1c0,0,0,0,0,0c-0.2,0-0.5,0.2-0.5,0.4c0,0.1,0,0.3,0.1,0.4s0.2,0.2,0.3,0.2
						l4.9,0c0.6,0,1.2,0.5,1.2,1.2c0,0.3-0.1,0.6-0.3,0.8c-0.2,0.2-0.5,0.3-0.8,0.3c0,0,0,0,0,0H2.5C2.3,35.5,2,35.7,2,36
						c0,0.3,0.2,0.5,0.5,0.5l6.4,0c0.6,0,1.1,0.5,1.1,1.1S9.6,38.8,9,38.8l-5,0c-0.2,0-0.4,0.2-0.4,0.5C3.6,39.5,3.8,39.8,4.1,39.8
						C4.1,39.8,4.1,39.8,4.1,39.8z M36,44.5c-0.5,0-1-0.4-1-1V37c0-0.2-0.1-0.3-0.2-0.5s-0.3-0.2-0.5-0.2h0c-0.4,0-0.6,0.3-0.7,0.6
						v5c0,0.3-0.2,0.5-0.4,0.7c-0.2,0.2-0.5,0.2-0.7,0.2c-0.5-0.1-0.9-0.5-0.9-1V37c0-0.2-0.1-0.3-0.2-0.5c-0.1-0.1-0.3-0.2-0.5-0.2
						h0c-0.2,0-0.3,0.1-0.5,0.2c-0.1,0.1-0.2,0.3-0.2,0.5v3.3c0,0.3-0.2,0.5-0.4,0.7c-0.2,0.2-0.5,0.2-0.7,0.2
						c-0.5-0.1-0.9-0.5-0.9-1v-9.1c0-1.9,0.8-3.8,2.2-5.2l1.1-1.1c0.1-0.1,0.2-0.3,0.2-0.5v-5.5h4v3c0,0.2,0.1,0.3,0.2,0.5
						c0.1,0.1,0.3,0.2,0.5,0.2h0c0.2,0,0.3-0.1,0.5-0.2s0.2-0.3,0.2-0.5v-3h2.3v5.5c0,0.2,0.1,0.3,0.2,0.5l1.8,1.8
						c1,1,1.7,2.3,2,3.8l0.9,4.3c0.1,0.3,0,0.5-0.2,0.8l0,0c-0.3,0.5-1,0.6-1.4,0.3c-0.2-0.1-0.4-0.4-0.4-0.6L42,33.3
						c-0.1-0.5-0.6-0.8-1.1-0.6c-0.4,0.1-0.7,0.5-0.7,0.9v8.4c0,0.3-0.1,0.5-0.3,0.7c-0.2,0.2-0.4,0.3-0.7,0.3c0,0,0,0,0,0
						c-0.5,0-0.9-0.4-1-0.9l0-5c0-0.4-0.3-0.7-0.6-0.7h0c-0.2,0-0.3,0.1-0.5,0.2C37,36.7,37,36.9,37,37l0,6.4
						C37,44,36.5,44.5,36,44.5z M34.4,35.9C34.4,35.9,34.4,35.9,34.4,35.9c0.3,0,0.6,0.1,0.8,0.3c0.2,0.2,0.3,0.5,0.3,0.8v6.4
						c0,0.3,0.2,0.5,0.5,0.5c0.3,0,0.5-0.2,0.5-0.5l0-6.4c0-0.3,0.1-0.6,0.3-0.8s0.5-0.3,0.8-0.3c0,0,0,0,0,0c0.6,0,1.1,0.5,1.1,1.2
						l0,5c0,0.2,0.2,0.4,0.5,0.4h0c0.1,0,0.3-0.1,0.3-0.1c0.1-0.1,0.1-0.2,0.1-0.3v-8.4c0-0.6,0.4-1.2,1-1.3c0.7-0.2,1.5,0.3,1.7,1
						l0.4,1.8c0,0.1,0.1,0.2,0.2,0.3c0.2,0.2,0.6,0.1,0.7-0.1c0.1-0.1,0.1-0.3,0.1-0.4l-0.9-4.3c-0.3-1.3-0.9-2.6-1.9-3.5l-1.8-1.8
						c-0.2-0.2-0.3-0.5-0.3-0.8v-5.1h-1.3v2.5c0,0.3-0.1,0.6-0.3,0.8c-0.2,0.2-0.5,0.3-0.8,0.3h0c-0.3,0-0.6-0.1-0.8-0.3
						c-0.2-0.2-0.3-0.5-0.3-0.8v-2.5h-3v5c0,0.3-0.1,0.6-0.3,0.8L31,26.3c-1.3,1.3-2,3-2,4.9v9.1c0,0.2,0.2,0.5,0.4,0.5
						c0.1,0,0.3,0,0.4-0.1s0.2-0.2,0.2-0.3l0-3.2c0-0.3,0.1-0.6,0.3-0.8s0.5-0.3,0.8-0.3c0,0,0,0,0,0c0.3,0,0.6,0.1,0.8,0.3
						c0.2,0.2,0.3,0.5,0.3,0.8v4.9c0,0.2,0.2,0.5,0.4,0.5c0.1,0,0.3,0,0.4-0.1c0.1-0.1,0.2-0.2,0.2-0.3l0-4.9
						C33.2,36.4,33.7,35.9,34.4,35.9z M27.2,30.7h-5.3l-0.9-1c-1.5-1.5-3.4-2.4-5.4-2.5l-0.2,0v-5.3l1-0.9c1.5-1.5,2.3-3.4,2.5-5.4
						l0-0.2h5.3l0.9,1c1.5,1.5,3.4,2.4,5.4,2.5l0.2,0v5.3l-1,0.9c-1.5,1.5-2.4,3.4-2.5,5.4L27.2,30.7z M22.1,30.2h4.6
						c0.2-2.1,1.1-4,2.6-5.5l0.8-0.8v-4.6c-2.1-0.2-4-1.1-5.5-2.6l-0.8-0.8h-4.6c-0.2,2.1-1.2,4-2.6,5.5l-0.8,0.8v4.6
						c2.1,0.2,4,1.1,5.5,2.6L22.1,30.2z M14,27.2h-2.3v-2.6c0-0.4-0.3-0.7-0.6-0.7s-0.6,0.3-0.6,0.7v2.6h-4v-5.6
						c0-0.2-0.1-0.3-0.2-0.5l-1.8-1.8c-1-1-1.7-2.3-2-3.8l-0.9-4.3c-0.1-0.6,0.3-1.1,0.8-1.2c0.6-0.1,1.1,0.2,1.2,0.8L4,12.7
						c0.1,0.2,0.2,0.4,0.4,0.5c0.2,0.1,0.4,0.2,0.7,0.1c0.4-0.1,0.7-0.4,0.7-0.8V4.1c0-0.5,0.4-1,1-1c0,0,0,0,0,0
						c0.5,0,0.9,0.4,1,0.9l0,5c0,0.2,0.1,0.3,0.2,0.5C8,9.5,8.2,9.6,8.4,9.6h0C8.7,9.6,9,9.3,9,9V4.1C9,4,9,4,9,3.9l0-1.4
						c0-0.5,0.4-1,1-1s1,0.4,1,1V9c0,0.4,0.3,0.7,0.6,0.7s0.7-0.3,0.7-0.6V4c0.1-0.6,0.5-1,1.1-0.9c0.5,0.1,0.9,0.5,0.9,1V9
						c0,0.4,0.3,0.6,0.6,0.6s0.6-0.3,0.6-0.6V5.7c0.1-0.6,0.6-1,1.1-0.9c0.5,0.1,0.9,0.5,0.9,1v9.1c0,2-0.8,3.8-2.2,5.2l-1.1,1.1
						c-0.1,0.1-0.2,0.3-0.2,0.5V27.2z M12.2,26.7h1.3v-5.1c0-0.3,0.1-0.6,0.3-0.8l1.1-1.1c1.3-1.3,2-3,2-4.9V5.8
						c0-0.2-0.2-0.5-0.4-0.5c-0.3,0-0.5,0.2-0.5,0.4L16,9c0,0.6-0.5,1.1-1.1,1.1S13.7,9.6,13.7,9V4.1c0-0.2-0.2-0.5-0.4-0.5
						c-0.3,0-0.5,0.2-0.5,0.4l0,4.9c0,0.6-0.5,1.1-1.2,1.1S10.5,9.6,10.5,9l0-4.9l0-0.2V2.5C10.5,2.3,10.3,2,10,2S9.5,2.3,9.5,2.5
						v1.4c0,0,0,0.1,0,0.2V9c0,0.3-0.1,0.6-0.3,0.8C9,10,8.7,10.1,8.4,10.1c0,0,0,0,0,0c-0.3,0-0.6-0.1-0.8-0.3
						C7.3,9.6,7.2,9.3,7.2,9l0-5c0-0.2-0.2-0.4-0.5-0.4c0,0,0,0,0,0c-0.3,0-0.5,0.2-0.5,0.5v8.4c0,0.6-0.4,1.2-1,1.3
						c-0.7,0.2-1.5-0.3-1.7-1L3.1,11c-0.1-0.3-0.3-0.4-0.6-0.4c-0.3,0.1-0.5,0.3-0.4,0.6l0.9,4.3c0.3,1.3,0.9,2.6,1.9,3.5l1.8,1.8
						c0.2,0.2,0.3,0.5,0.3,0.8v5.1h3v-2.1c0-0.6,0.5-1.2,1.1-1.2s1.1,0.5,1.1,1.2V26.7z M31.1,17.5c-1.9,0-3.8-0.8-5.2-2.2l-1.1-1.1
						c-0.1-0.1-0.3-0.2-0.5-0.2h-5.6l0-7.6h5.5c0.2,0,0.3-0.1,0.5-0.2l1.8-1.8c1-1,2.3-1.7,3.8-2l4.3-0.9c0.6-0.1,1.1,0.3,1.2,0.9
						c0.1,0.5-0.2,1-0.7,1.1L33.3,4c-0.5,0.1-0.8,0.6-0.7,1.1c0.1,0.4,0.5,0.7,0.9,0.7h8.4c0,0,0,0,0,0c0.3,0,0.5,0.1,0.7,0.3
						c0.2,0.2,0.3,0.4,0.3,0.7c0,0.5-0.4,0.9-0.9,1l-5,0c-0.4,0-0.6,0.3-0.6,0.7C36.4,8.7,36.7,9,37,9l6.4,0c0.5,0,1,0.4,1,1
						s-0.4,1-1,1H37c-0.4,0-0.7,0.3-0.7,0.6s0.3,0.7,0.7,0.7h5c0.3,0,0.5,0.2,0.7,0.4c0.2,0.2,0.2,0.5,0.2,0.7
						c-0.1,0.5-0.5,0.9-1,0.9c0,0,0,0,0,0H37c-0.4,0-0.7,0.3-0.7,0.6s0.3,0.6,0.7,0.6h3.3c0.3,0,0.5,0.2,0.7,0.4s0.2,0.5,0.2,0.7
						c-0.1,0.5-0.5,0.9-1,0.9c0,0,0,0,0,0H31.1C31.1,17.5,31.1,17.5,31.1,17.5z M19.3,13.5h5c0.3,0,0.6,0.1,0.8,0.3l1.1,1.1
						c1.3,1.3,3,2,4.8,2c0,0,0,0,0,0h9.1c0,0,0,0,0,0c0.2,0,0.5-0.2,0.5-0.4c0-0.1,0-0.3-0.1-0.4s-0.2-0.2-0.3-0.2L37,16
						c-0.6,0-1.2-0.5-1.2-1.1s0.5-1.1,1.2-1.1h4.9h0c0.2,0,0.5-0.2,0.5-0.4c0-0.1,0-0.3-0.1-0.4s-0.2-0.2-0.3-0.2l-4.9,0
						c-0.6,0-1.2-0.5-1.2-1.2s0.5-1.1,1.2-1.1h6.4c0.3,0,0.5-0.2,0.5-0.5s-0.2-0.5-0.5-0.5l-6.4,0c-0.6,0-1.1-0.5-1.1-1.1
						c0-0.6,0.5-1.2,1.1-1.2l5,0c0.2,0,0.4-0.2,0.4-0.5c0-0.1-0.1-0.3-0.1-0.3c-0.1-0.1-0.2-0.1-0.3-0.1c0,0,0,0,0,0h-8.4
						c-0.6,0-1.2-0.4-1.3-1.1c-0.2-0.7,0.3-1.5,1-1.7L35,3.1c0.2-0.1,0.4-0.3,0.4-0.6c0-0.3-0.3-0.5-0.6-0.4l-4.3,0.9
						c-1.3,0.3-2.6,0.9-3.5,1.9l-1.8,1.8c-0.2,0.2-0.5,0.3-0.8,0.3h-5L19.3,13.5z"/>
				</g>
			</g>
		</g>
		<g id="Group_353" transform="translate(35.707 24.253)">
			<g id="Group_352">
				<g id="Path_2802">
					<path class="st1" d="M1.5,0.3c-0.4-0.4-0.9-0.4-1.3,0c-0.4,0.4-0.4,0.9,0,1.3s0.9,0.4,1.3,0c0.2-0.2,0.3-0.4,0.3-0.6
						C1.8,0.7,1.7,0.4,1.5,0.3z"/>
					<path class="st1" d="M0.9,2C0.6,2,0.3,1.9,0.1,1.7c-0.4-0.4-0.4-1.2,0-1.6c0.4-0.4,1.2-0.4,1.6,0l0,0C1.9,0.3,2,0.6,2,0.9
						c0,0.3-0.1,0.6-0.3,0.8C1.5,1.9,1.2,2,0.9,2z M0.9,0.2c-0.2,0-0.3,0.1-0.5,0.2c-0.3,0.3-0.3,0.7,0,0.9c0.3,0.3,0.7,0.3,0.9,0
						c0.1-0.1,0.2-0.3,0.2-0.5c0-0.2-0.1-0.3-0.2-0.5C1.2,0.3,1.1,0.2,0.9,0.2z"/>
				</g>
			</g>
		</g>
		<g id="Group_355" transform="translate(10.165 20.289)">
			<g id="Group_354">
				<g id="Path_2803">
					<path class="st1" d="M1.5,0.3c-0.4-0.4-0.9-0.4-1.3,0c-0.4,0.4-0.4,0.9,0,1.3c0.4,0.4,0.9,0.4,1.3,0c0.2-0.2,0.3-0.4,0.3-0.6
						C1.8,0.7,1.7,0.4,1.5,0.3z"/>
					<path class="st1" d="M0.9,2C0.6,2,0.3,1.9,0.1,1.7c-0.2-0.2-0.3-0.5-0.3-0.8c0-0.3,0.1-0.6,0.3-0.8c0.4-0.4,1.2-0.4,1.6,0l0,0
						C1.9,0.3,2,0.6,2,0.9c0,0.3-0.1,0.6-0.3,0.8C1.5,1.9,1.2,2,0.9,2z M0.9,0.2c-0.2,0-0.3,0.1-0.5,0.2c-0.3,0.3-0.3,0.7,0,0.9
						c0.3,0.3,0.7,0.3,0.9,0c0.1-0.1,0.2-0.3,0.2-0.5c0-0.2-0.1-0.3-0.2-0.5C1.2,0.3,1.1,0.2,0.9,0.2z"/>
				</g>
			</g>
		</g>
	</g>
</g>
</svg>
