<svg xmlns="http://www.w3.org/2000/svg" width="18" height="15.117" viewBox="0 0 18 15.117">
  <g id="Connections" transform="translate(0 -41)">
    <path id="Path_6769" data-name="Path 6769" d="M13.078,46.273A4.924,4.924,0,0,0,8.838,48.7l-4.3-1.854a2.255,2.255,0,0,0,0-.791l4.407-1.9a1.94,1.94,0,1,0-.418-.968l-4.407,1.9a2.285,2.285,0,1,0,0,2.728L8.4,49.66a4.922,4.922,0,1,0,4.676-3.386Zm-2.637-4.219a.879.879,0,1,1-.879.879A.88.88,0,0,1,10.441,42.055ZM2.285,47.68a1.23,1.23,0,1,1,1.23-1.23A1.232,1.232,0,0,1,2.285,47.68Zm8.859,6.864v-.008a1.934,1.934,0,0,1,3.867,0v.008a3.861,3.861,0,0,1-3.867,0ZM12.2,50.668a.879.879,0,1,1,.879.879A.88.88,0,0,1,12.2,50.668Zm3.766,3.1a3,3,0,0,0-1.425-1.834,1.934,1.934,0,1,0-2.925,0,3,3,0,0,0-1.425,1.834,3.867,3.867,0,1,1,5.774,0Z" fill="#546de5"/>
  </g>
</svg>
