<svg xmlns="http://www.w3.org/2000/svg" width="43.298" height="48" viewBox="0 0 43.298 48">
  <g id="Follow" transform="translate(0.5 0.5)">
    <g id="_053---Follow-Podcast" data-name="053---Follow-Podcast" transform="translate(0 0)">
      <g id="Group_3438" data-name="Group 3438">
        <path id="Shape" d="M0,21.149A21.149,21.149,0,0,0,17.029,41.89l3.486,4.786a.783.783,0,0,0,1.269,0l3.486-4.786A21.149,21.149,0,0,0,21.149,0a22.77,22.77,0,0,0-6.564,1.05A20.828,20.828,0,0,0,8.679,4.1,21.211,21.211,0,0,0,.995,14.741a.783.783,0,0,0,.572.995.783.783,0,0,0,.948-.517A19.684,19.684,0,0,1,9.6,5.358a19.48,19.48,0,0,1,5.483-2.82,21.337,21.337,0,0,1,6.063-.971A19.582,19.582,0,0,1,24.674,40.41a.783.783,0,0,0-.493.305l-3.031,4.167-3.031-4.151a.783.783,0,0,0-.493-.305A19.582,19.582,0,0,1,1.567,21.149a.783.783,0,1,0-1.567,0Z" transform="translate(0 0)" fill="#1ae2bc" stroke="#1ae2bc" stroke-width="1"/>
        <path id="Shape-2" data-name="Shape" d="M15.631,28.254a.725.725,0,0,0,.043.725,13.045,13.045,0,0,0,22.147,0,.725.725,0,0,0,.043-.725,10.327,10.327,0,0,0-7.385-5.8,7.247,7.247,0,1,0-7.457,0,10.342,10.342,0,0,0-7.392,5.8ZM20.95,16.246a5.8,5.8,0,1,1,5.8,5.8A5.8,5.8,0,0,1,20.95,16.246Zm5.8,7.247c4.674,0,7.907,1.689,9.624,5.015a11.6,11.6,0,0,1-19.249,0C18.841,25.182,22.074,23.493,26.748,23.493Z" transform="translate(-1.775 -0.893)" fill="#1ae2bc" stroke="#1ae2bc" stroke-width="1"/>
        <path id="Shape-3" data-name="Shape" d="M9.348,21a.725.725,0,0,0-.725.725v2.9h-2.9a.725.725,0,1,0,0,1.449h2.9v2.9a.725.725,0,1,0,1.449,0v-2.9h2.9a.725.725,0,1,0,0-1.449h-2.9v-2.9A.725.725,0,0,0,9.348,21Z" transform="translate(-0.87 -4.198)" fill="#1ae2bc" stroke="#1ae2bc" stroke-width="1"/>
      </g>
    </g>
  </g>
</svg>
