<svg xmlns="http://www.w3.org/2000/svg" width="16.5" height="18" viewBox="0 0 16.5 18">
  <g id="Logout_grey" data-name="Logout grey" transform="translate(-21.331)">
    <g id="Group_3544" data-name="Group 3544" transform="translate(21.331)">
      <g id="Group_3543" data-name="Group 3543" transform="translate(0)">
        <path id="Path_6772" data-name="Path 6772" d="M32.881,60.469a.75.75,0,0,0-.6,1.375,6.749,6.749,0,1,1-5.4,0,.75.75,0,1,0-.6-1.374,8.251,8.251,0,1,0,6.6,0Z" transform="translate(-21.331 -58.283)" fill="#aaa"/>
        <path id="Path_6773" data-name="Path 6773" d="M235.406,8.25a.75.75,0,0,0,.75-.75V.75a.75.75,0,1,0-1.5,0V7.5A.75.75,0,0,0,235.406,8.25Z" transform="translate(-227.156)" fill="#aaa"/>
      </g>
    </g>
  </g>
</svg>
