<svg xmlns="http://www.w3.org/2000/svg" width="14.628" height="15.812" viewBox="0 0 14.628 15.812">
  <path id="new_message" d="M23.392.9a.528.528,0,0,1,.746-.746L26.182,2.2a.528.528,0,1,1-.746.746Zm3.046,13.855H12.866a.528.528,0,0,0,0,1.056H26.438a.528.528,0,0,0,0-1.056ZM13.122,13.215a.528.528,0,0,1-.137-.507l.728-2.772A.528.528,0,0,1,13.85,9.7l8.111-8.111a.528.528,0,0,1,.746,0l2.044,2.044a.528.528,0,0,1,0,.746L16.64,12.486a.528.528,0,0,1-.239.137l-2.772.728a.528.528,0,0,1-.507-.137ZM14.235,12.1l1.759-.462L23.631,4l-1.3-1.3L14.7,10.342Z" transform="translate(-12.338 0)" fill="#546de5"/>
</svg>
