<svg xmlns="http://www.w3.org/2000/svg" width="50" height="50" viewBox="0 0 50 50">
  <g id="say_hi" transform="translate(0)">
    <g id="Group_3512" data-name="Group 3512" transform="translate(0 0)">
      <g id="Group_3511" data-name="Group 3511" transform="translate(0)">
        <path id="Path_6735" data-name="Path 6735" d="M45.755,29.939A1.953,1.953,0,0,0,42.134,31.4l2.3,5.69L37.6,34.081a1.953,1.953,0,0,0-1.554-.009,18.832,18.832,0,0,1-7.434,1.5c-10.456,0-17.48-8.187-17.48-15.834,0-8.731,7.842-15.834,17.48-15.834s17.48,7.1,17.48,15.834a15.927,15.927,0,0,1-.174,2.238,1.953,1.953,0,1,0,3.863.576A19.709,19.709,0,0,0,50,19.74,18.878,18.878,0,0,0,43.674,5.722,22.2,22.2,0,0,0,28.614,0a22.2,22.2,0,0,0-15.06,5.722A18.982,18.982,0,0,0,7.3,18.059,15.789,15.789,0,0,0,0,31.2a15.153,15.153,0,0,0,3,9.054L.143,47.315a1.953,1.953,0,0,0,2.6,2.519l8.225-3.626a18.588,18.588,0,0,0,6.514,1.16c.049,0,.1,0,.145-.007a18.486,18.486,0,0,0,9.189-2.491,16.813,16.813,0,0,0,5.909-5.754,22.475,22.475,0,0,0,4.057-1.128l10.479,4.619a1.953,1.953,0,0,0,2.6-2.519ZM17.481,43.457c-.027,0-.053,0-.079,0A14.648,14.648,0,0,1,11.7,42.294a1.952,1.952,0,0,0-1.554.009L5.567,44.319l1.475-3.65a1.953,1.953,0,0,0-.324-2A11.4,11.4,0,0,1,3.907,31.2a11.62,11.62,0,0,1,3.61-8.321,19.716,19.716,0,0,0,5.778,10.558A21.832,21.832,0,0,0,27.5,39.453,14.354,14.354,0,0,1,17.481,43.457Z" transform="translate(0 0)" fill="#e9e9e9"/>
        <circle id="Ellipse_216" data-name="Ellipse 216" cx="1.953" cy="1.953" r="1.953" transform="translate(26.563 17.871)" fill="#e9e9e9"/>
        <circle id="Ellipse_217" data-name="Ellipse 217" cx="1.953" cy="1.953" r="1.953" transform="translate(34.375 17.871)" fill="#e9e9e9"/>
        <circle id="Ellipse_218" data-name="Ellipse 218" cx="1.953" cy="1.953" r="1.953" transform="translate(18.75 17.871)" fill="#e9e9e9"/>
      </g>
    </g>
  </g>
</svg>
