<?xml version="1.0" encoding="utf-8"?>
<!-- Generator: Adobe Illustrator 23.0.3, SVG Export Plug-In . SVG Version: 6.00 Build 0)  -->
<svg version="1.1" id="Layer_1" xmlns="http://www.w3.org/2000/svg" xmlns:xlink="http://www.w3.org/1999/xlink" x="0px" y="0px"
	 viewBox="0 0 100 100" style="enable-background:new 0 0 100 100;" xml:space="preserve">
<style type="text/css">
	.st0{fill:transparent;}
	.st1{fill:#EA2E7E;}
</style>
<g id="document-sharing" transform="translate(-12310 -3908)">
	<g id="Path_2788">
		<path class="st0" d="M12360,3908c27.6,0,50,22.4,50,50s-22.4,50-50,50s-50-22.4-50-50S12332.4,3908,12360,3908z"/>
	</g>
	<g id="document" transform="translate(12337 3935)">
		<g id="list" transform="translate(0)">
			<g id="Group_147">
				<g id="Group_146">
					<g id="Path_80">
						<g id="Path_125">
							<path class="st1" d="M41.1,0H4.9C2.2,0,0,2.2,0,4.9l0,0v36.1C0,43.8,2.2,46,4.9,46l0,0h36.1c2.7,0,4.9-2.2,4.9-4.9l0,0l0,0
								V4.9C46,2.2,43.8,0,41.1,0L41.1,0L41.1,0z M42.7,41.1c0,0.9-0.7,1.6-1.6,1.6l0,0H4.9c-0.9,0-1.6-0.7-1.6-1.6V4.9
								C3.3,4,4,3.3,4.9,3.3h36.1c0.9,0,1.6,0.7,1.6,1.6l0,0l0,0V41.1z"/>
							<path class="st1" d="M41.1,46.5H4.9c-3,0-5.4-2.4-5.4-5.4V4.9c0-3,2.4-5.4,5.4-5.4h36.1c3,0,5.4,2.4,5.4,5.4v36.1
								C46.5,44.1,44.1,46.5,41.1,46.5z M4.9,0.5c-2.4,0-4.4,2-4.4,4.4v36.1c0,2.4,2,4.4,4.4,4.4h36.1c2.4,0,4.4-2,4.4-4.4V4.9
								c0-2.4-2-4.4-4.4-4.4H4.9z M41.1,43.2H4.9c-1.2,0-2.1-1-2.1-2.1V4.9c0-1.2,1-2.1,2.1-2.1h36.1c1.2,0,2.1,1,2.1,2.1v36.1
								C43.2,42.3,42.3,43.2,41.1,43.2z M4.9,3.8c-0.6,0-1.1,0.5-1.1,1.1v36.1c0,0.6,0.5,1.1,1.1,1.1h36.1c0.6,0,1.1-0.5,1.1-1.1
								V4.9c0-0.6-0.5-1.1-1.1-1.1H4.9z"/>
						</g>
					</g>
				</g>
			</g>
			<g id="Group_149" transform="translate(8.213 9.857)">
				<g id="Group_148">
					<g id="Path_81">
						<g id="Path_126">
							<path class="st1" d="M6.6,0H1.6C0.7,0,0,0.7,0,1.6c0,0.9,0.7,1.6,1.6,1.6h4.9c0.9,0,1.6-0.7,1.6-1.6C8.2,0.7,7.5,0,6.6,0z"/>
							<path class="st1" d="M6.6,3.8H1.6c-1.2,0-2.1-1-2.1-2.1c0-1.2,1-2.1,2.1-2.1h4.9c1.2,0,2.1,1,2.1,2.1c0,0.6-0.2,1.1-0.6,1.5
								C7.7,3.6,7.1,3.8,6.6,3.8z M1.6,0.5C1,0.5,0.5,1,0.5,1.6c0,0.6,0.5,1.1,1.1,1.1h4.9c0.3,0,0.6-0.1,0.8-0.3
								c0.2-0.2,0.3-0.5,0.3-0.8c0-0.6-0.5-1.1-1.1-1.1H1.6z"/>
						</g>
					</g>
				</g>
			</g>
			<g id="Group_151" transform="translate(19.713 9.857)">
				<g id="Group_150">
					<g id="Path_82">
						<g id="Path_127">
							<path class="st1" d="M16.4,0H1.6C0.7,0,0,0.7,0,1.6c0,0.9,0.7,1.6,1.6,1.6h14.8c0.9,0,1.6-0.7,1.6-1.6
								C18.1,0.7,17.3,0,16.4,0L16.4,0z"/>
							<path class="st1" d="M16.4,3.8H1.6c-1.2,0-2.1-1-2.1-2.1c0-1.2,1-2.1,2.1-2.1h14.8c1.2,0,2.1,1,2.1,2.1
								C18.6,2.8,17.6,3.8,16.4,3.8z M1.6,0.5C1,0.5,0.5,1,0.5,1.6c0,0.6,0.5,1.1,1.1,1.1h14.8c0.6,0,1.1-0.5,1.1-1.1
								c0-0.6-0.5-1.1-1.1-1.1H1.6z"/>
						</g>
					</g>
				</g>
			</g>
			<g id="Group_153" transform="translate(8.213 21.357)">
				<g id="Group_152">
					<g id="Path_83">
						<g id="Path_128">
							<path class="st1" d="M6.6,0H1.6C0.7,0,0,0.7,0,1.7c0,0.9,0.7,1.6,1.6,1.6h4.9c0.9,0,1.6-0.7,1.6-1.6C8.2,0.7,7.5,0,6.6,0z"/>
							<path class="st1" d="M6.6,3.8H1.6c-1.2,0-2.1-1-2.1-2.1c0-1.2,1-2.1,2.1-2.1h4.9c1.2,0,2.1,1,2.1,2.1
								C8.7,2.8,7.8,3.8,6.6,3.8z M1.6,0.5C1,0.5,0.5,1,0.5,1.7c0,0.6,0.5,1.1,1.1,1.1h4.9c0.6,0,1.1-0.5,1.1-1.1
								c0-0.6-0.5-1.1-1.1-1.1H1.6z"/>
						</g>
					</g>
				</g>
			</g>
			<g id="Group_155" transform="translate(19.713 21.357)">
				<g id="Group_154">
					<g id="Path_84">
						<g id="Path_129">
							<path class="st1" d="M16.4,0H1.6C0.7,0,0,0.7,0,1.7c0,0.9,0.7,1.6,1.6,1.6h14.8c0.9,0,1.6-0.7,1.6-1.6
								C18.1,0.7,17.3,0,16.4,0L16.4,0z"/>
							<path class="st1" d="M16.4,3.8H1.6c-1.2,0-2.1-1-2.1-2.1c0-1.2,1-2.1,2.1-2.1h14.8c1.2,0,2.1,1,2.1,2.1
								C18.6,2.8,17.6,3.8,16.4,3.8z M1.6,0.5C1,0.5,0.5,1,0.5,1.7c0,0.6,0.5,1.1,1.1,1.1h14.8c0.6,0,1.1-0.5,1.1-1.1
								c0-0.6-0.5-1.1-1.1-1.1H1.6z"/>
						</g>
					</g>
				</g>
			</g>
			<g id="Group_157" transform="translate(8.213 32.857)">
				<g id="Group_156">
					<g id="Path_85">
						<g id="Path_130">
							<path class="st1" d="M6.6,0H1.6C0.7,0,0,0.7,0,1.6c0,0.9,0.7,1.6,1.6,1.6h4.9c0.9,0,1.6-0.7,1.6-1.6C8.2,0.7,7.5,0,6.6,0
								C6.6,0,6.6,0,6.6,0z"/>
							<path class="st1" d="M6.6,3.8C6.6,3.8,6.6,3.8,6.6,3.8H1.6c-1.2,0-2.1-1-2.1-2.1c0-0.6,0.2-1.1,0.6-1.5
								c0.4-0.4,0.9-0.6,1.5-0.6h4.9c0.6,0,1.1,0.2,1.5,0.6c0.4,0.4,0.6,0.9,0.6,1.5c0,0.6-0.2,1.1-0.6,1.5C7.7,3.6,7.1,3.8,6.6,3.8
								z M1.6,0.5c-0.3,0-0.6,0.1-0.8,0.3C0.6,1.1,0.5,1.3,0.5,1.6c0,0.6,0.5,1.1,1.1,1.1h4.9c0,0,0,0,0,0c0.3,0,0.6-0.1,0.8-0.3
								C7.6,2.2,7.7,2,7.7,1.6S7.6,1.1,7.4,0.8C7.2,0.6,6.9,0.5,6.6,0.5l0-0.5v0.5H1.6z"/>
						</g>
					</g>
				</g>
			</g>
			<g id="Group_159" transform="translate(19.713 32.857)">
				<g id="Group_158">
					<g id="Path_86">
						<g id="Path_131">
							<path class="st1" d="M16.4,0H1.6C0.7,0,0,0.7,0,1.6c0,0.9,0.7,1.6,1.6,1.6h14.8c0.9,0,1.6-0.7,1.6-1.6
								C18.1,0.7,17.3,0,16.4,0L16.4,0z"/>
							<path class="st1" d="M16.4,3.8H1.6c-1.2,0-2.1-1-2.1-2.1c0-0.6,0.2-1.1,0.6-1.5c0.4-0.4,0.9-0.6,1.5-0.6h14.8
								c1.2,0,2.1,1,2.1,2.1c0,0.6-0.2,1.1-0.6,1.5S17,3.8,16.4,3.8z M1.6,0.5c-0.3,0-0.6,0.1-0.8,0.3C0.6,1.1,0.5,1.3,0.5,1.6
								c0,0.6,0.5,1.1,1.1,1.1h14.8c0.3,0,0.6-0.1,0.8-0.3c0.2-0.2,0.3-0.5,0.3-0.8c0-0.6-0.5-1.1-1.1-1.1H1.6z"/>
						</g>
					</g>
				</g>
			</g>
		</g>
	</g>
</g>
</svg>
