<svg id="maximize" xmlns="http://www.w3.org/2000/svg" width="15.813" height="15.812" viewBox="0 0 15.813 15.812">
  <path id="Path_6729" data-name="Path 6729" d="M.551,4.781A.551.551,0,0,0,1.1,4.23V1.882L4.648,5.428a.551.551,0,0,0,.779-.779L1.88,1.1H4.229a.551.551,0,0,0,0-1.1H.551A.551.551,0,0,0,0,.553V4.23A.551.551,0,0,0,.551,4.781Z" transform="translate(0 -0.002)" fill="#aaa"/>
  <path id="Path_6730" data-name="Path 6730" d="M142.9,138.671a.551.551,0,0,0-.551.551v2.348l-3.656-3.656a.551.551,0,1,0-.779.779l3.656,3.656h-2.348a.551.551,0,1,0,0,1.1H142.9a.551.551,0,0,0,.551-.551v-3.677A.551.551,0,0,0,142.9,138.671Z" transform="translate(-127.639 -127.638)" fill="#aaa"/>
  <path id="Path_6731" data-name="Path 6731" d="M4.762,137.913l-3.656,3.656v-2.348a.551.551,0,1,0-1.1,0V142.9a.551.551,0,0,0,.551.551H4.233a.551.551,0,0,0,0-1.1H1.885l3.656-3.656a.551.551,0,1,0-.779-.779Z" transform="translate(-0.005 -127.638)" fill="#aaa"/>
  <path id="Path_6732" data-name="Path 6732" d="M144.286,0h-3.678a.551.551,0,1,0,0,1.1h2.348L139.41,4.65a.551.551,0,0,0,.779.779l3.546-3.547V4.23a.551.551,0,1,0,1.1,0V.553A.551.551,0,0,0,144.286,0Z" transform="translate(-129.024 -0.002)" fill="#aaa"/>
</svg>
