<svg xmlns="http://www.w3.org/2000/svg" width="15.813" height="15.812" viewBox="0 0 15.813 15.812">
  <g id="minimize" transform="translate(0 0)">
    <path id="Path_6729" data-name="Path 6729" d="M5.038.811a.551.551,0,0,0-.551.551V3.709L.94.163A.551.551,0,0,0,.161.942L3.708,4.488H1.36a.551.551,0,1,0,0,1.1H5.038a.551.551,0,0,0,.551-.551V1.361A.551.551,0,0,0,5.038.811Z" transform="translate(0 -0.002)" fill="#aaa"/>
    <path id="Path_6730" data-name="Path 6730" d="M138.305,142.531a.551.551,0,0,0,.551-.551v-2.348l3.656,3.656a.551.551,0,0,0,.779-.779l-3.656-3.656h2.348a.551.551,0,0,0,0-1.1H138.3a.551.551,0,0,0-.551.551v3.678A.551.551,0,0,0,138.305,142.531Z" transform="translate(-127.639 -127.638)" fill="#aaa"/>
    <path id="Path_6731" data-name="Path 6731" d="M.945,143.288,4.6,139.632v2.348a.551.551,0,0,0,1.1,0V138.3a.551.551,0,0,0-.551-.551H1.474a.551.551,0,1,0,0,1.1H3.822L.166,142.51a.551.551,0,1,0,.779.779Z" transform="translate(-0.004 -127.637)" fill="#aaa"/>
    <path id="Path_6732" data-name="Path 6732" d="M139.8,5.59h3.678a.551.551,0,1,0,0-1.1h-2.348L144.675.942A.551.551,0,0,0,143.9.163L140.35,3.71V1.362a.551.551,0,0,0-1.1,0V5.039A.551.551,0,0,0,139.8,5.59Z" transform="translate(-129.023 -0.002)" fill="#aaa"/>
  </g>
</svg>
