<svg xmlns="http://www.w3.org/2000/svg" width="41.65" height="45" viewBox="0 0 41.65 45">
  <path id="Share" d="M41.618,28.019a8.475,8.475,0,0,0-6.532,3.073L24.947,25.336a8.471,8.471,0,0,0,0-5.671l10.138-5.758a8.48,8.48,0,1,0-1.469-2.582L23.478,17.083a8.49,8.49,0,1,0,0,10.834l10.139,5.757a8.488,8.488,0,1,0,8-5.655Zm0-25.049A5.52,5.52,0,1,1,36.1,8.489,5.525,5.525,0,0,1,41.618,2.971ZM16.947,28.019A5.519,5.519,0,1,1,22.465,22.5,5.526,5.526,0,0,1,16.947,28.019Zm24.671,14.01a5.52,5.52,0,1,1,5.518-5.519A5.525,5.525,0,0,1,41.618,42.029Z" transform="translate(-8.456)" fill="#ea2e7e"/>
</svg>
