<svg xmlns="http://www.w3.org/2000/svg" width="43" height="43" viewBox="0 0 43 43">
  <g id="Add" transform="translate(0)">
    <g id="Group_3440" data-name="Group 3440" transform="translate(0)">
      <g id="Group_3439" data-name="Group 3439">
        <path id="Path_2804" data-name="Path 2804" d="M30.87,21.576a21.853,21.853,0,0,0-2.527-1.015,11.422,11.422,0,1,0-13.676.007A21.847,21.847,0,0,0,.109,36.846,5.1,5.1,0,0,0,5.1,43H25.784a1.68,1.68,0,0,0,0-3.359H5.1A1.707,1.707,0,0,1,3.754,39,1.755,1.755,0,0,1,3.4,37.531a18.558,18.558,0,0,1,17.657-14.7q.222.009.445.009t.45-.009a18.3,18.3,0,0,1,7.478,1.775,1.68,1.68,0,0,0,1.442-3.034Zm-8.96-2.1q-.2,0-.41,0t-.406,0a8.063,8.063,0,1,1,.816,0Z" transform="translate(0)" fill="#546de5"/>
      </g>
    </g>
    <g id="Group_3442" data-name="Group 3442" transform="translate(27.043 27.043)">
      <g id="Group_3441" data-name="Group 3441">
        <path id="Path_2805" data-name="Path 2805" d="M336.277,328.3h-4.619V323.68a1.68,1.68,0,0,0-3.359,0V328.3H323.68a1.68,1.68,0,0,0,0,3.359H328.3v4.619a1.68,1.68,0,0,0,3.359,0v-4.619h4.619a1.68,1.68,0,0,0,0-3.359Z" transform="translate(-322 -322)" fill="#546de5"/>
      </g>
    </g>
  </g>
</svg>
