<svg id="calendar" xmlns="http://www.w3.org/2000/svg" width="20" height="20" viewBox="0 0 20 20">
  <g id="date">
    <g id="Group_658" data-name="Group 658">
      <g id="Group_657" data-name="Group 657">
        <path id="Path_227" data-name="Path 227" d="M17.857,2.143H15.714V.714a.714.714,0,1,0-1.429,0V2.143H5.714V.714a.714.714,0,1,0-1.429,0V2.143H2.143A2.143,2.143,0,0,0,0,4.286V17.857A2.143,2.143,0,0,0,2.143,20H17.857A2.143,2.143,0,0,0,20,17.857V4.286A2.143,2.143,0,0,0,17.857,2.143Zm.714,15.714a.714.714,0,0,1-.714.714H2.143a.714.714,0,0,1-.714-.714V8.571H18.571Zm0-10.714H1.429V4.286a.714.714,0,0,1,.714-.714H4.286V5A.714.714,0,0,0,5.714,5V3.571h8.571V5a.714.714,0,0,0,1.429,0V3.571h2.143a.714.714,0,0,1,.714.714V7.143Z" fill="#546de5"/>
      </g>
    </g>
  </g>
</svg>
