<svg width="24" height="24" xmlns="http://www.w3.org/2000/svg" id="praise-creation-medium" data-supported-dps="24x24">
  <g fill="none" fill-rule="evenodd">
    <path d="M0 0h24v24H0z"/>
    <path d="M20 15.31l-.8-.6s-.33-3.17-.91-3.78a10.63 10.63 0 01-2.15-4.22c-.27-.94-.46-1.28-1.31-1.29a1.27 1.27 0 00-1.15 1.41 10 10 0 00.12 1.28 15.8 15.8 0 001 3.26l-.33-.19-7.76-5.86a1.3 1.3 0 00-2 .12 1.29 1.29 0 00.46 1.87l4 3 1.2.9L4 6.41a1.32 1.32 0 00-2 .12 1.29 1.29 0 00.52 1.87l4 3 2.4 1.8-5.21-3.89a1.3 1.3 0 00-2 .12 1.29 1.29 0 00.46 1.87l4 3 2 1.5-4-3a1.3 1.3 0 00-1.93.07 1.33 1.33 0 00.43 1.93L10 20.31a4.85 4.85 0 003.69.9c.41.29 1.2.89 1.2.89a13.59 13.59 0 002.8-2.89 20.89 20.89 0 002.31-3.9z" fill="#49992A"/>
    <path d="M15.16 11.72l-1.2-.9" fill="#93D870"/>
    <path d="M19.89 15.45l.06-.14" stroke="#43722B" stroke-width="2" stroke-linecap="round" stroke-linejoin="round"/>
    <path d="M19.09 14.18c-.13-.94-.21-3.73-.64-4.18-1-1.11-1.91-1.78-2.36-3.29-.27-.94-.46-1.28-1.31-1.29a1.27 1.27 0 00-1.15 1.41 10 10 0 00.12 1.28 20 20 0 001 3.45L6.71 5.5a1.32 1.32 0 00-2 .12 1.3 1.3 0 00.5 1.88l4 3 1.2.9L4 6.6a1.32 1.32 0 00-2 .12 1.29 1.29 0 00.47 1.87l4 3 2.4 1.8-5.16-3.9a1.32 1.32 0 00-2 .12 1.3 1.3 0 00.46 1.88l4 3 2 1.5-4-3a1.3 1.3 0 00-1.93.07A1.31 1.31 0 002.71 15L10 20.31a4.85 4.85 0 003.69.9" stroke="#165209" stroke-linecap="round" stroke-linejoin="round"/>
    <path d="M15.16 11.72l-1.2-.9" stroke="#43722B" stroke-width="2" stroke-linecap="round" stroke-linejoin="round"/>
    <path d="M23.25 15.91l-.8-.6s-.33-3.17-.91-3.78a10.36 10.36 0 01-2.15-4.23c-.27-.94-.47-1.3-1.31-1.3a1.28 1.28 0 00-1.15 1.42c0 .428.023.855.07 1.28.32 1.65.65 3 .7 3.08l-7.58-5.69a1.27 1.27 0 10-1.5 2l4 3 1.2.9-6.39-4.81a1.32 1.32 0 00-2 .12 1.29 1.29 0 00.47 1.87l4 3L12.31 14l-5.19-3.93a1.31 1.31 0 00-2 .13 1.29 1.29 0 00.46 1.87l4 3 2 1.5-4-3a1.3 1.3 0 00-1.93.07 1.31 1.31 0 00.43 1.92l7.14 5.35A8 8 0 0016.76 22c.448.277.916.52 1.4.73a5.68 5.68 0 003.59-2.23 8.48 8.48 0 001.5-4.59z" fill="#6DAE4F"/>
    <path d="M18.45 12.32l-1.2-.9" fill="#93D870"/>
    <path d="M6.31.82l.39 1.76M11.9 2.97l-1.47 1.04M9.64.5L8.57 3.3M23.16 15.92a3.81 3.81 0 01-.8-1.33c-.09-.38-.12-.77-.19-1.15a4 4 0 00-.63-1.91 10.36 10.36 0 01-2.15-4.23c-.27-.94-.47-1.3-1.31-1.3a1.28 1.28 0 00-1.15 1.42c0 .428.023.855.07 1.28.32 1.65.65 3 .7 3.08l-7.58-5.69a1.27 1.27 0 10-1.5 2l4 3 1.2.9-6.39-4.81a1.32 1.32 0 00-2 .12 1.29 1.29 0 00.47 1.87l4 3L12.31 14l-5.19-3.93a1.31 1.31 0 00-2 .13 1.29 1.29 0 00.46 1.87l4 3 2 1.5-4-3a1.3 1.3 0 00-1.93.07 1.31 1.31 0 00.43 1.92l7.14 5.35a4.78 4.78 0 002 .87c.32.06.66.09 1 .16a4.83 4.83 0 011.54.52c.334.16.714.191 1.07.09A6.73 6.73 0 0022 20.26a6.33 6.33 0 001.24-3.53 1.41 1.41 0 00-.08-.81z" stroke="#165209" stroke-linecap="round" stroke-linejoin="round"/>
  </g>
</svg>
