<svg xmlns="http://www.w3.org/2000/svg" width="47" height="35.724" viewBox="0 0 47 35.724">
  <path id="Chat" d="M37.145,80.346v-16.3A4.554,4.554,0,0,0,32.6,59.5H4.548A4.554,4.554,0,0,0,0,64.047v16.3a4.554,4.554,0,0,0,4.548,4.548H8.631L8.718,89a1.517,1.517,0,0,0,2.428,1.179l7.01-5.285H32.6A4.554,4.554,0,0,0,37.145,80.346Zm-19.5,1.516a1.516,1.516,0,0,0-.913.305l-5.05,3.807-.056-2.629a1.516,1.516,0,0,0-1.516-1.484H4.548a1.518,1.518,0,0,1-1.516-1.516v-16.3a1.518,1.518,0,0,1,1.516-1.516H32.6a1.518,1.518,0,0,1,1.516,1.516v16.3A1.518,1.518,0,0,1,32.6,81.862H17.65ZM47,73.523V86.031a4.553,4.553,0,0,1-4.548,4.548H38.363l-.081,3.166a1.517,1.517,0,0,1-1.516,1.477c-.605,0-.268.1-7.851-4.643H21.984a1.516,1.516,0,1,1,0-3.032c8.042,0,7.666-.085,8.171.231l5.163,3.233.051-1.987a1.516,1.516,0,0,1,1.516-1.477h5.567a1.518,1.518,0,0,0,1.516-1.516V73.523a1.518,1.518,0,0,0-1.516-1.516,1.516,1.516,0,0,1,0-3.032A4.554,4.554,0,0,1,47,73.523ZM28.048,69.449a1.516,1.516,0,0,1-1.516,1.516H10.613a1.516,1.516,0,1,1,0-3.032H26.532A1.516,1.516,0,0,1,28.048,69.449ZM25.3,76.082A1.516,1.516,0,0,1,23.784,77.6H13.361a1.516,1.516,0,0,1,0-3.032H23.784A1.516,1.516,0,0,1,25.3,76.082Z" transform="translate(0 -59.499)" fill="#ea2e7e"/>
</svg>
