<svg xmlns="http://www.w3.org/2000/svg" id="prefix__chronometer" width="34.261" height="31.352" viewBox="0 0 34.261 31.352">
    <defs>
        <style>
            .prefix__cls-1{fill:#ea2d7d}
        </style>
    </defs>
    <g id="prefix__Group_572" data-name="Group 572">
        <path id="prefix__Path_1025" d="M201.8 126.92V120a1.4 1.4 0 1 0-2.8 0v7.509a1.531 1.531 0 0 0 .371.958l6.4 7.216a1.329 1.329 0 0 0 1.916.077 1.4 1.4 0 0 0 .147-1.986z" class="prefix__cls-1" data-name="Path 1025" transform="translate(-185.086 -111.762)"/>
        <path id="prefix__Path_1026" d="M32.862 33.532a1.4 1.4 0 0 0-1.4 1.4v.077h-.909A15.436 15.436 0 0 0 15.312 20.8a15.68 15.68 0 0 0 0 31.352A15.494 15.494 0 0 0 30.569 37.8h.895v.077a1.4 1.4 0 0 0 2.8 0v-2.946a1.4 1.4 0 0 0-1.402-1.399zm-17.55 15.753a12.813 12.813 0 0 1 0-25.619 12.813 12.813 0 0 1 0 25.619z" class="prefix__cls-1" data-name="Path 1026" transform="translate(0 -20.8)"/>
    </g>
</svg>
