<svg xmlns="http://www.w3.org/2000/svg" width="20" height="20" fill="none" viewBox="0 0 20 20">
    <path fill="#666" stroke="#666" stroke-width=".5" d="M4.528 16c-.128 0-.256-.064-.384-.128-.192-.192-.192-.513 0-.705L15.152 4.144c.192-.192.512-.192.704 0 .192.192.192.513 0 .705L4.912 15.808c-.128.128-.256.192-.384.192z"/>
    <path fill="#666" stroke="#666" stroke-width=".5" d="M15.536 16c-.128 0-.256-.064-.384-.128L4.208 4.849c-.192-.192-.192-.513 0-.705.192-.192.512-.192.704 0l10.944 10.959c.192.192.192.512 0 .705-.064.128-.192.192-.32.192z"/>
</svg>
