<svg xmlns="http://www.w3.org/2000/svg" width="20" height="20" viewBox="0 0 20 20">
  <g id="close-grey" transform="translate(0 -0.005)">
    <g id="Group_2999" data-name="Group 2999" transform="translate(0 0.005)">
      <path id="Path_6599" data-name="Path 6599" d="M17.075,2.931a10,10,0,1,0,0,14.149A10.016,10.016,0,0,0,17.075,2.931ZM14.127,12.953a.834.834,0,1,1-1.179,1.179L10,11.184,7.054,14.131a.834.834,0,0,1-1.179-1.179L8.822,10,5.874,7.058A.834.834,0,1,1,7.053,5.879L10,8.826l2.947-2.947a.834.834,0,0,1,1.179,1.179L11.179,10Z" transform="translate(0 -0.005)" fill="#aaa"/>
    </g>
  </g>
</svg>
