<svg id="comprehensive-blue" xmlns="http://www.w3.org/2000/svg" width="30" height="30" viewBox="0 0 30 30">
  <g id="Group_3138" data-name="Group 3138">
    <path id="Path_6728" data-name="Path 6728" d="M28.828,12.48A1.172,1.172,0,0,0,30,11.309V1.172A1.172,1.172,0,0,0,28.828,0H12.47A3.04,3.04,0,0,0,9.434,3.036V4.688h-6.4A3.04,3.04,0,0,0,0,7.724V26.016a1.172,1.172,0,0,0,.014.17c-.008.1-.014.2-.014.3A3.52,3.52,0,0,0,3.516,30H19.395a1.172,1.172,0,0,0,0-2.344H3.516a1.172,1.172,0,0,1,0-2.344H28.828a1.172,1.172,0,0,0,0-2.344H12.949a1.172,1.172,0,0,1,0-2.344H28.828A1.172,1.172,0,0,0,30,19.453V17.168a1.172,1.172,0,0,0-2.344,0v1.113H16.465V5.859a1.172,1.172,0,0,0-2.344,0V18.281H12.949a3.5,3.5,0,0,0-1.172.2V3.036a.693.693,0,0,1,.692-.692H27.656v8.965A1.172,1.172,0,0,0,28.828,12.48ZM3.516,22.969a3.5,3.5,0,0,0-1.172.2V7.724a.693.693,0,0,1,.692-.692H4.688V19.453a1.172,1.172,0,0,0,2.344,0V7.031h2.4v14.3a1.172,1.172,0,0,0,.014.17c-.008.1-.014.2-.014.3a3.5,3.5,0,0,0,.2,1.172Z" fill="#546de5"/>
  </g>
</svg>
