<svg xmlns="http://www.w3.org/2000/svg" width="88.281" height="100" viewBox="0 0 88.281 100">
  <g id="curious" transform="translate(-30)">
    <path id="Path_2942" data-name="Path 2942" d="M185.1,86.766c0-16.422-17.387-28.782-34.756-19.677a18.4,18.4,0,0,0-7.818,7.941c-5.412,10.567-2.912,21.106,3.582,27.7a18.094,18.094,0,0,1,5.128,12.708h0a2.271,2.271,0,0,0,2.271,2.271h17.656a2.271,2.271,0,0,0,2.271-2.271h0a18.119,18.119,0,0,1,5.137-12.716A22.69,22.69,0,0,0,185.1,86.766Z" transform="translate(-88.166 -51.5)" fill="#1ae2bc"/>
    <path id="Path_2943" data-name="Path 2943" d="M70.469,339l-18.562,5.354A16.473,16.473,0,0,0,40,360.182v10.654h84.375V360.182a16.473,16.473,0,0,0-11.907-15.827L93.906,339Z" transform="translate(-8.047 -272.789)" fill="#ea2e7e"/>
    <circle id="Ellipse_219" data-name="Ellipse 219" cx="3.906" cy="3.906" r="3.906" transform="translate(70.039 33.984)" fill="#fff"/>
    <path id="Path_2944" data-name="Path 2944" d="M224.417,351.5h-8.608a4.68,4.68,0,0,1-4.68-4.68V339H229.1v7.82A4.681,4.681,0,0,1,224.417,351.5Z" transform="translate(-145.752 -272.789)" fill="#c9c8cd"/>
    <path id="Path_2945" data-name="Path 2945" d="M210.146,350.428a18.289,18.289,0,0,0-9.617-6.627l-10.674-3.079a1.953,1.953,0,1,0-1.083,3.753l10.674,3.079a14.588,14.588,0,0,1,10.5,13.951v8.7H150.715a1.953,1.953,0,0,0,0,3.906h61.179a1.953,1.953,0,0,0,1.953-1.953V361.506A18.287,18.287,0,0,0,210.146,350.428Z" transform="translate(-95.566 -274.113)" fill="#2a1f5a"/>
    <path id="Path_2946" data-name="Path 2946" d="M110.953,492a1.954,1.954,0,1,0,1.381.572A1.968,1.968,0,0,0,110.953,492Z" transform="translate(-63.57 -395.906)" fill="#2a1f5a"/>
    <path id="Path_2947" data-name="Path 2947" d="M44.4,349.119l9.359-2.7a1.953,1.953,0,0,0-1.083-3.753l-9.359,2.7A18.426,18.426,0,0,0,30,363.069v10.654a1.953,1.953,0,0,0,1.953,1.953h7.422a1.953,1.953,0,0,0,0-3.906H33.906v-8.7A14.588,14.588,0,0,1,44.4,349.119Z" transform="translate(0 -275.677)" fill="#2a1f5a"/>
    <path id="Path_2948" data-name="Path 2948" d="M136.672,96.021a16.034,16.034,0,0,1,4.567,11.338,4.227,4.227,0,0,0,2.31,3.763v6.327a6.641,6.641,0,0,0,6.634,6.634h8.608a6.641,6.641,0,0,0,6.634-6.634V110.9a4.223,4.223,0,0,0,1.918-3.536,16.06,16.06,0,0,1,4.576-11.347,24.728,24.728,0,0,0,3.8-29.654,24.87,24.87,0,0,0-8.654-8.838c-7.712-4.664-17.069-4.753-25.674-.242a20.27,20.27,0,0,0-8.65,8.78A26.9,26.9,0,0,0,129.879,82.6,24.541,24.541,0,0,0,136.672,96.021Zm24.845,21.428a2.73,2.73,0,0,1-2.727,2.727h-8.608a2.73,2.73,0,0,1-2.727-2.727v-5.866h14.063v5.866Zm-25.3-49.611a16.383,16.383,0,0,1,6.987-7.1,23.945,23.945,0,0,1,11.116-2.863,20.81,20.81,0,0,1,14.81,35.4,19.944,19.944,0,0,0-5.7,14.086.318.318,0,0,1-.317.317h-6.9V93.418a1.953,1.953,0,0,0-3.906,0v14.258h-6.85a.318.318,0,0,1-.317-.318,19.917,19.917,0,0,0-5.689-14.078C134.284,88.026,130.717,78.583,136.22,67.839Z" transform="translate(-80.125 -43.419)" fill="#2a1f5a"/>
    <path id="Path_2949" data-name="Path 2949" d="M230.859,175.719A5.859,5.859,0,1,0,225,169.859,5.866,5.866,0,0,0,230.859,175.719Zm0-7.812a1.953,1.953,0,1,1-1.953,1.953A1.955,1.955,0,0,1,230.859,167.906Z" transform="translate(-156.914 -131.969)" fill="#2a1f5a"/>
    <path id="Path_2950" data-name="Path 2950" d="M247.889,7.963a1.953,1.953,0,0,0,1.953-1.953V1.953a1.953,1.953,0,0,0-3.906,0V6.01A1.953,1.953,0,0,0,247.889,7.963Z" transform="translate(-173.761)" fill="#2a1f5a"/>
    <path id="Path_2951" data-name="Path 2951" d="M314.674,22.4a1.947,1.947,0,0,0,1.381-.572l3.813-3.813a1.953,1.953,0,1,0-2.762-2.762l-3.813,3.813a1.953,1.953,0,0,0,1.381,3.334Z" transform="translate(-227.501 -11.811)" fill="#2a1f5a"/>
    <path id="Path_2952" data-name="Path 2952" d="M163.6,21.808a1.953,1.953,0,1,0,2.762-2.762L162.513,15.2a1.953,1.953,0,0,0-2.762,2.762Z" transform="translate(-103.949 -11.768)" fill="#2a1f5a"/>
    <path id="Path_2953" data-name="Path 2953" d="M330.833,439.953a1.953,1.953,0,0,0,1.953,1.953h6.694a1.953,1.953,0,0,0,0-3.906h-6.694A1.953,1.953,0,0,0,330.833,439.953Z" transform="translate(-242.077 -352.453)" fill="#2a1f5a"/>
    <path id="Path_2954" data-name="Path 2954" d="M406.334,441.334a1.952,1.952,0,1,0-1.381.572A1.968,1.968,0,0,0,406.334,441.334Z" transform="translate(-300.148 -352.453)" fill="#2a1f5a"/>
  </g>
</svg>
