<svg xmlns="http://www.w3.org/2000/svg" width="28" height="26" viewBox="0 0 17 17">
  <g id="curve-close" transform="translate(-791 -523)">
    <path id="Rectangle_9" data-name="Rectangle 9" d="M0,0H9a8,8,0,0,1,8,8v9a0,0,0,0,1,0,0H8A8,8,0,0,1,0,9V0A0,0,0,0,1,0,0Z" transform="translate(791 523)" fill="#ea2e7e" opacity="0.5"/>
    <g id="close-cross" transform="translate(796.022 528.015)">
      <path id="Path_171" data-name="Path 171" d="M4.686,3.5,6.755,1.432A.838.838,0,0,0,5.57.246L3.5,2.316,1.431.246A.838.838,0,0,0,.246,1.432L2.315,3.5.246,5.57A.838.838,0,0,0,1.431,6.755L3.5,4.686,5.57,6.756A.838.838,0,0,0,6.755,5.57Z" transform="translate(0 -0.001)" fill="#fff"/>
    </g>
  </g>
</svg>
