<svg xmlns="http://www.w3.org/2000/svg" width="30" height="22.5" viewBox="0 0 30 22.5">
  <g id="engagin-format" transform="translate(0 -64)">
    <g id="Group_3140" data-name="Group 3140" transform="translate(0 64)">
      <g id="Group_3139" data-name="Group 3139">
        <path id="Path_6729" data-name="Path 6729" d="M29.375,298.667H.625a.625.625,0,0,0-.625.625v1.25a.625.625,0,0,0,.625.625h28.75a.625.625,0,0,0,.625-.625v-1.25A.625.625,0,0,0,29.375,298.667Z" transform="translate(0 -284.917)" fill="#c9c8cd"/>
        <path id="Path_6730" data-name="Path 6730" d="M310.541,192h-11.25a.625.625,0,0,0-.625.625v1.25a.625.625,0,0,0,.625.625h11.25a.625.625,0,0,0,.625-.625v-1.25A.625.625,0,0,0,310.541,192Z" transform="translate(-281.166 -184.5)" fill="#c9c8cd"/>
        <path id="Path_6731" data-name="Path 6731" d="M310.541,85.333h-11.25a.625.625,0,0,0-.625.625v1.25a.625.625,0,0,0,.625.625h11.25a.625.625,0,0,0,.625-.625v-1.25A.625.625,0,0,0,310.541,85.333Z" transform="translate(-281.166 -84.083)" fill="#c9c8cd"/>
        <path id="Path_6732" data-name="Path 6732" d="M19.375,405.333H.625a.625.625,0,0,0-.625.625v1.25a.625.625,0,0,0,.625.625h18.75a.625.625,0,0,0,.625-.625v-1.25A.625.625,0,0,0,19.375,405.333Z" transform="translate(0 -385.333)" fill="#c9c8cd"/>
        <path id="Path_6733" data-name="Path 6733" d="M.625,75.25h13.75A.625.625,0,0,0,15,74.625v-10A.625.625,0,0,0,14.375,64H.625A.625.625,0,0,0,0,64.625v10A.625.625,0,0,0,.625,75.25Zm.625-10h12.5v5.991l-3.308-3.308a.625.625,0,0,0-.884,0L7.576,69.915a.625.625,0,0,0,0,.884l.625.625a.625.625,0,0,1,0,.884.641.641,0,0,1-.884,0l-.625-.625L4.817,69.808a.625.625,0,0,0-.884,0L1.25,72.491V65.25Z" transform="translate(0 -64)" fill="#c9c8cd"/>
        <circle id="Ellipse_87" data-name="Ellipse 87" cx="1.25" cy="1.25" r="1.25" transform="translate(5 2.5)" fill="#c9c8cd"/>
      </g>
    </g>
  </g>
</svg>
