<svg id="find-tutor" xmlns="http://www.w3.org/2000/svg" width="18" height="18" viewBox="0 0 18 18">
  <g id="Group_3079" data-name="Group 3079" transform="translate(3.164)">
    <g id="Group_3078" data-name="Group 3078">
      <path id="Path_6660" data-name="Path 6660" d="M91.582,0a1.582,1.582,0,1,0,1.582,1.582A1.584,1.584,0,0,0,91.582,0Z" transform="translate(-90)" fill="#1ae2bc"/>
    </g>
  </g>
  <g id="Group_3081" data-name="Group 3081" transform="translate(7.383)">
    <g id="Group_3080" data-name="Group 3080">
      <path id="Path_6661" data-name="Path 6661" d="M219.035,0h-7.453A1.584,1.584,0,0,0,210,1.582V3.456a2.108,2.108,0,0,1,.437.326l1.034,1.034.75-.375a1.981,1.981,0,0,1,1.4-.161l2.531-1.265a1.582,1.582,0,0,1,1.415,2.83l-2.425,1.213a2.09,2.09,0,0,1-1.031,1.158l-.444.222h5.373a1.584,1.584,0,0,0,1.582-1.582V1.582A1.584,1.584,0,0,0,219.035,0Z" transform="translate(-210)" fill="#1ae2bc"/>
    </g>
  </g>
  <g id="Group_3083" data-name="Group 3083" transform="translate(0 3.903)">
    <g id="Group_3082" data-name="Group 3082">
      <path id="Path_6662" data-name="Path 6662" d="M14.71,111.3a.528.528,0,0,0-.708-.236l-2.941,1.47a1.031,1.031,0,0,0-.986-.044l-1.43.715-1.572-1.572a1.047,1.047,0,0,0-.746-.309H2.109A2.111,2.111,0,0,0,0,113.434v3.2a1.056,1.056,0,0,0,1.406.994l.7-.248v6.672a1.055,1.055,0,0,0,2.109,0v-3.727a.527.527,0,0,1,1.055,0v3.727a1.055,1.055,0,0,0,2.109,0v-8.821l.7.248a1.022,1.022,0,0,0,.823-.045l2.109-1.055a1.043,1.043,0,0,0,.571-.928l2.885-1.442A.527.527,0,0,0,14.71,111.3Z" transform="translate(0 -111.008)" fill="#1ae2bc"/>
    </g>
  </g>
</svg>
