<svg xmlns="http://www.w3.org/2000/svg" width="24.418" height="30" viewBox="0 0 24.418 30">
  <g id="good-refresher-blue" transform="translate(-47.628)">
    <g id="Group_3142" data-name="Group 3142" transform="translate(47.628)">
      <g id="Group_3141" data-name="Group 3141">
        <path id="Path_6734" data-name="Path 6734" d="M71,0H48.674a1.047,1.047,0,0,0-1.046,1.046V28.954A1.047,1.047,0,0,0,48.674,30H71a1.047,1.047,0,0,0,1.046-1.046V1.046A1.046,1.046,0,0,0,71,0ZM69.954,27.907H49.721V2.093H69.954Z" transform="translate(-47.628)" fill="#546de5"/>
      </g>
    </g>
    <g id="Group_3144" data-name="Group 3144" transform="translate(54.376 7.125)">
      <g id="Group_3143" data-name="Group 3143">
        <path id="Path_6735" data-name="Path 6735" d="M172.671,121.592h-8.83a1.046,1.046,0,0,0,0,2.093h8.83a1.046,1.046,0,0,0,0-2.093Z" transform="translate(-162.795 -121.592)" fill="#546de5"/>
      </g>
    </g>
    <g id="Group_3146" data-name="Group 3146" transform="translate(52.052 11.677)">
      <g id="Group_3145" data-name="Group 3145">
        <path id="Path_6736" data-name="Path 6736" d="M128.722,199.289h-4.553a1.046,1.046,0,0,0-1.046,1.046v4.553a1.046,1.046,0,0,0,1.046,1.046h4.553a1.047,1.047,0,0,0,1.046-1.046v-4.553A1.046,1.046,0,0,0,128.722,199.289Zm-1.046,4.553h-2.46v-2.46h2.46Z" transform="translate(-123.123 -199.289)" fill="#546de5"/>
      </g>
    </g>
    <g id="Group_3148" data-name="Group 3148" transform="translate(60.881 11.677)">
      <g id="Group_3147" data-name="Group 3147">
        <path id="Path_6737" data-name="Path 6737" d="M279.51,199.291h-4.649a1.046,1.046,0,0,0,0,2.093h4.649a1.046,1.046,0,0,0,0-2.093Z" transform="translate(-273.815 -199.291)" fill="#546de5"/>
      </g>
    </g>
    <g id="Group_3150" data-name="Group 3150" transform="translate(60.881 16.23)">
      <g id="Group_3149" data-name="Group 3149">
        <path id="Path_6738" data-name="Path 6738" d="M279.51,276.988h-4.649a1.046,1.046,0,0,0,0,2.093h4.649a1.046,1.046,0,1,0,0-2.093Z" transform="translate(-273.815 -276.988)" fill="#546de5"/>
      </g>
    </g>
    <g id="Group_3152" data-name="Group 3152" transform="translate(52.052 20.782)">
      <g id="Group_3151" data-name="Group 3151">
        <path id="Path_6739" data-name="Path 6739" d="M137.648,354.687H124.169a1.046,1.046,0,1,0,0,2.093h13.478a1.046,1.046,0,1,0,0-2.093Z" transform="translate(-123.123 -354.687)" fill="#546de5"/>
      </g>
    </g>
  </g>
</svg>
