<svg id="image" xmlns="http://www.w3.org/2000/svg" width="18" height="18" viewBox="0 0 18 18">
  <g id="Group_4" data-name="Group 4">
    <g id="Group_3" data-name="Group 3">
      <path id="Path_154" data-name="Path 154" d="M93.8,80V93.2a.6.6,0,0,1-.6.6H80A1.2,1.2,0,0,0,81.2,95h12A1.8,1.8,0,0,0,95,93.2v-12A1.2,1.2,0,0,0,93.8,80Z" transform="translate(-77 -77)" fill="#1ae2bc"/>
      <path id="Path_155" data-name="Path 155" d="M15.6,13.8V1.8A1.8,1.8,0,0,0,13.8,0H1.8A1.8,1.8,0,0,0,0,1.8v12a1.8,1.8,0,0,0,1.8,1.8h12A1.8,1.8,0,0,0,15.6,13.8ZM10.978,7.371l0,0L8.4,9.954,5.826,7.38a.6.6,0,0,0-.846,0L1.2,11.154V1.8a.6.6,0,0,1,.6-.6h12a.6.6,0,0,1,.6.6V9.954L11.826,7.38A.6.6,0,0,0,10.978,7.371Z" fill="#1ae2bc"/>
      <path id="Path_156" data-name="Path 156" d="M177.8,80a1.8,1.8,0,1,0,1.8,1.8A1.8,1.8,0,0,0,177.8,80Zm0,2.4a.6.6,0,1,1,.6-.6A.6.6,0,0,1,177.8,82.4Z" transform="translate(-169.4 -77)" fill="#1ae2bc"/>
    </g>
  </g>
</svg>
