<svg xmlns="http://www.w3.org/2000/svg" width="13.555" height="14" viewBox="0 0 13.555 14">
  <g id="institution" transform="translate(-6.999 0)">
    <g id="Group_2675" data-name="Group 2675" transform="translate(6.999 0)">
      <g id="Group_2674" data-name="Group 2674" transform="translate(0)">
        <path id="Path_6480" data-name="Path 6480" d="M20.554,13.683V8.46a.949.949,0,0,0-.947-.951H16.736V7.181a.323.323,0,0,0,.443-.038l.808-.921a.315.315,0,0,0-.026-.445l-.008-.007-3.859-3.3v-.5h1.691a.319.319,0,0,0,.253-.512L15.677.985,16.039.51A.318.318,0,0,0,15.786,0h-2a.322.322,0,0,0-.323.317V2.412L9.537,5.771A.319.319,0,0,0,9.5,6.22l.792.921a.3.3,0,0,0,.234.111.251.251,0,0,0,.192-.071v.328H7.95A.949.949,0,0,0,7,8.457v5.226a.314.314,0,0,0,.31.317H20.24a.314.314,0,0,0,.314-.314S20.554,13.684,20.554,13.683ZM14.095.636h1.049l-.12.157a.319.319,0,0,0,0,.386l.12.157H14.095ZM10.722,13.364H7.636V8.46a.312.312,0,0,1,.309-.315h2.778Zm-.149-6.877L10.2,6.047l3.553-3.042,3.55,3.04-.387.442-2.957-2.53a.318.318,0,0,0-.413,0Zm3.936,6.877H12.981V11.1h1.527Zm1.591,0h-.955V10.776a.3.3,0,0,0-.286-.308H12.654a.3.3,0,0,0-.309.3s0,.009,0,.013v2.587h-.986V6.64l2.377-2.022L16.1,6.637Zm3.818-4.9v4.9H16.736V8.145H19.6a.312.312,0,0,1,.314.31S19.918,8.458,19.918,8.46Z" transform="translate(-6.999 0)" fill="#546de5"/>
      </g>
    </g>
    <g id="Group_2677" data-name="Group 2677" transform="translate(12.321 8.527)">
      <g id="Group_2676" data-name="Group 2676">
        <path id="Path_6481" data-name="Path 6481" d="M176.78,268h-2.2a.318.318,0,1,0,0,.636h2.2a.318.318,0,0,0,0-.636Z" transform="translate(-174.259 -268)" fill="#546de5"/>
      </g>
    </g>
    <g id="Group_2679" data-name="Group 2679" transform="translate(8.208 9.031)">
      <g id="Group_2678" data-name="Group 2678" transform="translate(0)">
        <path id="Path_6482" data-name="Path 6482" d="M45.318,283.85a.318.318,0,0,0-.318.318v.547a.318.318,0,0,0,.636,0v-.547A.318.318,0,0,0,45.318,283.85Z" transform="translate(-45 -283.85)" fill="#546de5"/>
      </g>
    </g>
    <g id="Group_2681" data-name="Group 2681" transform="translate(9.513 9.031)">
      <g id="Group_2680" data-name="Group 2680" transform="translate(0)">
        <path id="Path_6483" data-name="Path 6483" d="M86.318,283.85a.318.318,0,0,0-.318.318v.547a.318.318,0,0,0,.636,0v-.547A.318.318,0,0,0,86.318,283.85Z" transform="translate(-86 -283.85)" fill="#546de5"/>
      </g>
    </g>
    <g id="Group_2683" data-name="Group 2683" transform="translate(8.208 11.162)">
      <g id="Group_2682" data-name="Group 2682" transform="translate(0)">
        <path id="Path_6484" data-name="Path 6484" d="M45.318,350.808a.318.318,0,0,0-.318.318v.547a.318.318,0,1,0,.636,0v-.547A.318.318,0,0,0,45.318,350.808Z" transform="translate(-45 -350.808)" fill="#546de5"/>
      </g>
    </g>
    <g id="Group_2685" data-name="Group 2685" transform="translate(9.513 11.162)">
      <g id="Group_2684" data-name="Group 2684" transform="translate(0)">
        <path id="Path_6485" data-name="Path 6485" d="M86.318,350.808a.318.318,0,0,0-.318.318v.547a.318.318,0,1,0,.636,0v-.547A.318.318,0,0,0,86.318,350.808Z" transform="translate(-86 -350.808)" fill="#546de5"/>
      </g>
    </g>
    <g id="Group_2687" data-name="Group 2687" transform="translate(17.404 9.031)">
      <g id="Group_2686" data-name="Group 2686">
        <path id="Path_6486" data-name="Path 6486" d="M334.318,283.85a.318.318,0,0,0-.318.318v.547a.318.318,0,0,0,.636,0v-.547A.318.318,0,0,0,334.318,283.85Z" transform="translate(-334 -283.85)" fill="#546de5"/>
      </g>
    </g>
    <g id="Group_2689" data-name="Group 2689" transform="translate(18.677 9.031)">
      <g id="Group_2688" data-name="Group 2688">
        <path id="Path_6487" data-name="Path 6487" d="M374.318,283.85a.318.318,0,0,0-.318.318v.547a.318.318,0,0,0,.636,0v-.547A.318.318,0,0,0,374.318,283.85Z" transform="translate(-374 -283.85)" fill="#546de5"/>
      </g>
    </g>
    <g id="Group_2691" data-name="Group 2691" transform="translate(17.404 11.162)">
      <g id="Group_2690" data-name="Group 2690">
        <path id="Path_6488" data-name="Path 6488" d="M334.318,350.808a.318.318,0,0,0-.318.318v.547a.318.318,0,1,0,.636,0v-.547A.318.318,0,0,0,334.318,350.808Z" transform="translate(-334 -350.808)" fill="#546de5"/>
      </g>
    </g>
    <g id="Group_2693" data-name="Group 2693" transform="translate(18.677 11.162)">
      <g id="Group_2692" data-name="Group 2692">
        <path id="Path_6489" data-name="Path 6489" d="M374.318,350.808a.318.318,0,0,0-.318.318v.547a.318.318,0,1,0,.636,0v-.547A.318.318,0,0,0,374.318,350.808Z" transform="translate(-374 -350.808)" fill="#546de5"/>
      </g>
    </g>
  </g>
</svg>
