<?xml version="1.0" encoding="utf-8"?>
<!-- Generator: Adobe Illustrator 23.0.3, SVG Export Plug-In . SVG Version: 6.00 Build 0)  -->
<svg version="1.1" id="Layer_1" xmlns="http://www.w3.org/2000/svg" xmlns:xlink="http://www.w3.org/1999/xlink" x="0px" y="0px"
	 viewBox="0 0 44 44" style="enable-background:new 0 0 44 44;" xml:space="preserve">
<style type="text/css">
	.st0{fill:#FFFFFF;}
	.st1{fill:#E9E9E9;}
	.st2{fill:#546DE5;}
</style>
<g id="list-box-blue" transform="translate(-1109 -597)">
	<g id="Rectangle_747" transform="translate(1109 597)">
		<g>
			<path class="st0" d="M8,0h28c4.4,0,8,3.6,8,8v28c0,4.4-3.6,8-8,8H8c-4.4,0-8-3.6-8-8V8C0,3.6,3.6,0,8,0z"/>
		</g>
		<g>
			<path class="st1" d="M36,44H8c-4.4,0-8-3.6-8-8V8c0-4.4,3.6-8,8-8h28c4.4,0,8,3.6,8,8v28C44,40.4,40.4,44,36,44z M8,1
				C4.1,1,1,4.1,1,8v28c0,3.9,3.1,7,7,7h28c3.9,0,7-3.1,7-7V8c0-3.9-3.1-7-7-7H8z"/>
		</g>
	</g>
	<g id="list_5_" transform="translate(1121 556.186)">
		<g id="Group_3316" transform="translate(0 54.814)">
			<g id="Path_6689">
				<path class="st2" d="M4.6,5.7H1.1C0.8,5.7,0.5,5.8,0.3,6C0.1,6.2,0,6.5,0,6.8v2.1c0,0.3,0.1,0.6,0.3,0.8C0.5,9.9,0.8,10,1.1,10
					h3.6c0.6,0,1.1-0.5,1.1-1.1c0,0,0,0,0,0V6.8C5.7,6.2,5.2,5.7,4.6,5.7C4.6,5.7,4.6,5.7,4.6,5.7z"/>
			</g>
			<g id="Path_6690">
				<path class="st2" d="M4.6,0H1.1C0.8,0,0.5,0.1,0.3,0.3C0.1,0.5,0,0.8,0,1.1v2.1C0,3.5,0.1,3.8,0.3,4c0.2,0.2,0.5,0.3,0.8,0.3
					h3.6c0.6,0,1.1-0.5,1.1-1.1c0,0,0,0,0,0V1.1C5.7,0.5,5.2,0,4.6,0C4.6,0,4.6,0,4.6,0z"/>
			</g>
			<g id="Path_6691">
				<path class="st2" d="M4.6,11.4H1.1c-0.3,0-0.6,0.1-0.8,0.3C0.1,11.9,0,12.2,0,12.5v2.1c0,0.3,0.1,0.6,0.3,0.8
					c0.2,0.2,0.5,0.3,0.8,0.3h3.6c0.6,0,1.1-0.5,1.1-1.1c0,0,0,0,0,0v-2.1C5.7,11.9,5.2,11.4,4.6,11.4C4.6,11.4,4.6,11.4,4.6,11.4
					L4.6,11.4z"/>
			</g>
			<g id="Path_6692">
				<path class="st2" d="M18.9,5.7H8.2c-0.6,0-1.1,0.5-1.1,1.1c0,0,0,0,0,0v2.1c0,0.6,0.5,1.1,1.1,1.1c0,0,0,0,0,0h10.7
					c0.6,0,1.1-0.5,1.1-1.1c0,0,0,0,0,0V6.8C20,6.2,19.5,5.7,18.9,5.7C18.9,5.7,18.9,5.7,18.9,5.7z"/>
			</g>
			<g id="Path_6693">
				<path class="st2" d="M18.9,11.4H8.2c-0.6,0-1.1,0.5-1.1,1.1c0,0,0,0,0,0v2.1c0,0.6,0.5,1.1,1.1,1.1c0,0,0,0,0,0h10.7
					c0.6,0,1.1-0.5,1.1-1.1c0,0,0,0,0,0v-2.1C20,11.9,19.5,11.4,18.9,11.4C18.9,11.4,18.9,11.4,18.9,11.4L18.9,11.4z"/>
			</g>
			<g id="Path_6694">
				<path class="st2" d="M19.7,0.3C19.5,0.1,19.2,0,18.9,0H8.2C7.6,0,7.1,0.5,7.1,1.1c0,0,0,0,0,0v2.1c0,0.6,0.5,1.1,1.1,1.1
					c0,0,0,0,0,0h10.7c0.6,0,1.1-0.5,1.1-1.1c0,0,0,0,0,0V1.1C20,0.8,19.9,0.5,19.7,0.3z"/>
			</g>
		</g>
	</g>
</g>
</svg>
