<?xml version="1.0" encoding="utf-8"?>
<!-- Generator: Adobe Illustrator 23.0.3, SVG Export Plug-In . SVG Version: 6.00 Build 0)  -->
<svg version="1.1" id="Layer_1" xmlns="http://www.w3.org/2000/svg" xmlns:xlink="http://www.w3.org/1999/xlink" x="0px" y="0px"
	 viewBox="0 0 100 90.3" style="enable-background:new 0 0 100 90.3;" xml:space="preserve">
<style type="text/css">
	.st0{fill:#C9C8CD;}
	.st1{enable-background:new    ;}
</style>
<g id="no-comment" transform="translate(0 -24.795)">
	<g id="Path_6633">
		<path class="st0" d="M73.7,78.5c-0.8,0-1.5,0.7-1.5,1.5v17.3c0,0.9-0.7,1.5-1.5,1.5H41.2c-0.8,0-1.5,0.7-1.5,1.5
			c0,0.8,0.7,1.5,1.5,1.5h29.5c2.5,0,4.5-2,4.5-4.5V79.9C75.2,79.1,74.5,78.5,73.7,78.5z"/>
	</g>
	<g id="Path_6637">
		<path class="st0" d="M78.2,24.8c-12.1,0-21.8,9.8-21.8,21.8c0,1,0.1,2,0.2,3h-52c-2.5,0-4.5,2-4.5,4.5v43.1c0,2.5,2,4.5,4.5,4.5
			h8.4v10.4c0,1.9,1,2.6,1.5,2.9c0.3,0.1,0.5,0.2,0.8,0.2c0.9,0,1.7-0.4,2.3-1.1l12.3-12.3h4.3c0.8,0,1.5-0.7,1.5-1.5
			c0-0.8-0.7-1.5-1.5-1.5l0,0h-4.9c-0.4,0-0.8,0.2-1,0.4l-12.4,12.4v-11.4c0-0.8-0.7-1.5-1.5-1.5H4.5c-0.9,0-1.5-0.7-1.5-1.6V54.1
			c0-0.9,0.7-1.5,1.5-1.5h52.7c2.1,7.3,7.8,13,15.1,15.1v5.4c0,0.8,0.7,1.5,1.5,1.5c0.8,0,1.5-0.7,1.5-1.5v-4.8
			c11.9,1.7,23-6.7,24.7-18.6s-6.7-23-18.6-24.7C80.2,24.9,79.2,24.8,78.2,24.8z M78.2,65.5c-10.4,0-18.9-8.5-18.9-18.9
			s8.5-18.9,18.9-18.9s18.9,8.5,18.9,18.9v0C97.1,57.1,88.6,65.5,78.2,65.5z"/>
	</g>
	<g id="Path_6638">
		<path class="st0" d="M84,56.9c-3.3-3.2-8.5-3.2-11.8,0c-0.6,0.6-1.5,0.6-2.1,0s-0.6-1.5,0-2.1c0,0,0,0,0,0
			c4.4-4.3,11.5-4.3,15.9,0c0.6,0.6,0.6,1.5,0,2.1C85.6,57.5,84.7,57.5,84,56.9C84.1,56.9,84.1,56.9,84,56.9L84,56.9z"/>
	</g>
	<g id="Ellipse_77">
		<circle class="st0" cx="86.5" cy="43.1" r="3.1"/>
	</g>
	<g id="Ellipse_78">
		<ellipse class="st0" cx="69.7" cy="43.1" rx="3.1" ry="3.1"/>
	</g>
	<g class="st1">
		<path class="st0" d="M37.9,85.1c-0.4-0.4-0.6-1-0.6-1.6c0-0.7,0.2-1.2,0.6-1.6s1-0.6,1.6-0.6s1.2,0.2,1.6,0.6
			c0.4,0.4,0.6,1,0.6,1.6c0,0.7-0.2,1.2-0.6,1.6c-0.4,0.4-0.9,0.6-1.6,0.6S38.4,85.5,37.9,85.1z M38.8,78.6
			c-0.2-0.2-0.3-0.5-0.4-0.8l-1.1-14.8c-0.1-0.7,0.1-1.2,0.5-1.6c0.4-0.4,1-0.6,1.6-0.6c0.7,0,1.2,0.2,1.6,0.6s0.6,0.9,0.5,1.6
			l-1.1,14.8c0,0.4-0.1,0.7-0.3,0.9c-0.2,0.2-0.4,0.3-0.7,0.3C39.2,78.9,39,78.8,38.8,78.6z"/>
	</g>
</g>
</svg>
