<?xml version="1.0" encoding="utf-8"?>
<!-- Generator: Adobe Illustrator 23.0.3, SVG Export Plug-In . SVG Version: 6.00 Build 0)  -->
<svg version="1.1" id="Layer_1" xmlns="http://www.w3.org/2000/svg" xmlns:xlink="http://www.w3.org/1999/xlink" x="0px" y="0px"
	 viewBox="0 0 100 112.4" style="enable-background:new 0 0 100 112.4;" xml:space="preserve">
<style type="text/css">
	.st0{fill:#FFFFFF;}
	.st1{fill:#C9C8CD;}
	.st2{fill:#E6E6E6;}
	.st3{fill:#D2D2D2;}
	.st4{fill:#F1F1F1;}
	.st5{fill:#FBFBFC;}
	.st6{enable-background:new    ;}
</style>
<g id="no-event" transform="translate(-8541 -1795.215)">
	<g id="Event" transform="translate(8567.896 1795.215)">
		<g id="Path_170">
			<path class="st0" d="M1.4,6.3v35.9l2.1,2.1h37.4l2.9-2.9V7.1l-2.9-2.9H3.9L1.4,6.3z"/>
		</g>
		<g id="calendar_1_" transform="translate(0 0)">
			<g id="Path_166">
				<path class="st1" d="M22.3,39.3c5.9,0,10.7-4.8,10.7-10.7c0-5.9-4.8-10.7-10.7-10.7c-5.9,0-10.7,4.8-10.7,10.7
					C11.6,34.5,16.4,39.3,22.3,39.3z M22.3,20.5c4.4,0,8,3.6,8,8s-3.6,8-8,8s-8-3.6-8-8C14.3,24.1,17.9,20.5,22.3,20.5z"/>
			</g>
			<g id="Path_167">
				<path class="st1" d="M40.3,2.9h-2.5V1.3c0-0.7-0.6-1.4-1.3-1.4c-0.7,0-1.4,0.6-1.4,1.4v1.5h-2.6V1.3c0-0.7-0.6-1.4-1.4-1.4
					s-1.4,0.6-1.4,1.4v1.5H14.9V1.3c0-0.7-0.6-1.3-1.4-1.3c-0.7,0-1.3,0.6-1.3,1.3v1.5H9.5V1.3C9.5,0.6,8.9,0,8.2,0
					C7.4,0,6.8,0.6,6.8,1.3v1.5H4.4C2,2.9,0,4.8,0,7.2v34.1c0,2.4,2,4.4,4.4,4.4h35.9c2.4,0,4.4-2,4.4-4.4V7.2
					C44.6,4.8,42.7,2.9,40.3,2.9z M41.9,41.3c0,0.9-0.7,1.7-1.7,1.7H4.4c-0.9,0-1.7-0.7-1.7-1.7V14.1h39.2L41.9,41.3z M2.7,7.2
					c0-0.9,0.7-1.7,1.7-1.7h2.5v1.5c0,0.7,0.6,1.3,1.3,1.3c0.7,0,1.4-0.6,1.4-1.3V5.6h2.7v1.5c0,0.7,0.6,1.3,1.3,1.3
					c0.7,0,1.4-0.6,1.4-1.3V5.6h14.9v1.5c0,0.7,0.6,1.3,1.3,1.3c0.7,0,1.4-0.6,1.4-1.3V5.6h2.7v1.5c0,0.7,0.6,1.4,1.3,1.4
					c0.7,0,1.4-0.6,1.4-1.4V5.6h2.5c0.9,0,1.7,0.7,1.7,1.7v4.2H2.7V7.2z"/>
			</g>
		</g>
		<g id="pin" transform="translate(18.713 23.399)">
			<g id="Path_168">
				<path class="st1" d="M6.7,1.8C6.1,0.7,4.9,0,3.7,0C3.6,0,3.6,0,3.5,0c-1.3,0-2.4,0.7-3,1.8c-0.6,1.1-0.7,2.5,0,3.6l2.6,4.8v0
					c0.2,0.3,0.6,0.4,0.9,0.2c0.1-0.1,0.2-0.1,0.2-0.2v0l2.6-4.8C7.4,4.3,7.3,2.9,6.7,1.8L6.7,1.8z M3.6,4.7c-0.8,0-1.5-0.7-1.5-1.5
					s0.7-1.5,1.5-1.5c0.8,0,1.5,0.7,1.5,1.5C5.1,4.1,4.4,4.7,3.6,4.7L3.6,4.7z"/>
			</g>
		</g>
	</g>
	<g id="Group_2952" transform="translate(8541 1849.328)">
		<g id="_113---Mailbox" transform="translate(0 0)">
			<g id="Shape">
				<path class="st2" d="M50,56.7h41.7c3.7,0,6.7-3,6.7-6.7V34c0-1.5-0.5-2.9-1.4-4.1L77,4.2c-1.3-1.6-3.2-2.6-5.3-2.6H28.3
					c-2.1,0-4,1-5.3,2.6L3.1,29.9C2.2,31,1.7,32.5,1.7,34v16c0,3.7,3,6.7,6.7,6.7H50z"/>
			</g>
			<g id="Shape-2">
				<path class="st3" d="M96.9,29.9L77,4.2c-1.3-1.6-3.2-2.6-5.3-2.6h-5c2.1,0,4,1,5.3,2.6l19.9,25.6c0.9,1.2,1.4,2.6,1.4,4.1v16
					c0,3.7-3,6.7-6.7,6.7h5c3.7,0,6.7-3,6.7-6.7V34C98.3,32.5,97.8,31,96.9,29.9z"/>
			</g>
			<g id="Shape-3">
				<path class="st4" d="M91.7,35l-20-26.7H28.3L8.3,35h21.3c1.3,0,2.4,0.7,3,1.8l3.2,6.3c0.6,1.1,1.7,1.8,3,1.8h22.5
					c1.3,0,2.4-0.7,3-1.8l3.2-6.3c0.6-1.1,1.7-1.8,3-1.8H91.7z"/>
			</g>
			<g id="Shape-4">
				<path class="st5" d="M8.3,56.7h5c-3.7,0-6.7-3-6.7-6.7V34c0-1.5,0.5-2.9,1.4-4.1L28,4.2c1.3-1.6,3.2-2.6,5.3-2.6h-5
					c-2.1,0-4,1-5.3,2.6L3.1,29.9C2.2,31,1.7,32.5,1.7,34v16C1.7,53.7,4.7,56.7,8.3,56.7z"/>
			</g>
			<g id="Rectangle-path">
				<path class="st5" d="M13.5,13.7l8.2-10.5l2.6,2l-8.2,10.5L13.5,13.7z"/>
			</g>
			<g id="Group_2949">
				<g id="Shape-5">
					<path class="st1" d="M20.2,10.5c0.6-0.7,0.4-1.8-0.3-2.3c-0.7-0.6-1.8-0.4-2.3,0.3c-0.6,0.7-0.4,1.8,0.3,2.3c0,0,0,0,0,0
						C18.6,11.4,19.7,11.2,20.2,10.5z"/>
				</g>
				<g id="Shape-6">
					<path class="st1" d="M78.3,3.2c-1.6-2-4-3.2-6.6-3.2H28.3c-2.6,0-5,1.2-6.6,3.2c-0.6,0.7-0.5,1.8,0.2,2.3
						c0.7,0.6,1.8,0.5,2.3-0.2c0,0,0,0,0.1-0.1c1-1.2,2.4-1.9,3.9-1.9h43.5c1.5,0,3,0.7,3.9,1.9l19.9,25.6c0.7,0.9,1.1,2,1.1,3.1v16
						c0,2.8-2.2,5-5,5H8.3c-2.8,0-5-2.2-5-5V34c0-1.1,0.4-2.2,1.1-3.1l11.7-15.1c0.5-0.7,0.4-1.8-0.4-2.3c-0.7-0.5-1.7-0.4-2.3,0.3
						L1.8,28.8C0.6,30.3,0,32.1,0,34v16c0,4.6,3.7,8.3,8.3,8.3h83.3c4.6,0,8.3-3.7,8.3-8.3V34c0-1.9-0.6-3.7-1.8-5.1L78.3,3.2z"/>
				</g>
				<g id="Shape-7">
					<path class="st1" d="M29.3,7c-0.7-0.6-1.8-0.4-2.3,0.3L7,34c-0.6,0.7-0.4,1.8,0.3,2.3c0.3,0.2,0.6,0.3,1,0.3h21.3
						c0.6,0,1.2,0.4,1.5,0.9l3.2,6.3c0.8,1.7,2.6,2.8,4.5,2.8h22.5c1.9,0,3.6-1.1,4.5-2.8l3.2-6.3c0.3-0.6,0.9-0.9,1.5-0.9h7.9
						c0.9,0,1.7-0.7,1.7-1.6c0-0.9-0.7-1.7-1.6-1.7c0,0-0.1,0-0.1,0h-7.9c-1.9,0-3.6,1.1-4.5,2.8l-3.2,6.3c-0.3,0.6-0.9,0.9-1.5,0.9
						H38.7c-0.6,0-1.2-0.4-1.5-0.9l-3.2-6.3c-0.8-1.7-2.6-2.8-4.5-2.8H11.7l18-24C30.2,8.6,30.1,7.6,29.3,7L29.3,7z"/>
				</g>
				<g id="Shape-8">
					<path class="st1" d="M70.8,10l19.5,26c0.6,0.7,1.6,0.9,2.3,0.3c0.7-0.6,0.9-1.6,0.3-2.3L73,7.3c-0.3-0.4-0.8-0.7-1.3-0.7H38.3
						c-0.9,0-1.7,0.7-1.7,1.6c0,0.9,0.7,1.7,1.6,1.7c0,0,0.1,0,0.1,0H70.8z"/>
				</g>
			</g>
		</g>
		<g class="st6">
			<path class="st1" d="M48.5,28c-0.2-0.2-0.2-0.4-0.2-0.7c0-0.8,0.1-1.5,0.4-2c0.3-0.6,0.7-1.2,1.3-1.8c0.4-0.5,0.8-1,1-1.3
				c0.2-0.4,0.3-0.7,0.3-1.2c0-0.5-0.2-0.9-0.5-1.2c-0.4-0.3-0.8-0.4-1.5-0.4c-0.5,0-1,0.1-1.5,0.3s-1,0.6-1.7,1
				c-0.4,0.2-0.7,0.3-0.9,0.3c-0.2,0-0.5-0.1-0.6-0.3c-0.2-0.2-0.3-0.5-0.3-0.8c0-0.4,0.2-0.8,0.5-1c0.6-0.5,1.3-0.9,2.2-1.2
				c0.8-0.3,1.7-0.5,2.5-0.5c0.9,0,1.7,0.2,2.4,0.5c0.7,0.3,1.2,0.7,1.6,1.3c0.4,0.5,0.6,1.2,0.6,1.9c0,0.8-0.2,1.4-0.5,2
				c-0.4,0.6-0.9,1.2-1.6,1.9c-0.6,0.6-1.1,1.1-1.4,1.6s-0.5,0.9-0.6,1.4c0,0.2-0.1,0.4-0.3,0.5c-0.2,0.1-0.3,0.2-0.6,0.2
				C48.9,28.3,48.7,28.2,48.5,28z M48,32.5c-0.3-0.3-0.5-0.7-0.5-1.2c0-0.5,0.2-0.9,0.5-1.2c0.3-0.3,0.7-0.5,1.2-0.5
				s0.9,0.2,1.2,0.5c0.3,0.3,0.5,0.7,0.5,1.2c0,0.5-0.2,0.9-0.5,1.2c-0.3,0.3-0.7,0.5-1.2,0.5C48.7,32.9,48.3,32.8,48,32.5z"/>
		</g>
	</g>
</g>
</svg>
