<svg xmlns="http://www.w3.org/2000/svg" width="99.999" height="111.203" viewBox="0 0 99.999 111.203">
  <g id="no-term" transform="translate(-8776 -1796.458)">
    <g id="Group_2952" data-name="Group 2952" transform="translate(8776 1849.328)">
      <g id="_113---Mailbox" data-name="113---Mailbox" transform="translate(0 0)">
        <path id="Shape" d="M49.333,81H91a6.667,6.667,0,0,0,6.667-6.667V58.286a6.655,6.655,0,0,0-1.4-4.092L76.333,28.573A6.667,6.667,0,0,0,71.073,26H27.593a6.667,6.667,0,0,0-5.26,2.573L2.4,54.195A6.655,6.655,0,0,0,1,58.286V74.333A6.667,6.667,0,0,0,7.667,81Z" transform="translate(0.667 -24.333)" fill="#e6e6e6"/>
        <path id="Shape-2" data-name="Shape" d="M70.232,54.195,50.3,28.573A6.667,6.667,0,0,0,45.044,26h-5a6.667,6.667,0,0,1,5.26,2.573L65.232,54.195a6.666,6.666,0,0,1,1.4,4.092V74.333A6.667,6.667,0,0,1,59.971,81h5a6.667,6.667,0,0,0,6.667-6.667V58.286A6.666,6.666,0,0,0,70.232,54.195Z" transform="translate(26.696 -24.333)" fill="#d2d2d2"/>
        <path id="Shape-3" data-name="Shape" d="M88.333,56.666,68.333,30H25L5,56.666H26.273a3.333,3.333,0,0,1,2.982,1.843l3.157,6.313a3.333,3.333,0,0,0,2.982,1.843H57.94a3.333,3.333,0,0,0,2.982-1.843l3.157-6.313a3.333,3.333,0,0,1,2.982-1.843Z" transform="translate(3.333 -21.667)" fill="#f1f1f1"/>
        <path id="Shape-4" data-name="Shape" d="M7.667,81h5A6.667,6.667,0,0,1,6,74.333V58.286a6.667,6.667,0,0,1,1.4-4.092L27.333,28.573A6.667,6.667,0,0,1,32.593,26h-5a6.667,6.667,0,0,0-5.26,2.573L2.4,54.195A6.667,6.667,0,0,0,1,58.286V74.333A6.667,6.667,0,0,0,7.667,81Z" transform="translate(0.667 -24.333)" fill="#fbfbfc"/>
        <path id="Rectangle-path" d="M0,0H13.333V3.333H0Z" transform="matrix(0.614, -0.789, 0.789, 0.614, 13.481, 13.749)" fill="#fbfbfc"/>
        <g id="Group_2949" data-name="Group 2949">
          <path id="Shape-5" data-name="Shape" d="M13.325,32.393a1.667,1.667,0,1,0-2.333.292A1.667,1.667,0,0,0,13.325,32.393Z" transform="translate(6.897 -21.867)" fill="#c9c8cd"/>
          <path id="Shape-6" data-name="Shape" d="M78.316,28.217A8.278,8.278,0,0,0,71.738,25H28.261a8.278,8.278,0,0,0-6.578,3.217,1.667,1.667,0,1,0,2.63,2.047,5.037,5.037,0,0,1,3.948-1.93H71.738a5.037,5.037,0,0,1,3.948,1.93L95.613,55.885a5.028,5.028,0,0,1,1.053,3.068V75a5,5,0,0,1-5,5H8.333a5,5,0,0,1-5-5V58.953a5.028,5.028,0,0,1,1.053-3.068L16.128,40.79A1.667,1.667,0,0,0,13.5,38.742L1.755,53.833A8.363,8.363,0,0,0,0,58.953V75a8.343,8.343,0,0,0,8.333,8.333H91.666A8.343,8.343,0,0,0,100,75V58.953a8.371,8.371,0,0,0-1.755-5.12Z" transform="translate(0 -25)" fill="#c9c8cd"/>
          <path id="Shape-7" data-name="Shape" d="M26.667,29.333a1.667,1.667,0,0,0-2.333.333l-20,26.666A1.667,1.667,0,0,0,5.667,59H26.94a1.657,1.657,0,0,1,1.49.922l3.158,6.315A4.973,4.973,0,0,0,36.06,69H58.606a4.973,4.973,0,0,0,4.472-2.763l3.158-6.315A1.657,1.657,0,0,1,67.726,59h7.94a1.667,1.667,0,1,0,0-3.333h-7.94a4.973,4.973,0,0,0-4.472,2.763L60.1,64.745a1.657,1.657,0,0,1-1.49.922H36.06a1.657,1.657,0,0,1-1.49-.922L31.411,58.43a4.973,4.973,0,0,0-4.472-2.763H9l18-24a1.667,1.667,0,0,0-.333-2.333Z" transform="translate(2.667 -22.333)" fill="#c9c8cd"/>
          <path id="Shape-8" data-name="Shape" d="M56.166,32.333l19.5,26a1.667,1.667,0,0,0,2.667-2l-20-26.666A1.667,1.667,0,0,0,57,29H23.667a1.667,1.667,0,1,0,0,3.333Z" transform="translate(14.666 -22.333)" fill="#c9c8cd"/>
        </g>
      </g>
      <g id="Group_3160" data-name="Group 3160" transform="translate(0 0.966)">
        <path id="Path_6760" data-name="Path 6760" d="M48.5,28a.844.844,0,0,1-.2-.7,3.966,3.966,0,0,1,.4-2A6.779,6.779,0,0,1,50,23.5c.4-.5.8-1,1-1.3a2.375,2.375,0,0,0,.3-1.2,1.656,1.656,0,0,0-.5-1.2,2.235,2.235,0,0,0-1.5-.4,4.013,4.013,0,0,0-1.5.3,18.083,18.083,0,0,0-1.7,1,2.3,2.3,0,0,1-.9.3.713.713,0,0,1-.6-.3,1.135,1.135,0,0,1-.3-.8,1.231,1.231,0,0,1,.5-1A6.6,6.6,0,0,1,47,17.7a7.418,7.418,0,0,1,2.5-.5,6.042,6.042,0,0,1,2.4.5A3.435,3.435,0,0,1,53.5,19a3.077,3.077,0,0,1,.6,1.9,4.228,4.228,0,0,1-.5,2A12.409,12.409,0,0,1,52,24.8a9.365,9.365,0,0,0-1.4,1.6,4.235,4.235,0,0,0-.6,1.4.55.55,0,0,1-.3.5,1.072,1.072,0,0,1-.6.2C48.9,28.3,48.7,28.2,48.5,28ZM48,32.5a1.69,1.69,0,1,1,1.2.5A2.2,2.2,0,0,1,48,32.5Z" fill="#c9c8cd"/>
      </g>
    </g>
    <g id="Group_3158" data-name="Group 3158">
      <rect id="Rectangle_1013" data-name="Rectangle 1013" width="38" height="29" rx="6" transform="translate(8806 1809)" fill="#fff"/>
      <path id="term" d="M34.1,44.542H10.44A10.451,10.451,0,0,1,0,34.1V19.835A10.451,10.451,0,0,1,10.44,9.4H34.1a10.451,10.451,0,0,1,10.44,10.44V34.1A10.451,10.451,0,0,1,34.1,44.542ZM10.44,12.875a6.968,6.968,0,0,0-6.96,6.96V34.1a6.968,6.968,0,0,0,6.96,6.96H34.1a6.968,6.968,0,0,0,6.96-6.96V19.835a6.968,6.968,0,0,0-6.96-6.96ZM17.573,5.22a5.22,5.22,0,0,0-10.44,0,1.74,1.74,0,1,0,3.48,0,1.74,1.74,0,0,1,3.48,0,1.74,1.74,0,1,0,3.48,0Zm20.009,0a5.22,5.22,0,0,0-10.44,0,1.74,1.74,0,1,0,3.48,0,1.74,1.74,0,0,1,3.48,0,1.74,1.74,0,0,0,3.48,0ZM24.1,27.23V20.1a1.74,1.74,0,0,0-3.48,0V27.23a1.74,1.74,0,1,0,3.48,0Zm-1.74,4.263a2.175,2.175,0,1,0,2.175,2.175A2.175,2.175,0,0,0,22.358,31.493Z" transform="translate(8803 1796.458)" fill="#c9c8cd"/>
    </g>
  </g>
</svg>
