<svg id="not-sure" xmlns="http://www.w3.org/2000/svg" width="18" height="15.678" viewBox="0 0 18 15.678">
  <g id="Group_3187" data-name="Group 3187" transform="translate(0 0)">
    <g id="Group_3186" data-name="Group 3186">
      <path id="Path_6698" data-name="Path 6698" d="M17.795,44.711a.7.7,0,0,0-1.306.521,1.5,1.5,0,0,1-.161,1.4,1.483,1.483,0,0,1-1.246.659H2.92a1.51,1.51,0,0,1-1.283-2.3l6.081-9.846a1.508,1.508,0,0,1,2.566,0l4.5,7.282a.7.7,0,0,0,1.2-.739L11.48,34.4a2.914,2.914,0,0,0-4.959,0L.441,44.249A2.916,2.916,0,0,0,2.92,48.7H15.082a2.87,2.87,0,0,0,2.41-1.276A2.908,2.908,0,0,0,17.795,44.711Z" transform="translate(0 -33.02)" fill="#ffffff"/>
      <path id="Path_6699" data-name="Path 6699" d="M236.749,361.4a.7.7,0,1,0,0-1.406h0a.7.7,0,0,0,0,1.406Z" transform="translate(-227.747 -348.496)" fill="#ffffff"/>
      <path id="Path_6700" data-name="Path 6700" d="M237.448,148.881v-5.168a.7.7,0,0,0-1.406,0v5.168a.7.7,0,0,0,1.406,0Z" transform="translate(-227.744 -139.143)" fill="#ffffff"/>
    </g>
  </g>
</svg>
