<svg xmlns="http://www.w3.org/2000/svg" width="18" height="18" viewBox="0 0 18 18">
  <g id="help" transform="translate(0 0)">
    <path id="Path_6627" data-name="Path 6627" d="M451.752,145.218l-1.13-.565a.527.527,0,1,0-.472.943l1.13.565a.527.527,0,0,0,.472-.943Z" transform="translate(-434.044 -139.514)" fill="#3c2c81"/>
    <path id="Path_6628" data-name="Path 6628" d="M450.621,1.564,451.75,1a.527.527,0,0,0-.472-.943l-1.13.565a.527.527,0,0,0,.472.943Z" transform="translate(-434.042 0)" fill="#3c2c81"/>
    <path id="Path_6629" data-name="Path 6629" d="M104.286,8.8a.527.527,0,0,0,.746,0l4.382-4.382A2.593,2.593,0,0,0,105.747.754l-1.088,1.088L103.571.754A2.593,2.593,0,0,0,99.9,4.421Z" transform="translate(-95.659 0.004)" fill="#3c2c81"/>
    <path id="Path_6630" data-name="Path 6630" d="M120.721,315.273l-2.551,2.551a1.647,1.647,0,0,1-1.171.485h-1.914a.537.537,0,0,1-.542-.5.527.527,0,0,1,.527-.553h1.708a1.13,1.13,0,0,0,0-2.259h-3.439a2.232,2.232,0,0,0-2.191,1.695h-.816v3.879H117.6a2.44,2.44,0,0,0,1.736-.719l3.829-3.829a.527.527,0,0,0,0-.748A1.725,1.725,0,0,0,120.721,315.273Z" transform="translate(-106.453 -303.698)" fill="#3c2c81"/>
    <path id="Path_6631" data-name="Path 6631" d="M2.3,337.4H.527a.527.527,0,0,0-.527.527v5.084a.527.527,0,0,0,.527.527H2.3a.527.527,0,0,0,.527-.527v-5.084A.527.527,0,0,0,2.3,337.4Z" transform="translate(0 -325.539)" fill="#3c2c81"/>
    <path id="Path_6632" data-name="Path 6632" d="M1.418,144.651l-1.13.565a.527.527,0,1,0,.472.943l1.13-.565a.527.527,0,0,0-.472-.943Z" transform="translate(0.003 -139.512)" fill="#3c2c81"/>
    <path id="Path_6633" data-name="Path 6633" d="M.292,1l1.13.565A.527.527,0,0,0,1.893.62L.764.055A.527.527,0,1,0,.292,1Z" transform="translate(0 0)" fill="#3c2c81"/>
  </g>
</svg>
