<svg xmlns="http://www.w3.org/2000/svg" width="26.439" height="30" viewBox="0 0 26.439 30">
  <g id="pptx" transform="translate(-265 -9592)">
    <g id="Group_3303" data-name="Group 3303" transform="translate(-45)">
      <path id="Path_228" data-name="Path 228" d="M76.555,27.321A2.681,2.681,0,0,1,73.871,30H55.419a2.681,2.681,0,0,1-2.684-2.679V2.679A2.681,2.681,0,0,1,55.419,0H66.906a2.015,2.015,0,0,1,1.425.59l7.636,7.637a2.007,2.007,0,0,1,.588,1.419Z" transform="translate(258.574 9592)" fill="#d8f5f6"/>
      <path id="Path_229" data-name="Path 229" d="M57.23,30H55.419a2.681,2.681,0,0,1-2.684-2.679V2.679A2.681,2.681,0,0,1,55.419,0H57.23a2.681,2.681,0,0,0-2.684,2.679V27.321A2.682,2.682,0,0,0,57.23,30Z" transform="translate(258.574 9592)" fill="#1ae2bc"/>
      <path id="Path_230" data-name="Path 230" d="M288.557,9.646v.98h-7A3.63,3.63,0,0,1,277.932,7V0h.976a2.016,2.016,0,0,1,1.425.59l7.636,7.637A2.007,2.007,0,0,1,288.557,9.646Z" transform="translate(46.572 9592)" fill="#1ae2bc"/>
      <path id="Path_231" data-name="Path 231" d="M317.472,11.735h-6.819a1.815,1.815,0,0,1-1.814-1.815V3.1a1.994,1.994,0,0,1,.59.408l7.636,7.637A2,2,0,0,1,317.472,11.735Z" transform="translate(17.477 9589.081)" fill="#d8f5f6"/>
      <path id="Path_232" data-name="Path 232" d="M54.415,224.829H32.805a2.415,2.415,0,0,1-2.414-2.414V213.6a2.414,2.414,0,0,1,2.414-2.414h21.61A2.414,2.414,0,0,1,56.83,213.6v8.813A2.415,2.415,0,0,1,54.415,224.829Z" transform="translate(279.609 9393.188)" fill="#1ae2bc"/>
      <path id="Path_233" data-name="Path 233" d="M34.314,224.829H32.805a2.415,2.415,0,0,1-2.414-2.414V213.6a2.415,2.415,0,0,1,2.414-2.414h1.509A2.415,2.415,0,0,0,31.9,213.6v8.813A2.414,2.414,0,0,0,34.314,224.829Z" transform="translate(279.609 9393.188)" fill="#1ae2bc"/>
    </g>
    <path id="Path_6766" data-name="Path 6766" d="M1.152.045a.356.356,0,0,1-.27-.1.381.381,0,0,1-.1-.275V-5.985a.345.345,0,0,1,.1-.261.381.381,0,0,1,.274-.1H3.294a2.276,2.276,0,0,1,1.552.486A1.735,1.735,0,0,1,5.4-4.482,1.756,1.756,0,0,1,4.842-3.1a2.252,2.252,0,0,1-1.548.5H1.521V-.333a.381.381,0,0,1-.1.275A.356.356,0,0,1,1.152.045Zm2.07-3.258q1.449,0,1.449-1.269,0-1.251-1.449-1.251h-1.7v2.52ZM6.957.045a.356.356,0,0,1-.27-.1.381.381,0,0,1-.1-.275V-5.985a.345.345,0,0,1,.1-.261.381.381,0,0,1,.274-.1H9.1a2.276,2.276,0,0,1,1.552.486A1.735,1.735,0,0,1,11.2-4.482,1.756,1.756,0,0,1,10.647-3.1,2.252,2.252,0,0,1,9.1-2.6H7.326V-.333a.381.381,0,0,1-.1.275A.356.356,0,0,1,6.957.045Zm2.07-3.258q1.449,0,1.449-1.269,0-1.251-1.449-1.251h-1.7v2.52ZM14.13.045a.371.371,0,0,1-.274-.1.371.371,0,0,1-.1-.275V-5.715H11.817a.363.363,0,0,1-.252-.081.3.3,0,0,1-.09-.234.3.3,0,0,1,.09-.234.363.363,0,0,1,.252-.081h4.617a.363.363,0,0,1,.252.081.3.3,0,0,1,.09.234.3.3,0,0,1-.09.234.363.363,0,0,1-.252.081H14.5V-.333a.381.381,0,0,1-.1.275A.356.356,0,0,1,14.13.045Zm8.181-.576a.325.325,0,0,1,.09.225.317.317,0,0,1-.108.243.361.361,0,0,1-.252.1A.35.35,0,0,1,21.78-.09L19.728-2.709,17.667-.09a.316.316,0,0,1-.261.126.343.343,0,0,1-.243-.1.321.321,0,0,1-.108-.239.324.324,0,0,1,.081-.225L19.3-3.24,17.253-5.814a.336.336,0,0,1-.09-.234.313.313,0,0,1,.1-.234.335.335,0,0,1,.239-.1.324.324,0,0,1,.261.135l1.962,2.484,1.953-2.484a.324.324,0,0,1,.261-.135.343.343,0,0,1,.243.1.331.331,0,0,1,.108.248.312.312,0,0,1-.081.216L20.16-3.24Z" transform="translate(267 9614)" fill="#fff"/>
  </g>
</svg>
