<svg id="report" xmlns="http://www.w3.org/2000/svg" width="12.305" height="14" viewBox="0 0 12.305 14">
  <path id="Path_6557" data-name="Path 6557" d="M37.356.874A5.87,5.87,0,0,0,31.82.561V0H31V14h.82V8.884A5.112,5.112,0,0,1,36.949,9a6.157,6.157,0,0,0,3.075.862,6.4,6.4,0,0,0,3.281-.98V.524l-.614.351a5.131,5.131,0,0,1-5.335,0ZM42.484,8.4a5.112,5.112,0,0,1-5.129-.113,5.87,5.87,0,0,0-5.536-.313v-6.5a5.112,5.112,0,0,1,5.129.113,5.87,5.87,0,0,0,5.536.314Z" transform="translate(-31)" fill="#9592a7"/>
</svg>
