<svg xmlns="http://www.w3.org/2000/svg" width="25" height="25" viewBox="0 0 12.352 18">
  <g id="report" transform="translate(-80.333)">
    <g id="Group_3157" data-name="Group 3157" transform="translate(80.333)">
      <path id="Path_6693" data-name="Path 6693" d="M92.429.727A5.026,5.026,0,0,0,89.77,0a12.043,12.043,0,0,0-3.413.674,11.1,11.1,0,0,1-3.109.63h0a4.006,4.006,0,0,1-1.86-.435V.527a.527.527,0,0,0-1.055,0V17.473a.527.527,0,0,0,1.055,0V9.192a5.1,5.1,0,0,0,1.86.336,12.041,12.041,0,0,0,3.413-.674,11.1,11.1,0,0,1,3.11-.63,4,4,0,0,1,2.116.577.527.527,0,0,0,.8-.452V1.18A.527.527,0,0,0,92.429.727ZM86.357,7.843a11.1,11.1,0,0,1-3.11.63,4.007,4.007,0,0,1-1.86-.435V2.024a5.093,5.093,0,0,0,1.86.335h0a12.043,12.043,0,0,0,3.412-.674,11.1,11.1,0,0,1,3.11-.63,4.007,4.007,0,0,1,1.86.435V7.5a5.1,5.1,0,0,0-1.86-.335A12.041,12.041,0,0,0,86.357,7.843Z" transform="translate(-80.333)" fill="#546de5"/>
    </g>
  </g>
</svg>
