<svg xmlns="http://www.w3.org/2000/svg" width="100" height="89.453" viewBox="0 0 100 89.453">
  <g id="search-img" transform="translate(0 -27)">
    <path id="Path_6860" data-name="Path 6860" d="M127,94.11v28.558h65.43V37H127V94.11Z" transform="translate(-102.195 -8.047)" fill="#fbfbfc"/>
    <rect id="Rectangle_1059" data-name="Rectangle 1059" width="65.432" height="14.062" transform="translate(24.805 28.953)" fill="#e9e9e9"/>
    <path id="Path_6861" data-name="Path 6861" d="M15,109h85.33" transform="translate(-12.07 -65.984)" fill="#231f20"/>
    <path id="Path_6862" data-name="Path 6862" d="M76.826,247.594h0A8.594,8.594,0,0,1,85.419,239H72.594A8.594,8.594,0,0,0,64,247.594h0a8.594,8.594,0,0,0,8.594,8.594H85.419A8.594,8.594,0,0,1,76.826,247.594Z" transform="translate(-51.5 -170.594)" fill="#fff"/>
    <path id="Path_6863" data-name="Path 6863" d="M138.261,239a8.594,8.594,0,0,0-8.594,8.594h0a8.594,8.594,0,0,0,8.594,8.594h14.779V239Z" transform="translate(-104.341 -170.594)" fill="#e9e9e9"/>
    <path id="Path_6864" data-name="Path 6864" d="M417.609,382.914,406.046,371.6l-3.142,3.142,11.563,11.312a4.58,4.58,0,0,0,7.611-2.009A4.54,4.54,0,0,1,417.609,382.914Z" transform="translate(-324.212 -277.297)" fill="#fff"/>
    <path id="Path_6865" data-name="Path 6865" d="M433.89,365.837l-11.563-11.312-3.335,3.335,11.563,11.312a2.683,2.683,0,1,0,3.335-3.335Z" transform="translate(-337.158 -263.555)" fill="#f1f1f1"/>
    <path id="Path_6866" data-name="Path 6866" d="M254.4,211.383a17.389,17.389,0,0,1,11.453-16.345,17.383,17.383,0,1,0,0,32.689A17.389,17.389,0,0,1,254.4,211.383Z" transform="translate(-195.172 -134.383)" fill="#fff"/>
    <path id="Path_6867" data-name="Path 6867" d="M326.175,215.661a17.389,17.389,0,0,0-11.453-16.345,17.389,17.389,0,0,0,0,32.689A17.389,17.389,0,0,0,326.175,215.661Z" transform="translate(-244.038 -138.661)" fill="#f1f1f1"/>
    <path id="Path_6868" data-name="Path 6868" d="M204.167,66.906h39.1a1.953,1.953,0,1,0,0-3.906h-39.1a1.953,1.953,0,1,0,0,3.906Z" transform="translate(-162.719 -28.969)" fill="#c9c8cd"/>
    <path id="Path_6869" data-name="Path 6869" d="M95.7,66.906a1.954,1.954,0,1,0-1.381-.572A1.966,1.966,0,0,0,95.7,66.906Z" transform="translate(-75.439 -28.969)" fill="#c9c8cd"/>
    <path id="Path_6870" data-name="Path 6870" d="M58.953,66.906a1.954,1.954,0,1,0-1.381-.572A1.966,1.966,0,0,0,58.953,66.906Z" transform="translate(-45.867 -28.969)" fill="#c9c8cd"/>
    <path id="Path_6871" data-name="Path 6871" d="M132.453,66.906a1.954,1.954,0,1,0-1.381-.572A1.967,1.967,0,0,0,132.453,66.906Z" transform="translate(-105.012 -28.969)" fill="#c9c8cd"/>
    <path id="Path_6872" data-name="Path 6872" d="M74.023,112.547H3.906V44.969H88.281V85.594a1.953,1.953,0,1,0,3.906,0V28.953A1.953,1.953,0,0,0,90.234,27H1.953A1.953,1.953,0,0,0,0,28.953V114.5a1.953,1.953,0,0,0,1.953,1.953h72.07a1.953,1.953,0,0,0,0-3.906ZM88.281,30.906V41.064H3.906V30.906Z" fill="#c9c8cd"/>
    <path id="Path_6873" data-name="Path 6873" d="M410.533,465a1.954,1.954,0,1,0,1.381.572A1.967,1.967,0,0,0,410.533,465Z" transform="translate(-328.779 -352.453)" fill="#c9c8cd"/>
    <path id="Path_6874" data-name="Path 6874" d="M141.567,227.237l-.015-.015-11.563-11.312a1.953,1.953,0,0,0-2.747.015l-2.032,2.032-2.2-2.2a19.328,19.328,0,1,0-31-22.97H64.547a10.547,10.547,0,1,0,0,21.094H92.01a19.311,19.311,0,0,0,28.2,4.6l2.236,2.236-1.683,1.683a1.953,1.953,0,0,0,.015,2.777l11.556,11.305a6.42,6.42,0,0,0,4.567,1.878h.032a6.546,6.546,0,0,0,6.519-6.519A6.423,6.423,0,0,0,141.567,227.237Zm-77.02-17.26a6.641,6.641,0,0,1,0-13.281h25.5a19.353,19.353,0,0,0,0,13.281Zm28.231-6.641a15.43,15.43,0,1,1,15.43,15.43A15.447,15.447,0,0,1,92.778,203.336Zm46,30.348a2.629,2.629,0,0,1-1.858.773H136.9a2.542,2.542,0,0,1-1.813-.742l-.015-.015-10.152-9.931,1.667-1.667h0l2.046-2.046,10.173,9.953a2.544,2.544,0,0,1,.736,1.82A2.629,2.629,0,0,1,138.774,233.684Z" transform="translate(-43.453 -126.336)" fill="#c9c8cd"/>
    <path id="Path_6875" data-name="Path 6875" d="M156.413,272.97a1.954,1.954,0,1,0,1.381.572A1.961,1.961,0,0,0,156.413,272.97Z" transform="translate(-124.292 -197.929)" fill="#c9c8cd"/>
    <path id="Path_6876" data-name="Path 6876" d="M114.953,273.28a1.951,1.951,0,1,0,1.381.57A1.966,1.966,0,0,0,114.953,273.28Z" transform="translate(-90.93 -198.178)" fill="#c9c8cd"/>
    <path id="Path_6877" data-name="Path 6877" d="M197.863,272.66a1.954,1.954,0,1,0,1.381.572A1.967,1.967,0,0,0,197.863,272.66Z" transform="translate(-157.646 -197.68)" fill="#c9c8cd"/>
    <path id="Path_6878" data-name="Path 6878" d="M323.5,232a1.953,1.953,0,1,0,0,3.906,6.061,6.061,0,0,1,6.055,6.055,1.953,1.953,0,0,0,3.906,0A9.972,9.972,0,0,0,323.5,232Z" transform="translate(-258.742 -164.961)" fill="#c9c8cd"/>
    <path id="Path_6879" data-name="Path 6879" d="M130.091,372.906a1.953,1.953,0,0,0,0-3.906H114.954a1.953,1.953,0,0,0,0,3.906Z" transform="translate(-90.93 -275.203)" fill="#c9c8cd"/>
    <path id="Path_6880" data-name="Path 6880" d="M235.874,372.335a1.951,1.951,0,1,0-1.381.572A1.959,1.959,0,0,0,235.874,372.335Z" transform="translate(-187.122 -275.204)" fill="#c9c8cd"/>
  </g>
</svg>
