<svg xmlns="http://www.w3.org/2000/svg" width="21" height="16.578" viewBox="0 0 21 16.578">
  <g id="share-grey" transform="translate(-4.375 -64.005)">
    <path id="Path_2915" data-name="Path 2915" d="M127.474,70.769l-7.737-6.632a.552.552,0,0,0-.912.419v3.876c-6.175.172-9.154,3.228-10.57,5.8a13.418,13.418,0,0,0-1.57,5.366q-.018.209-.018.426v0h0v0h0v0h0v0h0v.006h0v0a0,0,0,0,0,0,0v0h0v0s0,0,0,0v0a.006.006,0,0,0,0,0v0h0v0h0v0h0v0a.553.553,0,0,0,1.1-.069h0c0-.028,0-.1.005-.2.241-4.6,8.731-5.638,11.047-5.837v3.827a.552.552,0,0,0,.912.419l7.737-6.632a.551.551,0,0,0,0-.838Z" transform="translate(-102.292)" fill="#aaa"/>
    <path id="Path_2916" data-name="Path 2916" d="M154.37,108.71v-3.22a.553.553,0,0,0-.553-.553h-.025c-.389.018-7.366.377-10.8,3.333,1.137-3,3.936-6.649,10.826-6.649h0a.553.553,0,0,0,.553-.553v-3.22l6.335,5.43Z" transform="translate(-136.732 -32.091)" fill="#e9e9e9"/>
  </g>
</svg>
