<svg xmlns="http://www.w3.org/2000/svg" width="18" height="15.117" viewBox="0 0 18 15.117">
  <g id="share-profile" transform="translate(0 -41)">
    <g id="Group_3023" data-name="Group 3023" transform="translate(9.211 47.328)">
      <circle id="Ellipse_215" data-name="Ellipse 215" cx="0.879" cy="0.879" r="0.879" transform="translate(3.516 2.988)" fill="#ffb770"/>
      <path id="Path_6621" data-name="Path 6621" d="M335.867,387.934a1.933,1.933,0,1,0-3.867,0v.606a4.386,4.386,0,0,0,3.867,0Z" transform="translate(-329.539 -380.199)" fill="#ffb770"/>
      <path id="Path_6622" data-name="Path 6622" d="M266.394,221a4.393,4.393,0,0,0-2.985,7.617,2.99,2.99,0,0,1,1.523-2.486,1.933,1.933,0,1,1,2.925,0,2.989,2.989,0,0,1,1.523,2.486A4.392,4.392,0,0,0,266.394,221Z" transform="translate(-262 -221)" fill="#ffb770"/>
    </g>
    <path id="Path_6623" data-name="Path 6623" d="M1.758,149.516a1.758,1.758,0,1,1,1.758-1.758A1.76,1.76,0,0,1,1.758,149.516Z" transform="translate(0 -101.309)" fill="#ffb770"/>
    <g id="Group_3025" data-name="Group 3025" transform="translate(4.197 43.144)">
      <path id="Path_6624" data-name="Path 6624" d="M119.37,103.893a2.79,2.79,0,0,1,.345,1l4.61-1.987a2.461,2.461,0,0,1-.531-.92Z" transform="translate(-119.37 -101.986)" fill="#ffb770"/>
      <g id="Group_3024" data-name="Group 3024" transform="translate(0 3.704)">
        <path id="Path_6625" data-name="Path 6625" d="M119.715,207.331a2.791,2.791,0,0,1-.345,1l4.341,1.871a5.442,5.442,0,0,1,.484-.94Z" transform="translate(-119.37 -207.331)" fill="#ffb770"/>
      </g>
    </g>
    <path id="Path_6626" data-name="Path 6626" d="M273.406,43.813a1.406,1.406,0,1,1,1.406-1.406A1.408,1.408,0,0,1,273.406,43.813Z" transform="translate(-262.437)" fill="#ffb770"/>
  </g>
</svg>
