<svg id="share-profile" xmlns="http://www.w3.org/2000/svg" width="16.875" height="18" viewBox="0 0 16.875 18">
  <g id="Group_3296" data-name="Group 3296">
    <path id="Path_6683" data-name="Path 6683" d="M29.711,11.672a3.152,3.152,0,0,0-2.537,1.292l-4.987-2.553a2.985,2.985,0,0,0-.093-2.066L27.313,5.2a3.147,3.147,0,1,0-.766-2.04,3.135,3.135,0,0,0,.22,1.138l-5.234,3.15a3.159,3.159,0,1,0,.2,3.911l4.97,2.545a3.121,3.121,0,0,0-.155.929,3.164,3.164,0,1,0,3.164-3.164Z" transform="translate(-16 0)" fill="#ea2e7e"/>
  </g>
</svg>
