<?xml version="1.0" encoding="utf-8"?>
<!-- Generator: Adobe Illustrator 23.0.3, SVG Export Plug-In . SVG Version: 6.00 Build 0)  -->
<svg version="1.1" id="Layer_1" xmlns="http://www.w3.org/2000/svg" xmlns:xlink="http://www.w3.org/1999/xlink" x="0px" y="0px"
	 viewBox="0 0 100 100" style="enable-background:new 0 0 100 100;" xml:space="preserve">
<style type="text/css">
	.st0{fill:transparent;}
	.st1{fill:#3C2C81;}
</style>
<g id="study-notes" transform="translate(-1088 -3899)">
	<g id="Rectangle_728">
		<path class="st0" d="M1138,3899L1138,3899c27.6,0,50,22.4,50,50l0,0c0,27.6-22.4,50-50,50l0,0c-27.6,0-50-22.4-50-50l0,0
			C1088,3921.4,1110.4,3899,1138,3899z"/>
	</g>
	<g id="Notes" transform="translate(1118 3916.7)">
		<g id="Path_41" transform="translate(0 9.3)">
			<g id="Path_99">
				<path class="st1" d="M34.1,46H15.5C7,46,0,39,0,30.5V5.1C0,2.3,2.3,0,5.1,0h29c2.8,0,5.1,2.3,5.1,5.1v35.7
					C39.2,43.7,36.9,46,34.1,46L34.1,46z M5.1,3C4,3,3,4,3,5.1v25.3C3,37.4,8.6,43,15.5,43h18.6c1.2,0,2.1-0.9,2.1-2.1V5.1
					C36.2,4,35.3,3,34.1,3L5.1,3z"/>
				<path class="st1" d="M34.1,46.5H15.5c-8.8,0-16-7.2-16-16V5.1C-0.5,2,2-0.5,5.1-0.5h29c3.1,0,5.6,2.5,5.6,5.6v35.7
					C39.7,44,37.2,46.5,34.1,46.5L34.1,46.5z M5.1,0.5c-2.5,0-4.6,2.1-4.6,4.6v25.3c0,8.3,6.8,15,15,15h18.6c2.6,0,4.6-2.1,4.6-4.6
					V5.1c0-2.5-2.1-4.6-4.6-4.6H5.1z M34.1,43.5H15.5c-7.2,0-13-5.8-13-13V5.1c0-1.4,1.2-2.6,2.6-2.6l29,0c1.4,0,2.6,1.2,2.6,2.6
					v35.7C36.7,42.3,35.5,43.5,34.1,43.5z M5.1,3.5c-0.9,0-1.6,0.7-1.6,1.6v25.3c0,6.6,5.4,12,12,12h18.6c0.9,0,1.6-0.7,1.6-1.6V5.1
					c0-0.9-0.7-1.6-1.6-1.6L5.1,3.5z"/>
			</g>
		</g>
		<g id="Group_140" transform="translate(7.502 19.292)">
			<g id="Line_19">
				<g id="Path_109">
					<path class="st1" d="M22.7,3H1.5C0.7,3,0,2.4,0,1.5C0,0.7,0.7,0,1.5,0c0,0,0,0,0,0h21.2c0.8,0,1.5,0.7,1.5,1.5
						C24.2,2.3,23.5,3,22.7,3C22.7,3,22.7,3,22.7,3z"/>
					<path class="st1" d="M1.5,3.5c-1.1,0-2-0.9-2-2c0-0.5,0.2-1,0.6-1.4C0.5-0.3,1-0.5,1.5-0.5h21.2c0,0,0,0,0,0
						c0.5,0,1,0.2,1.4,0.6c0.4,0.4,0.6,0.9,0.6,1.4c0,0.5-0.2,1-0.6,1.4s-0.9,0.6-1.4,0.6H1.5C1.5,3.5,1.5,3.5,1.5,3.5z M1.5,0.5
						C1.2,0.5,1,0.6,0.8,0.8C0.6,1,0.5,1.2,0.5,1.5c0,0.6,0.5,1,1,1c0,0,0,0,0,0h21.2c0.3,0,0.5-0.1,0.7-0.3
						c0.2-0.2,0.3-0.4,0.3-0.7c0-0.3-0.1-0.5-0.3-0.7c-0.2-0.2-0.4-0.3-0.7-0.3c0,0,0,0,0,0H1.5z"/>
				</g>
			</g>
			<g id="Path_87" transform="translate(0 8.29)">
				<g id="Path_110">
					<path class="st1" d="M22.7,3H1.5C0.7,3,0,2.4,0,1.5C0,0.7,0.7,0,1.5,0c0,0,0,0,0,0h21.2c0.8,0,1.5,0.7,1.5,1.5
						C24.2,2.3,23.5,3,22.7,3C22.7,3,22.7,3,22.7,3z"/>
					<path class="st1" d="M1.5,3.5c-1.1,0-2-0.9-2-2c0-0.5,0.2-1,0.6-1.4C0.5-0.3,1-0.5,1.5-0.5h21.2c0,0,0,0,0,0
						c0.5,0,1,0.2,1.4,0.6c0.4,0.4,0.6,0.9,0.6,1.4c0,0.5-0.2,1-0.6,1.4s-0.9,0.6-1.4,0.6H1.5C1.5,3.5,1.5,3.5,1.5,3.5z M1.5,0.5
						C1.2,0.5,1,0.6,0.8,0.8C0.6,1,0.5,1.2,0.5,1.5c0,0.6,0.5,1,1,1c0,0,0,0,0,0h21.2c0.3,0,0.5-0.1,0.7-0.3
						c0.2-0.2,0.3-0.4,0.3-0.7c0-0.3-0.1-0.5-0.3-0.7c-0.2-0.2-0.4-0.3-0.7-0.3c0,0,0,0,0,0H1.5z"/>
				</g>
			</g>
			<g id="Path_88" transform="translate(0 16.581)">
				<g id="Path_111">
					<path class="st1" d="M22.7,3H1.5C0.7,3,0,2.4,0,1.5C0,0.7,0.7,0,1.5,0c0,0,0,0,0,0h21.2c0.8,0,1.5,0.7,1.5,1.5
						C24.2,2.3,23.5,3,22.7,3C22.7,3,22.7,3,22.7,3z"/>
					<path class="st1" d="M1.5,3.5c-0.5,0-1-0.2-1.4-0.6c-0.4-0.4-0.6-0.9-0.6-1.4c0-0.5,0.2-1,0.6-1.4C0.5-0.3,1-0.5,1.5-0.5h21.2
						c0,0,0,0,0,0c0.5,0,1,0.2,1.4,0.6c0.4,0.4,0.6,0.9,0.6,1.4c0,0.5-0.2,1-0.6,1.4c-0.4,0.4-0.9,0.6-1.4,0.6H1.5
						C1.5,3.5,1.5,3.5,1.5,3.5z M1.5,0.5C1.2,0.5,1,0.6,0.8,0.8C0.6,1,0.5,1.2,0.5,1.5c0,0.3,0.1,0.5,0.3,0.7C1,2.4,1.2,2.5,1.5,2.5
						c0,0,0,0,0,0h21.2c0.3,0,0.5-0.1,0.7-0.3c0.2-0.2,0.3-0.4,0.3-0.7S23.6,1,23.4,0.8c-0.2-0.2-0.4-0.3-0.7-0.3c0,0,0,0,0,0H1.5z"
						/>
				</g>
			</g>
		</g>
		<g id="Line_26" transform="translate(21.11 43.655)">
			<g id="Path_124">
				<path class="st1" d="M8.2,3H1.5C0.7,3,0,2.4,0,1.5C0,0.7,0.7,0,1.5,0c0,0,0,0,0,0h6.7C9,0,9.7,0.7,9.7,1.5C9.7,2.3,9,3,8.2,3
					C8.2,3,8.2,3,8.2,3z"/>
				<path class="st1" d="M1.5,3.5c-0.5,0-1-0.2-1.4-0.6c-0.4-0.4-0.6-0.9-0.6-1.4c0-1.1,0.9-2,2-2h6.7c0,0,0,0,0,0c1.1,0,2,0.9,2,2
					c0,1.1-0.9,2-2,2H1.5C1.5,3.5,1.5,3.5,1.5,3.5z M1.5,0.5c-0.6,0-1,0.5-1,1c0,0.3,0.1,0.5,0.3,0.7C1,2.4,1.2,2.5,1.5,2.5
					c0,0,0,0,0,0h6.7c0.3,0,0.5-0.1,0.7-0.3C9.1,2,9.2,1.8,9.2,1.5c0-0.6-0.4-1.1-1-1H1.5z"/>
			</g>
		</g>
	</g>
</g>
</svg>
