<svg id="Study_Sets" data-name="Study Sets" xmlns="http://www.w3.org/2000/svg" width="20.132" height="24" viewBox="0 0 20.132 24">
  <g id="Group_141" data-name="Group 141" transform="translate(0 0.166)">
    <g id="Path_77" data-name="Path 77" transform="translate(0 0)">
      <path id="Path_112" data-name="Path 112" d="M369.294,404.75H373a2,2,0,0,1,2,2h0v19.677a2,2,0,0,1-2,2h-3.707a2,2,0,0,1-2-2V406.746A2,2,0,0,1,369.294,404.75Z" transform="translate(-367.298 -404.75)" fill="#fff"/>
    </g>
    <g id="Ellipse_26" data-name="Ellipse 26" transform="translate(2.567 3.137)">
      <ellipse id="Ellipse_27" data-name="Ellipse 27" cx="1.141" cy="1.141" rx="1.141" ry="1.141" fill="#ea2e7e"/>
    </g>
    <g id="Line_23" data-name="Line 23" transform="translate(1.283 17.966)">
      <rect id="Rectangle_81" data-name="Rectangle 81" width="5.133" height="1.426" fill="#1ae2bc"/>
    </g>
    <g id="Path_76" data-name="Path 76" transform="translate(0 0)">
      <g id="Group_163" data-name="Group 163">
        <path id="Path_113" data-name="Path 113" d="M369.294,404.75H373a2,2,0,0,1,2,2h0v19.677a2,2,0,0,1-2,2h-3.707a2,2,0,0,1-2-2V406.746A2,2,0,0,1,369.294,404.75Z" transform="translate(-367.298 -404.75)" fill="none"/>
      </g>
      <g id="Group_164" data-name="Group 164">
        <path id="Path_114" data-name="Path 114" d="M369.294,406.176a.571.571,0,0,0-.57.57v19.677a.571.571,0,0,0,.57.57H373a.571.571,0,0,0,.57-.57V406.746a.571.571,0,0,0-.57-.57h-3.707m0-1.426H373a2,2,0,0,1,2,2v19.677a2,2,0,0,1-2,2h-3.707a2,2,0,0,1-2-2V406.746A2,2,0,0,1,369.294,404.75Z" transform="translate(-367.298 -404.75)" fill="#185aeb"/>
      </g>
    </g>
  </g>
  <g id="Group_142" data-name="Group 142" transform="translate(8.1)">
    <g id="Path_77-2" data-name="Path 77-2">
      <path id="Path_115" data-name="Path 115" d="M416.269,404.667l3.612-.834a2,2,0,0,1,2.394,1.5h0L426.7,424.5a2,2,0,0,1-1.5,2.394l-3.612.834a2,2,0,0,1-2.394-1.5l-4.426-19.173A2,2,0,0,1,416.269,404.667Z" transform="translate(-414.721 -403.781)" fill="#fff"/>
    </g>
    <g id="Ellipse_26-2" data-name="Ellipse 26-2" transform="translate(3.036 3.528)">
      <ellipse id="Ellipse_28" data-name="Ellipse 28" cx="1.141" cy="1.141" rx="1.141" ry="1.141" fill="#ea2e7e"/>
    </g>
    <g id="Line_23-2" data-name="Line 23-2" transform="translate(4.894 17.397)">
      <rect id="Rectangle_82" data-name="Rectangle 82" width="5.133" height="1.426" transform="translate(0 1.155) rotate(-13.002)" fill="#1ae2bc"/>
    </g>
    <g id="Path_76-2" data-name="Path 76-2">
      <g id="Group_165" data-name="Group 165">
        <path id="Path_116" data-name="Path 116" d="M416.269,404.667l3.612-.834a2,2,0,0,1,2.394,1.5h0L426.7,424.5a2,2,0,0,1-1.5,2.394l-3.612.834a2,2,0,0,1-2.394-1.5l-4.426-19.173A2,2,0,0,1,416.269,404.667Z" transform="translate(-414.721 -403.781)" fill="none"/>
      </g>
      <g id="Group_166" data-name="Group 166">
        <path id="Path_117" data-name="Path 117" d="M416.589,406.056a.571.571,0,0,0-.428.684l4.426,19.173a.571.571,0,0,0,.684.428l3.612-.834a.571.571,0,0,0,.427-.684l-4.426-19.173a.571.571,0,0,0-.684-.428l-3.612.834m-.321-1.389,3.612-.834a2,2,0,0,1,2.394,1.5L426.7,424.5a2,2,0,0,1-1.5,2.394l-3.612.834a2,2,0,0,1-2.394-1.5l-4.426-19.173A2,2,0,0,1,416.269,404.667Z" transform="translate(-414.721 -403.781)" fill="#185aeb"/>
      </g>
    </g>
  </g>
</svg>
