<svg xmlns="http://www.w3.org/2000/svg" width="106.667" height="100" viewBox="0 0 106.667 100">
  <g id="support" transform="translate(0 -16)">
    <g id="Group_554" data-name="Group 554" transform="translate(2.083 18.083)">
      <path id="Path_2856" data-name="Path 2856" d="M310.583,151.356V132.25a6.25,6.25,0,0,1,12.5,0v28.3a25,25,0,0,1-13.819,22.36l-11.181,5.59V201H276V173.8a10.291,10.291,0,0,1,9.263-10.24c.024-.007,9.55-1.464,14.14-6.054l4.679-4.677a6.247,6.247,0,0,1,6.5-1.475Z" transform="translate(-220.583 -105.167)" fill="#ffdcd5"/>
      <path id="Path_2857" data-name="Path 2857" d="M160.8,26c11.413,0,15.39,10.51,15.39,16.667,0,12.5-10.275,19.6-28.5,35.417-18.229-15.815-28.5-22.917-28.5-35.417C119.18,36.51,123.157,26,134.57,26c7.006,0,10.89,5.115,13.115,9.185C149.909,31.115,153.792,26,160.8,26Z" transform="translate(-96.434 -26)" fill="#ea2e7e"/>
      <path id="Path_2858" data-name="Path 2858" d="M22.5,151.356a6.248,6.248,0,0,1,6.5,1.475l4.679,4.677c4.5,4.5,14.118,6.048,14.14,6.054a10.291,10.291,0,0,1,9.262,10.24V201H35V188.5l-11.181-5.59A25,25,0,0,1,10,160.55v-28.3a6.25,6.25,0,0,1,12.5,0Z" transform="translate(-10 -105.167)" fill="#ffdcd5"/>
    </g>
    <g id="Group_555" data-name="Group 555" transform="translate(0 16)">
      <path id="Path_2859" data-name="Path 2859" d="M170.355,34.75c0-7.249-4.744-18.75-17.473-18.75-5.23,0-9.629,2.466-13.115,7.339C136.282,18.466,131.883,16,126.653,16c-12.729,0-17.473,11.5-17.473,18.75,0,12.5,9.755,20.317,23.081,31.712,1.958,1.674,3.983,3.406,6.142,5.279a2.084,2.084,0,0,0,2.73,0c2.159-1.873,4.184-3.6,6.142-5.279,13.951-11.93,23.081-19.477,23.081-31.712ZM139.768,67.412c-1.665-1.437-3.253-2.794-4.8-4.117-13.942-11.921-21.622-18.489-21.622-28.545,0-6.821,4.463-14.583,13.306-14.583,4.615,0,8.307,2.65,11.287,8.1a2.083,2.083,0,0,0,3.656,0c2.98-5.451,6.671-8.1,11.287-8.1,8.72,0,13.306,7.647,13.306,14.583,0,10.056-7.68,16.623-21.622,28.545-1.546,1.322-3.134,2.68-4.8,4.117Z" transform="translate(-86.434 -16)" fill="#2a1f5a"/>
      <path id="Path_2860" data-name="Path 2860" d="M14.97,176.857,25,181.871v11.212a2.084,2.084,0,0,0,2.083,2.083H49.167a2.084,2.084,0,0,0,2.083-2.083v-27.2a12.331,12.331,0,0,0-11.122-12.311l-.17-.018c-3.666-.368-10.157-2.875-12.72-5.438l-4.679-4.677A8.279,8.279,0,0,0,16.667,141V124.333a8.333,8.333,0,0,0-16.667,0v28.3a27.085,27.085,0,0,0,14.97,24.224Zm-10.8-52.524a4.167,4.167,0,0,1,8.333,0v17.784a8.331,8.331,0,0,0-1.725,13.108L21.444,165.9a2.083,2.083,0,1,0,2.946-2.946L13.721,152.279a4.166,4.166,0,0,1,1.556-6.875h0a4.16,4.16,0,0,1,4.333.985l4.679,4.677c4.83,4.83,15.384,6.648,15.4,6.654a8.181,8.181,0,0,1,7.387,8.167V191H29.166V180.583a2.083,2.083,0,0,0-1.152-1.863l-11.181-5.59a22.794,22.794,0,0,1-12.667-20.5Z" transform="translate(0 -95.167)" fill="#2a1f5a"/>
      <circle id="Ellipse_214" data-name="Ellipse 214" cx="2.083" cy="2.083" r="2.083" transform="translate(93.542 74.583)" fill="#2a1f5a"/>
      <path id="Path_2861" data-name="Path 2861" d="M308.917,116a8.343,8.343,0,0,0-8.333,8.333V141a8.277,8.277,0,0,0-5.891,2.441l-4.68,4.677c-2.563,2.563-9.054,5.07-12.736,5.439l-.138.015A12.335,12.335,0,0,0,266,165.885v27.2a2.084,2.084,0,0,0,2.083,2.083h22.083a2.084,2.084,0,0,0,2.083-2.083V181.871l6.819-3.409a2.083,2.083,0,0,0-1.863-3.727l-7.971,3.985a2.083,2.083,0,0,0-1.152,1.863V191H270.167V165.885a8.185,8.185,0,0,1,7.4-8.168l.138-.015c4.519-.453,12-3.388,15.25-6.637l4.68-4.677a4.162,4.162,0,0,1,4.332-.985h0a4.167,4.167,0,0,1,1.557,6.875L292.86,162.95a2.083,2.083,0,1,0,2.946,2.946l10.669-10.671a8.332,8.332,0,0,0-1.725-13.109V124.333a4.167,4.167,0,1,1,8.333,0v28.3a22.979,22.979,0,0,1-2.782,10.943,2.083,2.083,0,0,0,3.661,1.99,27.158,27.158,0,0,0,3.288-12.934v-28.3A8.343,8.343,0,0,0,308.917,116Z" transform="translate(-210.583 -95.167)" fill="#2a1f5a"/>
    </g>
  </g>
</svg>
