<svg xmlns="http://www.w3.org/2000/svg" width="26.439" height="30" viewBox="0 0 26.439 30">
  <g id="txt" transform="translate(-310 -9592)">
    <g id="Group_3303" data-name="Group 3303">
      <path id="Path_228" data-name="Path 228" d="M76.555,27.321A2.681,2.681,0,0,1,73.871,30H55.419a2.681,2.681,0,0,1-2.684-2.679V2.679A2.681,2.681,0,0,1,55.419,0H66.906a2.015,2.015,0,0,1,1.425.59l7.636,7.637a2.007,2.007,0,0,1,.588,1.419Z" transform="translate(258.574 9592)" fill="#fff1e2"/>
      <path id="Path_229" data-name="Path 229" d="M57.23,30H55.419a2.681,2.681,0,0,1-2.684-2.679V2.679A2.681,2.681,0,0,1,55.419,0H57.23a2.681,2.681,0,0,0-2.684,2.679V27.321A2.682,2.682,0,0,0,57.23,30Z" transform="translate(258.574 9592)" fill="#ffb770"/>
      <path id="Path_230" data-name="Path 230" d="M288.557,9.646v.98h-7A3.63,3.63,0,0,1,277.932,7V0h.976a2.016,2.016,0,0,1,1.425.59l7.636,7.637A2.007,2.007,0,0,1,288.557,9.646Z" transform="translate(46.572 9592)" fill="#ffb770"/>
      <path id="Path_231" data-name="Path 231" d="M317.472,11.735h-6.819a1.815,1.815,0,0,1-1.814-1.815V3.1a1.994,1.994,0,0,1,.59.408l7.636,7.637A2,2,0,0,1,317.472,11.735Z" transform="translate(17.477 9589.081)" fill="#fff1e2"/>
      <path id="Path_232" data-name="Path 232" d="M54.415,224.829H32.805a2.415,2.415,0,0,1-2.414-2.414V213.6a2.414,2.414,0,0,1,2.414-2.414h21.61A2.414,2.414,0,0,1,56.83,213.6v8.813A2.415,2.415,0,0,1,54.415,224.829Z" transform="translate(279.609 9393.188)" fill="#ffb770"/>
      <path id="Path_233" data-name="Path 233" d="M34.314,224.829H32.805a2.415,2.415,0,0,1-2.414-2.414V213.6a2.415,2.415,0,0,1,2.414-2.414h1.509A2.415,2.415,0,0,0,31.9,213.6v8.813A2.414,2.414,0,0,0,34.314,224.829Z" transform="translate(279.609 9393.188)" fill="#ffb770"/>
    </g>
    <path id="Path_6764" data-name="Path 6764" d="M2.894.75A.393.393,0,0,1,2.6.635a.419.419,0,0,1-.111-.3V-5.642H.4a.384.384,0,0,1-.271-.09.337.337,0,0,1-.1-.26.337.337,0,0,1,.1-.26A.384.384,0,0,1,.4-6.341H5.373a.384.384,0,0,1,.271.09.337.337,0,0,1,.1.26.337.337,0,0,1-.1.26.384.384,0,0,1-.271.09H3.291V.331a.43.43,0,0,1-.107.3A.377.377,0,0,1,2.894.75ZM12.115.111a.367.367,0,0,1,.1.25A.357.357,0,0,1,12.1.63a.382.382,0,0,1-.271.11A.373.373,0,0,1,11.544.6L9.335-2.306,7.117.6a.336.336,0,0,1-.281.14A.363.363,0,0,1,6.575.625.362.362,0,0,1,6.458.36a.366.366,0,0,1,.087-.25L8.87-2.9l-2.2-2.856a.38.38,0,0,1-.1-.26.353.353,0,0,1,.111-.26.355.355,0,0,1,.257-.11.346.346,0,0,1,.281.15L9.335-3.475l2.1-2.757a.346.346,0,0,1,.281-.15.363.363,0,0,1,.262.115.373.373,0,0,1,.116.275.352.352,0,0,1-.087.24L9.8-2.9ZM15.777.75a.393.393,0,0,1-.3-.115.419.419,0,0,1-.111-.3V-5.642H13.288a.384.384,0,0,1-.271-.09.337.337,0,0,1-.1-.26.337.337,0,0,1,.1-.26.384.384,0,0,1,.271-.09h4.969a.384.384,0,0,1,.271.09.337.337,0,0,1,.1.26.337.337,0,0,1-.1.26.384.384,0,0,1-.271.09H16.174V.331a.43.43,0,0,1-.107.3A.377.377,0,0,1,15.777.75Z" transform="translate(314 9614)" fill="#fff"/>
  </g>
</svg>
