<?xml version="1.0" encoding="utf-8"?>
<!-- Generator: Adobe Illustrator 23.0.3, SVG Export Plug-In . SVG Version: 6.00 Build 0)  -->
<svg version="1.1" id="Layer_1" xmlns="http://www.w3.org/2000/svg" xmlns:xlink="http://www.w3.org/1999/xlink" x="0px" y="0px"
	 viewBox="0 0 19.1 13.3" style="enable-background:new 0 0 19.1 13.3;" xml:space="preserve">
<style type="text/css">
	.st0{fill:#E9E9E9;}
	.st1{fill:#AAAAAA;}
</style>
<g id="views" transform="translate(0.537 0.5)">
	<g id="Group_2819" transform="translate(0 0)">
		<g id="Group_2818">
			<g id="Path_6550">
				<path class="st0" d="M9,3.7c-1.4,0-2.5,1.1-2.5,2.5S7.6,8.6,9,8.6c1.4,0,2.5-1.1,2.5-2.5C11.5,4.8,10.4,3.7,9,3.7z"/>
			</g>
			<g id="Path_6551">
				<path class="st0" d="M9,0C5,0,1.5,2.4,0,6.1c2,5,7.6,7.4,12.5,5.5c2.5-1,4.5-3,5.5-5.5C16.5,2.4,13,0,9,0z M9,10.2
					c-2.3,0-4.1-1.8-4.1-4.1C4.9,3.9,6.7,2,9,2c2.3,0,4.1,1.8,4.1,4.1C13.1,8.4,11.3,10.2,9,10.2C9,10.2,9,10.2,9,10.2z"/>
				<path class="st1" d="M9,12.8c-4.1,0-7.9-2.5-9.5-6.5l-0.1-0.2l0.1-0.2C1.1,2,4.8-0.5,9-0.5l0,0c4.2,0,7.9,2.5,9.5,6.4l0.1,0.2
					l-0.1,0.2c-1,2.6-3.1,4.7-5.8,5.8C11.5,12.5,10.2,12.8,9,12.8z M0.5,6.1c1.9,4.6,7.2,6.8,11.8,5c2.3-0.9,4.2-2.7,5.1-5
					C16,2.7,12.7,0.5,9,0.5C5.3,0.5,2,2.7,0.5,6.1z M9,10.7L9,10.7c-2.5,0-4.6-2.1-4.6-4.6c0-2.5,2.1-4.6,4.6-4.6
					c2.5,0,4.6,2.1,4.6,4.6C13.6,8.7,11.5,10.7,9,10.7z M9,2.5c-2,0-3.6,1.6-3.6,3.6c0,2,1.6,3.6,3.6,3.6c1,0,1.9-0.4,2.5-1.1
					c0.7-0.7,1.1-1.6,1.1-2.5C12.6,4.2,11,2.5,9,2.5z"/>
			</g>
		</g>
	</g>
</g>
</svg>
