<svg xmlns="http://www.w3.org/2000/svg" width="26.439" height="30" viewBox="0 0 26.439 30">
  <g id="xlsx" transform="translate(-290 -9557)">
    <g id="Group_3305" data-name="Group 3305" transform="translate(-20 -35)">
      <path id="Path_228" data-name="Path 228" d="M76.555,27.321A2.681,2.681,0,0,1,73.871,30H55.419a2.681,2.681,0,0,1-2.684-2.679V2.679A2.681,2.681,0,0,1,55.419,0H66.906a2.015,2.015,0,0,1,1.425.59l7.636,7.637a2.007,2.007,0,0,1,.588,1.419Z" transform="translate(258.574 9592)" fill="#ffd5e9"/>
      <path id="Path_229" data-name="Path 229" d="M57.23,30H55.419a2.681,2.681,0,0,1-2.684-2.679V2.679A2.681,2.681,0,0,1,55.419,0H57.23a2.681,2.681,0,0,0-2.684,2.679V27.321A2.682,2.682,0,0,0,57.23,30Z" transform="translate(258.574 9592)" fill="#ea2e7e"/>
      <path id="Path_230" data-name="Path 230" d="M288.557,9.646v.98h-7A3.63,3.63,0,0,1,277.932,7V0h.976a2.016,2.016,0,0,1,1.425.59l7.636,7.637A2.007,2.007,0,0,1,288.557,9.646Z" transform="translate(46.572 9592)" fill="#ea2e7e"/>
      <path id="Path_231" data-name="Path 231" d="M317.472,11.735h-6.819a1.815,1.815,0,0,1-1.814-1.815V3.1a1.994,1.994,0,0,1,.59.408l7.636,7.637A2,2,0,0,1,317.472,11.735Z" transform="translate(17.477 9589.081)" fill="#ffd5e9"/>
      <path id="Path_232" data-name="Path 232" d="M54.415,224.829H32.805a2.415,2.415,0,0,1-2.414-2.414V213.6a2.414,2.414,0,0,1,2.414-2.414h21.61A2.414,2.414,0,0,1,56.83,213.6v8.813A2.415,2.415,0,0,1,54.415,224.829Z" transform="translate(279.609 9393.188)" fill="#ea2e7e"/>
      <path id="Path_233" data-name="Path 233" d="M34.314,224.829H32.805a2.415,2.415,0,0,1-2.414-2.414V213.6a2.415,2.415,0,0,1,2.414-2.414h1.509A2.415,2.415,0,0,0,31.9,213.6v8.813A2.414,2.414,0,0,0,34.314,224.829Z" transform="translate(279.609 9393.188)" fill="#ea2e7e"/>
    </g>
    <path id="Path_6765" data-name="Path 6765" d="M5.49-.531a.325.325,0,0,1,.09.225.317.317,0,0,1-.108.243.361.361,0,0,1-.252.1A.35.35,0,0,1,4.959-.09L2.907-2.709.846-.09A.316.316,0,0,1,.585.036a.343.343,0,0,1-.243-.1A.321.321,0,0,1,.234-.306.324.324,0,0,1,.315-.531L2.475-3.24.432-5.814a.336.336,0,0,1-.09-.234.313.313,0,0,1,.1-.234.335.335,0,0,1,.238-.1.324.324,0,0,1,.261.135L2.907-3.762,4.86-6.246a.324.324,0,0,1,.261-.135.343.343,0,0,1,.243.1.331.331,0,0,1,.108.248.312.312,0,0,1-.081.216L3.339-3.24ZM6.957,0A.366.366,0,0,1,6.7-.095a.319.319,0,0,1-.1-.248v-5.67a.381.381,0,0,1,.1-.274.356.356,0,0,1,.27-.1.356.356,0,0,1,.27.1.381.381,0,0,1,.1.274V-.63h2.907a.363.363,0,0,1,.252.081.3.3,0,0,1,.09.234.3.3,0,0,1-.09.234A.363.363,0,0,1,10.242,0Zm6.372.072a4.112,4.112,0,0,1-1.292-.2,2.64,2.64,0,0,1-.986-.545.413.413,0,0,1-.135-.315.354.354,0,0,1,.072-.221.211.211,0,0,1,.171-.094.435.435,0,0,1,.252.1,3.033,3.033,0,0,0,1.908.648,2.02,2.02,0,0,0,1.188-.3.979.979,0,0,0,.414-.846.679.679,0,0,0-.2-.508,1.429,1.429,0,0,0-.522-.31,7.838,7.838,0,0,0-.873-.243,8.509,8.509,0,0,1-1.211-.36,1.885,1.885,0,0,1-.765-.54,1.387,1.387,0,0,1-.293-.918,1.632,1.632,0,0,1,.293-.959,1.893,1.893,0,0,1,.819-.648,2.98,2.98,0,0,1,1.2-.23,3.483,3.483,0,0,1,1.175.194,2.472,2.472,0,0,1,.913.553.439.439,0,0,1,.144.315.354.354,0,0,1-.072.221.211.211,0,0,1-.171.095.548.548,0,0,1-.261-.1,3.059,3.059,0,0,0-.819-.5,2.557,2.557,0,0,0-.909-.144,1.9,1.9,0,0,0-1.161.311,1.023,1.023,0,0,0-.414.868.8.8,0,0,0,.365.715,3.677,3.677,0,0,0,1.121.419q.819.2,1.287.364a1.927,1.927,0,0,1,.779.5,1.254,1.254,0,0,1,.31.891,1.557,1.557,0,0,1-.292.936,1.9,1.9,0,0,1-.823.63A3.09,3.09,0,0,1,13.329.072Zm8.145-.6a.325.325,0,0,1,.09.225.317.317,0,0,1-.108.243.361.361,0,0,1-.252.1.35.35,0,0,1-.261-.126L18.891-2.709,16.83-.09a.316.316,0,0,1-.261.126.343.343,0,0,1-.243-.1.321.321,0,0,1-.108-.239A.324.324,0,0,1,16.3-.531l2.16-2.709L16.416-5.814a.336.336,0,0,1-.09-.234.313.313,0,0,1,.1-.234.335.335,0,0,1,.239-.1.324.324,0,0,1,.261.135l1.962,2.484,1.953-2.484a.324.324,0,0,1,.261-.135.343.343,0,0,1,.243.1.331.331,0,0,1,.108.248.312.312,0,0,1-.081.216L19.323-3.24Z" transform="translate(292 9579)" fill="#fff"/>
  </g>
</svg>
