<svg xmlns="http://www.w3.org/2000/svg" width="20" height="18.868" viewBox="0 0 20 18.868">
    <defs>
        <style>
            .prefix__cls-1{fill:#185aeb}
        </style>
    </defs>
    <g id="prefix__Group_1157" data-name="Group 1157" transform="translate(-8 -14.6)">
        <rect id="prefix__Rectangle_1417" width="3.194" height="2.132" class="prefix__cls-1" data-name="Rectangle 1417" rx="1.066" transform="translate(10.796 23.242)"/>
        <rect id="prefix__Rectangle_1418" width="3.194" height="2.132" class="prefix__cls-1" data-name="Rectangle 1418" rx="1.066" transform="translate(14.895 23.242)"/>
        <rect id="prefix__Rectangle_1419" width="3.194" height="2.132" class="prefix__cls-1" data-name="Rectangle 1419" rx="1.066" transform="translate(19.121 23.242)"/>
        <rect id="prefix__Rectangle_1420" width="3.194" height="2.132" class="prefix__cls-1" data-name="Rectangle 1420" rx="1.066" transform="translate(10.796 26.457)"/>
        <rect id="prefix__Rectangle_1421" width="3.194" height="2.132" class="prefix__cls-1" data-name="Rectangle 1421" rx="1.066" transform="translate(14.895 26.457)"/>
        <path id="prefix__Rectangle_1422" d="M0 0H1.633V7.199H0z" class="prefix__cls-1" data-name="Rectangle 1422" transform="rotate(-90 25.743 4.942)"/>
        <path id="prefix__Rectangle_1423" d="M0 0H1.633V7.199H0z" class="prefix__cls-1" data-name="Rectangle 1423" transform="translate(23.584 26.269)"/>
        <path id="prefix__Path_1025" d="M19.351 30.291H9.419v-8.81h14.275v2.328h1.457v-6.917a.732.732 0 00-.727-.73h-2.876v-.835a.727.727 0 00-1.454 0v.839h-7.07v-.839a.727.727 0 00-1.454 0v.839H8.727a.729.729 0 00-.727.726v14.09a.729.729 0 00.727.727h10.624zM9.419 17.619h2.149v.619a.727.727 0 001.454.035v-.653h7.066v.619a.729.729 0 00.727.727.75.75 0 00.727-.692v-.653h2.149v2.4H9.419z" class="prefix__cls-1" data-name="Path 1025"/>
    </g>
</svg>
