<svg xmlns="http://www.w3.org/2000/svg" width="18.363" height="20" viewBox="0 0 18.363 20">
    <g id="prefix__up-arrow" transform="translate(-31.008 -10.925)">
        <path id="prefix__Path_1209" d="M37.272 29.256h5.6v-9.1a.83.83 0 0 1 .828-.833h2.828l-6.358-6.387-6.35 6.383h2.62a.83.83 0 0 1 .828.833v9.1zm6.428 1.669h-7.26a.83.83 0 0 1-.828-.833v-9.1H31.82a.844.844 0 0 1-.588-1.424l8.358-8.4a.845.845 0 0 1 1.171 0l8.354 8.4a.823.823 0 0 1-.588 1.424h-4v9.1a.825.825 0 0 1-.827.833z" data-name="Path 1209" style="fill:#9592a7"/>
    </g>
</svg>
